<mxfile host="app.diagrams.net" modified="2021-07-01T12:11:50.270Z" agent="5.0 (Windows NT 10.0; WOW64) AppleWebKit/537.36 (KHTML, like Gecko) Chrome/91.0.4472.124 Safari/537.36" etag="dRYdt9b_WKJfKqOXeS4e" version="14.8.2" type="github">
  <diagram id="Zn5pQ4iBKAhL1JGaib4u" name="Page-1">
    <mxGraphModel dx="1108" dy="482" grid="1" gridSize="10" guides="1" tooltips="1" connect="1" arrows="1" fold="1" page="1" pageScale="1" pageWidth="850" pageHeight="1100" math="0" shadow="0">
      <root>
        <mxCell id="0" />
        <mxCell id="1" parent="0" />
        <mxCell id="RTB3VPZTspQ0HVC2-CuL-1" value="" style="shape=image;verticalLabelPosition=bottom;labelBackgroundColor=#ffffff;verticalAlign=top;aspect=fixed;imageAspect=0;image=data:image/png,iVBORw0KGgoAAAANSUhEUgAAApQAAAFiCAYAAABI7EilAAAgAElEQVR4Aeydd3zW13X/iZnaE0lsL2zilWk7sROnTRM3cZu0TZxRO2mctPmlqRvXbZM6bdOV2MYghhBD6Fka7GGwscE2YMBgzN4gQANtPXqWnr2F37/Xud/nC48VCYQNGJznj/O63++953vHueee87nn3kcacujQIS6JDh68NP5LrT/Fn5JvQgcOHjqETpekoykdSulQSgdSOnCVdeC9tkr8ZMpXpuz2JeKrq6yzl3t+hhw9epTB0yGOHDnMwaNHOXz0CEeOHk1RSgYfWAcO6zI8cpQjQol3yddJ8tSzzpPEp/On0vOyS8miP1kc4ciRIxxO6c65NZbSk/70ZDB5R87ZJqVPR8QfHubIe/xiykem9GswujQQj+hYQs+U39Ps1+Dx2qVgu8vDO+TEiRMMjo5z/MQx9h09xsb9x9m8/yhv7jvCm3uPsHnfeVJ5kp+ilAz66ICuJ5v2HuE8HWXjvqNs3nuEt/cf4cDhoxw8doxdh4+ydb+mV5tEv3Q9kzTpWcp00uvXUz3/SqdXu70rPZ7rv/6jbNr3XhI79c7BwwoEHDx2nHcOHmWrbr90fUqyY/qcJqf9yUUv769M8vRySQfi0fkuVD7Ysou1M9i2rrV6BjP+y9Xni7Yl9kvNp2a7Nu49ypa9h9lz6DCHjx1j/9Hj7Dio+UexVReqT/p8KZRc10DfJfPI88X4BiofbH5ye/19k1w+mP58EJ6r2ZaMNbm9i429v/K+eXp9er68i36Jj9y05zDb9x1m/5FjHDs+WNx2dfmGnDp1isHQyVOnOHryJKv3neTny47wg5pDfK/2EN+vlfQg3685yF+nKCWDQeiA6IpO36k5xLdrDit9+vXKAyzbcZQtR+pY9PZhnnlxLz+o2c+j1Qd5tGY/36nZy6O1+3m05gDfTtC3ag7wV7UH+Fat5B3k27UHE+khvlV7kG/VHNRSeb4YCW/NgYvSX0mbOl/1Ab6doG9VH0DoPeU6Xyq9qFwHI/uL8iTmQPHVanMh8/PD6r38du1+XtlzjB3H6rBsPcg/L9/LE7Vitw7xPaVjh3i09mASHeDRWiHRq0PnSXT2HN/5byRP0zHR6UM8KqTzKT0XnTxPep2KL1Gu5+l8+rten6R63kA8jyb6qpdLqn9zrq2kPJ1P5xlMW3o9kurf6fXo7Uk/LlQu3+n1DGZcg+Hprz29fx+0LX1cqj41vwm9qDnIE4v2MfOVfWw6cIJNR04we/NBfrZsH9+r3s93qg/wnUT6aPUBkum71Qf4XoLkWXhVec1Bze4l3rU6ztsa0Wm9Hil7z7dJNknnG5hH2tHa1dvQU73+vml/5boN1HmTefQyPU3m0Z8l1csl1fOT60nm0cslvdjYhWegevq2lVyv3p/kvMHWI3z6d4Oppy+vfK+NS3zfIb5dfZDvVu3jHxa9g2HTfrYfPs6Jk6c4dfIkp07WcepUMp0cFKYbDO67VJ4h9fX1DIZO19dzuL6eij313DXzBKOfrSN9ah0ZQs+fIOv5OrIVnSD7+RSlZHBhHchJ6MjI5+sYOlXTnU9MP8zPFx+k6u3jVO+p48m1x7in/DjZ0+pIm3qCjKlHSXvhGCOmnmDYVO07SYcnaMTUOkYmaMTUkwx/IVEmqf6svpXvB6DnTzDsEmhoglfS5OdLqSPFe2kyv5i89LnQ5yPtueOMfv4w98/awzOrD/DSgZPU7q7jB4uPcfvMOrKnniTt+ZPKlqU/f4I0oak6HWfU1BOIbgkJX9pzwi/PdaTLe+J51PN1iD6PfP4ko/rwpT1Xx6jntHwp13l0vnSpM1Euee+XR+ub1s5A9ah2LkNbF+3zORlcuD8Xree5k1yMR2R70bHr/XmfY9fnTJsbmf8TyJyLDhQ/f4SvzNnLtHWHWLP/JHN21PEXtUe5cfpxip6to+C5k+Q+d5Is0TOh5zTKeu4kOQmSZ8mXsSq9kjE9W6coI5GOfLYOnUY9W4eQlGUlUuGXPJ1HUnlPf7aOzARdiEfqEhJ+ve3kVG+vb57enpRLmXyv15HcH71c59HrkXyd70I8ye3ofBdqayCegdpK7nNfHnnXy6Xfenlyn/Rx6Xw6j6RC+nj1Pifn6XVKnpTLfKU/Kzqg6UHms8eZ+Nw+/mLBTuZvPMje46c4dfo09fWn+pDkDQ7XXW6+IU1NTQyGGpuaONbUxMIDTdxe1kDBC41kTW8ke3oDWdPqyU6m6fVkpyglg350IGt6vdKXzGn1ZEyrZ9j0eoaUnmb49NMUTz3FfTOO8OSSA8rhLzrYwD+80sCdFafJKT1NxvR6RpbWM6K0npHTG0gT3ZveQO40jXKmNZIz/cKUPa1B6azo7e/RNNHlBqRvF6QX6slMpovxp8ovLM/LJR99TpLqy3qhnpxp9eRPP8WEaUf5wux9/O9Lh3n50Gkse5v47rJGxs5qJH16g9Kx7OmnyJp2ksxpJ8madorsaacRnU2ffpr0aafJfqFekcy/6G9/lD5Avs4r5R81Hn1MH7VxyZwlj02eRyk6TcY0TSdEF/JfOM2kacf40wX7mLr+MC8dOs2Cdxr4zqLT3DOznolTGyl5oYmCaY3KXuUkbFbetEbypzWQd86GNZD9gkZZU+vJnFpPRoKSn/U8SYUvZ2o92X34B8uTNrWe9MS3UlfW1IYBKXOAMskfqEzq08v78iTn688Xa/9ifHq5pP3VlVw+EE9/fe6PN7mu/tpKrqdvuf5tcv57887Pv8xP2tTT5E49xeSph/hO5S6qth5h/4l6GhsbNGpqoLGpgaamxkFhusHgvkvlGdLc3Mxg6ExzM3XNzRgONTO5/AwF05rJKW0ie3oCWJY2kp2ilAwuogNZpY1kljaSVtrIqNJGRk5vYnhpA8NmnCK99DRjpp3is7OO8Ivlh6jdfYolh5p4akMDd1WcImNmPTfMaGBkaQN50xsYPb2B4mmNjHlBM9bF05oonnYmQfLcRGGCtDItr3j6Gfol9W0TRdMuTKquFwbm0du6WD2p8oFl+EFkMzox55KOfuEM+dPOkKfmvJGbp9XxpdmH+c3ao7xypIGa/c18b0UjE+ecJrv0FBmlp0ifcZK00pNklp46tynMTGxgMksbyJjewIjporMaif6OKG1g5Awt1fT5fLnOl0qvf5mMmNGg7JU+5zLvw0vrSSutJ7P0NAUzj/HFir1M3XCIlw/Xs3B3I99bXs/NcxrIn9FETmkjWaUNirITqf7eNxWdk010+vR6lerP8p5Mkp9MyWX680DlyfkZajPdgLQrG2vZfGsbbC1P8lN0ZWUgtkXmQeQupM9f2vR6hk+vJ236afKm1TN5+hG+Z9iDacsRjpxuoOlME2eaNWpuPjMoTDcY3HepPENaW1sZDLW0tnKqtRXTkVZum9tC0fRWcmY0k13aTFbpGbJnpCglg4vrQNaMMwhlKpJNSQtZpS2kzWhCDGzR9CYmTWvkc2XH+ceVx1h+oIEVR5t5cn0jd1fWkzNTIkmNjBZexd9I0fQzjJ7ewujSFgqF5DlB+aUtCOnvg07lmwGoaHoLxdNlDfTDk8jvt2yA+gZqJ5Xfj3z7yFDNtz7vpS0UlLaQV9pKbmLeC6a3UljayujSVopLWxg/rYlbXqjngbIj/N+rx3ntWBOLDzXz1ysbuHW26FQjuTMayJxRT05pAwWlTRSWNqk0r/QMuaWazcsobSZthkbpygY2kz1DbGEz8j5qxsCkfydpf3zJ5Sme35fRhyWfdJlf8XkztDmWfmTMaGbkjDOkl54hs/QM6TMaKZ55jD+t3Efp60dZf7yJir1n+ObyBiaVN5GX8JmiR/mlzWg6JXp1Rj3Lu06Sp4I2pU2qXHuXvMtHUud7aPr5vuRPP4NQdqK99/AlvpO+SLnCAH3rukQeqUNI6rxQWyJnafNCPBfrj97WYOoZqD/S/uUYu9STLEfpm+iALntpQyijtIlhMxoZPqOJvNIGPl56jO8b97Lk7WMcaWyiubWZFkUtg8J0g8F9l8ozpL29ncFQW3s7De3tWI63M3leGyUz2smd1Ub2zFayZ7aQPStFKRlcog6I3sxoJXtGG1kJPSqY0cLY6a3cOL2Zz845zS9erGPZgUZWHG/l6Y3NfNrQRPGsM+TPbKJgZgOFM5rIndFC7ow2cma0kzWzXaX5M9oRykuQ/n6xVONvI2/GwJQ/ow2hi/FcqDxVdmH5DVY+OTPalP6IDik9El2a0U6mSiWvnYIZ7cpeic0aU9rOuOntTCo9w0PzjvM/r9axse4MLx5t429XNfOJ8hZKlD41kz+jmaKZzRRJOqMZ0c3cma3kzBS7p5HevuTlKmpX7afPbCNt1nspfVYbGTPatf7OFJ1vQ/El8WbIOJLqVzwzkuqZ2UZGUrnwnqtHby/BI/l6Xed4+rTVlyctqVye0/vrTx8e6U/feiQvefz98fQ39uR6pO/S/rl6EvLSxzTQ2KXe5Hrk+ffaGgSPtJ1cj7Qn8/ye+Z8p8yk2R/JbyZwptqiZiTNP8XDlIWZtOs76umYW7mvh0ZVnGFfeTMbMVmWv8me0kj+jBUnFj2o2UEszZ7ahkdQpedq73h9J9We9T3q/9DL5fiAeXXa6LJPr0J9Fn+VZ6UE/dcm3Mq+jZrYxMiHj5Pb0uj8ojz4uvZ4RiT7115aMWfVH1kJCZtIPvQ75Rq9H+twfz4XGlVzXubYuUI/wSBsjE/0ZqM+in9Iv4RfSZae/Syp6M3JWC8NntZA+s4XCGc3cPuM43zftp3rHCY6faaV1kHhuMJjv/fAM6ezsZDDU0dlJU2cnVXWd3LqggzEzO8mb3UH27LYUpWTw/nVgVjvZs9rJks3JrDbyZrVRMrOVcTPamDCzhfvmnebpNXWsPNzE0hPt/OPr7XzW0EbRrBbyZ56hYFYzObPayJzVwchZnQyb3anSrFmdvB+SejJSdN3IIH1WBxejrFkd5M/qpHBWJwWSzuxkwoxOJs9q5ksLjvP8a8d562QLa4528Ldr2rirvIWxM1somdXKmFkt56h4VgsFs1rJn9V2jgpmtpGfRAUz2xESPZYNdzJJXr4qP/99crk8K56k+qWti/EM1FZyXQPxJI9lMG0NxNO3rb7tJZfrbfYdl7zrZXral6dvPX3b0fmT+frjSS4fqK3++qPzSipzL3NdOLPj3JyLDRMgljerhfGzT/GI+RAz3zzJhpOtVO5v489WNDNprmxUWtVcC7/Yv7RZ7YycnaBZ7Yya3aFo5GxNv8UmjZzVwahZHcrWybvYquxZHeQkSJ6FJF+tidnas+h/Xz7Jkzr6lvWtS8rTpN3ZGr9ej6R6mfRRaCAe6Ut/PFLHuXoSdQhfWqLfA7U1ok9byfXobSXz6GPU29J5kvuczCPykz707XMyT/LYk9vq2+eLtSX1pCeNR+cXmcv8iEz1foh+pM1uI2O2+DvNX46e2cKds07y/erDLN1dT11LO4LVBoPprgTPEKvVymCoy2ql2Wql+pSVyQu7GDPLSt7sLrLLOlKUksEH0IFOsss6yVIylE1KJ0Wz2yme3ULR7BbGzW7m3nn1PP1SHUuPnGFlXSfPbOzkc8Y2JpS1Uji7TW1sMss6GFbWyQ1lXYyYbSWjTKiLzDKroqwyKxp1kVV2njL7PGeUdZJW1kGaSuX59ym9rBPhS9H1IYN0NcdW8so0yi6zMnq2lQmzOpk8u4WvVBznufV1bD/VytrjXfzd2nbumt/CmNltFM9qP0ejZ7WTO7ud7DKNcsra0aiD3LIOchTpean0vHw+urKQec9LzH1mWTsZZR1kzZZ1ITakjeI5jXzVfIKyN0/xxsk2jAc7eWx1K3fMbaVotoDBLjJndzGqrIvhZV2MTJC8C8m76K/UN6Ksk5FlnWQmKKtMs505ZZ0IiR3VbKnGI/ZJ55F8nU9SyZd69PLksuRn+U74pC5J9Xr6tqPbQuEZ6HudR29Tr0vvi17et196W3q5nuptSbnOI3nJ5X3bEr6+PPKu16HLRq9DT3UeKdd5k+sRPnm/2Nj1eqQOvS3J00n8jczzqLJOxM/IfA+fo9GIOZLfoXRBx125szsYU9bOx+c08ljNcRa9fZpTrZ0IXhsMrrvcPENsNhuDoW6bjVabjdrTNm6r7GbMbBt5Zd1kl3eRk6KUDD6IDszpInuOleyybvLLuiku66KkrJ2islZKZrdz46x2Pl/RwD+9fIrVx1pZc8rKLzd18oC5jTFzOskX0Dini2Fzu/jY3G6GldtIK+8mo7yb9HIbGeU2MufYyJ7TTU6CchOpnidp1pxu0ud0MUqofGBKL+8iq7xL6b7of4quXRnIPKWXW8kq76ZwTjeFZaILohtW8udYmTDbym2z2/hSRR3T3qhj++kO1hzr5qfrOpiyoJ2i2V1Kv3LLrOQIMJ3TSWb5e0nXBUmzyjtT9Acig8wkO6D0Yk4nWbotk1Q2tHM6GVd+hr+sOkb51tNsqu+k+pCVv17VzpT5HYye3UVOWTej5nQzfI5VpRmin0pHu5WuZs6xIm2J3enP9iT734FsUX88ut5eyIcn16fz63Ull/V9Fp6+eX3fB8szEF9yf/rW3fd9oDqS+QbDI/wD8X3Q/sj3GYk5llR/1uc9rbyLEeVdpCV0K6+sC6H8OV0UlXVxZ3kTj1UfZfmeRho6rAhmGwy2u5w8QxwOB4Mhu8NBm8PBono7txnsjCmzkzfHTnZ5NzkpSsngA+qA6FH2HBt5c2wUlnVTVGalaI4Ayy4mzO7mptldfG7BGX71SiNrTnSwtt7GrzZb+Yy5izHl3WSW2xg218oN860MmWtjaLmdtLkORs21kz7XTuZcO1lzbWSXa5STSOVdfxbQISBUwOiFSHiEN6X71/7a1+dU5iq/3Eb+HBtZsuGYayVjrgYyi8tsjJ3Txh8Z6ijd2MiOeitr6uz8+OVOplSIA7EzIrFJ0Zy7OHiNssqtSg+U/qpneU/RH44MNDsg4xU/KBvVXGXHZHNsJWeO5HdxU3kT36g6yfwdTWxp6MJyqJvHVndw2/wOtdERmzK03MpwsS1qc2tTNi1njk3VIXqcTIO1PZpevnedJuclP/fnx/uWy3t/fHpeMn/ys17eNx0MT99vkt8v1p++vBfjv1B/LlQm7SSXJz8n9yH5OZlHf06e4+RnKc8s72aUCpKIr9R0TfRL+KTeknIrH59zhscXHWfZ3jM0dNrodjgQ7KbTYLDeB+EZ4nK5GAw5XS46XC4WN7q4zeCkpMxJbrmD7Ll2clKUksFl0gGlT+V25fwLy22MLrcxZo6NCWU2bizr5v4FbTy9rpk1JztZ22jnX7bYuL/KRu58ByPm2Uibb2X4vG6GzrUzap5TUdo8OxnzHAlQaVc6K+0k667+fqlpSvev3fXf31zKfGn5NrJlg5HQ29xyG+PntPFFQwPPbWxia303a086+NkGGzeabNwwz86wuTbS59rInNudoPPfp/Tg2tWDD2Nu3qtjNvLKu5kwt40/rznFnG2NbGnoZslRG4+v6eL2hVZyy7sZOdfGsHkakJRTlTTZCJfb1YZG19Pz+puS94cxr1eqTU1fBp5TvbxvmlVuJ0MFS7RvC8pt3Davhe8sOsXifS2c7rJjc7pwOF04nYPDeoPBgwPxDOnp6WEw5OrpobOnhyVNPUw2uiiZ00PuXCfZ8xzkpCglg8ukA6JPQnlzHRTMdVA410HRXBvjy62MK7cxsdzO/Qvb+Nf1zaw+aWV1k5NfbnVyT42d3AV28ubZyJ5nI32ejRHzHQyf72DUfAdp850KVGZd5n6mdP/aXf+6Ll1ojnQeSeXIqWBeOw9YBFS2sK3BwYunXfzwNQfjLHZGLHCQLhuTeXYyxfHPs6fs32VaTxeao+uxLFmvcuY6yFVkZ+K8Nh6pbWDejha2NtqoPerg8Ze6uaXSSo6yW5r9kw1wmuhkQr5S3/Uoh1SfL8+86fqky1N/z56r1S/voiuZ85zkz3dw+4J2Hl/eyKL9rZy2OrAPEucNBgteiGeIx+NhMNTj8dDl8bCk2cNkUw8l5R5y57nInu8iJ0UpGVwmHRB9Ujo1z6X0K3+ek6K5DsbNtTFmbjfFc51MmuPg85XtPP1qK2tO23iluYdndji5t9ZG8XwHGXOdZM21kzHfTtp8O+kLnKQtcJEx30XWZepnSuc/Oute9E02HDfMtzN0vo2C+Z183tzC/21qZWOTgxcb3Px0s5Nbq+zkzHeQKTqmUmfK/qXW0wVtv27PJM2a5yJznoOSBR08sqiRuW+1sL3ZwbI6Fz98pZvJBhsF81wUzHOSp9u/+S7ydJuYkvUFZf0HaZMTeqL0a76LdKEFPRRWuLizopPvLm2gZm8Ljd0uXG4Pbp08HtyDxH6DwYc6zxCv18tgyOP10u31srTFy2Szm5K5XnLn9ZC9oIecFKVkcBl1QHRKp5z5PcrIlgiwnO+gYL6L0fPcTJzn4nPGTv51Qxsv1dt5pdXNM9tdfLZWHL6LzLkuBIwWzreTkwCUstCyLmM/U3r/0Vj7omujFvQwZIGLG+Y7SZvvIG9BN/dXt/A/b7ax5YyLlxvdPLnZxRSzlDnVJiVzgZPsBa7U2k+tqQvqgG7Lsha4SFvgZOQCO+Mq2vnz2kYW7GzjrVYnS+p6+ME6O7cadBvXQ9E8N8Xz3BTO7yF3fsrXpuztwPZWdEx8W+aCHtIq3GRXeBhT4eKOig4eX9rA0n1tNNnduDxe3F6NBNMNBvtdCs8Qn8/HYMjr82Hz+VjW5mOyxcOYeT5y50vH3eSkKCWDK6ADoltKvxa4KVjgpnCBm/wFbrIXeMhZ4GHc/B7uM3Tx9Pp21p6281qbh/98x82nap0KeObP66F4vp3RCxzkVPSQVeEh6wr0M6X/17cNEB1Lr3BzQ4WboRVuhle4GVbRQ85CG5+vbuPZrW1sPePgtWYvT77p5q7qHnIr3Mp4i5NL2cDre/6vxvoVHcmsEGffw/AKF2kVDkoqrHx90RnK325ne1sPy057+OEGBzcZnRTPFzDpZew8LyXzPOSnfG3Kx17Ed4mOiX/LUH7OQ26Fh9EVPdxR0cljS5pYvL+DegGVPh8enw/BdIPBfpfCM8Tv9zMY8vn92P1+lrf5ua3Ky5h5fnIXeMhe6CEnRSkZXCEdkJ1WToWHvAUe8iWt8JBZ4VGLpqDCzfgFPdxntPIvr7axvsHBa+1entnpUZFKiSRlL3AweoFTLSwBAaq+hV5yBqSUPv+hrWexYRkLPQxb6GGoThUeRi1wUbLQxpcXt/Dctha2tThZ1+Tjyc0+7qjyUrDAS+4Cb0KnUnrzh6Y3lzJepWMVHkZWuBlR0cPIhT2MqnAxdqGVR5a0MH9XJ9s63Cxt8PC9V1zcanRRNN/LuHk+BSoL5mt28FLaTPH+4a3JrIUSNJFxaz4ut8JLSUUPn6js5m9WNrP4YCeNDrcClD7f4LDfYPChzjMkGAwyGPIHgziCQVa0B7mtys+Y+UFyF/jIXugjJ0UpGVwBHRDdEsqtOE95FT5yKnxkLvSQXSlRJDdjFroVqPz319rZ0Oji9Q4/v97p5s4aJ1kLXeQu9JC30E22LLJKHzmV/oEp0WZKp/9w1rXoWMZCH8MW+hhamaCFPkZUeMle4Oamym6+sriV57a381aLm5eaAvxsk597qvyMvgJ6n9K9j57uaTrmZcRCDyMWuhm50M3wSjcjKt0UGOx8bXkb8/d28XaXh6UNPh7b4OYWk5uxC3yULPBTIHYvZZtSfvYi9kb0TPQkt9KvSHxdXqWPsZUePmns5kerW1h6sIsWlxdfIEgggf8k1Z8HgwcH4hkSCoUYDAVDIZyhECs7QtxeHaKkIkRuhZ/sCznnVNnAwCUlm4vKRnRLKG+hn9yF2rOkBQnKq/SSafCQX+llTIWXe03d/GpDF5uaPWzuDvDP73i5Z1EPeQYfww0BRhgCZBmC5BoC5CSe5V0oW6dEmxcEnVd57nQ5JKcX65/OezG+VLmmVxmVfoYLGTQaZvBzQ6WftIVeihe4uXmhgwcXdfK7tzrY2urhleYgT2/xc1e1l/xKH5mVftIr/Ug9WUk6dD3Og/RZ9ELvu56mdOUCG9GL2ASRoehFWqWPEQYvww3ec6lsYooMTh5Z1sb83Vb22PysbvHz+AY3t5ncjFb2LkBOZWBAf5uao/c/Nx8lvRY9EB+ZXxk45+eyDQEKDQHGG7zcY7Lz1ytbWXq4iza3H38ohGA7nQaDBS/EMyQcDjMYCoXDuMJhVnaGmVIdpqQiTO5CzTGLc05RSgZXTAdkcVSel29eZUBbMGKkDWJIfGQtDKhd/L0mO//xho3NbV422oL8604fd9Z4yDb6GVoZYrgxSJbRR5YxwHBjiGHGEMNNIUYYg6RJ2TWmy2IMZIw6Zct4DX7yEpRvCNCX8q6xMVwxvbiM45R5TxcyJsjgZ5TBT7rBT/5Cn4pElhh6+OKSLqbu6ObtDi8bWoL8/E0fd9Ro+jTUGGCo+k4cf1DprMyXNmfn9fdalkdffdP1TtLraRzXoox12YpOpRv9ZAgZfKQZ/GQa/Ew0OPj6knZM+63ss/lYeSbA4+vdTDK6KVQ2L3jOz8oaF9LXvr5JvhbHnerTVV77ur80BslWFCDPqIHKsZU+7jDaeHx1C8uOWGl3B/CFwgQTNBgseCGeIZFIhMFQKBKhJxJhVWc4EaEMk1epKXiuMchHigxBNbZ8QxCdtLHKeCXC9REb7zU8fyLvczJPPGvvSYu0MqBFhRYG1PHQ540Onnmtm+3tXjbZQjz9jo87F7vIkOhTZZA0g48Mo4/hpgBDTUFuMIVUOkqBzQA5xsCHrs85CUOQZfSTafSjp+LUBUwWKgow2iAUfA8VJnRUyekanttrxWaIrN9Lmm4JABA67xB9jDE6+eKSDl54u5OdbV5ebw3x1LYAtywOMMwUYIhRIpwaoJQogXyr6lA69eHr1cVknm0MnNO1TLXxEv3zKZJN2cW+T5X37+E5rNUAACAASURBVBs0/dJsi9iXc5SkX3JMOaHSxTcXt2LYbeWAPcDaliCPv+rmNqOXooWykQ6SmdCrPPFTCRKflFrv/cv+D0onlR7oNku3a/p7AAnGjK708nGJVK5qY8URG63uAIFQhFA4Qjii0WAwYX88gwaU0pAClF0Rbq8JM6YiQl5l6COnxLLwcyuDFFQGEccszlrSwkoNZEpZClB+CAt3ICCfOKpOMwQYafSpI8eSCg/3maz8ZlMXWzt9vGEP88+7JJLUQ0Glj2whgzhJPyMSgFJA5UhjSB1/XwuGWfRQdpc6kNRTAZT558Ck6GeAIkVBigwaXQ5A+V6ApRumC6cfRcN9Tg6GoIoipRl7yDfbeGhZO9N2dLO7I8BrrWF+ujXIjYsl6i1XK4IqQinOX3f0ej3XuozeCyjPb2RkrUjZtd7/a7V/F53/c5vlABOMLr65tJ3q/XYOOQK81BLkifVepihQGSRHfFFSsEOCHvJ+Ldita1X+fzD9SgS7RBeS9UGe5dREnZwYghQb/NxtdvKTNR2sOGan3RskkACU/QHFweYNiUajDIYi0SjuaJRV1ii310YoqYiSXxkhxxAi1/jRoRwZiyFEoSFEUR+SvDxDCOFJpo/S+K/HsWQbQ6QZQ9xgCvAxk5dRBjki6uGzlk7+fVMnb3eH2N4T5Ve7/Hyqxs0Yg1dFjTLlmNsU4gZzmCHmMDeYQ4wyhZD6Pmw5iH5JP7KMQTJV1CigUolsCGAs7kPJujo6oacfZAzSfpYxRKYxRPoFKCPBJ/wXai/HECZXyJigxDq60DfXUpmML90YZKiKbHsoNDt5aLGV6Tvs7OwMsL4twj9sC3FLrcyTthnIV/MQJscopNmMa2lM/fVF28RIlFLTN9E9jWRM77V7+pgGSvurP5U38DoROcp6GmkMMsbo4a+WtFO1x05dT5g3OsP8eL2PySYfoyvf659kvRdcpvU00FxK/tWcuwv142r25WL90MuvpmzeT1vST1m/+hrOM4UYawryCYuLH7zYwarjdjp8IUIJPCh4T2gw2DCZZ0gsFmMwFI3F8MRirO6OcfviCGMWxiiojGoOwhQm9yNCOTIOo7Zgiw1hhIrkXRnTIBmmAGmmIJkCPEwhFP9HZOzX4xyK/LPVnEUZZQwz1CSRSi9ZBi8lBi/3W7r5n81W9jiCvNUT4Zc7A9xT6yFfjjkrw2QZI6SbQgw3CyANM1Kv70OeU31cWaYQmaYgWQnKMYUQBzK2Msy4yjBjREeNmo4WG0MUGcNKV/ONIfKNYfLOpWGlqxfUVwF7iXELX6YpzChThBEJGmaKKBkNU3KKMNIoFCbDpNWtf5ucqnEYw2QbI+QYoxQYohQaouQZItfV2pFxyDhHmGTTIfdtfRQa5U6llak7beyxBnm9PcJP3wwwudZPrilItpAy4gPLJ1lW18Kz2DRN1wKky1oyBdWYZV2kJ2QgepElcy5AOfEseSIfSWU9Sv61MJ7rqQ+6LEXOmcYwNxvc/OWiDhbtd3DKE2F9R4THX/Vxs7o/GVZBjxJDiBJDmNEGWeuXKHNlH8IIuJC2c0yRhD2MqHWfZoqoOVVznWQXNN5LbOsS9UF0SHRR/GymSWy01ieRi+jd1ZpXfU5EBkKi42ITR6o+ae/J8rla/brUdvQ5S07zTWHGmYLcY3Hxk7UdrD7hoCsQIRSNEU3QYLBhMs+QeDzOYCgaj+ONx1ndHef2RVENUBpi5Boj5Jo/OpQjY9EBpXLYEeWw84yi0CFusPj4mNlLmjlAljlEjjn8kRr/9TaXMl9iCHONUbKNUTKNEQ3sG2XXHmaiwc8Xqm38bmsnB50htrui/OPbQe6q9THWIMYpSq4pRK45REbCcF0LcyrjyjaHlY5lmkMqFX0TQ1tgjDCmMsq4yhhjK6MUGSJq01NiClJsDFIgZApRJGQMJxxOhFxTQlb9rVclQ41HjFWOUZxLlDSjAPWYomGmGENMUYaJnA0xsgwx0g0i8wSA6KdemRtxCOKcZH4KDTFKDDEFLMW4XS/6JvMhzmS4KYwA6qHGEEONQfJMbv5omY25e5zsswZ5tT3Cz7aGuK1WgJnmcLKVfK59G6nrXLbomTmgbJxE7YeYZSMhcxgmI7GBkLEJgBESB59l1ACnzHOWrkviG4TkvR/dSOW9Vy7KlpnDat2LzuSJ/TL6+MbidhYdcHLaF2NdR4RH1/kYbfYr2Y9TNi7CWEOEQmOEfF3mF5G3tCWnBbLpFGCRbYqSZYqRZowx1BTjY+YoN5iijJR8tRnUbIfYpGyxuRep/4PObbbYC7WJiTDcFOUGs/RJ+id2/gJ27DL2S81HAlTL2hf/MMIU5WMiH1OMEco+aiD8Ssvjg8pT/176KfMna1RkXGiKMM4Y4hNmF0+s7WTtKRdd/giRaIxYNE4sNjh8qGPIQQPKWDyOLx7nRdt5QJlviCnHo3f2o5CKA1SOzhSg0ChHixGKDVFGJ8BzminACLOXTLMvEaF8r1H4KMjgehuDNmdiIEUfNYMjDk6iQ7J7v8UQ5AGLk+fe7FQX3Tc5Yzy1J8THF3uRCKBEKCXyly+bA5n/y2iU3q8szy18c4i+gFKcRmFllNGVMYoVoAwx2hhgtNHPaJNQgNGmEMUmiV5qzqZIdzQDOXcdBEgqMlBORAON2YY4WcY4aaY4I41xBSbzK2Oo9S82QKKNRs1AaQ4nfE6GMjcCQoYbJeoSJU+ilMYYeTJX1xmgFGA83BRhqDnCx0xhhhjDDFP3Vz18ZZmVmbu7OeAIsMka5f9tlatBUQrVmK+OA3y/uqZ/Jzqn6V2YTLMAxAjDk4BFkTFIkeiZ2EbRMWNAvRcnUon6K/CcADYCcGQjrtbnNbCm9HFey6maA5PITTaOWmS/2Ojj64s7qTnopM4bZV1nlG+95mes2a9O0CbIaYU6SYuozeZggjxqntUmT8BFlHRTlFGmGCONUXUiIVE4AR0ComRjKZtBmUcVOTSfX99XQpa6DMSmjDJG+ZgxyhBTnGHGOCOMMTKkPwPZscuoZzJe/YqOsm9ymmWMMcIQI82QsINy2iI6fhnbvRIy1evU513Gk2eKUmiKUWyKMtEY5pNmNz9ea2VNXQ/2QJTIJYJJAZVDent7GQzFenvx9fYqQDllUYwxlTHyDJrzzjVH+aiQtmgkIuQly+wiX/64rMHHBEOQ8Ua5dxCm2BSiwBxQkS3NWH50xn89zqOaAzHCphi5QmL8JMKmjE6IEmOISYYgX6xy8OybXeyxBdnsivGLnQHuqPVQaJKrDBEyzRHylFP98OczxxzVdpJ9AKXaWaroxfn7vHKsnaecuZ9cszj7ICUCJCWSmUgFWIpcck39jy3HJDITpyGkRRzlXda4gNdiY4wigxxZa9HFAkMiGmLQZK0MrjgfFVVNcjjKIcndMDkG9qs5kXkSQ6YM9nViO2Q+Mk1RFS0RQCkROwGVQwUoVwaZZHLx5eWdlO/t5oAtyPr2GD/dEuW2GgHQOqjqX/bX2pqTCMZIc4ShpihDzULa6UyR0c8Yo49xCZLnEpOPMQmScjndEb0pUM5K20AonbpO5vlamAsBS8p2mbQIokTkCox+/mRpF1UHHZwUUNkV5dHXAow3+9VJTJEce8tGU9a40EXkrUCbAvwCXEMUik8zaacbo9XVmcSGVG0wNbsgAEQ2m3kJQClr4mLtXFK5ql+3QZo9kk2ogFw5HRlhCJMtmMOgbV4vqe730VexTxLBHS0nQIaIkq+s5UIJMi2MUlSpnbbki818H/Vf6f73V7/qpxpXhKKEHdbWaoRxJolU9vDEWiuvnHJhC4SRk+l4rJdeofjFseL7BpQllYlokHLal1mxrvLkiJA1hYiQbw4xzuTl09V2Hl5t5duvdvHYq9189xUXD6/y8pmqADcb5Rg8iiiSOOjzyiTRyuT383JRCzgRAZBnfbL1tvVU20mc/y5bAYv31nmeV/i0CKmep6f6d3o7wqf1QerSd1S//73GJ2BGa1OvLzk9X+f5fn6YeTqgFDApYEWRMUaBKUaWOUqGOaTm62ZDhC9YnPz2zW722MLs6Inxyz0h7lnsI9ccZpg5xihzTI1dxqONOVlWV2+80rY6mjBLtEg/8pb7TkEmGN3ct9jNV1f5+ZPVQY1e9PPl1T4eWu7h/toe7jR71f0Y2X2OMUUpUmAyEX1U60vGpY1R2lE7fokcmmLqWY405R7gxCo/9ywN8YllYSZXhZhgDHFzdZC7Vwa4fUWYoio5LtMcoKSqrmTZGSOUWILcvcrLHasC5FRLuwIo4+fWwIepO4NtW2SVDCiHmSMIKbAl0STZcJp8fEHuVL7TzT5niE3WGH+/OcyU2hD5CmxHyZLjJnXspMl+sO1fTT6Zw3SzROx93L0syINrg3z5RT+PrPbw56t6+MZqN99Y3cOfr+7hzxKp5H95lY/blkYosAiokQ2MRmp9nrPp+onOB1lLmp0WW63bK12XJb2asroSbck6kmi4ig4qQCeAPqrW/p8s6qRaQGUgxnprlMc3Bpggm0ijDnj63zQmy0fZ/8Salb9PONni4aFlPr68WmyIl6+u9vKnq4R8fGm5rP8IkywBxijQKWtcs00Xk7Xepi4j/V1PNd91fr60zWwiKCC+1RhVIG68JcxES4B7lgb45PIIY6p+X4ekTt1nae2d94uSr/dB0vPtvzdfyrSjfy0CKndL5QqRnFLKvW+J0grovnuJn8+vCnOb/LUbAeHK7km9er/0NMm+JgIVetuS9tcXPT+5v5fzWbWfDCjNMdWPTPGTFjkCD3On2c0Tazp4+aQLVyiqjr0vO6CM9/bi742zxh7n44t6GWOIa8eLfSbrcg7+atSlJlAcrinMJKOPT5m7eGxNKxWHXGzsDrPHG2O/L8ZuX5wtzhjm01EeezXIHdWiTFGKzRFGmyMUmgXxRxhjijHaHCNPnKY5SpE5yhhzhBLhS4AdUbwCc5TRsmgSdxqkH3nmKAWKL0qx7B4Si0QmW8Cr8I9O1DnWKGHqGOOMErIOq13jKDmmMkdIM0cZbgkzyhKkyBxmnDlEiXIQAq5iZCb6VmKOMtYcpcQcI18plvRd+iZ3987fldFAgmZIrrTCv5851xaJ7GzFGMXPUb4pTrY5RoZF7gnFGG+IcVtllD+29PB/m5zsc4TZ6Ynxy10CKv3KMGSYYqSbYopfvpE6+xqk99PHS/1GjSlhuCVaoSKTMlemIA/U2Hn+nR42dkZ5yxFnmyN+Lt1sjfJKW4jKU0Ee2+zhrsUBxpmjjDNHlB5KZFD0cJw5TH4C2OggUMZbZIyr6JKUjTf7eORFOy+cCPFcQ5SvvRpgisHFN9e4mH0qyL8fjnLX8jBpclymgJKAXzG8YhviCmiONbn52ioHcxsiTG2Mc+/qGAXmODI316IuDTRP0lfZnKTrZNGe0yR6Z9buFgqAKjH5eXCJlZl7HBxwRhSo/NmWIDfXBFTUT+6mDTdr0fBrdfxin4qNHj63qIvfHQyzwRlnqyPOdkeMXY4oe+1hdtvD7HTE2OGI83aCVlnjPLEryo2L5AdhAnDENsUoMYmN0ag4Yb/Etul2U3RN2T4V1YwrWyT2TvKUvZO7XgmbKVGyYqOXe2u6eWithylLwhQlNvUyP8kylefk94Hm9lrLlz6LzZG1JCTzoW2MZR37eXhxB6aDDk7547xmjfHXr/m5UZ1MRLSNSyKqKOPSxy+p1CW+QUjWa5o5TLHZzV+8ZMd0KsQGe5yNCXuyXVJ7nE3dcVZ3xjHVh/jn7QE+s8RHoSWq5mOMKUyJKaRotNztNiUinWbxR+IXZW7ETwqf9mOtEXIXOTEm7W6tABqNxNbKhlbskJA8i38ssQR4aLmLOSfDTG+K8umVPgosQRX8KZAorgLbibWpnrWTmRI5YVE+QexmiAmmgPpls1wHEl8teYVmOdUJKv+pAcMIwy0Rsi1+bjfb+NrKLv5odYAJ1bJuo4ypcvDUTgfmzhiPbY5yqymA9CHLHCTHHFTyL1QbcwGVctKjbUTlWoEEPLJNMcTHSL9Eb8XX5ohvVv5dgiACWsMUmkWe+hWs3we+71dnRQ+UTpg0TCH90HUt3SL3aDUs9HGzix+uaWfDaSfOYFi7S9nbS7S3FzmtFjwo1Pd0e8jZs2cZDMXPnsV/tpc19l6mLIoz1hBXQsmxxMi9nikB7G4yhLjXaOfJVzpZd8bHsUCMXc4ob7RGeelMlJdbI+xyhKkPxXjdGedHm0PcXhVknCyYhLMeb4owyRin2HSWAnMvBaZeRpvijDdFuckUZqIYRUuEdEuETEuEHEVhcqvCFFRFyK+Kkm8RJdOcbo45zkhLjBEWAQFxJppiTErQLcYYkw1xbjJooepCc5C0KqEIw6viDKmOMrRKDHGUcZYwYywhZaDTzL1kWHoZbe6lyBwnzyyRojhZ5l5kLossYQosIbKqQmRXhcmpksUVJlstsig5En24Fuc7sdPSF5q+cFRqEWAox28xtRG6rTLGF01efrvZyX57mB3uOL/eG+ZTSwJqYct9QXGGArxyBJSKUbrKY5a5kEieOsI3C/jS3mVH/JVFVlYcsdMViHLaH2ePI8oeW4S9tgj77FEOOcM0BiO85Yvx9J4on6oJc7NZjFSIdEuMdEucQkuQXIvMb1TNseiiGHYBe7Ihko3QzWYv31ljxdAQZG5rjG++5udug52fvtTFpnYvloYoD6yUv4ogxlIAqtz3lPuUcQqMAuwjTDQ5+MGaNrbZQrxs7+Vra8VIxskw9ZJ9repSP3Ot5kPm5Bxpa0E2LLJBS5eNi3JeEcaaAnxxaTfTdts53BNWjvlnW8JMWhxmWFWUYefW/7W6lsTZevnioi5eOBjkdVuELbYwW50h9jqCdPj8OKIh6nwRdjqiit52RHnRGuMn70SYvCikNjETjDEmGOOKJhrjCI03xdRGXDbjYjcFVGZZQmRUhci3RCgyaxtysYGi80UW2fTKZkjkHSfNHOOTNQ6e3eVkRlOcL78cZ6zYMJmXqgh5VXHyE5Qn86i+u0bl3I+e6XbmvJ4l65zIRIINfv6kto2qg3bqfDE2WGM88XoCVEpUWAFKTX4KPChbom2IMhOARjZCcgpxi9HO/3vlDDutXhojcfZ5oux2RNhj12i3PcI77ggNwSjHQ3Fmn4zx6aV+SswBik0CoPzkqzvoUaX/8sMebQMeVjxFJh+FJj/ZZj/DLUGGWMLcYAkzUk5eFMiSDUQveeJ/xDcl7LgEXGRDkWaJkmcJ8MgqK292+ljnCHPfapsCfALEJHAj9lnsu3wrd0HlTuMYY4hxBvnBYq86nZpolJNFH5OMfsYaA8hfxMg3B8io8pFuCagfZcqxv9wdHmoJKuD4+EtWlrUE+I+Dce5Yqtm4u8xd/G63jVfsMX6yLcZEi3bHfbhFG5/c+cw0it+OMlKifnI/VXQ5ERCSVOWrDWqYDEuATHNA3WfMlfvpJi06KoC3WCKJMpcStLuArlxSWWJd6f5EpedsmqZf0p6A2ckmF3+zuo2X61w4JVKpwORZYmc1EkzY2wc/DhpQyoeBs2dZ4zjLlMW9jDX0kidRhss10A+pHhGooPRJlQG+tsiK+YiLA74YxpMRfvKqhz9b2sMXF7t5cImNH61tY9nxHk4EY1S3iTMNqt2XTPwYAZOmGLeaermpUqNJhhjjxKnKn4CQe3wSHjcHGWUJk1kVJlc5ce2IaLSASXHulqgCb6LYoywRPlYVZWi1FrG81RhnsjGOpAIkx5vEcIcYZwkpwCiAoVAWlEVAo0TneilOAMcCS5ysqhgjq2KkybO5lzRznBECKiwhRlvCFFrkV7faApGonoBecfrnjuks0r+rD64uacH01z8xOpaYWuQSjZtgjDC5MspDZg//s9nBbkeUrZ5e/u1AhHsWB5Dor2yY5N6g7JQVqOuv3iudlwQoBfQLyU7/y4vsLD/i5IQ7ytzDQX70koPvr7Dy+AorP1zRzc9WtWHc3cFRb5i1jjjfeinMFIn+WMKkV4UZVRUlXW0YIglAqemdfmQjgHK0Jcp4c4D7a+x8e62Dh9e5uXWx/MmSHv725S42d3ipaozyxVWJO8WmIKPlV+amEHLXWH45KO8TzQ4ef6mN7fYw6xxneXitRCp6SRNAKeO70jK8wvXrjl8HluIQhEabg3xhqZ05+1wc64nwpq2Xn2+LMXlJYk0ljPi1OH5ZK7Lmx1vcPLi8h0dW23lktY2vr+nkH15tY32jmwPeKNP29fBXq+18Y5WDb65y8PCqHj6x1M/EqrDa/N5o1K5byNUTWUeSim4VK5AYZaxJAGRE2Z4SS4jx5pCyaRI5kl8ei2MrVBucuErTLL0MN8f40uIuXmp0sbI7ziPrIqq+7KoY+VUx8qp6yU9QniWxEbvCOnC151BAYoHZx1eXtWOUSKUvxiZbnB+8IcfX8mMpOa3RNsLi36R/Kk3MgcyDRHrlGsxdlU6eWtfIO1Y3W+1xfr3FxWOru/jeyk6+v1JSK99ba+W5bVa1OToY7uUfd4SZZA4pnydRSfmhXb6Kygkm6KXIJLYzylij3MMUsBQg0+Qnw+wnvSrACEuQj1mCSLRSgiY6oMxNgErZTEhEu9gcVlHOSSYf315h5a1OH+sdET6zqoeRloD6NbxcOZMfj2mgUoCbBorknqdETeXuY7H8mTWTXEnxM94ofzhenoOUmIPqvrlELEUXxyZsvVz3mGLp5r82WznojlB6LM5dS2WTFeZuk5u/WG7nR+vcfHplgAK58iMnFOI3LRJJjqkIsABKOUKWCKucOsopooDcAn3TnbjKJN/KKadE8uW+6FD1S3LtpE2CSCrCerXtpLSnAm0R7jK5+fGaLjY0eLCHYipCKUAy3nuWXqE+oHLIu+++y2Co9913Cbz7bj+AUnaH1y/JQhNlHG/w870Xu3mtxctbtig/fj3E7ZYokyrj6s+cyK/uJhsd/OjFdjZ1+tnsi/PNNwRIan+rUn4AIVHIu00+HjD38FWzi69UOXmwysldph5uMvqVs81PKPEtJg9TqrwKDMqdI6F8S0yl46v83FbTw4RaNyNrfQyrDjDJHOCzZh+fMQf4lMnHp6vd3LXEyW21TiZW+RSwvNkQZIrJzadrXTxQ6+ILNW4+U+3hVuXotWP4NEvoHLAqsbi5q6abBxdZeajWxmere5iofr0eQPjSLWGyqnRAKUBX2y1fj/OdLVFYuVMpoFmMrhyBGEPcX+3it9sd7HRG2Obu5Ve7ItxbE+DGyqiKZiqArnaIH4KOC4hUdw17FZgUQCl3Iv94kUMBykM9MZ7eFWNKbZhJhjA3JWhKpYdvLWljU5OH/f5entwe5/bqKBMsXm6scnJLtZeS6iC5KjoZU6lsbsZYfNxW5eDWKh9jLNo1jTvNLu6t7mBybTdZFj9FBi9PvGxVgNLSFOPzq+XIJqj+xEyR0cedph4eqLLxhVorn1ps447qVn7wUj07HEFecfTy8FoBC3Hl8DRn9yHI9QrYK4meyfpIN8cZpgCzOMUgX1pmp2yfg2OeKJttZ3lyW0z9Y4h8dfQk6+naG7+AY7XZrIqTVR1RJyg56uTCz58td/Hi6SDveHr5+Y4gJVVBdTwnR5tFpgBFoiPmoNpQ3Gr0M8Xk4s4aF59Y4uGTS7zcsdjPxJqwumoj120kSnmzMcqdhhCfMLi5z+TgwVoHDyxy8rnFPm6vlci32KA4WZZexpiDfHd5K5ubnWzolutHbqZUexlTHaZYIpMWAZRnFah8L6C89uT8/uyodi98mIAYi5eHl7ez5LCdxkCMV7ti/PCNIDdX+dV1NDlpEbsn7SQDSjmSFZIN850GN0+93MQuq5tXu3r59sshbqmSH/sE1BHxBPEdhjD3W2yYD3XTHI1iaTvLnbUS1Ahzp8XP3RYfdxnd3F/t5KFaJ/dVubjN5FcgbZJRrsl4+LT4wkU2HlzUzd21TsZVu7UfthrlR5QCRM8y2hxXQZcpZi+fqXbzQI2Tz1e7udfo5G+WdfB2u5/1jij3rpBjarnK5eW2aheTqtxaFC/xVz7kekChJcCNtR4mV/dwo9lNidmn9FKA5USjnzuMbh6sdvDlWgcP1br4bLWbW03yp5hkE+Pni1WtzNraTp0nzNxjYR5YIbYzyB3mIPdWdXNvdTuTatzcpDbQMUokyGMUefTwiUV27l/i4L7FPXyy1ouM50ajl/GmgLIJosOTq7zcaXFxl8nHJ41+Pmdxc1+Nk08ucjOlxq82V+J79GPybHVF6OrpsAB98T1jjWHuMTn58do21jX04IrEifUKoHyX+Nl3EVx4NglDvj9AuSQ5Qnn1Bvn+FuAF+qeOEuPkKWUI8sM1Lt5sDrDDGuUnrwW4wxziZkOMGyVaZZJjvDD3WLp56k0bvz0U5KGXBQTK3cgwN5s8fGmJlae22DGcCrC8OcDylgDmhhC/fDvAQ8s8jDH7VZj91mo333nZyTP7I3xja5wxiyWCFlWGU3bnD61w88w+Lz/bG+Sm1QGyqgP88coefrPHz6+2e3lqo5M5dUFMbSF+czzE514MMtns55FFHfxyezcVDV6WNftZcSZIZX2YJ7eEuL82yASJCFgiTKzy8sBSO09udlJR52Npi5/FzQEW1IX5xy0B7lvmJqfKz0gVpRQgqd3puV4BpThtMagSURcDK3dk0tS9Son8hrl3kZPfbHOw0xZhR0+c3+yNcP9iAZwxRht71aKWuyXn7mgmjPRl18e+4KIfQCm/zPtSrYvlR1wIoPzFrrPcWKvpsBiALFOcIlOQP6pq5eXjdg76Yvzs7V5KakNMtHTxF6908191Eb6/M0JJdYhM2TCojUyEB1Y4+c0BH0/ti3DvypiKQvzpSgf/vsfLP+0P8uk18h883Pz45S62dHioVoBSO2oqMAV4oMbB05vcGE74Wdbsw9Ts538P2vnt1pMcdHh4zRHjz9Z4Gaf/GlXtvC+wPvvK4xp/vMgh2AAAIABJREFUFz3LkKi/Kc4ocebiuC0B7l3ayay9Dg65Imy29/K3W4PcvNiv7vZKFGOUimZ8+OBSdyISFZG1kmXqVScZ+YkrF2MsQb65zMUrp/zs88R5crucjkiEWu6oyR1vicZo99JuMTr5ak0nv95ko/K4lyXNQZa1hKhsiPDzHRHuXxZUP7SQE5ZbDWE+Z3LxxBors/Z7qW0MsPJMkOXNYUpPxfn2axFurpa2gnzjRS9Vxzw0eEKcCMSobgryT3tD3LcqpI7FP+qAUm1c1N+MjKoIX4nFxzeXt2M5YOOkL8ar1hg/eNPPuBqJCmoROx2USPRMjqNlw6DsoTHOLUYvP1/XzE6rh5e6evn6y3FGV8nJYy+ZFu0YWgDfzRVu/ntTPc2hEOtcvXx8cYh7LG6e2uHn+UMBnt7QyrwDTla1BJhzKsCjm4JMtnj5wqJu/v51J7OP+Vnc5Gf5GT+G+jDP7ArytRd9TJT7i+okKM54Y5AvVXfy1OtO5h8LsrgpiLkpwv/uDfF/r3ewt9PLOkeU+1YEKDYHeXCxnV/vDfAvh6NMWKKdNErEMs8c4u5FLv7+bT//cSjEX673c5PFq7651ezioSXd/GKLh8qTAVa0+FnaGmTB6SA/2+ZnytIAU2qd/Ptbdna0eOgOx9jmjDG9Icy3N0WU7f3Fxm5eOO7nL9eH+URlmPHGGJOMYR5Z6uLXb3mobAhS2xKkqiVM+ako/7TFx58ssjHZ6Gaiwcc91T088ZqLqXu9/NtGJ7/a6KLyeIBVzUGWt4SYcyLM37wW4J4a+YsdcoXh/G8DZI1ejU2oOnkRYG7STkLvNjn54ZoO1jd66Q7HCavjbwGXce3YW0Dl2Xf5AIDybOLI+zp2CGYNYKSb4uoS+VeXuVh2wstRXwzT6ShPvObnoSU93G1xMzFxX0MuGt9i0aKL8iMZuaibb/HyR4s6mH/QxeFgnAPeXjZ3xdhsjbC/J8pBb5yKExG+tNLNWIuXT9U6+M+tHWxwRPlVXS+TVsTIqJKFEFF/iPuxl+ys7/BjaY3zuZfDjK/y8cN1Hazv8rO1O8hma4i93ji7g2cxt/fy5TU+vr7ExuKDDo74Yrzj7uXN9hhvdUQ56Imxo6eXX78T4bZquUAd4OGlnZTu7mJXT4Q93l422mNssEfZ5o6ytSfG746G+PiLAYZXi7PTjJAYIP1474oDqSsAHGQhynGM7IRzxVDKsZ7cT1XHRwK4Xfz3Nid75c6Qq5d/eyfK/Yu1O7HiYOUiuxwjyeZDHT9fgT7+nlz7AZQlphhfrnGz4nCPApTP7ArzycVeJomOVrmZWO3m49V2fvJSG1tlR2+P89X1UUZUx5ho7uaZbd3sj56l9EyMidVyh0jkEFfHLt9d28UOR4BVXWeVY7nN7ONH6zp5uT2I/ODi0ddD3CJHIOvOA8rPrZbjzAgPVDl4YYuDnd1hDrjjbO+Ksa0zwjv2CPu7erAGg2x0xviLNR7kvrL6M0YfIUCpNi3qmolcJ9FIRcVVdNvHg8u6mLnfwV53RM3JD7YHKFziY3hVkCFy71lF/z9kWyqbZpPcodVIfolfZIwxVsgcY5IlxDeW9vDKKe85QDneLD+4kIv84nw0BzTR5OFrS9uYtbubXc4Iezy9bLbGeLMjwiFXlL3uONMOhHhopZ9bLEE+YXTx83XdvNEaZJ+nlze64rzeEmVHZ5Cj/gibHb38cGOQW809/M36HjZ2hLGFo3REe9nSE2NafZQvrg2re79/CIBS7jprP/CUH53IyZiPP1vWRc0RO0f9MV60xfirLQEm1CSuQMlxqkTN5b6v2HN1BK7ZsZtNXv5+XQs7rB5etPby8LpeChNAMtsi95zjjDPF+KzJRvk7rXSEoyzvjHNrTYj7qxwsP+3muDfMtoZujntiHPGfZa1c79ga5OFqO7/b5mCrLco7vl7e6I6zqTPKXmdU+dglTVG+vi6o7u3LXdpPVjn57VYrO7tD7Pf28oY1xrr2MG86o+yy+mn2h1WE8r5VXnLNPr61opk3O/286u5lykrtx5Ryh7LEGOAriztYVO9jq+cs/7IrzM0WL2NMLr62vI1Z+2zs7Imy1xPnza4Qb3UFOeGJsKsnxjO7IzyywsWsvR5OOEP0ROOcCPbyoiPGT9+O8HBtO5X7OjkQiPOzHXFukaN5Y4SHltoxnPByWO60e3vZ0BXj9a4ou11R9rjjlB0O8tByr/pD9Q9WW5n1ThfHesLstgZ5szPMDvnBmy3C4Z6oam9te5zHN4SYoH6cIz/QFf8lgRGNfs9XXGZ/JP5RrkXIj4Rkoyh/LvEOSw9/83Ina5q8dIaihHsjxM5GkSPws2cFUJ4dPKCUsGbw3XdZ63yXKUvOMtZ4Vv2g42qg5SspPFkw8iMF+QXcx6vdPL3RyeutQY77e9nrjvHiGR8z97t4cqufb74U5aHFMe62xBhriqo/9Cx/EuPuKhv/vd3O8WAvmxy9/GJzgK8s9/LHy538w3orG5q87PfF+d+jce5eFuGe2h7+d2srbzmj/OepXiasjJFWJRdvI9xoDPDESza2dvpYrAClRBT9/N0rZ9jR1cPpaC9r22P8904/T70Z5IcbQjy4qJPntlupC8Z5ufssT2yI8vCSAN9Y1sO/b7GzyxnmJcdZHnojzNhFNp7Z2qV+YPS6Lc4/bAvylRVevrLSyd+90cWyMz287onxdwd6KVoRZ1hVL+kJw3I9z7Xqu/ks+eZ3KbC8q47G0qti6o6q3FWV+4X31/p4douHXR1htjh7+Y99Me5dLmXyy0jZ1Z//EdOV1MlzdQugVCRH3hrJXxH4k5oeVh7uUf85Y1ljmN/t9vG/Oz38304Pv93pYfYuF2+Kzrlj/NeBGBOWBBlaLRFHB7/dbqc+9i5zWmLcWCPH3r1KFvLDhx+82MYhp5dXFKDs5VZzgL99uZ1NAkytcR5/PaSuVPzkFStbOj1Un4nzwItRbrR4+cV6B9tbQ2zs7uXf3grzreUhvrXUw79utLO1K4AtHmNDTy+PvCR/zkg7xrye9encHCUMuYyl73jkXaJBcm+3pMrPF1Z088Jup9pkbnD18tc7Q4xe4WdIdfgcoLxaEYi+/VfvZu2uYrFcrVDXK+KMUT8qjDPBHOdGAZTLenj1tE854ye3h5mgfrWt3Y2U6LncG3/A7OHZrTbesQdZ0dXLT7ZF+eOVQb661M0/vWrj1QavOgn41e64+oHHV2r/P3vfAR5Hda6dEBIDprv3hjEtlNAh9Go6OEAIJCENCJDchNSb3NwkpPwhIf1yAW+ZVZfcJblX3C033HuTrLKStpfZnab3f97vzMiyKdc22GAjP895Zq3dnZ05c8533vOV961F0XqVnvFfK/O4clwO15Vk8HBJI/69pBE1KRt/22HhvMIsPl+QxPOVDVhWF8f8VgMvzIri8vKopHAQAJ8VZLhbNeaSv9tzedd7/5AX5CP5GxwjTBthf/diTir7PZDBfWPDeGNtFEvTJirCFp6em8PwENk5TBlfzOtjARk3OjJWAxaG+lP4blUdFjelMD1s4+mpWVxVnMKlhWxpaTcVx/DDKQ1Y1pDBLsPBr5YTZFi4MtSKqm3NaLJsLIyY+ONyHS/M0fH07BxGVkTwg+oGzG9UtvRnS/MYOS6Du0sjeL6qEZM2x7AmZeLVLRYunpBH32AUX61swoK6LJa22PivhTpGjk3hjpIofjQtjLm1cTSaBmZGTVw1LoFTg8yr3ImljUnMTjgYUWFKdIb31zuQxl0lezB+Wxw1SQc/WZbHUIartQh+Ob8Rb0XyGF9v4fl5Gdxa0Yr7xjThTwuasLgpjQlNNr4y08AdpS34+9JGbE3lUbzVwEPVaZxXRIGMvQitaMDmrIXnFtkYFMzjcn8Lfr+4FSuzNiY0WfjWrAzuKk/igeIIfjalGXNrs1iesvGLtQaGlrFfG/C3pXuxO2NibcLB31cbeHxiCveXtuLF6hZUbctgfcrGK6tNXFRCBha1DnjHo2EjBFBKDrPLtBA00S9o4KIQQWUjxm9NolE3kXPs9sKctjYHn8JB/nMAZAEBlOcLoGxTlVmaLYsSF6ZjsRFQnsTqwaCFPoEcri6I4oUpzShdn5CK2e1ZCzsyFtYlbMyvt1Gy3sRPZ+dxS1kKvYM5Ic1+sLgW03cnscVsw0uLdZwXiqG7pqQZR2gx/HzqHiwPpzClxcao6Xl8oSiC386rxYKIgV9scdCvwsBJGqu+SV2UxjcmtQigLKyzcGWVIaGhZ6tqsagxgeWZNvxkURbXFCVxkS+Dy3xMEt6D6bsTWK47eGGBgRGjTfQa7UhF4IVFEbxaE0Nwj4l75qXwxTG7ULEtitUJC79bkcXFRQnJWxnhS+N6rQG/mLMLc1pSGL3XwfVTLZyu2ZK7xN3qGcfoM+a4VAbUxtkBB900gkpHQjonaBY+R25EzZAK1BsLk/jt/AiWRrKYFbPxzGITg4oJKJURlqp4Lj5Hoy+CLpAMKq8qPasElLcWRDF2TVTCMdtyDtZmHGxMO9iUdrAx62C7bqMpb+Otphyen53BiMI0umo5DPKH8Zt5DdhmtOGfu00MCWVl8e0edKQq96vj92JtawrVTW24s9LGYH8G36ysx6y6NKaEbTwxI4cR/gQIKOc1JlGwy8It43O4OtSMN2tasC5i4I+rbVxSSq+GI3ly5xc24eWl9diYzqEqbuGuypQkqZM6hHPvqPTj0XhWHX+Dz03ADMOGpoS0uaiTy++ukma8uSqCdSkDEyIO7liQx4mFjHSo8aXYFj4iWxqw0Z1FfEG3BZizaKF/gIDSxmAt1wFQMjc3j35uVTYZI5gWNHx0Ho+UJjF+UwarEsrjc16Jjl7BPAYEdVwZbMQv5+zFkngOxXst3F0dwb3l21C5I4nlKQffWZxDnzKVmtPXl8bNJY34r5U6XqgxpdJ2QDCP+4obMWdHTHIo76tM4HQtKeFfbrrOIpgMqcYCHQGU2rE9zmh392sE/i6glKp4FsH4LZwbyODBcWEENkSwLmNiQoONB6axUInV8YwoqlxsAkp6KWnLzvWl8ELVXtQ0pbEu4aBgfQqvLmvBK0ub8crSFryypBna2xEsbcxiR87BRNqG8aTJsnCVFkH1ljDqLBv/3GHi4sIUBgfSGBpM4NaSOvhXN4in8ZV1Bq4oyaKvVPFncEGwBT+Y3ID5tSnMjDh4Yp6BqwrD+NuSFmyIm3htnSEbioG+PIaOzuGLgSb8v/n12JrKgSpn145P4FQtjUfKd2BpQwKzkw6GV6hQPtOzegUzuKO0FuO3x7Ei6eDHy/IYEUzh7rJmVGyOYGHcxveXGBhSlMVJLKrRsri5NIw/1UTx2k4DX5pj4ZJQEj+fG8bbSVWUM6LMEIaML2hNCK5swCbdwncXOzgnmMPjxdvxVkMGi9MOvs284sIUztZYlJjGpVoYv5/XgHXxvHhub56SwheK9uLVpfXYnDUwvs7El6pZn2Gg75t5XOBP4L/nxrE6auCNTSYuLzdxtmx21MZfquGPwlrMeUOWBKGIChroGTTRJ2hiaDCHy4MRYfqYuTOFRN6CY9vinRQP5UHiSewHKIvb0Nd3/ABKUvOcqJH+w5JKLBYi3FncjG9OjuH3S9MIbcxixh4da1pz2JmxsCbh4PX1eVxfwYrhDJ6fVIsNUR3zkm24ojyL01nJFsrgNOZFajoeLt+Nqs3NEvr+2XIdVxe34Nfz9mAhPZSbbQyoMNBFctnyGDQ6jW9NbJaKNgLKqyrpAcrgO1V1mN+YxuRWBw9NyWJASJcJerE/hh9NqcXGWA7jW2zcMJ4Jy6QrcNCFAzGk44bShJASX1MUwzcm7MGiprSEnV6uieErk1vxtaoYnq6K4Nmqerw6fw8WNSQxPdaGr8230CekPJSST9Nh0fQM3LECCAheWPXORYdVoFxszgw6YOUoq+hPCpE+x8QgLYkvT6rDtF1hrNNN/HGThQsrVLGF5B21h2mPwqLfDigVQPEA5W0FUVSsjWJnxkR1g4XXNubx2jodr6/PYfSWHAq36phbp2NNgtq/Fr49i+Mli6G+MH43twE78g7+d5eBoRpD3o54dfoH8vja+L1Y35pEVWMbbptEmqoUnq6sx8y6DKrCNh6byWrxBL41OYx5DUkU7LRw59gMHihtRtWWBGoiFp6bZWAEAYjPBpkFempJfHXSXiwOp1EZs3BnJXOZWMijaGCOlfFzsNfJ3DM+Jw9QMp2AaSNdgyYG+gwpMHipcidquDnMO3h+o40zikkzosAPC0/kHB3m2sH+9gf+HKnOAjZ6kFbMpRajp7KfNBuDtI4eShvPL6BniXx6KkTO43n+LJ6tjmFxQx5r4wZeqYnj65Oj+MrkhLSnq5vw8rw9qGlJYn7MwhNz47imZA/+uSaOdVkLM1ts/L+3dbwwO4U7qvK4uCKD80sSGF6YRL8CXcKjd5fUY86uKKaGLdxVpeOUUA6f8+Y3Pe6hNgGVxwOgpJ09XVMbe27upTElwQWR7HOpqhYvZQ5XhVrwqxm7saY1hRVpB99dZqNHSOXD9mDKj4BJBSjp5TzPl8L3quqxojGFvYaNDRkLa5OmailTvIib0haWJUyM3mXi8ekmhpHD0Gfiai2MyVvC2JZ38P3VquCRKURnMwQ/bg/m1IYl0vOV2XkM9usY5tJGCeAra0DR2hYsT1v49RoDX57YgvEbE1gZM/Ef87IYoaVlbR3o13GeL4mvVtSLN3JqxMDV45PoqmXxsADKOGYlHQypYEqSohpiUdjtJXsxcVsCK1M2flKTx6WhOJ6pbMLCxgyqGi3cPZkbWhsnBh2h2eujpXFlWRJXjE1iSHEaxAC/mhPG2kQer6xzcG6Zhc9pFi4ONcFHQJm18PwSB+cHsvhJ1Vbs1POSKvT58hS6FOVxdoGJU0nbF0zjyXENmLsrKaHwZxZlcXNRI/62pEn69t9b8vjimAyG+Jg2Youc6bNTmrEknBVA+YVygjq32KzjenCE7YPnoSR9E0ElAWXfoIEhgTzO96dxd8FeBBbXI5zQ2wElGPI+VEA5iSHvYge9jyNASULPk7Wc0FcM0QwMDhnop+UEyF2oxXFFUQR3j2nBi9PDKFgXw5ZEHpuz9AaaOD+Yxk+n1GNX2sCEcBvOKVS0BSdKcjoZ/rMYWVSP0IomrEmbeHldFleWNuPXb+3GkkgOv9lsY1C5Ifx0XHgGjs7imQnNWFSfRGmtiRsqcxgeTOE71bVY2JTG+EYHd07S0VPLo0fIwMXBKF6evQc70nn46mycOzaFLsGsVPCRyqhHkHmAJob58rjUn8GLkxqwKqILqJgbVRxmc5nvGTYwN0wew7wQ5s6OOnh2kYU+BRY+F1AJ2h0XLC56H9nCdxiTiUaZVEqnaibOCFkCHkmjdLLGsL7KYe0dSuHmMY34c00TlsZ0TCHX2PwcBheRDoIJ6h1z3I4uoJS+Fg+lJR5KFuWsYUh7WR5fLEvislBcKv8vL4jj+oJWfGN8Iyo3JbBdt1Cwy8TlFWkM94Xxh7l7sSfvYPQuA4O0FE7UHHTVLPTRdDw1vhYbWhICKG+ZRM7AJL5eWYdZdSlUN1t4bBaNSRLPVDXjrYYkCndaGDk2iS+PDWPm7gzmR2w8PT2PS/wmznuT3lTSVuUxqqwFc+tSAihHVrLaMSf5duI1Poxn2XEcfpxet88Jl1eP3gSmLDAX6fRAFiMCMTzGXLe3o1gVz6O4wcSDs3LozfHoAkqJBHDhONr94i5WvOZurJRmE4DpgsWgjQFaDveVRTFlC9MpbHx3AUmnmXfJzzIsRw9GAi9Ma8HKcB71OQfLoybmNZuY22xhTrMpbVE4J6HExTEL31pAD3ozvlTVhHG7sticNMXDviZho6rJwV83mvja7IzQFw0LZSUqdE9JHebtimBG2Ma9lcrTxrxVRh+Uh/L4AZQEkKdqFk5xU4+4AVaODxv9fDZ6+23xVjK6NSwUxVcmNKF0TRyr4ia0nTburTLRP8gQtcpzJbejeG35fP0WRoxO4sXKvVjWlJZc13+sz+IXy1L4xbI0frksjf+sSeE/l2Xw9Jw0rhqbAnNm+75pS1Uzq52nbA1jc74Nzy23hY7sBKYG+TO4d0Idlja1orrJwV1TTZnzI3wUSyDvcgZXFtfhteWNWJU28fetOXx3ZgTTdqaxOGLgGzMzGBpMoa9UiusY5MvjzmADZu+MYnJrHleNS+NkTcdDFTuwrCEuHkrWIVDlhvdJ5pU7SxowaasClC8tN3B5KIafTGnCyoiB0joTN05izi0pjrihNnGaRj5UE12FzieN8wNNeHn2XmyI5/DndQ7OL7NwkmbjIq0JvhX0Llp4gYDSn8FvZm5HnWVh9B4H/YsMnFxoo3cBAZjytN9XGsaEDVGsSVn4SY2O24uZQ9mE1UkTr27I45oyVTBLlheqU31ncgOWhdN40/VQ9gxassHjvBRqJdqKI2wfxEMZoCIVeanp9TUxIGjiXH8O12pRfH9qIxbsTiKhG+2A8rBC3h6g7CM5lEf+xo6kYRUvm7iT8zgnlMK9E1L45uwcbpuUR+8iE91CJnpqhoAQVmP29SdwV3E9Sle3oDZjYvRuG7eUZvDz6j3Ync5jQhMBpSUDlTxuZLs/x6/jgYImhFa1YnWGeZRZXFUaxm/m78KyqI4/bLJwTlleQt4nMyzkS+O5iY1YVp/AmFoDt1ZmcX4wiWer92BJUwoTG9twTxUZ+y1002ycH+ROqhZb03n462ycV8FK8iyG+HQM8Wcx2E83uoHzNQsXaRk8V1mHt1t1bEg5CG3L4+/rDby+zsCb63RpgbU6/Gt1/GFlHvdNNoWK49SAgzOCDs5yQ0kMKXlemCP5fD7McxNQqo2DgdNCBk4NsVAljxNCeQGVA7UsRo5pxv+sDGNlVEcVZfMWZnFuSQZnSZW7AtBHeiLvd8/tO1L2v/J6sSjn5sIIytZG8HbcxI+WWBhRxBAYFxYS1juSwH2OP4qfT9mDdS063ko5uG9qGuf7GvBHF1D6dhkYoqXQlc9VM0Ue8akJtdjYmkB1YxtuqWT+XBJfq6zF7LokpjTbeHxWHhf5UniushkLmOO708I9Y5N4fFwjZuxJYkHUwtdnGrgwaApXKvPvGKL/UkkUc/ekUBm1cO+kFAaRbYCUGJx7R9gwHs3zCyikB9x7Fn5H8tz6+LMYFmrFIxMbULA2Jp7jsr0GHp+axIUh6oArAYQzPsrQrDu+PFC876g2UfT29Q7lcG95BFO3JrEqrkLeXOz4WUYATmMOuNaK56c1YHlYx5akjYnbDQTWGvCvNeFbZ2L0ehO+9QZ8G3L44+o8RlblMFDLgKlBj4yP4lfzEyjYkMG0Oh0rozkh1F6etPGXNRlcXZSU1IyRJQ14a2cEs8MOHpqoNi7sc+EzlJD38QMoaW8IKLnpOyXg5rP7HfT3ORjgc9BLvI559C2IYVR1I0o3JbAqZkPbbmNUNUO99A7mhIaGmzuhq3KfGUnBh/ljeF5yKNMY0+TgpolZdPdRylEXje8zROebOc9K+IDk4z18Dnr62nCp1oopW1qwRW/Ds0stUd/5jBRx6rhnfD1qGlsxOezgrmnM9dTRP6jjTC2LkwrSuLx4L16vacTatIV/bdbx3enNmLI9icVRQ3Iw+4bIg6yUbvqNNnFzoB6zdhBQGrhurI5TtDweGrsTyxrjmJtsE8DXk7zPLkfzfcUNqN4ax6qUjR+RtUOL4mfVdKbkUbrXwi2VOgb7TQyljaLAQogOGhP9QxZ6aXmcHwzjd3PqhDaIgPI8eiiDDs4XQLkXW7IWXlxKQJnFb2bsRJ1pYXStgwHFNk4usNG1wBDqNSqU3VcWxoTNMbydtvBSTQY3ljTir0sbsCZp4K/rDFxdSi5KCk4QMKbw7JS9WBFOwb+JOfzkbbUkDYVRg6MZ8hZSfBatCqVcXrDMjVocP5neijl7Mmg1FC8lhXE86slD9lCyKGdEsYPjCVCywoxVvr9ZEEd12MZv15i4uEKXgdVTU1Vxp9K7Rb60QCv+39x6bIobKGtycF95Gj+csAObYlnMiLfhggru1LlAUOLIRF8th1Gl9Zi4KSacgL9cpeOGomb87q09WB7N4a+bmHPGic4dUhaDAjH8x+QGrGhKuoBSF0D53H6A0kRvWXwsDA8k8NKMBmxIUKnCxk0VKZHnIwden2AGQwMZ3Fsewzdn5HH3xDS+M3GP5MNwd//wtBwGFuUwvCCPi7UMrtBSuLUohkfGMK8pjotClG4kia5Sn1CAUhnrYxFQdqVcnpbDqQV5dA3l0SWUl9zCPloWd46J4B81EayI5DEzbOG78zMYXpoUAno+e4bLuXAeTYAifUwvV/BAQNmKsrWtAih/vMTGiEKCGAfdCGACjiTd9wnE8eKkXVgZzmK+7uDBWSlc6GvAH+Y0Yk++DdpuAxcEk7L5oSdxsD+Lb03Yg02RdweUU5ttfNkFlN+tbMHChhRKxEOZxoPlzajcFsfSqIln5uZF45ZE1WdpqgL1G+WNWLw3haqohXsmpY9rQMlnJmFjHxU6bMkxPF9L4OEJDfCtj0qhX3mdhSdmpHFRKIVzfKYIIbDA4qhuVg4ayBP0K+DPhZaAcvrWJNbEbby4gB6Yfd5Ver+GB6J4lsUY9VnMDlv4zowsrguRx9DAlZqBq7Qcbi5krl8Sd4/N4KJQHucFs7i2XMcXK/K4OJjGtYVxPDihFT+eHcaYdU3YnjYwP+XgkSlKMeeOkibMbQeUFnp70QPJoTy+Qt7tYW6GvV0bRKaK3rJZIXdjHsMK4nikshnFW5JYHbdRstPBlyabOF/LYQhp4uhVJF+yKLWpjZyMNebE+eP7AGXYwU1VhtAGeV5qjmd6q9X/HZzOoidyRvqAS7RWTN3cKoDymSVM7TBwggDKHEaOa8SiPa2YxxzJ2ZTdJEk5N/J5nBxK47qyvQisDmNV0sIra3N4emJw0pZiAAAgAElEQVQYEzbGsTRu4JmFOfQoyuEzGotlTQx6M4WHSuqwsC6uAOUYKisZeHDMTixtiGF+sg3XlFkyjwaPtnH+mzoeL6rDrG0xvJ2y8fNleVyjteLFynosbsxgQoOJB6p0DA8wrzyHs1gLUZDEjeNTGDXDwDWTDFwWasbv5+zF5kQOr6x3MLzMkvD4eS6gpIdSAGUgix9Xb8du5kM2Orio3MQpmoNPM+oQsDEgkBeC+Bm7UliWsvGdRRlcV9yIvx0AKJkLSy/0WQIo6wVQBgRQ0juoACVzm7lpks3eQc/fw1uzuEGUiB7zKLW8RGuvDUXxs6lRLNilI5azkXcsmI61n9Li4QHKkuMDUAo44MMKGELq/YvZrVjUYqCyycJXZ+m4qIgSTEoOUchS/RncVhRGaEUYW9Mm/rXVxs1FaTxRsgNzaxNYk2/D42/Rs2mgn7jfTfQLpfDs5DosJuVPxME35+RwTUEUL89twNqYiYLtNm4fQ4JfEkxncVlRC15Z2IxNMR1jaw3cVqkAZUcP5cgqPmQLJ4dYsJPCkxMbsaBBx5K0g6/PTKO/P4WzRP1GxwWhMP68sBEzm2z8cHFOQm7V29JCTPy9Ggt9C6mtqmSeLvAnJZflTysT+PlSXXaCPYOUqGIuKA01k92PbUDZVcuLd5KG7exgDkO1lHgm/7G8FctjBqa22HhhURbDS1LoGsqIlCX52zyPzdEElAJgBVC6YFZC3gZuKWxF2boWrI6b+MliExcWUmpMSdpR2o4KStQ6/vP8eqyP5zEh6uCaKkqPteC/ZzejLu9gYoOBy4sSroqDgYsCMfzXjDrsSGTEQ3nzAR7KfYAyDQ9Q0kN557g8biyI4M0VLbJBenmNgSvGZHF2QQYnF6RwXiiMX86sxzp6fWMKUA48njyU+3n2VDUmASXz2nqzSIUbyrEt0NZGsDxuYMxeG49Nz2E4eUEDJob4LElJoYIMvej0Uu5rh7cYfLhjVAFKVkz3Dhq4vyyCGVuTWBu38b0FzK3qCCjJx5fCl8aEMWlbCotiFl5cZODzhUy5MaTA4iJfAo+Pj+GV1Tp+WmPg1vIs7itpxu+XpfHyGgs3l1NRTNGUfD4QxbfLt2JpfQbrjDZ8+y2lPHZbSSPm7opgbtjGlyZR31qJNjA/kJ5Uz0YdazmUBHkHttNYFEkvpYS6VYGkSr9hCo6BYaEYnqhqQsGmBFYmbJTtsPHkFBvDNYa68xgYJIk8qZ2UKhGlfb2Qt6QoBOJ4rppV3mmMbXZwY5UpOZfd3AgYx5LQCAWZGqMAZU+fjT6+NlwWjGDqJgJKB88stsVDyZA3ZXpvKm/G+HXNYOrCf69SZP7cmHMT36sghqeqqLgUxbyIje/Nz+GeojDeXN6K1SkDf9ho4YIKXaSJSdN3sb8FP56plHqmRExcNy4rgPL+8h1YVBfBskwbRlYyKmJgqN/A5b44vl+xG6v2JrGWYeZleVwQiuPBcY2o3BnFW60WXpiXwwWhjCjXnaxlcFFpI35b04qKJhMv1Bj4YnEYv5+9F1sSOfx5vY1zygx8NmjhwmAT/Ax56wpQnhfQ8UTFVixvTmN5og1fnUGPoil5mYzAXFSQxc9mhFHTzBQqC/dPS+Dqwgb8Y2kD1tJDuX6fh7Irx24gjeemKEDp32TgigpDJJJZ9EY6ryMBKGXMuSlsamyoHFuhmNKY/qfjmsIofjC1GfN3ZRDXqeftwKBiTgfpRXopDwtQnlfq0QYd2yFvD1CS4+mcgC6euZKNSdk1Mdz8k4UpPFSZxM3jkrhtbBJfmRjFPxe1ShhxRdzCt+aYGBHM4bpQA/5a04yNORuljQ7um6bj2tIEvlicwKOTWlG4MSH5E//abOHyMaRyyOClaa1YHs5jfrODn75l4KbyLK4ZG8dzc1oxeUcKtbqJsbsN3D5pX8h7UVMKExrV5CGg/GyIFWA5fLGgEf+uiWBlxsKbOy3cW5XGJWVpXFsWxzcnN2LmngymRBw8OjOP64JR/HWBoi6Z2GDj6zMzuK4sgZuKk/ja+BiCaxJYHDPxt402rh5HCSYl08i+OtYBJUMolMcimbeAyWAKI8ua8drKCGriCkx+k7JiRWmcGqTRUiEihoY8Q//hLtbvDxgExLL6102k52SnBjLVHcrXRbAxaeJ/1udEx/fR6jQeq87g8eo0vj4lid8timFBYxZr0g5+vc7CgFKqY6TwzKQmbI4beDtt49vzUrhyTAI3VMTxnWkRVG5PolbnhqoNAiiZDF9Zh5l7UwK0lYeSgLK1PeR92zgTF41O4qUpDZi9N4mqFhsvLtZlLF9S3ozHpzRjzI4kavMWquI27q5MixwpNeZ5P0ezP4/Ib/EepEJbhX05VroLdQl5XzN4aEICo9empAiutJaFTXkMKqAKkYmBfqVz3Usq3uk9Z64cQ1+qiIcA84hc8yF5NxSgpKeKyjYPlUYwbWsSbycY8jbQg4BSvCb0JlFdI4fLC1vx58XNWBbJoaDWwTfm5HBHeQy3FTdL4VdoXRSLUhb+ss3GzePTeLCsDqVbklicsvGblTq+OC6BC8uTuL60GT+o3o6aliwWpRx8aRqlPfO4pTSMmTuiWBm18fMFBm4cl8OQQhYPHPuAUuVMKhDpvT5ZI4ckCwhZaOngREpQBvPoVxDDY1VhFG9NYlnSRmCbjUcrDVzgV7rpfF6UMFQ8oSYoach8Qc475uoKoPTH8Gx1neTnj2l2cEOVgbND7Ef13E91QS5BLQEPU5+6iffdwRXBKCq3RLBeZ3W+hZP8eXQhd2Egj0tCEfx6Rj2Wt+RQ3WTjW3MNXFGewSXlMTxYFcbotVEsi+cxegflWE1cFkziB9PCmN+UxdSIgxcX6LitIoYvlkTx5KRmlG3NYI9hY2bEwnVjszg5aOK24t2o3BrBBqMNL68zpfD0jrIInp7YAt/yFuxM5SWk/sNlBvpqOj5fHMGflzYJN2rBDhOPTk3jotIELi6P4NuzGjCplvbLwpPzdHwh1IxfzayXHMqiXRYemZHDuRUmLmeV94p6bNUt/AejQwEdV2m78frKFmzKOijeY+H+6jQuLU/g+vIEnp6SxNjtWaHZemWjjkvLo7iyqAH/WFaPt1MGXl1v4prSvPC88nl3dz2UNeEURm+hKpAClKzq50ZV2ZoPaBfcTTDntAcg5ch1xmUAEK7TgCFpClcVRvGTGS2YtzuDRI6Si23SDAewOijlsB7nsADliOMIULIjmVDe12/hYuYqTo2gYnsWK5OWEJ1Ors2hYmsW47ZkMbNWlyq0JVEHr67L45qKnOQyDgqkcP/YRhRvY2KzibF78/j76jj+uiKKkm0EaDYq9ph4bGpW3MfdgiYeqEigcA1DFCamN5h4bW0a/9yQRNmeLObtzWBtNI+inSZum0gJyBS+WVmH6fVpFO9VFbiUFfuMZuOzmo0h/iRGjWlC2ZYYFidMFO3O4Q+rEvjL6ggm7U5hTsTGf79t4uJiA+f4MnhsTBjBdUksilhCHPu/axL4n1VxjN2SxuJWE2NrTeEcHEIqI1GXoffUdnMo2yTxnYPxWMqB4+JMSgmCSlbfsyBlZEUz/lHTjJqYgcktNp5ZYmBQMbVZ6bVVUpNni/fDXVQPaSF+f7B4UEBBjL4HKLnzp9crj1uKoihcE8eOtCmJ3Qta81jUksPi5hwWNeewuCWPFRy/CQdvbjVF7pASmryv20NNKF+fwOa0hWktJl7bmMS/1zNfV8fsvWksb86gvEEBygG+FJ6oJLF5BhPDloCh8/xpfKMqhul7s/DtNHHDeBPDRudwd2ET/rKkFbyWaY15/GttHK+sbEXRzgwWthrYmrEwJmLj5kn0CiidZs69g+qHo93vh/B7yhCrZ8OKbtHADaic7EcmRBBYn8KSuIWyWgtfnpnDgCLSlCii4t4BVaFLEEqOwBM0s719TgoFPib94y5AgwRQxjFucwbzoja+PV9VoKpFSPH5krf2bC2N+8c14fU1ccyImBhbn8Nra6P454owKrZGsSCSQ8leE1+ZncOFhVlcRSqhuWEsbKaogAVtQxJ/Wh7FP1a0oGpnTPrvz5vzuKwsJdRuNxS3gqB0W8bG7GZbPFo3VTHfnUBoXxTlWPRQErid5KrUEPQxr44MAKe4gJJVyRwrvUIxPFLZgIItpMaxEdrp4N5qC0P8Jga8aaEfpRVJNB9QGuokxRZ77QFKAScUO4jha9WNmNKYhdbo4LpKQ3LzewQddNccnCbpNo6ap8zhE5tko5vQBsVRtCWJhak2fG2hia7+HM7w5TDAl8dwfwr3lTThjdWtWNiax5T6PF5fk8RfV0VRvC2BBa0GKuotPDWXOeA2OLZuLoni1RoSoeuobszjtbUx/HV5BEXbM5jTkMe2lIUpzRauGKvjxKCFz4ea8du3wqiJGliUtKFtTeN/10RRvj2N6U06FreksTBu4j+WGLIZ6hlI40sTGhFaHxebVL47iz+tjOHV1TGMr02LwMdvV+Vx1dgshmhxPD25EW81KSwwpsHCc0tt3FYcxuiaJqxPWfjBYgtDg0wLa8bD42sxdgfXfwsVO3X8fXUM/1odlUKzBTEbPpK4T02jT0ESl5c04U81DViYMPHHtTauKTWF55Vgv6c/iW9VNWB2Qxr/2sxiSnK8qsK3M910pg9sN91NMMcDz0UKKU89iWsMtd+54R/k13FtKIYfTGvBnN1pRHRLJBdJYu4ImATsNqCtQ2X3YQHK481DyRxBIfANmLgwlMGoiSn8viYFbUsW42tNVNfbqKy3ULYnj39tzuG7bxm4oZxV4Ab6sgIroHSS7xrbgt/WxFC4K4/xtRbG1FoI7TTwu1V5jKrScY6WFj1pJlefG0rjqQlhvLoqgaLdBsr32vDvMfGbt3X8eG4Ur6xK4Ec1OVxakcOgYBZ3j2nGH1Ym8NOVJi4cS247Uh604YRQG+jhYFjgK2N3428royjdpaOizkRpnSWL/veWGPhCBXmxDPT0kdYliZEVUfx6UQolW3OYUGtgQp2Jil0G/rYmh6empnFBiNrjqjKQeTrcsXpFOceaoSZoIaBkFR8nzIBQBveObcabb0eF/LuyycE3FpnoV2oIvQt3Z5xgApq9/KyP0FvESc9rZyONwyUFSfx0XhTFmxIo25ZC2dY0KrakUSHHDEq2ZPHaxix+uFjHjRMy6K3povRDg3WRP46nxjTgXyujGLdbx9h6E4FaG39cb+AHM1vwh0VR/JKE7mOoTZvBPWOa8ccVcfzhbR13VOZF/u628Qn8YVUa32coqUIRKw/3JXBrWSt+tTCOks1pTNhjoKTWxutbDPxuURRvrEngl+vyuHiMLsUb9BR/PDxwHwD4t1dmc1y5YyaQw+BQAqMqI/BtSGFp3EJRrY1Hp+kYVkgdeeUlYohb1C9c7zOVcj6lmfhUSB1Z3HDaRzjmOgJ9WcCosxwwcUdRCr9ZlMQr63WMnEK5WLJaKE8HgSVDsycHmcKTwO0VMfznkhT825Q9Kquzoe228PI6A/dPzWJ4UUby+0aMTuPGgmb8eG4cRRszmLzbwJg6S8ZPaIeF/1yexzXj0+gbymKA2Og0np4aQeGmNEp3Gnh5o4MbJttgmJbXfSyHvAVQBpTkJfu1a4ChZHooae9tdAmYGBBK4rHKJpRvTWB5wkZgq4OHJ5F42sKZPksqsBnJoJoOnSXyfNzUGeWVsiUfkzauVzCNO8ZH8dvVWfxwlYELx+YFUPYMtoHtjGCb5HCTLJ78vWcTYNJT6bfw+WAaP1sQx9/W53Hn1DxOETnbHAb7WAhkCAPKvWPD+OXCCAq3ZmSNKa+zRRDhlbdzeGJqBhcU5dCX6RQBG8OCadxZ2oSfvxWBf2sOY2pt2Yi9ttXEL+en8NrqFF5+O4dhZTo+zSKxYAa3FTbiVwtiKNiew9i9DsprLby+OYufL4rgZ/Mb8Mq6DB6dYUjRy8m8rmAE948P4/fLEyjcoaO81kBprYU3t5l4aVEOX6zIok8oj9NCWXyhPIxfLWtFaFsK2q48Xlhm4/rSBH44M4LRG7N4fLqBARojWWkMCkYl7/eVlSlU7NAxts6S9de/zcB/1+h4uDKFcwvS6KllcVFhBN+b0YR/r8/gmXkmLiki16sCcb18GTxQ0Yy/rIzjhYU5nFes2AuYt0pAqebaB7BZ3Cx7gFIiK+7aIvOYEU9FZN4vkMVVBTH8bEYUc3dlEclRZtGWfEnR73ZcMOkCSg9UHh6gbFfKOcZD3u6CoMJUDN9wcaR6QA5fKEzgxjEJ3F2p494p3F3kcXtlBldWpNA/pAvHHj2N5NrzeNv6BTK4tCiKuyZk8MhkHY9U67h3go5ri3IY4aPmLTWkyWflCEXRJYEoriuJ4c6JWTw0OY87K3VcUp7F54uSuL4iji9UpNCzIC9VxucUJHBjeQRXlWfQvdAUCoMuIRsnhBwJ9QwJUA6yScJED05I4rHJOh6enMOtE7K4oDCLszSlxnGK0JiQEoacZQk8XJHAl6syGDU5i/snZXB9WQrDtTS6+XXJ0SGYZDu7I6D0XOUfkwWv4+L3bq8lJ02Syy0MCmVxz9hW/M9KUrcYYG7gtxeYGFxKLxFd/iofi4uoNDfk/G7nPVp/4/WT4oiAknktZwezuLykBSMrmnBXRQtur4jitvIYbi+P4Y7yOG4rj0vKxXmhNM7QMjhR0yWMysWkW1DHsEAENxc1Y9SEOEZNyeKOaoajdFwWjOOWwiiuL8lggKbkGC8oSOD28gjurEjgwkIm9JsYVJDCLQzdlKXRrZCUS6wuJ3F1BlcWxPFQeRxPVGbxcLWB28fouKEgIpWOV49N4OyCHD6rsa+PbUCp8o64u1c7fG5CuKsfGkrhoUmt8G9IiRpM4R4LT8w0MLSAnHRKUYYVnfQcMeePBXw8hwDKkIlPf1wBpQg/mLjUT/WSMG4ZE8E5hRRvMIVSi7Q9tKPcXDMS0IVqSP4szitI4oZxSYykLZxs4PaJeVxRlsNgppNoOXQP6pJvTh7U8wvSuLUijYerMrhnahb3Vudx6/gcRhRR0UlH72AeQ/30qpk4pzCFuyuieHhcBreNtTGk2AHDs5yTxzqgPNWlnZJ8OVZ2B2x8LqhoeYYE4/hyZRjlmxPimQzucPBwtYnh4iygDKra4HneSeWFUgwRKqqk8rFVTrglCmHnFqREFvDK8jR6h3QpwumhtaG7xmhUG84kkHQbPcDsZ9IXUfHqhqII7iojT2gWJ7mAkjQ/g0RZiTnEGVxWEMMd4+J4eHIGD0/O4+4JOq4pJjVPGgP8uoC9HgEWsOkYGkjgklAMt1dkMarKwKjqLG4Zm8HFhUl8sSyCa8sy6KGx+If3ZGBYIIELCmK4blwGD0028WA1JY7TuLggisuKm3HNmBiGF+uiYX6SOAqy6BVM4vySOG4Zn8ID1ToeqM7j9rE6Li7Iol8gB0ZzTizIoVsogstL6nHTuGbcOTEpFdcDtDyuLIrinopWXFLMGgsdPQSEkVYni6uLk3h4QgJfmqxj5GQdt4/L4KrCJC4KpDEkwEJfA+eQeL2gBQ+WxXBNUQ5D5d6JJbhBy+GSYCvuKQ3jmhKKpzDtjKqEbehOiiO/+/wOIYryjnXKBZQEp9wEcl1hATGdFeQIpr76lQVR8UzO251FVDdh2fROUhWnDR6gdAgmveZ6KQ8ZUB5PtEGcYDTmqvpXqaXQa8BkespZ0egLMbEkRasFg9XYzF8h+CD3F/mrmEfUJ0CKEEcky3gOFrKQB3Koj1xfNs4dTUNII2oKOCPr/DB/HgP9hoBYAln+HneUDIX158MVAMF8Gibs59BLS6FvMNtOdMrQ2YkhNcB6B7PoEUqje0gXIlKPkJjSaJy0p2lZnBDSQfqj7n5qwZLHzMQ5o/Mibk8NXxohVuMxB4YLBSvsFAG1G/JuJwR3wycfZFB/iN9tL5hxQ3PKcLrufCEFJuu/hcFaGvdVhF3PJHMFTXz9rRyGFeVlosriKEnrKs/I88zIju5DvN53TPD/49wdASU3JJ8hjVEwhX7+lHCu9XRBP0EdvdV9JG+K4RMCUAI4XSowuSh9mtybzL/yUZWJxQ8MizE/h+PewEBfVqpBuzCdosASiqW+QV1k91ht2FU2EywoSSvjy0R7GdMkuc5hqD8vBRik75AqZ58NKl6c408I/xzDup+mOhHv4RjZkPB57RtjauyrDYfyTNIYs+/JkziqMo7AhpTkIYd2W3h0eg4jCtjHzI9iH6sFnxyAIqHmGvWPM6D0gAivn3RkrAzuGUygazAnuWwckycFGPJmf+RxejCHLoEcPhPI4bMB9boLK3z9pmiD9/dRSYn2jnm0efHEsnpYsRk4OIWUXqRrC1joGqCKmSqKo2LPEKGiUnab1cvDxYY56Ct8goqHkqCHURRetzynj+k446bEq+L2crR5vQxPM8zJQgzOS9UH5EeO4anKJozbnhQKGt9W5uvlQe5k6q1zbNErSe+3KuBQNlCe37vYGJJXU+63e0AVQZHah/9nWFu8kdKPHftU9StpjLqwT5kD7M9hqOss4dpyNimKfIaoKw0M2hhKkQNeE98Lcn1RssW0OwN8LF7NS26nrHv+vNizswmOR7PwR6nXEeScGdTRTUuid4BFoqZ4bJkT2ieYA4HiZ126Ll7TaVQEkvGVw1laFl20PD4rwiGch0y3oWNHyekSvKuUN9V/PCfH8OcY1dHS6B5M4uxgWmiPzvKb+JzIkqYwzJ8AmVR4X32oKOVvQy8/FcdssOiQayl5Mfv6DCm6Y/EdaYq4tlPG9EJfVkQAmEfdx8UNBLKslO/jz+Acn5KoZQHW6SIZ7AigJD2W2KJ3eZ7vu650XBtlI6s2s8oGEXcQh+QxyJ+WouGfzmjFW7vSSOQIJKmGw6MjgJIy3AIkHaCNzXNPHk4O5XEFKDmhZZHkIqvy67jL5iSm8STnExfQk1jdRpDIPBS/okdQniKC0LzsLLw8B3ngkuugZMz6yILKRVVVKLKinBQBbOToI5Bksi1JeRlO4LGHS/9yVoA5LLxGJukTRHDy0SVNjxANpiLm5mfIFXW2GGdDPEY0zqSQ4QDuE6A3SEcXjRMzJxyAvD82/j6v+XTZ/SggzJ0fF0kFsLiDcQ2TGGYvF+djkt/lLvaigCP9qKgV+By582KRA/ttgJbByPJG/O+KVvFMMhfn6QVZDCjKgoaCSc+8Z9JRcEx4gIFGl6/fd7Ie6uQ+xM8TUKocUBZsUFWFxzxI08LFh0aB9ytVrm4lIMcUNwlnBDkeGI4y5HsnCh+nyhsmIbWQUvPZi1eEigzMMVVViieGWJVJ7yhz01Q/KCoJJt6Tn0x56NRcyAnpdD8Z0zTo3E0rI0h+TPJOcgxTbYKLkYCPj+lC/27PWoy49C3nq/Jisw+6S2iRhXYJPDIxCt+GDBaRvWG3iSdm5nAOK/ClQtN2qzWZ00Y7wgR7VuoqouoTGfL+mHoopT8IdMReqEWZKQsUYpBCoqDKnyTw4zgjHyXBBT1WJwXYDAGcDN/Sg+apuygvLeccbQwXSkfsLcccU3pYgMIccQJW2kVyLjI0StvHfqPNJeVVPx9pdFQ1str8cb52AP6HON/e7fkfib8RRNK7z+YR2rOPe/oIuiwBiQSIdFz0D0XxeFUYY7amhArHv9PGfVXk/dQFEBIUEhTQDtBbziZg4X1sF5XB6E3m2nYG1wDXZgqobe8zty892+/aoq78rtgYclI6smbyXCTx99I5egVt9BewpXIv+YyFOF9yAtWGl/cnhSYiJ6lSrHgdp7vzg/0h40SArnKWcN7x3hToNty0AAen+R2c4ndwkt/BqWLTVPSA+cjMO6V95+abfcW1jXK6LHYiaOOaL+u7gC1VvEm5WuZEsy8JYvk55rNyDSXIpXOJHMWK1UE5lDg2uZZwbvPzPXx8niSCV3ypvGa2vkw3kA2DWq8IaqmmRRloycOm6o+fhW4KUPJ87DuxG7yG9udzEK89MCl5szyP2qjItcr1qA1xf38GVxdE8MNprXhrJ6u5TQGSbY4Jx7FgOyrkrTgnoZInCSY7AaV6CGpXqBZFyYFqBxIeoFC7AZnsbr4BJ5sCHJzo+5oYMvfBiStZDKRaNPgA2fZNdDXZOZH2C0lwkHgP3/2+8ox4v+kCOw4691p5LXI9suDTQLDxc2p3rn5DXSffU7tS7kzdc8h9ubuejvdP+hL33NxFS9i4A6XJIQ3oQxn8h/FZ3iu50khv4aUfcNHnAkfw1TeYwp1lYby2olnk4KY1WUJaPrgkjZMCOkgJJQCUgJL95xrPjvf8Ud1vu+ei4/PwnjmfV4dx6T1TdfQqAveNCW4MhFPTGxsdxpo3nrxnzs8SSLJ17If28dZhrHQcV8zTVJWI3phSR/5NFor2McXzHoQx/Jh8hv3CPmLYWm0K6Ukw0JeSciHFAzh6bRxLIiZK9hh4cmYGFxRTw5qfV2CSGzguHDInxbg7oGgAPcfk7/tUyPhYhrxl7Lv3r56tsjEyFgRgqBxlNTb22URGUJQ98j7vqk25fcA+9cabeq2AFe2tNKHMUfbtHXbRtZ3tC62MZXW+juP1o5q3B/O7XhW3yNq6BS8EI/3pfKDH0UdPF0nxoxhV1YjSbSmsTtsI7bAxspr5ewocEeBw06wKDhmVUIWHal6+12bYndfefHSjdWrt8Ob8O+0++1ZtbpXtkf6X/D72vQqdttshbkTd+/KeswLOai6peeDaMNeOeXZIXYdaPzlnCOikiZqMC5rdMdk+XrxxQ/vWwS7yXO1OEW/NFk/kPm5PriHi0W7/nhq7nkNBxqeEh9V90pnT3mQs8vtqbqt77bD+ukDOu9/2/pHrd3+3/Tm4Y7jdvu6zox3ngLw+GNvYAUfwWTCNggC4V0BtzpTDiR7lLK4oiOGlaRHM2p5BNGvCtk0QTAqgbLPgSPNIzD8kQEli8/OOkxxKb7E+cPLv93dvoPHBuCbOiyEAACAASURBVMCqfUB08LBwonU8j3eOdz92nLD7zqsMofd/NZk9UuF3nludQ72///nk+uRa3XN1AA4CNNtBwr7faj+/99kDBqt3H+2fO+D9j/LvvCcJ07gEvCThJYDnzrtPIIt7K8J4Y2Ur3k6YmEGy5Xk6hpSk0TWoiwdlf0NMiqD9n+VHem/uc3zHNXiGgs/hPZ6ZfGe/9zxvg3ruB57znc/YG1feWNsfAMpYolGU8eSNJe873v87HOVa9l3Dgb//cf4/FwluCBmmlbQCv4H+/jzOo2eyqgW+jQksiBjQdpp4YlYW50vBCUN6KoVFRTy4WCjvGhdiRhFOCjj4VNCWghzmT346ZMjrj1NRjvdcvPHBezjoBU3shPvMO4zZ9nMdjB1pt737xhKvqeM5vNfetR4LR16zhLzd/qTdYsRogISvGclKYUSoGV+d3Ijy7UmsSDlCs3NXZR79JdWK9GcqxeB08uu6qm7qqFJK3tuWufP0XZ7l+/Ul35O+9eaybA5cb7u7Pu63jnUASh5I9M7ffnyPcdE+zrxr3O/oziXvet5x3GeHvLHQ/nu8TgFzBLb7xtG+++p4j3zdwWa53/POpeYBf2vfeQ7ltXdt7UcPSLrna/97x/vz+qHj397jtbLRan08mzKpHbyT9CAz9W5gUMdVRXH8cHoU83bpiGbdMLdjoa3NBiUV2dD+ukMlzgf1UIpSTqmNvseB9OK7Pqz3eDCdn90fTHyk/eFNKB7FOOzbxcnO1N3RDg5kcU95K95YFcHqhCGUE88tyGJESUZSAJgDRu8kvZIMwTJ06+1IP9L76xyD+23OjvazeNcFQUK+TFGhV5I7ehMjQlk8OimCN9clMD/CMDeplXIYXpxThtpHb5NKK5EIhbd4eR6LoCN0MKzePUFowCyhDfo0iwI+RlXeR7v/j8ffe7cxRTDJqm4J97vpOsxvp+e7V4AFTWE8WV2PMdupSW3hze027q+yMJC0LkHybqoc1FPbwaQh+fYHByg/BHvugR8BWe9+Pg/QdDwe9PP17Px72UPX/h/0+d7rPMfj392+U/3OVCavqToNen17ssAyqOPqojhemhXFzJ1ZRHQblsNmwXYBJOBAmoBKN2nSA5Le8XCLcjoB5btPnM5BfRT7RbxFanfpeedUWEPlfZ4VYJVhGvfTM7k6hreTJqpbLHxtXhbDirPoFlSJ2fwcvU7MC2RuIj2aKqTHHelRvJ/O3/pY9Tc9LBLWY8jWC+m6gJKFS6xIvrAgjVGT4vBtTGN+1IRvl4VRM/MgwTZD3P381Fpm3hQ55LzUBNez1wFQnhFg2Jvcgyq3lDmmn3XzXT8utEGdc+GD2wICSi/ETRCpXtPuqCpuVnJzHND+dA/oGB5qxdcnN6BiewLL0zbe2GbhjkmUMlW0QGQYOYs585KvqvKemSO4X3MBX+fz++DP75jrQwJKdzxxXWO6EccWU7uYOsCN8aCAjuuKYvjRzCjm1eqI5ggkHdhtDkxRwaF30lZgkqDyyAHK40gpp3Mx/1gt5gc1cV3gpyaMypdhkjU9jTSwlKO8p7wFo1dHsDJhiuTV0wt0DCrWXaWIfbmk9EjSQ8CmtHJVDstBXUfn2Dn2xs5BPDMFKMkDaeJUNhkjXKzpOdIxvCCBRytb8Ma6JN6KmQjVmfjSbB1Dilg0x7BlG/r62kRvmWwK9E5KDpbncXEB5VlBB2zcFJF2h9WzHRvBLIFI51g89vuAz5FAkqo3UoSj2VLQxOKjzwUcfCboyJEFGUNCEXy5uhHl25KoSdp4Y4eNO6pNkb7s6VOpFyzIY/EkvZEsolPpGEzJUMWWDG12bo6P/XFzOHOfXknJbXULLaXYVCiTVC4qweRgv46rC+J4aWYUs3ZlFZh0q7gJKk3XS3lUAOXxkkN5OA+r8zsf8SSVyeIaS5dyRRV7qNB172BayLjfXB0XrdQpYUppZdGvmNRJHYqbuFi3h2w6hMx5/s5F/BPbByo0qTyUTOQXGUSvcjaYw6CCOB6sDMO3MY75MUPECB6bnRWuO6k69TtCIdLbT964NqlOpnEXI++OK6ZlyGbIA5gMhRN0St5Ux2MnoDxe5qIHKOmRlCIc8kuSk1jSHRycEKSn2sA5WgJPTglLAc7ShI3R2x3cWWWit2YJ3RtzLAke6WXi0St84qaFuuo9g7Y00lSpNIvOaMvxMoYO5j4kxO1WhDPMLUWSXlGSW+U+0J/FNQVuzuQeF0xSk5uAUkAl+SZZ2W3u76H0Qt8dy7o7qOTw5SHzUDLkfb5blMMdEHfRB3OjnZ/pBCqHOga8BXZf+NGrGlXAkECSnkkW1TD80yeYwq2izR3FqpiBaS02vjVfR9/iDE4KcTfP73U+h0N9Dp+kz6sxt69qmeOLdo40X4NCadw3KYzX10exIGqgoNbCqNl5DCvJgxydvf3kQ2wTQNkzAHTzt4HUX2R9aAeUHnhs91q6GxuCzM6xedyuJR6gZCSEmwl6srmJ6BKwxTvJXO4RWhxPVjZjzLY0liYs/O9WR8i6B2tKPpHcyEKPRI5Fv6IJkwIYl9KJYJKFFjwqQHmoxVOdtvFYt3XKO+nlSypA6YW5SZk0yJ/FlZRTnB7F7J0kLVeE5Q5D3e1gkvmTRwFQZgBIlXdxG/r42iTnjDskTpZj/UF0Xv/H7xlyXDE3UrjShIdTqXB4VCTU5Gbj+30Dadxa2oS/L4tgdTSPORFLwOS5JVkhYGbo0jO+neP14/esP/L5Jws9wR3TIVQ+LYm1uWmh+svQUBZ3T4jhjXVxLIoaKNpj4cnZBs4pJmkzaTgUuXZ/vwp1dxN1C8VxJ0UXPH+Hts87vs9T3gkoj69xKfbLq+R2iwcJJsnLylQI8h4yb5KbluHBOJ6qDKNkSxKrkhYC2y3cU2VguEbCafIykiuX3I2KX7abAEq3slhYLfZRpnE8ElAe6Bn/yOdYJ044MjhpP7vCim5LKfm5NGVeziQ9kwSTL06JYLaEuS3JmSSYbKOHkqDSoXdSEZmTzHy/kPeH7aFUgBI4txjo6WsTYlCR7ekcKEdmoHzC+5UGmQsv84UUaS+PJJIniXsOLKphcnpfTcetJWG8VkMwaWBOq4XvLczg3GLKiOXaedk8sNAJKI+vhftDWShdZgBFmqwImjnuSCpNbe4HJ7bgjfUpLEuYKK0z8fgMSgJS+YLiAW6j4gUXfHcxZ06u8HlKakWnt+hDeU7HkE2knaFMIXMmPc9kDyEst0QFprvPwmmBHAZpUTxVFUbF1hSWJyy8ts3GPVV59A/m0cunxC/O9CvBDZJRCwm3lyPJ/pDNkEcNozh5SYK9n2f8GOq3T9o4+cD366bQ8HnLhoVeao9rUoQmDAz067iKnslprZizK4t4nkTlDpw2tjZppAZyhLzcRpvD5tIFtQNJt9r7wwp5E1BOiLRhWImD7j5HKhOFaqVzsHYCyiMwBgT4kUyaiiSiTJCTY49ADmcRUFIBJ5jBrWWtyjMZyeOtFhs/XpjDFaUZUTM4PUAqDeXJVJufzhSND2zAjsCz/iivScaZyzEpShr+HLqzBXUMDMXxwKQwRq+PoyZuoqLOxNOz0rigUEdfUWpRYJIGnEBS1CwY1m5vngdSeZM+yvvs/O2ju5HiuGIhDkElxwMLZvr7TQymEo6Pnm9uViJ4lKTlW1NYFrcQ2m7j7skWBlKBTTbS+2hehPqlfYy55OCcix08VB1fe2Ow87kf3ed+1Pu7A6Ck/enBDa7fFsqyQZR+9Ou4XIvhh9MjbpjblvC2AMg2VnV7gJKSivtau1C3AEiPH8g7HpA8eTi0QQSU4yNtGFLioJvPET1N5qWJQT7OFpmjPig6++8doNwDlDSsNL7dA9QxzwqolJxJLY07y5rx7+UxCXPPJZhckMMVJTkMovfST1oN5k6yWldxtDHs3flsj3MDe4hziQuvbDYCefT259Gb2ujBHIYUxPDAxHoENiWwLGmhbK+FJ6bruKAwi/4Bkpbb6MvwpRta4mLuLeIcux3t4oH/7xyDx/8Y5DMX4nIX9FGbm4CShPh9AmmcG2rFU5OpgJPEkoSN17fbeGiyhcEhJe/JKm6V1uOxUhwAHv+vce4Bzf/rc53vH9NrAm2OpIa5ediUXKZd4lgb4s/hatczOb82h1jeBZO28k7aaIPX2jzPo2DG9wKO7/V3hSgPqSjHA5SDS20BlKdQB7MTUB7Tg/HjvLBxolD1h+HungHqp2bRM6C0a/sFM7ipvAX/WB7FymgeCyIWfrooi2tLsxgUULJ49Gx2Asrjf+E+rDHsLbYuCGwHlIE8+gUNDNYyeHB8GP4NcSxLmiitt/HELAPDC0lsrvSjqSHNEDflzNo9Q2LUOzcth/VMjhNg420ePOJyz0PJUDXzcXsFsxhR0IwvT24QBZyapIXR22w8NMXG8EKl9UyqF47JUzRDGmsVPsl92nnvyo57Y8vbuNLusGi1PbVGs0RWsX/AEqfKZVoM35/Winl7sojnHFgEkpIv2SaeSQUmAbJNEip+0H+HBSiHltgS8u4ElJ2L9ZGc6GrSuIAymBNQ2T2QRx9/BjeVtuBvK+JYGTcxO2LhpYUZXFGcxsCAjj4BA73dvEsaZfIJeq3TQ9k5ZjuCPymO0RiqNtHDn0Nffw4jgkncW9GM4IYUVqUtFOy18ND0HAYXmlJ8Q9JygkmGlbr5mbdELknFJ8mKcE/69EjOjc5zf3zHsfJMKk7RkzSS1tvoKo0FhjqGFkTw1NRGlO5IoCZlwbfVwv0TcxiumZJGwaIKJdRg4WTNlEb71fnMP77P/Gg9G44tIcZvL7riWGEEjuIJKj2iT8DEYH8OVwSjeHFKCxbU60iYLLZpcwtvCCrpmVQaODx+pIByRImDnm7Iu9ND2TnIj9Rkkt2Y6I9Ss9aQ4pxewQyuFzAZQ03UwIwWC99dpOOi0qxoLHt5R0L86+7yFe2QorjqBJSd49UDlKRtEcYAF1DSCz7UH8OoMQ0IrI1jecpCSYOJ+2em0beIObvM5yVxuarUbS98cGmBpAiiE1B+4oEPbQxtDknMT9QcnEjS8qCNLqQ2K4hg1JQmVOxIYUWS1EA2RlaZGKIZ6C3jy8u5dblQ6X1yz3ek7GzneY8dm8g1kR7v0wRQelLBJrpqqniVjACD/Dlc5o/he5NbMXd3FgnDFuUbKuBIAQ6BJfMmwdYurPjReChZlENA2asTUH7iDeeRNkScPOLtCRg4JWjgTC2DG8ta8JelMdREDMxotvHMwhwuLNPRUzPQLcjwoydzt88w08Dva8eO8TjS/fuJPb8b7iZdCz3Y4g0KkDw6iXvGNUDbEMPKpIXSRguPzkphUHEa3TR6J6nLTeoWbm5ozDvkTHZ4LYD1OAnffmLHyAd4frQ1BIEeoBQVnKCJXqE4Rk1uQsG2BJYlSA1k4z6CyRBVcEzRVj6btFUeR+l+dqszjaJzLCp7Q/YIkVN0bVfXgIWuQQPdAoyw6Lg0GMcLVa2YtzuHqKHkFKl+w8ZCnPYGlTXpZUV+JCFvAspzShz08DkiVUf3qyz8H2ACdg6UTpDznmNAaIPy6B1M4uayJvzPiihWRQ1Mb7bx7UUG+pXmlQ63m29JL5KSunMX+85x+cne+HTIlfQ8kzwyn00W7gA1kS30DWZw77h6FG2KYF2aYNLGPdOy6FOk4yyNCiQO+gQcdPdbwh9IlRKGy98xbr3f6xx37+ybT0ifcD3kuthFs0UBhxuXEVoMT1U2Ydy2BGoSFl7f2ob7qhwM1WzxTPYQ7kC1wZF83ncbW5+Q/nvHnOq87/a5JJtY4cdV0RWGuXuwyMufQ39fBpf4o/hBdRhL6nJIEky2WbDa2mAxxC2A0gaoz01d7g4+SQ9UHtUcyqxLG8Qqb9IGMcRD137nAOgEhIc9BrwFuP2octC4WCtSc/KvZXBTWTP+XhMRBZyZEQvfWaTj3LIcTg/RE6ny12SBpyE+0FvUfu4OxROdf9tXSHIc9wUNMLnZWDhDDzYbQSEl7OjN5uajv2bi9rIoijfGsSlroaLexoNTdfQpIM8p1Ucc9A04UtWtinDU9+g9l/Mfx/3XEYR3vj7AfrhAx/NUe/3D/7NIootmoUvQxFAtiacrmzF2Swqrk6QGsvBQtYnzQhYGMoUiaIGAkkfy6p4pTdkx75ydxwP6/hM755T0pkrXUa97+vMY6MviMl8EL1Y2YWmdjjSruUlS3kYPZZvQBJFjkvyS7YCy7cPwSe4PQQ+pKIeAclKkDcPpofRTBUJpiR42mOjceXSCcVflQS32lIxSGrUiaB8ksXQK15U04V/LI1gZMzC1xca3F+gYVJrDaSGOPxoaB2e1g0pleA408p0G+ZNpkAXwCUckCaIZrjbRx2+in99Ar4CJYYEMHqxoRdGmLDblbExosPBIVQaDgzq6izYyF3qGuw305neoWBKw5L3uLkD1gGrncR9oP577QjSS6dkW77bS1e4W4BhRjTRSZwYMdNWo/R4VBZyJ21NYnbYxequNRyoNfF4zcK7fwjCfiQE+A/3JF+gzMdBvoq+MUQt9AnZn+wT3QW+XnJwct6pRApaczKTRU3KwHHMDAjlcEYjiR9VhLN+rQzdtIShnaJsck1KMY1MNxwWUjoN9HJP7A8IP+r9DApQ62lAVacO5LMrxKzF7JrV3AspOD+VhjQHXe8RCB7U4K+1RblRODpjoFszgxvIm/K2mBW/H8pjVYuP5hTouKM2iu5bHWZoh7Wxq3crungua09k6+2DfGHAJxwkkuVD39ZM/0kCfgI7hgQQeLm9E+cYUtuUdjG008djkJIZqWfQMGuiumege5NhSRWGkr/Jk8yid19k+uX1ALzfTJtjE4+2zMMhnYbDPEkLp3oEchmkRPFnZiDGbk1idtBHc4eDeKhvDNQuDAzaG+G0Bk30kZMmwpeJB7eHnOOPGpbMdr33ADYhsSN7nyLQaroWnuo0ysNyo8HuUU6QIQ/9AFpcFovh+dQuW7s0hY+wDkyQp91RwePRyJyXcTe/kh++gxCECSgeVEQfDSywBlGdQR7mTzqATUB+up9n1ThJMsnl0GScFmddGaqBWvLY8irUxA7ObbbywIIfzitPoo2XQR8uit5ZFr1BGHYWnMo9eQfK8dbbOPnDHgOtZ7OMnf2QeAwM59PeTqzSOUWPqUbEhgR15BxObHdw9OYOBoSx6ajZ6ypi0cJbYNxWGpCHn5odKFD0CbZ3tE9kHfPbq+fcMtEGavw19fG0YMtrB4NE2qE7y+WAMT05qxPhtSaxNOvBtbcPIKgf9NRXi7ul6v9s3K+6mhZtkijB4/JOdx+OvL07WDHTRDHxGM3BCSLVPhwx86l0a/+595gTNAL9LCeGuIj+cwaXBVnx/SgsW1eeRFn5JeiEJFo8AWjwI9+UhA8pJEQfDShk6ckQa6oxOQNkJKA8TUHphaUrWMTeNOrdnSbVjBreUNeMfS6NYGzcxL0rPZA5DS7LoouXQNcTcySxOD2VwaiiN07QMTteyOEPTcaaW62ydfbBvDARz6CYynTrOCOro5s+gvz+KkeX1KN2UwFbdxviwjdunZfG5ghxOCtnopbVhQNCRUPeZWh7SgnnRjme4m3rKne0T3AdiqxxQkUSa30Fvn4MBPkdkFS8JxvF0ZRPKtyaxOmOjYJeD+z0wGbAwIGAJ3yRpgvr6qZ5jYQC9lVQ3kfAmZRk72/HaB/S6cnNKYCi0ZeRKDpo4OWiii7av0bFyioBHAkg2A6fTDhFMBrI4P9iK56ubsbghh5jlwIQiLffkEw8C/33oH3kfQEmE67EUKb4iFfJ2MKIkL6EfGlch8vX0RT1Bepd0k8nw79YUX5sSrz9NEpiZxKwq43hUZfHqfX6f/9/vc+7veOeW4iDv+6ywc8+hqjhVNWf7OdwKvH2fUb/jXZP8zvt8Rs7jXU+Hz6nvv/9v8Xq93+HxoH7rgPsi/1TH35Lk3APOdbobSvbu/2jee8fr4e96z+jAo9cPHD+cYL0Z4hYjmsW1xa14dWkUq2Im5sZsPLskj77FWXwmpKtdXIGJT4VMcPfW3jQTJ2gWPq2Z+BRbyPuMhU+HDq19KmTh/RrP937v8z3vN9/rc//X+973PozfOhavp+M1e33lHU/o0L/e397zqFk4UYojLHwumMcZ/jiuLw/jjQ1xbMrbqGyxcc/UFLoUcmwpjjep6Jb8yH08bzT+bPSin81qb7dxM3Q26arcdpZ42vf93/u7d/Te73jkOSTto8O5Or7vfdc7dnzPe+295x29vx949N73jge+z/+r9xw5vvf73ucYWXj35v0GjwfzmXf7XMdzvNv7+6730K7nUM/Vfh1ugZcUebnpFHx+bL39Ji4OxPDU+HqUbI2jJmvDt8vGA9UmBgRV7m0fF1BSyUSaSORRJm9fY54uc+N6HgAqvRzNI3OkwkpnO1p9QBnOjo3guWN43wuJM8wt4hwCPg2cGqTGexafD7bihSlNmL83i7TNam5H8UpKJbfS4/7Q0eJBnPB9AKUHJkl/qQBlrq0NU1sdXF6ii7h9T8qOuVWTfE0vE4+ecZTju+QaeXlIfP9AkMX//3/2rgM8i2Jr20U6BJKQSnpICCH0KgJiver9r3rtqIjYuyJNQEB6E5SeSgudJF8JIJarV7336lVRKYoCSu+EJF/b3fd/3tmdL5uPBKLiVWDhmWd2d86ec+bMZOf9zsycaWwEDpZ04mgzP5DSy83rl3hahQQoMjfzIB/KqhSImPcBcvhRCNQnkE/QAlWcjCHlEDRRPyFD8qsBn8C6Uy71YV0kL/0Ujsp1O1WfKnSugT7mutfEPqSpqu60qdRX5tKG1NXcTrwWGxqMAZReHi4ybpxZjnrCk1SGTosPY8xHh/HJES/WHVbQ/0MPwhe5cEmWGxdnE0B6cSljvGWqqLNARZ1MruVVUX+BigYLFNTN9KFWplfsrqwtTqdQUTtLxZVZCq7I8uKKLB+uyNTTlZk+mJMoy/Lh8iwvLs304ZKsisT7y/iuKfH+UhPNJafQeMU7fO7nRRrK9/Px4rJML8w0v06WztfMhzIvzzTq7K9XZVmn6qzX068v62jU63K/zgbNaepFWtYz0I6V605bm2zD61NsqNuqVhbbVQ/oW2+BgtqZirjnKSRXnSHV41o3EfC3BDfl78OCzSfwebmCZXu9uMNRgpDsUtTJ9oKnmjDcC/slN0RwUXxops+fOACwD/OEHJ7jzcQNPiELPGKzD+NT8mg9DgwcIAgMuG6TQENsCDIGDa5/kuugSKdvEqK3yryxQ18nRVrJSwCNBfo9n3MDG3P9h5jxrrHxiDr4abgOVPIx9CIvP43BizQEMQKwGDpTtp9PNbJIw3cD9RG8DH38NCZZol5CH33XvV+WiVcFjW5DP41Rd+pmpuFa2Uo0prpLfVh30gidq9QnQJZZhsl+entwcxfX5LqQlH0Yfdf+hKVbDuNf3ICzQ8H1RR5EZXv0tbhiTa4HTbPc4IlfIvHanDLd4kQwBtlnXMHGmS40WeBCsJFCjHWWPG8+JFM/PYxlTee7EDzfhZAFPKLWeO7PyxG8oNxPwxOh/PzmuxFymhQ63w2m09GwrCZ0Z6I5U/kvlXMmvc8k70zl0iY1oasJDdu5UWbl1DDThbpZLtQV/aAczeeXoEvWfrxk34tPdpfjpNcHRfNC1XwQnkmFaygZa/JPN+VNhfREQEkFXaqKjQdV3LK6FG3zypGW60ZSrhstct1IyXWjZa4brXLcSDel1jkeZGR70EYkL9rmVKQ2OV5k5HjROseL9BwvWuV4RM5npJPlLJPlkobvkI40vObzwHQqTWU68gykMcvRZXkq0VBmeoAs3gfyaVWFTuRdWeezo09gvXlPfZikDU/VR7epWZ+a1T1Q59PXnbYxJ/YPf8p1IzWvFM0XlSBi8Ul0zT+KUf88jo8O+/CPYwpGfVaGq5eVIDavDBELXQhf6EJYXjmic/nx9iAly+tPLbI8SMp2IznbheQcpnK0yHGhRbZb0CZkuxEvEhfLM5UjViR570J8tgvxWXpOGt4n5LgQn8Nj0fQ8Psfgk+MWZeK5oC0XNBX3pDN4ZpcjPpvlOo3/eZbbL088yyn3y9LlVsiqrIOhj+Av61VZXlWy4oy66TpKnSQvN4SNWL9K9dXL9XekLFkv5nq9qL+0Ge0cZ9i6wh7muhuysplL+dTHLIu89TrF5bgQJ2yj80gU78n6Sp30nPwSs8uRlKMn9oPUnFK0zjmO21YcxLyvTuDbMgWOQ170X3cEbRcdRVyuG8m5HiTlepGS50PLXB/49yL/pvk3wsT7VrketM71ICPHgzb8trF/85n4mzOuc71oLZJOS/qKRB5etMz1IjXXgzTJz0STnqvTkI7Xgn9Auf5clldFQ10qynVeZj10Xc00VcuqzEfSmHXi9a/lU2GXmupTUacKmfq7ktev14ftVmEjyYe2Y0ozJfYDftfY/kydck+g7+o9WLH5KDafVLD6Jy8eWleKtNxS8feUmOtBYq4XCbluxOe6EJ+np4Q8F/RUjoQ8I+Wavjs5LiSJ75gLKcyNlJTrQmJOORJz5XsuJObx3qWnHJbrfBJyyxEfkBIMGaQRKbdcvC90IE/eCxm6fJ1Of84ymeT71FHykWUyP4WP6X1JQ334fnV8WE9ZXh0NedEmLJc0FfxNOp9BluATSJNT8b7kaa67Ls9oD1P9fkndxTeffcOU4vJciBV9pQxpuSXomXcQA+378f7OcpzwqlBUrwEoCSQ1aArXUP4pAaX0bxqgUmOkdS92lPqwdIsH2V+7kb3JjZyvXMj5qhzZ5vSlC9n+xDJXpaS/c+qzQDrek1bm5vfktcyroqnqmaRnznIzjfla0tXkWU1pAukC76VOUnZN7qujCeRd1b35Ga/N91KHwGdnujfrk/VVOTJNifdZX5Yj20i8zvyqDAvYjza5UbzVjZ1HfTjqVfH1YQ/Wbj2JnK9OX5D+pAAAIABJREFUInNTGeZ/XSrSvE0nseCrUuR8UYbcL8r9ifcifVmOnC/LkVsplSH3SyPJ96qiYxnpBC+dD3mJ9EU5ckTSaXIEXQANZQqdKuSJd/yyXMj90qXrFyCL+vpl8dpfH0NeNTpRV+pMfSrLog1MskS9dRr53C/PkCVtRj6V9DHqJOps2LFaWSY7n8JH1Euvm663bi+/HtJO1EfykXYWtneJOuptGdjGZp0Ne3xZhuwvy5C1qQS53xzFhh0nsLvEg2NuBZ/sLcfib04ga1M5cr/yiJS9yYOsTR5kfl11yvraAyZ/uaT9xoNMpq/dRjLRmOn95ZKOeVW0bmR9bU66XClfz83lvP41NIE8fi0fyg7k9Wv0+bV8qtL77OpT0bZ62y342oMFos29yNzkwaJvSvDhzqM4VO7BIZcqNkks/JrfqjLjG+hG5lceLNjkwoJN/OYxlSPTSFmbXNBTueiT4lu5ybjeVI7sTeXIMXL2WZH4PWXyv0se8lkgjYnO/55BU+kdkx6CdwCNWV615VKWoUtVdKIOZ5BVI5oz8PDLNuh4739m1M1/XxNeZ+AjeJHmN9Rd1FvvG+wjej/ht7wMK785ia/2e3DMo8KjqvCqPngYa5JT3ooGVWH+pwaUBJbcNaQAqgse1YtDXg3HFRUnfSrKvCpOelSUyORVccKj4rg/KeJgch5OricVx70ViSibqcRIvK5UTr5exUg6HSPA83xKKYPyTggayUcR97KcOd8pYfLL0mnMuvK6orziOpBGl1XB61R9FF1egKzK+lTw12XqdQyUFVh31kGXp9uY9KfoQ1v77U+6X6OPrl+gPoGyTqcPaWX7irySTno/If+THg3lHhU+rwpN8cGrKKJvHfOqYrHxEUWFP/lUATj1Nq3gQT4lvkCbVtyfZD81+ir760mfhpNemfS+LJ5LOrZdID+jj0s+os/729iQRd6Sh3Fd4tVgTvy7qSQrUHfKlbIkD94HypJyZL385RXypK7+XMhiucHPkCX0qUaW+PuU+phk6jwCZMlyyUvKYV4TWea6m3kJ+YbepJFlAbm/XsZ35YRPxXGfFyWKG27VA5/ihc/rEbHaSMvvl8uriVTq08B0UgFKFOBEFYnP9aThhHKmZOZRQVuiUIYG5kw6H9Lq17KcNBUJQq+Ke3OZ+Zp05vuqrs9E87+URf3+jPpU1km2lczZVseNdIJjoaKIsVFVfeKIu1L2UZ8K5nrS9G8O//YFvZ6zrEwkDWU+JoNeUVGmqCg1Eq+rTKZ3K2RVvCfelzyN/u2nM/H3PzPTmMt5LfjofyP630qAHD8NaUkn3wmg8z+XvALKT+Fj8PrN+ph0MvM6q/rIulcjy183U90p36yPcc1+UmIkjlelXg3l3Hyj0jOpwqupcEGDGxq8PJ+bgNLI/4RT3tJDKQGlCqhe8A/GIw4ZrzhaXB4zXnWuQIM56e+ZaSs2/5xaptMpAJj0dZ06v0DainLSnUqj6yB5kN+pNDrPCppAGfL+TLJ0+ZX5UJ58vyKvoKlOn6rqHsirsj563SpkVNhQroutTpYsl3YO5MH7qvQJpNP1q9xmATQ8U5Suef6aUjT9WlXEWhD+ofDXl0fT9ATAw6RVJK8G+KpIigYwMXKCP7HnmO957e9NxnVgeSBNVeXymeQl76vKJU1VupD+TOWSp6ST91XlkkbmgTTyOfPAMvO9pDM/C7yWNKfj9UtoAvkb97JdRZsD8BlfBNkbzTmPGlO4UN3nhVf8QHFBUctM00NefWrIp0LzKdD4Q8anQvVpeuJvZ3mgRDU5y/Wkf8hFH2Y/NtFX0FTPryY0Zp7WtXHQh8nOf6xN2Oa6V0hMOXLa0f9dU8XHiKfcibB/Rug//2Iy3ss/fPmQ91Vdy2fV5fI987BtXZ/TFjilqdmJxAeDY6cmgpZzHOQ4yeDlfCYApYg5+cdU/TSbcgIUopImpf1BMv29/5Tqm/4yrLKKr4RlC78tKn1l9XW6YmEx+xp7j/jDOPUA+xpb0AjHVWN6q8ee83/N4icPT4jwlMJ3cg987sNQfGVQfB5x/BiPIlNVHVBCTA0ZgYBFDDeAh0iIZAAW/+8nE2KVAKaqMvkskCbwXtIF5qQLfGbd/7lt4m9b/6+zyh8S+ZkTf1zmYVV+mMzPeF3d80A68/2vecf8vnX9p7NA1U2qD2r62Gj6oULiP8G/XwAo9V9TwpUq/nD4s8v6WfQnaENLBcsCF7QFzB9eBs9QNA+U8l1w/1QA18/roJTshup2C++j/xgyujoFoGTsNj0YsPAk1QBQWgDvzw3w/rD2kcOh7JAyv6D/Oq3KX0gW+EWAUv+FJd0+Rn7Kz64LyXxWXS0LWBb4M1mAyztUrQyq6xt4t72Bsk+fQvn3S+E5sQuK1y28lJza1kyAUiwJEceU6UsAxMwSwYGVLBvUpA9Ir/KfxEv0Z/p7tHS5sCxQc0Bptov85WX9AZmtYl1bFrAs8AdbQPdQElBugrJ1MLwbu6LkgwdwYns+PKW7oPhcUMXaSd1DyVkW8d9/7q0xjVQTIGHRWIAzsA/8wf3fEm9Z4I+0wK8DlH+kxpZsywKWBSwLVGOBCkD5LbTNg6Guj4fXHoWTH/wV5dtz4Sv5HqrHJTbi6Lu3dECpwAeF0+VGzN2qd1GY1reZf1Rb1xXr/i50W1TTL63HlgUuBAtYgPJCaGWrjpYFLhAL6ICyHKprK7RvhwHF0dBsl8JXHInyD+9H+fdL4DvxEzSPR0x7ix264hRcNxTjf+VIBheI4axqWhawLGBZ4DdawAKUv9GA1uuWBSwL/HksUAEot0H7dihQHAnYLoHmqA/FkQ7Xew+ifJsBKr3c7c3NhV6o8FQBKK01PX+elrU0sSxgWeDPbgELUP7ZW8jSz7KAZYEaW6AyoBwCFEcAtssAez1otkgo9lYof/8+lG5bBt+J3dC8HhEnSNXon+QOcZ4yYUSw4O4c659lAcsClgUsC9TIAhagrJGZLCLLApYFzgULVAaUg3UPZdGVgL0uNFsjaLYmUBwJKH3/Abi2LYdyYic0btRRFBEoWDXi7TKkkAhI6Q8KaIHLc6H9LR0tC1gW+OMsYAHKP872lmTLApYFzrIFCCh9mguqi1PeElBeBdhrA7YroDHZG0C1J8Cz8S54NmdCOf49NG8ZVBHcXD/pRIBJEWXcvI33LCtrsbMsYFnAssB5ZAELUJ5HjWlVxbLAhW6BUwFlFFBEQHmVPvVtuwyavQ40e1Motnh4Nt4Oz5ZMKCXfQfOViSMZ/WDSApQXeney6m9ZwLLAL7DALwCUPAJP/v8FEixSywKWBSwL/I8sUCWgtElAeamxnpKAsgG0omCoRfHwbrwV7i2z4CvZBs1XLqa6xXnMPJO5UnRza9r7f9SMlhjLApYFzkEL1BBQEkjyU83/vNbDjlVcnIM1t1S2LGBZ4LyzQNWAshZgrwXYDEDpqGNs0gmFZguFao+A+92bUbYtS/dUKi7hqeSRjHpkSnkUCqe/LVB53nUaq0KWBSwLnBUL/DZAaX1fz0ojWEwsC1gWODsWqACUjEP5KrCOYYOqAJQElY5G0BwNodlrQ7GHwf3urXBtnQvfie+gesugqHpkSk3zgQmcArd2fp+dhrK4WBawLHDeWaBGgNLsn9Q9lJr+XfW7Ks87u1gVsixgWeActIAOKN1GYPOBwLpowEaPJNdQmjyUAlASVNaBJlJ9KM7mcL9/K8q3ZcN7YhsUxQWF094iKSKHankoz8FuYalsWcCywP/AAtUCSh0rEjhqUDU9Phs/rtwJyTht4rk1AfQ/aCJLhGUBywI1tQABpaIRUG7RPZTFMUBRvSoAZV3AYSRnXWjO+tCcjaE4o+H64F6Ub82E78R2qD63CH6uqhqYNAJKC1PWtDksOssClgUuIAtUCyj15egEjgoY9NdHUMk1RYoXmsopIK4vEp9vcc17fUrIyi07WH3A6gN/TB/g1LSqlkEr/8YIG5QIFNU3wgbRQ3m5DiSddQGR6gFOJoLKBlAdjFOZBte7d6Bs6wJ4j38Hzcs4lfwxzR/XetKDnxNcEl3KtT8W0ryAxk6rqpYFLAsEWKBKQKl/IiVY9AlAyRMkVKUUavluaO69UD0HoHoPQvXuF0nz7IPmNaf90Ly/NJnfN18H8jGX8TqwPPDeTH+6sqp4md+V17+Uh5m+Oh6kkWXm3PxudTSkN9OZ3w8sM9MZ15790GSqxKcqeYHvB8o6nTxJG8jDfC9pquJjLjNfV/d+VTyqozU/l9dmGfJaljGXz2RuLgu8Ph2NLAvMzTwCy3hvLpfXZjr5zJyby83XZhpem8t4HVgeSHOmcskvkE4+N+eBNPL+dDT7IL5B/A65f4J24mNoXw8F1rUDbM0AeyPAbkx90zNZFaB01IfmCIFqj4biSILrvTvh3jwX6nHu/uZGHf6o5knfqvgm6uGFCCblph0LUAaML9atZQHLAheQBaoFlPqubn46vVDghaq6oJ7cBHV7FpRtb0PZOgO+bW/Ct2UqfFsmQ2HayjQJyhamime+rZMgk04zBcrWKcY7k/R3+F6lJPlNrnhX8J0IZatMUobp3S2ThD4+6uLXiTxMfMxyBE9DZ/Nzeb1lol4fUTfylPUzZLLcrw+fmWgkD5nLd6VuvGeZfC7vJQ9ZJt/fOhG+QFmijM8nCDspQl+pk6GP0N2QJegN22xhG0zR7SXay2gTqYe/DQPqJcuFflXZR7eBbHORm9pC7xsVNpd0Fe1v6kf+upv1r8pm7GO6fXQb8b6i3St4G3ykzaWt/fcmOf5nJn38dTdsLNo/wD6BOpv5CJuaZJhtKHgb/V6+I57J9mQuZRn97BRZpvY4rSwpx9RfhSzyl3UzZJltFChP3tdYVqDeUhZzqdOpfYN9xF/3U/SZCN+WCUbS+4D67WvQPvo/wJ4E2EIAR0PA0aAiGV5J3TupeyjhqAfN0RSaIwyqPRiqPRa+jbfA++1s+I5vheotF2sq/Ut/VJ6mI8GkzC1QeQGNn1ZVLQtYFjBZoEpAyXLdP8ldjj4oKtcRlUA7VAjtn/dA29gD2oaOUDd0gLq+NdR1LaFtSIG23kima3V9C6jrE6FuSIC6gXkLnVbQtIC2Pgna+kRo6xOM3FROmg0p4h3y0OlIn6TzeKcVtPVMqdA2JBu8KC9FJG0Dn7eEuiEN6oZU43mS0KeCl0ne+mRoGxKhvZMAbYPUh890PSrqSL0D9HmHfNKgbWglZGrk5a8baam3mRfpE3U5Z5Sl20hdT92TDBvS5qxfC8Ou8Ua9DPtQn/Vphn1a6rKFDnxe0VbCLsLGqbodRZmhq6ST9Rf3Rt2pM/UX9TTZR7Qr+et21nVOFvavsA/1Ih9Jw36RBPWdQPuwndkOsi2ol9FeUrdKfGgbJvJhm7fS2/6UtjD0lvUSuSHL3BZSlqQzZFVue+rDtpDtrterguY0stjPRD8y1esUWWYa1ut0sox2kzyqrFdVsvT2qtDF4LO+JTT+jbFfV6o7dTqDLGHHXyHrnQpZ4ruxXn432IdM/Uy0qbRNov6NEd+ZFCjvtIG6sS00Z3OgqAlgo3eyvtjVDWcQ9FQ/wEvJ9ZTcpNMQmiMYmr2JCH5Ob6X33Vvh2TwHyvEtUBWX/0Qdri0Hd3+DSQJKOf1t+spal5YFLAtYFrgALHBmQCnWJHmg+U4CB5YC73YGbBGArSlgCwJsdcWRZrBdZuyi5DolYzelfGa/BLBdAjC3X6onQUM6o8yfG+WSjrmgDaATz68AbFfqifdFktbIBY/LAPvlAbqZeZnkUQ51dBi6Cp3MvMy6kwfLDF5C1hWA3dDHXCZpBH+TPGGPAFmCT0A9+F6RWWfWiUnyMvMw6BzkYbKP0KcKvn4eLDPaULSXibYSDZ+b5Rl0VdEImbJfMKdtGA+Q6fKKOgl55CnrI3OzHGlvk17+OskySU8ao+4i/qDUwWxDKUPmxrtSF8nbrJN4ZuYh5V6ut7uQZfQ1Px+D3syHZTJV1zekfH+5lGX0MdHPZL+W9TZozposWS+226+RVV3f4HPDLiLnPdc28sxtKctcLu1ltFVgO5hsrdmugmYPhuYIFzEmURQG2EIBexPAIcEk8+oAZT1BpzmCdG+lraGIU+l79xa4v54JLz2VvnIdVHIZEHzQ4DWBSgtQXgDjplVFywKWBaqwwBkBpSoApVd8RLWDBJSt9CkkW2MRHBg8hcJRSx8MCGLsFxvAgIMDB78rAD53XGykiwDHRYCdibRMBHEcUJjMtJIXn0tepDV4iXcJrIyBSMgzlUs6kXNQqkqGoQ918tOTx2W6zEB9CDaFnqxXYN1YRv2vNMpM9aGuQkagPENWoJ2kXahzlXaU9jTpI+hM9hOgJcA+sj5+/nxfDtiSp9m+Zn1lm5l0FsDWeN/PR+rMdmEMQN6TRoI3PpP9g/qSn5Qt5cl7vsc60JbMeW/0GcHP6Bei7mwzU58S5bJvsE0M24j3SWeWJXWgjuQpZUn78LmsV0B5JTuzbuwXZl2qk0UZAbxOsaFRXqle8j2jbjWSJesl20LWS9qXcsy6GDamzcRzaUfWy7CVsKO0IXO2GcvkOwGyRN2k7mZZ1MH8nuwfbHNDluBtyDJ/O8Rzc1/hqThNoDmaQbM303/8MrcH6dPdAkg29G/EEWspHQSRXFdJDyU9lSznFHkQNHtjaLbGUO3xcG/8K0o3zxegUvGVQxEbFn1iWZAep9KIVWltA69iqLEeWRawLHC+W6BaQOlfQ8mPpuoTUz3a4SXAu4k6kLTX1oEk47vxQ+ysDTgJLJkIMvUYb/7nLHNeaaQr9FzQ8jkT+TDJe3PO5+QfUO5/n2UmHarkUZ0M6mToI/STcs+kz+nkVaVPQN3PJIt189uF/Jjks8BclldHw+dV6CvtZ85PkSHtQxtJO1G+0SairWW7y5x9g/KkTPmjI6DcEaivWRavA+tp2FAAdjMvWX+jf5jrQxl+Xcz8TLIkfSV7B+pMeXxWA1mCJqCvCtsRaEq9pS7kV50sk/2om/ldWa8qZRl1k3by25H8fo0sviPb01wvkw3Zn6mfXxbtfjpZhi7V1stULnieTpZJrvjuNAIcTfVkZ04wSY8keZo35PCaIYVMgNJfzmcNAQEog6DZmkKxx8H13l0o27IAnpLvoChlUDSfASyViuDnFqA838dNq36WBSwLVGGB0wJK7mdkOCCN4YJUF7TDi4H3YnSvk98LdxVQXEdP4oMtBx4jl2WBeSBtYHlN7iUPQVu3Qo+avFsdTSWeRr2qo63J81/DT77DvCYyakQTYB+zjMDrGvE7TZtLfsWGTHlfVV4jWbWB4iuB4ssNUEtQE9DPeC95nVJGPQLqXx1tdc8DeZIu8FngveRlzs008rn5WeB1TWj4jqQz52Ze1T2visb8zH9tePDMfMzXfjqTLuZnVV3L96sq4zNZHpib6c1lfC4AJTfZcM2kTLw3fY8IGgWdAS79gNKoo6AlTWN93aWdp+nQSxkCn7M1yt+/DyVbc+A+8R18ikuEVON6Spn0w2mr+NpajywLWBawLHAeW6BaQKnHVlMgQGUlQBmve2kIKOl1oRfC/1EPHLjl/W/NzYPLb+V1rr1/vtZd1utM7WEAATEVafIkiT53pndZTjk1oTsbNDWtU01kSV7V6S/La8LrTDSSV3WyzvT+Ly2X8qp770zl1bzn9y5WA/ZlX/ADSjnFLfuVATD9wJSAVPe0amIHeGNojij4itNR9sEDKN3COJXfQ/WZN+oQTnKnt7Xb+zweN62qWRawLFCFBaoFlJzyFmCSUdfMgPL9RKCYH2BOMxlTeH5AaQwE/g+7/EBXlf/KQeOM4EDyZV6NXA4YZ+RTzaD1u79n1r+q69PoJezOwTSg3qfVWQ6+pndOS38a+b/5vcD6UpYElOxzhseJ9ZPPA+vqvzfV6zfr9XvW2eJ99v8WA/sR7012ln1EeCmr+Hvxeyjp2eR3jp5xgk/GqQyC5gyFUpwm4lSWbpkHj7FRh+GERLxe8e3UTxnzY0uJMS2cWcUwZD2yLGBZ4HywQLWAkvsXVRHCVxFrhBQx5b0EeD8ZcDYCnA104CI2psjNLgSYnCrijsoQfWelvQEgUhDA9UzcbSkWyBsL38Xid/KqV/mjbx4AanrNgUKsleIUKQcKgy/1dYTqOol4dMYgUlO+/1M6Dn61gOIr9CleTvOKa+kJNg2MZr1k3bnBgPa1G7H3/IMnwRg3Ghi7W/mueIdAjfH5OL3HduOaM16b6Mxyftdr1p315PS2UV8xkEsdqT8TB3pOe7NOrGuwkai/sZtX1InvGfX8XfWupk0smb/9b/r3sqH/70Ku9Tb9oPKXsZ/xW0JQKdeEXgGt+ApoznrwOZuj/P3b4Nr8lggppPjKoHC9ueYFNzPyDHBx9jc3fpuTBSrPh7HTqoNlAcsCARaoBlD6t+TokFKc5e2GdmQp8H4q4AwGnE10YCl2mJp3ehJcGgCFG3f8O2MJdAgoIwB7uA5cBA8CgMY6OPitg4cASASqBGQEHLwm6CBAokyCSgKSPzPIkICSQNKcWKcAT4vZXqLurCt3uXIHfjO9ruI5gTbrbawJMwd4dsgNDGGAIxJwRAEO07tmGb/7dSCglBtWzPpzgwUHesNrxB8rNiaGsWKImHDjZJRgHRQL2tPY7XevkwU2K3kH/0z2lsBReiR5T/3Ec+nhlj9O2RfZ5y4Cii+C5rwIquMSKI7G8G7sDe+3b0I59hVUXwkUzSNAJdeeVwKUVqjKgOHHurUsYFngfLLAaQClnPBmzqkcD7Qj+cAHLQ1A2RQoJkC5TP/IypA44oN7MVB8iZH4EWa4Fu5S5SBPwELwIr1J0qNEMETgYEryA1/TQUgMDPRK0VNKvehZILAkAGlqgGBT/Lma8v1D6AiCOJgZA9qZdKCtHLWgr/WinemhpFeFzzkYcoAkqCSAlIntR/szrEoYYI8E7AagFGD8fw2GzHVmvdl27D/SG0m9qS/b81LAeYmRc4cxA1iH6qBS/GghKGZbk9YClH9aUHemfv17l1f1jZGAUvyAY98x+mUAoBSg0n4JVFtT+DbeCN+306Ee/xaqrxSq6oWmevWTdBQVUDTLS3k+jZxWXSwLWBY4xQLVAEq5JYfnPxjA0g8o0wxAGWwASg74pjhwzouhOWvB5wzDycJkHFzRAj/nx+CnRcnYt6Q1StakwmePgiamZSWgMWLEmcEk1zf9UiAggMeV0Bx1oDmugua4XOSKPRRlaxNxclVz8FrjVHjxL0n1gWIjiTh2v+TdM9E2BIob6UksJeA1n/E9LgNgouwz8KFexXXgKkrCofwWKC3k5imGPakPiNBOBGXS+2LOCdIY+DkCmj0Smj0cmnm6/Pce0Cvxl4CS090SUPLHAacl2Vd4LB5PMWF8wNrQHFdCsTfF8dXNUbKyGZSCJnowawGMIywPZSXb/q9/HJxv8ip7KOmpJKDU7BdBs10mgp8rG2+GdzOPadwCzVcKTfWIJI5nJKhUTaDSmvY+ZTCyHlgWsCxwblvgNwJK48QJYyek8JA568Ftb4Efcq/B8sFtMfGhOAy9OxKD/h6D0Q80x8JBkdi0oDnchQQuXE9pxIsTYIpeSnoYzWvmOH1OLxO9bQQX9EYxvh3vmSQt8yuh2WuhrCAKe/Ia4MTyq6AWB6NkdSo+HZsC58sNcXhpOLR1xhS7WGNJLxaTXNNJWRJwEdTSy8nE5wR6TDp40+kkIJRljYHiIB1sEygKvnItpzGFK4CvHHAJFBsD65ro7zmpG+3K3ACVQjblM5EXdZUAsyGwzpC9LgJbMztj/uNN8e9pkVDszQG7PHaO9qG30lgzJuymx9ljG6iOKJSuScCBvBCcyK8PzU5vJtuDNuCaRmNdI0G+4MN2IQ0T7cU2YWL7MF6lsexArAeV13IdKIEjAW5gnEI+o2eZHm0unTBiGzrqQnM0geKIw4nVydiT1QSly+tCK2qGI/ntsGZQLIpfqYUTixtBK6KXkh5Xeihl36F8tiF1Z52k3gTTtCPBK9esGom6i77FurOMSbaXlV+YtmCf5d8AZ1+MxNkYcUiDHvSeP8TKN96Ck1tmwVuyFZpSCk1zQ9O8evg16ank1LcFKM/tkdPS3rKAZYFTLPAbASXXUXJTBAfoq6A5r4THnoD/zuuByY+0wGu3B2PWY82w5OUYLB7YEm890xqv3hGLSX2bYfPsCPgK5Xo3epM45SqPcwwBbJGALUqfiuUULaebxMf7IuOoRYIRet/IIxqwcZr3CviKI/HhW50wtX8dfDUnCMq6CBxf3QIfvtEKBS82xaGlIdA4MHB9p43v81quO+R0qgSuPNHDOOFEHA9H8EXwS0BHwMTBhMCH4C/MmFKnF43XzQFHtH4t1m1SDvnJE4KMgYjLAtbVMhIHK3p7CWZoV/IhcCSoYmL9CajJi4nglMDWBCjficY/Z1+PZ28KhW1kNHxCB4Iq8xQ326uxMT0cBXE0XVEjlK5NwsdT0rHk6SBsnsGTRmhPo76sJ+srgrFzk5WxRpPT45xeFjbhoMpk1M0PQvU1Z2IQZhsKsE4QR4BHeuPkGwEkGYrqYn0qW5wMQ3vxZJZaUB30eF8N55hOmPtYU3w/vzEUeyQOL2+LVYPjYB9YGyeWNBMgUxwJSi+r8IKzfQhSyZdreumNZd/i8aGx+tradXWAdYaeol2pE/uEAZTFBiELSF6YQJLtTjBp9p7zh5Hxg0j8SNHXivPHrOKIgevd21C+7W34Tn4DVT0JRXPrS4YUBZCg0jqh8ZTByHpgWcCywLltgd8IKDlY0/PVSKzdUxzR2LHkWkwa0AGv/T0W709ogWOrW8Nj6wCPvTsOrekN57hrMPruOCx8pgH25QZDs4WIKVbFHgyPPQyuwgS4ClLgKYyHYg8z1gReBo0L4O1XQSmqA8UWBHdRKMoL4uBe2xpKQSq0ojBotjC47G2QP+o6vHhHBP4KDg9cAAAgAElEQVQ1KwXedYnwOhJwYnU3AT58tnCo9rpQighoY+CzxcBTmAh3QQu4C5Lhs0VDFWcBE8RcBZ8tGL4ieuwIxKIFqFQdteGzN4JSGATVFg3NngTNkQjVngBvUUu41raFa20beAtToNhi9ePb7JdBs9WDUhQi9Fedl0MrvhhacS2oxY3hdYbDx/pyOtcRCtUeA19RDNyFkXAVRsBTGAmlUAdMmo1Tu4a30g8oGwDvhOH9ubdgwM3xKBwZB8UZBtXZEIo9Fj5bKHyOCLjtKSgrbAlXYTx8ReFQbQzaXAeHViVj1ah2mPJQJD6blgSvLV4/y9gRBMUeBG9RKFwFMXAVxMJTGAyFwZ4dTHWgOS+DVnwZFEdteIrqwVUQCndRHLz2cPiKg+Bz1IbqvBi0m2KPgs/eHD5bJNyFTeAprA/FXg+qMwiKoxncReEoZ7IFwWWrDR/BpJOpGQ6u6YmsQb0w6sFYbJoXDa89Ah5HcxxYnYEjqyLgo05O2q8xVFs4vIURcK1OgmtNc3gpx9EIKo/kE/lVYvmD4oiArzgUHmdDlNsawF3E9ub0v06nezO57ICAwgKVlg1MfcA8k8H1y1yGYQ+C4oxH+T9uQem2GfCUbIVXKYNP9YoTxzSfAk1Mf6uAZrkpz+3h09LesoBlAbMFfiOgpAeNZ+1yqrkRygrbYd3E6/D8X5OwcnAMStbEQeOOcLFGL0qApP3L0mF7LRFLn62F7fOugM9eHx57LHbnt8c/3+6IgrEdUDA6A/+cmoA9iwgEGok1SootBD/ktML3mZ3w48Le+HB6e6x9PQ3rx7TFD3Pbwb02FmpROn7K64XJz9+M/relYeWIdOzKTURpYRJ2LmuPbQtTUG5LgKsoFbsWdcHmrI74LrcrPp7eCcWj2mPjGxnYMr8FStaGQXXUR3lhDL7PSsePWc3gLmwMzanvgvbaWuC7nDbYuSAO7jUJUB0J8Dna4vDKHvh8Zjc4R3aCc2RH/GtqW+xd2Bq+okgBjN1rk7AvJx0750fDTZBafBk0Z2OUFabgh9wM7MhMhmdVGBR7NI6vbIOtczvhvXEd4Xi9HT4Y1xo/zE5B2coEqDaCHXpK6emTHsoGwIYgvD/nFjx6cyIKR8bC54yE19kCO5d0xNYFCdi+sCP+8WYXFLzRHusmpGHznGSUrUmEpygVW7OvxtsvXo2hd7fCiqFtsCsvGe7CUHgccdi/vCM+m9kJxWPawj6qJT6eloj9iyPgpU3sDKFypZC1N78tPpmaAfuIdKwf0xJfLuiOzUtvxJaseLiKGsJjS8PORT3wbXZ3fJXTE8XjW+L9yXHYsywdJx3dsWNZT3zwZjesGdsBq97IgHNSMr7JSsDxtdFwFaVgc/b1mPhUb7x4dysUjknCzwujUVKYgK0LW2N7biTKixpBXRcMryMFh5Z1xafT2sH2emvYR7TCp1NbYO/iFHhtMdCcdeBxNMOuxSn4LicB2/K64f1pHVE4ug3eGZeB7+e0Rfnq1tDo4RVLDyxAaQFJE5AUPyyMNd4CVHIphb78hj9WtOJ6UNaHo+yDW1D63Tx4ThBUlkKRoFI1QgpZgNI8FlnXlgUsC5zjFvjtgNJxETTHxWI95JGV12DeC10x6I4ofDtLehc5DaxPi9MT5itqjJIV8Ti6LAbuomZw2+OxLbc95r/QEq/d1xwjH2yOMf2iMPK+EMx9Mhxb56bCszYSLltrzHm+LUbe1xrTBqTjjX5hGPFwOAbfE4eRfw/Fp9PC4C7IwD/GtsLjt3fA3Te0xpj7QrF+eCP8nJ+KVWNSMOfZeti9NBEHV3XGkhFdMPTBJEx+PAaTHgrGhL4ReP3uSEx9OAifTm2G8sLm2J3fBvOeSULec/VxaHltaOs4BRqO46uvxuznWiF7QAMcXkIwmYadS67B/OdbYvjdYRj3AHkmYNyDMZj7WDC+mxMMX2EDHFyahrWvJiH70UtxcMmlxqahSOzJ74rsF1OQ91QjHMwLwbG17VD8RifM6BeHqQ/GYNpDiZhwbxym3xuKf0+MRNlagluu9+MgR0DZCFjXAFjfAO/NuRn9b05E0ch4+BwxOGnvgEUjO2LU/eGY8WhzjH8gHKP6xmLIPdF44/5IfDypFY6u6IYN4zti4N0ZGHBzCkbfF4WNo4NxaEUitizsgsxX0zDmwQiMfygM4x8Ow+j7g5H9dBN8PzcenrXh8NoJVrth1lNpeP3eGFHvCQ9F4PVHWuHVR67GuIca4FB+FI6uvQ7ZQ3pjeN9WGN2/DQbeGYUJ/YLxwcxO+DjzNkx9ti2G3x+D0Y/EYuSj8Rj4YAxG9I/Ce1NicXBZBtaN7YQX7uqIfn9JwcQHGuHD0Q2wPTcdbz+XjMxn6uLgkobwOBPw/eJeyHohA6PuaYqxDwVhfL9IvHFfJN7qH4ot89PhtSXgYEEXLBjcESMeiMKER1Mxqm8iRjyQjGF3xmPafc3xxeQW8BTEGmtWzeDBtL7W8lpewF5bo0+INblG5Ahxra+X1pyNoBQnwP3BrSjb8ha8x7+Gz3sciuIWwFLTVGgWoDzHh09LfcsClgXMFvgNgJJheLiukDsdLxFTiXuWXY/pj3XEuPsjsS+PoYG45o9T4oxBeRU0Wy1oRVcChVcBhXXENPX+Zd2xdGhHvHFvcxSOSMP3Szphx/JecE6+EcPva4Ws55KxZ3ESThR3wdhneuORG5Mw75kEfL6gLTYv64x33r4Jz92RjGmP1cPR1fE4sKoj3hx6O/rflgH7uLY4uCoN+1Z1wOLXumDyI02xM68lDqzsjjmDrsGjtyVg7rNx+HJOBn5Y1BXvTLkGb/RNRvZz4di3NAU7l16LSY93xttPheDAcq515G72pji8sg/GPt4Vk/sGYd/SljhWdCMWD7saz94agrWvp2L7op7YmX893p/ZB6Mfise8/rWwL6cJdud3RNbA1pja9xLsW3gxNMelUJ1R2LH0Wkx7pj1mDmiMfQtDsXVhV0x+rBPmP9sG32VejYPLr8UXs2/C2/1TseqFhji05EpoImyOGVDWB9bXNwHKOLGb/kRRO8wc2gcDborG/CdC8e3cjvh+0fVYN/1mDH+wDWY9EYs9i1Lww9JrMX/ITRjaty3s4zri4MqO2LOyO/KGdcCIB2JRODoD2xf2wU/LbsF7b/bB6/cnYPELkdi/pAUOFfRE7uCuGHpHPJxju+LHZb2xfVkfLBx1A+65uQMG3xWMQ0vCcXDtdZjy8m147OYETO/fHO9ObIPPZ6Xjm9yrsWRUd4x5JA4bprTDzuXXYPvKG1H01q14pV87zH8+HAeWtMT3+bdgyks34pX70/GPKck4viIZO/OvwbinOuOtx4IEGD+0phvmDe6BV+6MwsYJSdi5JB0/L++FT2fchtfuTMWM/tE4mN8W+9behPHPX49Hrk/A3GdS8MWCHti29EY4J9+MUfelY/EzYTiyhPFWuZGJfZhrUWXicgO5ri7Qc2XdXxjeTAJK9g2uH2eUCq4r5g9nxrrlTAZnJULAJRVl792K8m3z4TmxDT5fGXwag59bgNI8EFnXlgUsC5z7FviVgJKbRggo+RG9EprtCrFL+Kf8mzDl0Q6Y+mAEDi8K14Oai80Q3HxBUMld3XUB2yXQCq+AtzARn866AaMezsDCp8NxYGEEtOIGAmQdXHMjMgf1wdB7muPfM0NxxNkBY57riRfujMB/Z8bCzfWEtjo4Zu+K6c93xYh7m2D/smC410chb/xf8fTfEvCfmclQiuOxb1Vb5AzthfEPR2BnbiscXHk1FgzpjiH3RuPf06LgtUVAczbDrmUd8ebzHTDl8eb4ITcdO5bejLGPX41pT4Zj/3Lu9OX0fhAOreiJkY93x5iHm+LnZen4YtHtePneNpjcPwTHVzWH6kyA4miBo4VdkD/herx6RzA+GheJXUt6Yt7Azpj4YC3sX8ip4ovELvQfl/bA5GfbYdqABtizMAhf53TCmP5dMP/5dvghO0PsbD5R0BHbsrpj+7wElK28ChrXZHL9qt9DSUBZD+/PuVlMedtHxsBnD0ZJYTpmDeuDl+5shs9nBkO1NYGvKBG7lt2Aea/2xJgHQrB9fkMcXt0ey0dfjzf6tcC/ZqTAbWuHLxb0xOhHO+DtZ9vih9xeKF17PUrW3IifVv4NU16+ESMfiMBns1Lxn8ybMOSeNOQ9GYujS9pDLY6CuiECu1b9FUP69cKgvwfj8NIGwis4beCtGHxnM/z3zcZQbGFQ7XE4XtAR/5qdgX/OiMfhValw2VriuK07/pPzV4x6/Gq8PSAc+/LicLDwOswZ2gfDH0zEN3PCoRTF4ef8Hhj7ZFfMfLQJ9i9Mxn+zbsGz93TAzKcTcGIFl0HUBYpi4Sm4BYuH3IKn/hKGz95MxIHV12Pq870w7PZwbJ6ZAKUoHD5nFH5cfj1mD+yN6f3DsDOTO8I5lUkPlOzzzOmFsgDlhQEcq/uBIAElZ2AY85WRBbhBMA6wMWRXmAhPxvBlPmcqSj5+GeV7/gmftxQ+VYWqWoDy3B8+rRpYFrAsYLbALweU7zOwuWlw5ZoheyOozgj8tPw6TH6sI8Y/2BwHFnEDCwdk7tLlzuBQsdmEa4wUW314CkJQsrYdCiddj1fuS4FtVFOUr2VsQU6fN4bb3h32Kbfi5bu4HrAh9hV0FIByWN8EsZbSZ2sKzXYxTjjaY97gazHi3mDsy28C9/pg5E24BU//LQafz0yA6ozFvpVtkTOktwEo03BoZVdkDe2KMf1isHl+NFRnIxE7c8+KVpj1SidMeaI5vs9J0wHlEz0w/ckI7F9GQMld3cE4tLKXAJTj+zXB7uWpcM66Ff1uScGa4UlQRZxLbq4Jh8vRGp/k3I1B9yVg5SuNsSOvKxa80skAlJcbgDIEOwxAOXVAQxHuaPeKjsh8tReG35eBqQNaIu/VFtgwKQGbs1rj6Oo4+GzcJNQAGj3EBJQiVQDKATcngoBSsTdCSUEyZg+9DkMeiMT2hVzTyk060dizqg9yhvfBmL7N8N2c2jiyOh0rRvfGuH7x+OzNWLHE4N2ZPfHc/V0w7JEOWDykPVYPbYvlQzsge3gPvPJ4H7xwV3Osm9waqydei2dvT4RjZDzK1rTSN7Q4w3B03c2YPvQmDL67CQ4vCcHBtV0xbdBfMOqhKOzIixXrQDVnGHzFrXC8oDN+XNQZ/53TAR9Mawf7+HaYN7Abnv57B7zZPxr7cmNxsLA35g7tg5EPJWDznFCothgDUHbDjEeDsXthW9in3ITH/9YaRSNS4S1qDa2oMVAUBNXRFu/PvgeP3RyN9SMisH9FT0x/oSfG3h+GfQtToNmDRR/etep6LBh2A6b2D8MP8+vou70FoOQPKHlCFNcOW4DSApT0UBJQMkQVf0ATUBqRKxwNRAxc1dkUro03ovyb2fAe3QbF64KiKpaH0jwKWdeWBSwLnBcWqDmgZJDewzx60QQoi+UpNyEgMNi/uidmPt8VQ++Oxg8LGLycRy3Koxi5mzsa3oIU7M1NxOZZkdi9sB0Kxl2HV+9NRvG4+nDbLoNmJ6BsCLezI9bNvA0v3p2M1cMaY9/qzhjzbC+81jcRO/LSoTBMkF0HlPOH9cGIe5pi75KGcK8PQd74W/H0/8VVBpRDzYCyM7KGdsEb/aOwJTMCqrOJ2KixZ0U6Zr/SCVOfaI7vstOwI/8mjK0EKAmOQ3BwZW+8/ng3TH44CHuXp6Jwxl/w8E3JWD+qBVQbN6oEQStqCo+tJT5beA+G9E3B0peCsCO3C7Je6YiJD16B/QsZdP0iqM4Q7MjXPZRTHw/CnrzacNvj8F1uN6x5vQvGPdYeL96bgefuSsOoh1rAOboZDuWHQLU3NQK0G3E0GRvT8FAOuCkR9hEElPVQUhCP2cNuwNAHw/HD4mRoxaEitMme1dciZ0RvjH6oGb6bWxuH17TC8tG9DEAZhzJbOtbNuBpP39seL9/TGtMeS8Pbj7fEjMczMOmpDhj3VFfMfjYWn77VGivf6Ipnbw9H8egolK9OFKF7NHsUjq37C2YMvwmD7gnC4cWRYpf21IE3YnS/ZvhpcTy04jpQ14XhpKMLPpnTEzOeb48hfdMw5KFkjH+yJSY92x3P3d0JMx+NwL7cGD+gHPFQAr6dGwbVFusHlG8+GoxdeR2xdsKNePJvaVg3pgV8RS2ghxBqCKU4Du/PuxOP3RwD55Aw7FvWE9Ne7I1xD4biwNIWYm2s6ozDrpU3YP6Q6zHl0XD8sIDhYGrp3nXhkZenLVkeygsbTNJrSQ8ll0LwG8djXZnopSTAZNxUzto0gveda1C2aRK8R76C6i3Rz/oW531bHsrzYgS1KmFZwLKA3wK/DVDSUyliHIZAczRDia0rVo29Di/+LQbrRgWjvIDBy+uJsDSag+Fh4nFwcTesfTUdM/s2wb/Gp8I5vg+GPJCMtSObomQNf9Xz+MAQnHD2wsopt+Dlu2OxblQDHFrTHmOf7oHh9ydgZ04aFBuP2rsYJY72WDD0Woy8uwn2cFNGcRMsGncznv5rHD6bmQTVEYN9KzIqprxzUnFoRSdkD+6Gsf2isHVBU+Gh5OCwb0UrzH25I6Y9rgPKH/NvxBtPdMfUJ8Kxdyk9gly7GI49y/tgZP+umPJgE+xblo53Z92MJ29pgTWDk0R4Gk7Fa4VBKC9qiffm3oFB98ahaGgYdi3sgcxXumBc33rYk8eTfC6D4ozE90v6YMLTnTH1sRDsyeNu+TjsX9YWB5a3x+5l7fHl/PZY/UYXvPZwewy/uwk+ezMarsIow0PJTSLc7U1A2UDs8h5wYyLsw2Og2GqjZG0cZg+5AUP7huCHJYnQ1jURMveu6onc4b3wxoMElHVxZE1LrBh9DcYLD2U8XPY0/GNWNwx7qC2yBmbgh7w0HF6WiEPLW+PnFT3w5eLr8G1uBg6vbocPZvTEwDujsXpQGE6uSBBeQQLe/bbbMebFm/Dq3U1xeHE0Dq7pjWkDr8cbD4Xgp0WJYjesr7gZflzWEzNeaIcxD4ejeFwUtmRHYseKDHyScwvGPNUNbw9oZngo++hT3g8n4Jt53A0fg5+X9cTYJ7rjzf5NsScvA+un3oAnb0/HymFJ8BQ1hcYlGRzYi1Nhe/N2PHpjNN4bHYZ9K3pj2ot9MO7BYOzPjxHrgRmaaNeKPpg/mIAyAj9k0kNJQEkbM9A8E2OiEsRbHsoLDlSKHd1cP8vEPsEZGMY7pXeSXkrO3DAe7yVQnI3g2Xg1PJsmQDnyuQCTquqDovEYWxWqpoH/rX+WBSwLWBY4XyxwFgAlF6TrR+J57SnYlHs9Xn84A5P7ReHL2S1EUHHX2jhxFOD+le2xcUovjO2bjjmPROCHWan4fNY1GPdYK7z9bAS25cTAZY+C294K25ffjpmv9MSo+4Pw5cx6OF7UGhOe6oaR98ZgV3aSmDaH7VKU2gkOe2L0XQ2xd3FTeB1ByH/jBjx9ayI+mtJKxLXctyIduUN6YMLDYdiV0wKHlndFzsBeGPtwDLYQUHLa3tkI+1a2wYKXO+DNx2LwPT2Uy3pjwtNdMebhSGzJjEFZYRRKC1viX3OvxSv3dMCUB5pi37K22LbkVozu2x5THorBz3nNRbghV1EL7F7WDdnDrsOwu4Lx2bQo7Fl2DRYM7IEhd4Xjm1khcK0Nx8mCdvj3vL9haL+emDwgCrvymmNbdgcsH5yKjyY2x/FVMXDZUrCv8AZkj7wFg+6KwD/ETu9wHVCKwY2n8zQC1jfDB7P/D4/fmAinAJR1ULI2HnMHX4/X7m+KHUsSoBUzFmM49q28BguH9cT4B8Lw/exGOLq6NdaMoYeyJT6Zmi5iVX6d0xHjn2qPac+1wObcWJQVhcBVlIjdK67BouGdsGRgOHblJOC73GsxsV9LzOwfhe/mtsLJ1c1xfE0iPsq8E4/37Y1X7uKUdzgOr+2Gt166HhPvj8buvHRozibwOppgU05njOyXivkvJWD/inQRquhYUTv8Y+4NGPxwe0zvH4LdubE4VNAHc4Zdi0H9kvGfOc3hKkrAT/nXY/wTPTCzfxMcyEvAN9k3YsgDnfDmE6nYszQc7qLGcNmisXd1L0x7+Vo8+3/h+PrtSBxY3RvTXrgW4/o2xb6l+m5uxsLctbInFgzpg6mPRuIHrqFkgHOeQy9ON5InHRmn7lhxKS+sXd5iE455YxY35HCmhIcycB0l4/HWguJsCM+7PeD+chx8hz+H5j0mzvXmRhwCSVVASQtOni+DqFUPywKWBXQL/EZAyZNU5IkqBJXhOF7YEc6J3OyRiqn941AwvBX+MbkTNk6+GouHd8PIfmkY+3AiPp4Yi/IV0Ti0rD1Wj+6B1x9OQfagJHzydhr+Pas7lgy7AaPvT8SaQfVwOL8Oyp2pePOZNhj3QAh25cZDsdUVm3LKbd2xaGgXjLunNvYvioDPFgHHpJvw3F/Tkft8Oja/nYDdS1tjydDOmNYvFD/lJeHw8o5YMrArpjwcgW0LQqE6eDJME+xf2QY5A1tj1hMR+CErHofWdMDC4d0x7L4kLB6Uig+npuPDqRnIfKUdXri9FaY/1Bj781ujtKg3bGN6Ycjtich5PhkfzeyCT2b1wvIRPTDygVQsfKGxOPLxyOoOWD2mN166PRV5L8Tj42nt8MGUbsgZ3BvP39Me055ohp8XRmFzbndMfaojpgxIwTvj2+Cz2Z3w3sxemPJsN0zu3wzfzA6Fp4BBxY3pbnrNCCjXxeLDOX/Bc7dEYMOISOHFPVkQh+yh12D0g42wY2kM1OL64tzhAyt7In94N0x5KAjb59TGybXJ2DCZdBlY/GIGts9NwN6laVg1thteG5CKOYOS8O6MdHw8qxuWjeyJ4fe2xNKXgrF/cQhKC9ph47juGH1PEuY91RIbxrWHfVxXTHyuF+7/a3cMurMJjiwJxZGC9pj3Sg9MfyAcewWgbAqfvS62LWyN8U+0woQB8fhoWht8M78jPnqzCzIHXY3n/56BKf1CsSOzOY4VXoOFo6/B831TkTcoAdtmJ+KHvGsx+ckumD2gMQ4uDMOxtd2x/PVeGH5/MhYPjsOnb1Hnzlg66jq8fF8qsgfG4PiqRBxa0wNzX+yG6Q82xIEljDfZEKojCD+v6IrcoV0w87Em+DGT4IFeKALIy4yjGS83cus4xgvKQyk8klwzyb85TnXTQ2kcQ8qTwuxc6lIXirMp3O/2hPubyTqY9BBMuqGJaW5FgEnrkBxr+LUsYFngfLTAWQCU/GWuA0ue8OJzxOPAys7YOKkz3n46CZP6RWFS/wSM65+GMY+kYuZzCfhgajKOr+QO3HrwFoTjx0WdsHREV0x9KgXTn4zB9CeTMWVAKvLpActuAF/RlfA4Y7HqtUQsfiUI+5dFQuEJLbaGcNs6YeOkNlj6Qj0cXdYcqr05tuTegLef6Yw3H06E89VQ7FnUEu9ObIfVr0biYH6iONv7vXFpWDMwFHvyQkVwcZ4rfnR1K6wbm4qCYaHYl9cEbls0vsrsjqyXO2DSIwl4s38Y5j3eBPmDUrHghQysfjUYR1ekQnGkYO+yrlg+rD2mPJKEqU8kYupTqZjcPwU5LzTHdwsixYk77qJYbMnuhswXu2DqQ4l4s388Zj8Ri5yBKZg3uDVWjQjDofxQHClsjw3Te+HtZztg+mOtMePJVpj2dEvMeCYV70+IwbHlIVBt9JwZ025iCpagMgqbcq7GW0+G4r9TedpOCFy2GKyb3A2LXgnGvhWRUJ11RGD0Y6u64L0pHZH/SmPszr4CHns4tuR2QfZLbfBWvzh8MLwxjiwKx84lnbH8jY6Y+FQyJj/ZAlOfaIWJj6Yi9/lYfDeXJ/jwVJo4HFjWHYWj2mHWk4mY80QsZj2TiDlDrsGrj/TB8DuCcHRpCE7YklDwRgZWvdQUR5bGCg+r6qiDI6tawDauAyY9Fo+3HksQoHzJS/FY8Vor5A5si+Uvh+GnrGYoL8rAx3OvxtTn22Dqw5HYOKwpfshsjfyhGVg7qCmOLQ2G4kzArmVdsOL1tpg8IA4znkjAtCdaYvLjGcgZlITteYlQ7OEoWZuB4lFtsfblhji2PFz8oOCGqkOrGJy/LVYNbYK9C4MAG9fI0TPJ4ycZ+5PAkqDSApQXFqA04k5KYEkwKbzWXCPOE3LqiR8kno09Uf7VRHgPfwHVcxSaUg5YgPJ8HDutOlkWsCwQYIGaAUpNg1LVphxuVOC6ISNxHSW9lKojHqWFbbF9UQY+eSsR6ybHwzE5Bf94qwW2L4lBqTgmsTFQeDk0W11xesm+FZ3x+byueGdyBjZMboN/z2mLfcsT4BU7mi8Hj2b8aVEyflocCZcjSF/PaOeO5WQcXNYaP+dGw1sYLc6gLrN3ELEgv3i7E7bPbYHSNck4sLwD9ixOg6cwFl5bNA7lJ2NvXhxca7n7vJE4UtFb1AL789tg76JYuFbXFUeplRamYefibvhkRgbem5iAz6dHY++iNvh5UWfsWZwIb1EsVEdj+JwROLiqNb6cm4GNU+KxYXISPp3ZCj8vSYTXHiW8iRx0XEXJ+HlpN/xnRhu8PyEVn82Iw45FCdixLB0/LU2Aq7AJfMVROFLQFluzu+Kj6d3wzuTOeH9GG2zOaY2SNQxxU1+EaoKDHhJ6TAgs9V3f4r3cVBxbwSMh6QGMwt7lPbBzYSu4irhRimGeGsNT2BIH8jthZ24yylYHiY1JpTae2NMO/52Rjh3zIlG+ojG8Rc1xYFU6/rugDd6bkoF3Jqbj07dTsWcxj05sIE4UKitsgR15rfF9Xltsy+mEzfOoe1tsWnYHxj7VG+PubooTK3i8YTB+WpKK3dlR8BTwiESuI+Xa2nAcWtEK/53TBu9OyMCHE9OxZW4SDi5LwP78Ftid2xxlK3hkZXMcK+iIb3Ouxn+mtxI6nlgZjR2LWuOn3Bi41wQLfr7iMBxe2wafzemAdye2wsYJGfh8dgb2rUiBz+WRWnIAACAASURBVB4hpiV9tjAcWJqBvXmx8NjYPqHQePRnUQp2L++IXYtSUL6WZ503A2y08yUGoLQ8lOc/kJTrY025AJAy7iR3+cu/uyugOa6EyuNJ3+kC95cT4Dn4JRRPCRTFA43fTc0DVeP6SQUKOOUNsXrSWkEZMBpZt5YFLAuc0xaoOaDUPNCO5AMfpJ0SNkgP7supQW5a0OOxcZevWhwNX3FTuIuDUF4cIjbMKOtqQyu+XBzZB1stQJwlzenyCCgOnv8cD4+zBXzrkqEWR4q1jfQQMUyO6oyGVhwszr/mSTEad1Py3G0+dxAoNBahaBgsXClmDMoWUB0MT8Od3OQXJwCn5uC6yUiReA27Dih51J7mSIbmIPDiZqKroNqbCYDM88B5RCTPodZs5MMd082FZ0sAI2dtaM5QEUPTy7WBzmbwOWJFKBpOp+vn/NaG6giBWtwcijMKPkcUFAdD2jQUgJRHJYrzsRnGSADzGPgcKfA60+BxxkMpZh15FOVVxto+OQVHDxp3ltaGQt7rYnU7cbe5PQSqMwWqM0kcgyl0FcsFGAMyURwbSRoe5chjIGkXbp5SCLxsDXTPi7MxFFGfKHjtkaJNVW5QsjOO5hU4sDINK1+NwZqB0fgxqzOOreqGI6u64+M5f8Wwu1Ow9PkwuAoYCaA+VLaTjSCeHh7qzfWrDcVZ3j5HJLy2OPEDQ3WwXXlOOPVi/+CUYrDYZOV1JIvTedg2ApA6o6GwncSPD/YLhmTi5qMYeB3UOVborxXTm84+ynJunojWUzH56GfKc32pUpwEX3EyVB61aQvVd3k7LgecVwLFMhFsVBej0Hp+7tmG7Umvs0xXGW1Nr/SVujdSBLbngQ1MXOrDvnsVVGdjeDb2gOurcfAeIpgsFed2cxOOpulJUX3wcUOOAJQVoPKcHj0s5S0LWBawLGCyQM0AJTQo1QJKuZ6IXjICnEb+KXB9s04DaMV1RYgYrZhgkuvRahkBo401SDyJxFlPAA4dQDSEVtxQBO7WBE9JJ70CVxlghM/5LsFsfR1gijVvepxMzUlPJjcN0XNFEEOPqr6JSB8QOChID6tcD8qTLvicHjQCVGM630keFUkPZiw9tKwzw4UYvLimUcgx0xMUkSd1Y+Lxifo6SAEijY1NolzQ6fIlT0ErQGMdHYwJ76SchiMw05+LM76LCcQ4Jc5NA9yVzHpQFtuKNmOizehpIY3+XAdwtCdBnG5PsU5MeGcoy2hjZy1oToZ3ugia83IcL0hDwbBUTLgvFjkvtEHR6O4oHNkNc55qg2l9Q7Dl7RioDKci2tLQwWgz6iBkCRlGWwrvD+XJzTC6XAZyF8BXvKP3Dx2U6uvaCFIJquFg/+D75Md360P0I7/+LGeqr++OF7rQDvoPEl0fgnquoWRbkj9tLMEGc+m9ssDjuQceA9uMbUkASfBoTvRGG0scxDeLfSHKSFwmwQgRofBu7A7XV+PhPfgZFHcJVEURxyrqxyuq0FRVxJ4koPRBgkrdS2n6FluXlgUsC1gWOKct8NsBZTEHbQlsJFAheCC4MgAcQ9qsqwPwLGx6deTA7h+U5eBcXc73TDIqeYaM57JcDP4ES/z468BSP9VHxhAMeCZ0ZNmvSPJd5tW+H6p7bZ3MGRjbrEeQydsbyEMCT+NYN4Ijv73MdjRsJsAabUt7GOBH5Ca7yXby86nO3ubncvA1PXPWglp8MVQnzyPnrtYo/LS4FeyjW2LB8y0x+5m2mPt0GlYPjsPXM2PhWhuvLysQOkrAR7DGHyDUz2jfU/Sq5rmsB/NT3jH4BZZVkhHAV/AzvL0CkHJd3JU6MBXrVKUNzLmUbX5mXZ+b4JJtWQsovrgiObnEwfjxyzWz4gca/xYjRMxJzc4Zjjh43+0D96Zx8B36HKr7OFTFW3EKjgYBLHkqjqKqlofynB4qLeUtC1gWOJMFfhugZGBzAko5qHNgFiCBYEF67BjShp4gfrR/5wFXABZ6kxh4mqBWgjSCMwnemLPsLCRRR9azOl6UJXXgdVWy+UzqVw0f4WWUdq7Ghqy7BE3C+0i6KwxwWc07v7Y9OF1cfIk+bWynJ68RFHsTnFgdgt15kfgxKxE7shJwZFk4fGJ6m1Pq9AAS6BO4Gd5BAeQMwPtrdTkr70nQbQBy6ieS7vn9n/Tds1KPs9zOF4xOElBeoh+vyiNWuQlL9AGCSmO5gzHlrdm5+S8VvndugmfTJPgO/geq+xhUH8GkIjySmogzCREmiGBSJP+Ut7WG8kwDk1VuWcCywLlngRoCSn4Q5RrKgJNy/IBSeh7NU6r0EnL38RnA0NkauASg5JQqp3IJzgzvnvBWEtDwOcEmvar/q6RPx55eHmlORyc9jzUB5dJDR3DBaTxOz55NoEH+BFr04PF89mCx+UcTx2zK89oZ5JlAmoMxg8HT9kZfEHTUiX3il9TrbNahKl60rbQdczktfrbtV5Vs69nZ7aO/1J5se7az4ZEU09v0pEtvOgElQSb7chOojiR4N94G71dToRzaBM1TAo1gUlGEd5IeSRlvUuGGRk51G4n3Iqg5Aadmbcs594ZMS2PLApYFqrNAjQClWPfD0BdHlgIftDRNJdOzFgAWzV4nCdoCAY3fm/ZLP/xnoJd8hdxAkCYBrwFipFf1XMnltGygLau8l8DTAElV0pzBltW+Q7AlfzQQvBMo0ktrAHa/15ZeabmhgXRyPaJcIkH5v4d+v7Ze5veoF8H47wHIzXKs6z8WSEr7yx8S7Jv0oNcF7A2MxLLLACfXC18KpTgUno3Xw0MwefALaO5SaD5FJFVRoSiMiKGfhsOok0yBYFIATtU6erG6Qcl6blnAssC5aYFfCSjp+ZNr/AIApQAiEiiYc/nxNgG7akGLifaX0AhAaZZpXEuQKzxQxuDxS/hatKd6OaWt/SDe1K6yTKxLo6fPPGDz2twGbKNf2d6/23uBfejPpp+lz9ntM3LtN79r/GFEMMnID8zpib8YmoNrhuvBww04X4yF7+B/oblPAj4Vmk/VvZOKAh/XSqr0SmpiA44Ak8aUt6rqXkkxHW55KM/NEdPS2rKAZYFqLXB2AKXccMNNN+ZU3YAvQYiZ9mxcVyfPev4HgDYJHCU445SiTARExpS38FL+kQApUD95/0fqZMk+u4DxTPYkoORSGGPTnNhsx02FPMtdj2ag2uvAu6E9yr8YD88BbsA5CSgK4NMEoNTDAvng9U9t67u5xZS3H1AaXklrqrvaAckqsCxgWeDctUCNAaXqn/JuBdiDALsMkcNpIgKFQAAh7+WOY3lv8mT5pzwl0KhqMJfPJI0hqxIQMWj8u5spyyRHesyEZyxQHzOt1DGQxsyLNLJc5vI9SSfvZTlzPpPlzANp5P3paCQfMy/5nlmWmcfpZJ2Oj+Qracz35uvqZEmvj9E/xJpExvOTdZB6yXvJ08xPPjPXTT6TublM8jLzkHJIL2nlu5KOz6kbNzFxHZ3kQzpJI/PT8ZF8pZyq+NSEpiY6m2mkTpK3WVdZJnUy08jr09FIXlJeVXwkTSA/eR9YLnkE2kfSn0mfqujMzwxd5RpI5rLt/T9q5PeE3w6uleSGMYYLY9gwrgGmt/IKaPaLwdOcvP/P3nfAR1Vs//ue79mV3kINEHogAgp27Pp8/f97z96wICigz4ZU6dIhdAi9pBBSt4Uq2EVISAi9p9KkpGy55fv/nJk7u3c3uyEUFWHC5zB37z33zJnvzN773Sln1naGa+tQeIq3QXOehU6hgWjYWqXeSeqVVOHWFbih8tXcxgIcQSjlMPfv9yUpPZcISASqhsD5CaUxqVxTy6GfXAXtq4egWcOhWRpDszSCll4dGtt2jPaIrmYIBbCmzyS3Q6U9bllKO9vUgmqtA9VWGyqtDqadUmy3GXI7VFt1FuxbtVXU0Zge2eM6GsWBs9IkefKB8rwNWkBemtXQsdYw/PHpKNZqzJ+L07ndlJfZDuVXMS/ms7UWeF5mHZ+dqvijGj4ThtyWyMtnR+hUVi6uUzOEP2SLhOqT7JOQroEzq1c6ptXdZqnJ6sanX5vtIKLZ6H7aVYdsCntkW7SP28HLLvypa/hFn0mH2o8Q2lmH5y3up94jEq4TWBeBWFP7IR1zXuQn5XMLE2qrof0hv0WbJl9E+ansdEzXfW1M5OXTq8Fsc3x5mXhehAv5KspObYXb4uUSeZGvQofKEMof8oW+bz5/OI7CjvBb+Czaz21QrFwnuD9UdhLSoTIH8zkYPjw/KqsoO/kj8jLjw33m/nBdqhuqcyqvELLD24/QEd8x1U7B/GtDZxsnXA9YacU2LayhOb0UW1IIhQoiQklxcWl4uxFgbewllLrtBvZMca+/B67tI41h7lKA5kyqPL4kEUta2U1D3UQoPUQojViTFMRcEEpGPuUwd9XeSlJLIiAR+F0iUDmh1AFNA59krrqhnf0Rys5x8GwbAM/Wj+Fm0g/ube/BnfkuE0/me/BkvsvEvY2fc2f2gYtd7wt3Zn+4M9830r5wZ70LV1YfJmTDldkXLq8O6fXz2iY7TLZxO57M9+HZ1h+ezL7gefWBexvpUL7kE117Hx6Wkh3hJ9dxVdAhu3SvkQ/zm8rTz7BDtujYbId06bPQMfzxsyP8ETrB7FDZA30O9CeYnb4X4U+gz4H+UD4iL/KJ8iBfSETZ6bgfXKx+CFv+memy+qFzQoz7srgtfzs8L152Mz6i7kV+ok64X55tvJ3xuupt1HuwcgXa4feT37xtUNlJh3ykazyfqvljLo/AgM4JX4U/ZNsn3LZPJ3he9D0RZRdtg2yINk1+m3WC5UX3X4w/hAPVuS8v/r0VGHEMef1y/DiG5I/QCeYPfbf9/eGffdjQ/f46Ii+6T7QnSukzXRNCn0n6QsnqC23rK9A33W3EwyUy+Qe+Utsca5IFLRebLNCoCwUtpx5KCnNVk5FSRiazx0A5sQUareamYW5VN4RIpQpNp15JQ8C3V2RkknbFMa3qhhzq/l2+JKXTEgGJQNUQqJRQEpmkieQ0yZx+gavus1DOHobnzGG4zx6B69xROEuOwll6GM6SQ3CVHISLpXR8iJ2j885SLq7SQ3CVHoRI6Xy5Sfz1SJeLs4TsH/bacTIb3I679CBIxL3mlPJylx6C288n7qvQE/6QDcpPnPeldN5nh2y5K/jDy8XyMnzz3e+z6c2L2RAYVfTHZ8d3r88e94d85b5cBn9MGHGsA+vrgFFvhLMQn2+innj5uH8+PeGvOfXdy8sl6tbAWdR7hfqgvMmXA6zOeb0H84fyOsTqXvjmw4/n5a0LIy/S8+mI8vO2RfUR7LrQF22QbIpz5pTOn0+Ht+lQPgvfOIa8fQT3qSp5VUWH/OE+B8tH1Je53Qsf/dOq5GXW4e3G3wZhSTo+CeYT3UPPn/1QSnZCP5EBPftjYG2UESKMCOV1gCNQbjCGu2kTBtqak3aUolGPMLjW94Az+wsoP2+H5jkLnbZSZL+wAwglI5FEJOmfbycc2rNbiAwQVLUXktSSCEgEfr8IhCSU9ACkZ6cuVizS0LeiQvEoUChVNHhUDR5Nh0dTmCi0X61KosLDhoF4yq/TMdfzT4WO+To/R/OSSDwa5WPWE9cVsDy9doPpCBsVrwk/QtsQ/nIb3B/KM5gt0uH+CLvBfBa4BLdhwrGSMgm7l+YP5SVwNGNkxlqUX6SkT8ceI/W/31wmN80pM9kXefmngXZ99kJjyO/hWAt/6By/V6QcG/9z/Jq5fKLcZj/8bYa247PtrxNoy9x2RH6+ewPLyTEMtFHRZ65ntuM7Du2Pz67QqWinoo7AtGJKusHK5PNFXBf5+du40LyEvkh5G/O1Nfr+eaBqpdBLdwA7RwNrugBWCgUUjFDSzjhGPFW2upuC9NeCZmsK99oeKM/+Ap5TW6F7zjEyCU2lSOV+wnooDSLJgwRp0Nh+3T4ySaRSEsrf70tSei4RkAhUDYHQhJK2DWOE0tjtgQglBeylEBlCaEI6Dfmw7cbc0FUPdFWBJkRRoCvGZ02BxoR2kzDE0Pfe49URuiKleUriODAlW4HnQn0OZUf4FOq+wPN83lTwfC/Un2A+XWn+XEj5A3RVxdcmAuuJ2g1rK8EwEBhTGzNLZbqhrpnvN9ostVs/f+hzqGuiTEJH6InzgSnpCQm8Jj6L65SKc+aUzgfzO5ROKDukf768qqITzJfAPM0+B14L9Fv4ZD5vPg52XZwTqVnffFwOrTwXeu4IICOKh/9hcyivBxyGUGxJGw13k/DFWLR3u2ZrBPfap+CiHXBOZxs9ky5v7yT9wKaha/5s1Hkd6bxnUhLKqr10pJZEQCJwdSIQklCyn9T0s9rYj5Zip9HwN73k2IR0MSmdbTVGQ0EKwIaE+DEfHgo41hXoZmH6tFryYsVs/2Jt0H3CzqXYMNshe5di60rzpwpl0VXoJBdU7qrgZCx+oHZ3QbbNvphtVGansmvCnrAlPv+SqcirMr+Ezi/ph7At8vot/RE+CJ/8U01XoOpEKHOg7xwEZLQFrBR4nwLr00puIbSrEwUwN+ZX2q6HZqsN95oecG2fAvXUdugK9Uw6oeluTvrZim5OJvnccr7oRtOpV9L8T/cOdcsh76vzxSlLJRGQCFREIDSh9NPlzNIvIC9NMBddmBeSikfthdwjdS8O618bN6rbXztPmZ/E3NQGaIGMqjuhOXOh7xoIrGnNQ5yxMGc0T5KECOZNfPW39Q+A9TpotpvgXtsdrqxxUE9uh05zJlUnNM0NRlI1lS9OpB/Vxqg3X5tD5DGY+Ia8jd/lfk9U+UEiIBGQCFxtCFSRUBrFrvBkFCdkymdJSRwkDrIN/JZtgJE76lF07jIIZRvAWocL21+egpfXBOx/Bmx/MgKX3wR3Rlc2zK3+nAtdKeHTeFQ3VNVjrOA2FifSSA3NLxdTKU0Lb0RvZGBKLUL+SQQkAhKBqx2BCyOUFdCQj8oKkMgTEgGJwG+GgCCUunM3J5RrI/hGDLRVbBBCqVtv5mQycyTUn3dC95SzqRV83qkClXom2e43OhTaTlEQyioQSUEs5VPyN2sOMmOJgETgV0TgEgnlr+ipzEoiIBGQCJwHAd576OE9lLs/Bda2NGJLNgRsYVzstVkPJQXad2fcC+f28VDP7IKuuFlYIDFXnOZGssDkBpFUAKgBRJI+i3PmY0EmKZWE8jyVJi9LBCQCVwUCklBeFdUoCyERkAgQAqKHkg157/4IWNsCsNJWigaZtFHw8jDQLluuNQ/Cuf0LqKeJTNJKbr7XNluAaAQkJ3ucVPqIo5ks0rGZUAZeIzIpRNaQREAiIBG4mhGQhPJqrl1ZNonANYaAIJQ6zaHcTYHNmxkru2lveVqM0wSaLQKutU+gPHsalDO7oBGZpKgVFA6I/fMtqGH2iFSaiKMgiJQGEkj6bL5uPr7GqkIWVyIgEbjGEJCE8hqrcFlcicDVjICPUO4Gdn0CrKUeyRt5AHM77YDTCu41T6MsaxqU0/ugKk62UQENc4udEQVRNJNI0QtJ18SfmSwGHgsdmUoEJAISgWsFAUkor5WaluWUCFwDCHBCacyh3EU9lGHGHt7XQbNXgzvjYTizJkH5eSc0j4uFAmILbYhQGv2NlNI/vo0iHVEPpS9suZwVeQ00JFlEiYBE4IIRkITygiGTN0gEJAJXKgIam/tIYYN2Qt/1AbC2FtvDW8u4Ea513VDGFuDsga44WewfFv6HDV3TkDfvk/TRRx+NNO/UzQe6RZ/klYqE9EsiIBGQCPy6CEhC+eviLXOTCEgEfiEEGMVjOyq5oJdnQ9/VH/ramtBsN8C5rjPKto+Gcno7NKXU2HXJt+uN6Ic0lvX47Xvj31sZOGuScpV/EgGJgERAIiAJpWwDEgGJwNWBANu8i/Ycp60Xt0PP7Q/d0QCuNV1Run00PGe2Q1NLoeketr857cvNQwTRSm0+sH3hhFIsw7k6IJSlkAhIBCQCF4uAJJQXi5y8TyIgEbiyECBCSftq017ezmyouQOhrH8arm2joPycDY12wNEV0PaMtKqbyKTKtlKkQW7VWMvNZmFeQA+lJJRXViOQ3kgEJAK/FQKSUP5WyMt8JQISgcuOACeUTqiu3Sg/uBBlu+ZBObWD7YCjaYq3Z1JXee8k7YJDAcxpyY15UY5YmENXKh/yloTysleiNCgRkAj8LhGQhPJ3WW3SaYmARCAYAiwoueaBx3MMJaez4Sw5DNXthK5oPHA5zbFUddD6G1rAQwSU+ieJQApCKYa9BakU10TKF+WY51LKeZTB6kKekwhIBK4tBCShvLbqW5ZWInBVI0CEUtU0eFQP3J5yqIobGgUtVwHdxAHpmHT9TprClIcmjyYjXn1JKK/qRiULJxGQCFQJAUkoqwSTVJIISAR+DwhQGCCaF8lE1aHS0DYb3jZxR7YcnLa0CU0oK/ZCBiOS4pwklL+HtiF9lAhIBH5ZBCSh/GXxldYlAhKBXwkBonWM4lHvo1mod9IQpmAmlN5eRkEOLyaVhPJXqmKZjUTgmkaA/QZmiw9Ne7xeQYhIQnkFVYZ0RSIgEbh4BBhP9LJK44EbyA+9ZJLyMSsHKl7IZ7Ij/yQCEgGJwC+HgCCTGpuuYyKUV9DjRxLKX67+pWWJgETg10ZAEEZzvuJchQev+cKlHJszk8cSAYmARODyI8AXHPLoFBRDl4sxc6fCs+3y518Vi5JQVgUlqSMRkAhIBCQCEgGJgETgN0KALzhUoNBCQ0WBppjmh0tC+RvVisxWIiARkAhIBCQCEgGJwO8IAQpx5lHOoPTcYbjLT0D1ELE0eixpPJxN4TGnv37hZA/lr4+5zFEiIBGQCEgEJAISAYlAlRHQoUBxH8HZI8koLciAUp4PVXFBo9i6tPsXFEPo+LfpspSEssrVKRUlAhIBiYBEQCIgEZAI/PoI6PBA8+yBa9colP3YF67DcfCUHIFGQ+CaB6ruggonNEYsJaH89WtI5igRkAhIBCQCEgGJgETgCkeAeiCJUKo7PoGy4QE4v30N7v2J0EqKGalUNSKU5UYvpSSUV3h1SvckAhIBiYBE4NpEwDw37VKPr00EZakvDQHeQ7kbWs5H0Ne1g5rRAe4vX4d7Tyq0s8VQFSc03ekllP6tlAbBzWcuzZdQd8sh71DIyPMSAYmAREAicE0hQCtphfgKTi/iC4lLWpmueKn7rMsjiUBVEBBD3jojlK2h28Og2u+E68ue8OxJhlqWD10rhQY3NPaPNpCllis2kjW3S2qHl/9PEsrLj6m0KBGQCEgEJAK/QwRogQNf5GB+4V5OQkkvdbPt3yFI0uXfBAFGKN27oed8CH1da8BeF7q9ERR7a7g3vgDXgTio5Qeg6mVQdRW0NEcFjJRTTN8Po1+mDUpC+Zs0DZmpREAiIBGQCFxJCFDPpKJQnD8FqqqahD5fbvHZr0hgryRUpC9XCgJsFTcjlP/zEkrY60N31IbqaA3XVy/CeXAFPOV5cGseuCnMEIiGErGUhPJKqUfph0RAIiARkAhc5Qg4nS7s378fWVlZ2LZtW1DZunUrKpNQ99H5rVtJ/O/PzMzEkSNH4HK52VD7VQ6xLN4lIOBHKNe2Amx1AVt96Paa0O31oGa0g/OrF1B6KBHO8mNwqQpcOh8AV4whcP9YlZfgTIhbZQ9lCGDkaYmAREAiIBG4+hEQcyaPHz+OlStXMklIWIWEhAST0GdD4lchIZQkJCIhqIj7zTYTELNgAdLT03Hy5ClJKK/+pnZJJWSE0kND3h9AX9sSsNVihJKl9hrQHfWhOpqg5Otnce5gAsrLi1CuueGi+JWyh/KSsJc3SwQkAhIBiYBE4LwIiCHn/Px8zJkzBxs3bsS2bZnIzMzisi0T27ZRr6WQ7diWGUyykZlZmWxn9rZlZmFrZia2ZWZidVIS4uLjUVRU5J27eTlmtwmSLOaEBqbi+nnBkQpXDAJs8NqzC3rO+9DXNgNs1QFbHcBWDbDfBDhuh26/GZ41TVD6zXMoPZyAcudRuHQnPKA5lTz4Oc2q5HMpL0dL84dH9lD64yE/SQQkAhIBicA1hIAgV/n5BZg/fz5ycnJQkF+EwsJiFBUeY2l+YTEqSFEx8v3kGAqKT4SQ4ygoOsZs5BUWIa+gEPmFRdjw5SYkJiWhsPgyEUriCDqgazqbA+p0OlFSUoLS0lK43W7vvFBBoiuvZjImVgZffvJRed7yaiACjFC6d0LP6Qt9bRhgu4mTSdvNgP0PgONGRih1xy1Q1oSj/JsXUXpwOVzlh+HRqJ/SA02nqRVuQCdSefnr9JIJZeAvH/mZrxKUOEgcZBuQbUC2gSu/DQhCWVDACWV29g7k5xcyUrkjZye2bNmG7378Cd9tIdnK5NstW8Hkp6341ivb8N3WLC4/ZeG7n7LwvVcy8f1Pmfh+y1bk5O7CoaN5jFyu//JLJCYToSyGqvMwLxf8mqcbDBJJRFJTNZSVlGHf3n1Yt24dUlJSYLFYsGXLFpw8eRIej8fbGxpIWjjJECSSrxHmPVoX7FVF0/LMJSGgww3dkwt9x7vQ19H8yesB2y2cWNqvAxw3QLffCt1xB3RHXShrolD+9WsoOxQPd1k+PJoTik6xKl2cUNL+30bbuSTHTDdXmVBSvqKZ+aVGmAX54LzyH5yyjmQdyTYg24BsAxXbAJFKQShzsncwMnnwwGEsXrwUMQsWYdGy5VhIspRLzLIVMMv8ZSsxf/lKLFgeixhDFiyLxcIAmTFnHuISErFj525/QnmsGMpFE0od0HTo9C5WVZw9cxbffPU1Zs2ahalTp2L69OksnTZtGiOWhYWFrKeSyhz8rW4mkuLY760f4j6pExzPy4ELhSV3Q3fvgL6jD/R1dQD7HwH7zX6EEvbbAFsN6LY60G2NoWREwfnNKyjbnwB3aT48ajlUzQ1dU1mb+U0IpfgFp+k6+xUlmhil1IjF9QopNXKVGrovWKxXR1yj66F0TEFmmHhn4wAAIABJREFUmQ2zbqBN8zXzfYHH5nwDbVR2LdAOfTbnabZ1IXZIV+ibbZB9cb4q+AT6Y/bXbIdsma8FHpOu0Kc02HXhT7DrZn0zPubz5jyq4o/ZTmCelV0z50nHQjcwT7M/gfYDbdBn0iEb4j6zjsgj2DWznrgu9ENdIz3ztWDHpHM+f8T1YPfTuar6cz47wpbQC/Rf+ErXQ/kibJh1K7MTeC3QLuUlJFDXnEfgfYGfzbqh7ND5wGsXY+d8+JDNqvhDdi7WH1GWUNhdbLku1p/zlTnQnyp+pvcatcX8ggLMmx+DnBxOKPfs3Y8pU6Oxbv2X+CkrBz9uz8EWQ37YvgM/ZOd65fvsXHyfsxM/5OzySfYu/Ji9C1u8shMJSalYvHQ5tmZmI7/wGKiHchX1UBKh1DSjl5IHog7WecTOectlhK/W6R2sQdcUlJw7je+/3Ygxo4Zg5MjPsXzFSsTHJ2DlyljMnzcf0dOmYd3atSg5dw6azu/XWFAZCiwjgsvwYz7rjv731/DXCn4tmGWzHXFdpOZr4lhcE6k4H5hW9TrpBd4rPgsbIhXnzam4JlLzNfNxVa8H0xPnzKmwrcEFzZ0Lbcd70NfVNwjljYDtBsDooeSEkuZWVoNuqwHNHgZlbTuUfvM6yg4mw1OWB1Vzsh8eUHUwIb4brLGZeh6renieHkqeC33ZOJnUoOgkFNeIix+hFA8g0eDps0oNnQvZEF9ev4dhJQ89jbrwhV2VuvMNofMiH0qN82TXLx+zDh0zn3x2/B62xjXvyznw3oDPwheWN90rrrNhB55HKH+8Pl6gP977RF6m1OuPGRuyb/YnxIvKa9fsj7lMIh+zLSMfutdbdtMx+RMUSyOPoNeM+4P6Q3VsLhvpXoA/rJ5M7cTrcxX88epSGzbyFPXuLb8ZO6NNe8thxsXw+0L8CWZH+HQh/oh7ROq1a/adjk3+su+I+N5VUi5xT0h/TOVmdW/OwzgO6s+l1ntg2czlM66d15+AemeYCP/JRhXaYdCyGfcK7ATWwh/vPSIvUxoSZ6NM5ueB1775fvE8NuvTsdAxn7+c9W7OQ+Rl+ELlFRiw58elfN9Ntv3KFJA/G2rWdeTlF2Lu/IXIzsnF0YIi7NqzD5OmTUfO7j0o+rkUhadLUXSapwVnypBPctZfCs6WwStn6LgchYYUnSnDhs3fYfnKBGzLzEFh0Qms37SZE8riYnhUDR6KhWm8W8V73vuypxFKJvQM0qDpKjRdga7TELYbpWdPIGvLWsTMHoJhQ/pg3BejkJJqQUqalaVJq1Mxc/psLFq4CIePHIai8dW/tALYLB5Q/EIebob2XAkmlV0X91dVJ5Se2U5VdIL5SefMdqqiU5W8qqJzMXmZfRXHwo5CNeGmRTkUhzIcsP8ZsNOw9x9MhPIWwH47YLsNOom9GjR7LXjWdILzm3fgPLgKStlh6IoL8GiAovEZDdQ7SA3uEv/OQyj5pj2+IRIFilYORXdD0T1skqdKjVn3sEZNDZs1bt0DOq/qClSNGjvXIT2vrjhvpOLewJTuJRssH/M9ZluUr7BDaeA14zOdZ36Z7NB95jyZrwHnzNfpOJgdb7lMvpAt5ldl/hjl8+YbkLf3vAlbv7yC+CPyNPvttRNgX+iQTVauQH+MfL16AdiJ+8R1SpkdSo3yB2LMdER9BdgXdoQN3o6MNhSsbi/AH29bFH6Z8vbiYzonfBGp2Seh71d+w664JuqBdIQNSpmdQJwD6sVrw7jXLx/TuUrxCfQnwA/hS1B/AnSFP5RWWi7jO+bVN8rrLb+5vgLyEP6IMlFaJTvB2oXAOdAfw/9Af4K10VD+VNAVmBhlOy8+JgwEnqH8CVXvrM5C4RPoTxCc/coW6I9J34u/sBlYn6FwDqYn8DHZ95bbbMfkj8DSqxfkGmHhvW62Y7yD/K/zRQlCn+GrqYyg0bzJufMXIytnJyOUO/ftx8To6cjZtx+FZ50oOuf2SsE5N/JL3CgwJL/EBZKCCuLTKSpxYcNX32NF7Cpsy9qBwuKTWP/lZqxOTkJRcSE8qgceTWHvTSKKRBh1WjzBhid5SkOV1BOpqQojkbrmhK6Wo7zkOH76LgWxC/shbdX/MH/OAIwfPwopaTY/mb9oMWbMm4fsXblwq/QeV6DoakhhO65oKlTWe6ryHVhoF5bK7mH6wWxSZ1Sw8xd6rip2qqJTlXyrYod0/PUq4lNRJzgWQs/fnkKY6m5orj3Qcz4F1rYDbEQcqYdSEEoimNRbeRNYTyUNf9OcSnt16PYmUNbcDdfXb8C5fwWU0jzoHoUTSkWDrhg/5Ew/wi6GW56HUFLXu8YbE/0iUs5CdR6C4joMxZ0HxV0A1V0EzV0I3UVSAM2dz0R150Olz0wKoblI+HXdlQ8Sfo10jPvdBdBJXHleIR3VVegVrx12v9Dj9ih/8oPpBNpx50H4RPZE3twXnx3N8IvZonIxn8i+0Mkzysf9Mvvj0wnlj8mOOw+UF2EU2h+uQ74yfN2F0NwCw9D+iHrw+UO6lLfPToVyMX/IF+EPx8gfnwB/BI5uU7lcPnw4NrxdhLZDdV4RZ43qy4sPbyO8zqjd+MruV67z+MNxrqxcBkZB/CEsqW2r1Oa9bZr8ukB/KtR71fypvN6rjo+33t0GhhfkD7Uf8R07fzsMVV/e714QnKne+fdCPD8IH45R8Hq/cH8CvxeUn//3nWxyfChPXu/+/gS2Z187NPvjs8PsGc9E8TwT+Ii8RGr2h56tVPfiGqUV/QnWDgO/8/Q9y4cu6p3KF9SfgLwoP4EPq4dQ/gR+L7hPfn6z74r5We/vj/93ntc7e5b5fd/9yxX6WU/vJhLDX1Z2/n7huHM/6H7dWQzdeQz5B3Zh3twYZGUToSwGEcpJ02cgZ/8BFJxzoqDE45X8Eg/ySz0oMITIJSOYpT4CycimuF7qQWGJG+sNQpm5PRdFxaewaeMmpCWuwLGj2VBL86CWH4VWfgS682gF0ZxHwaT8CLTyAujledDK8lBy4iAyv7Vg6dze2GztiT3bBiF2yUBMmDAayWk2Q+xITrNizoIYzJozHTtzvodSTnVEUuQTZxE0Q3RnEYKKqwh6iHs0J+HJRTz/6ZzmLDYJ5SG+10Zqylfk7/veh9BhPtA1oxwsH5//zI5os0KHPgfmFWgnmA67x5QX2fPmJ8omykXfIboeqCN8C2WHrgtblAp9ox7Kj0I/+w307R9AX9cRsNcBrDS8LYa8aU7lH/lnG5FJTigpvJBuawjd3gLKmrvg+vo1uPYnQD1XBF1RoCsqNIXm32p8pIWNKBsLdi6QVYYklMZgN59nwSb7uqGd2wb1wAwoe77gsmsMtNzR0HeMgr5jNLQKMgqacU3fMQZ6LumPgbbDJ3Se7lOZjGEpfSZ7vmv8POkIXZ4X5StkJMuL2+F63Ab3Qc0dBa8wO6NMeQkbPCWfVSbcL+4Pv8bO547ktnaQ7Yo65JO2w+RPLtcR/rDrF+AP94X7KzAQ5Wa+hvRH1A3HgOuO9vPda6eCP8HLxcsWGh+fP1R+boN8Npfdm6cX54p1we0YdWbCmZffXF8CZ58NXl+87P52qF34fBd+iNR3zWfL75rA6Lz+jOTtx6h3sz9kr2I75PmJvETq86diXfiVK9fXDgPbB9ny2mH+cF1RH352TN8LXmdmnE12grR5nx3+3TDXPS+/vy3f96syf/g18qVivYfyx1zv5Iv4rvo/OwTGPDXqy2gbZn995fK1m2AYc5xN9Z7r/wyi6956p3Zkwtqcn86eG8IfUW7f98fPH68ds54PZ6bL8qXvfEUdrz+s3OK74ctLYOP3LDOewRXbj6/eRd37l4v7xZ+f4hkkMDJfE2X31b2/Hf5952Uzl8lc74S1Ue/iO0vlz6X3CH/fkE0udG483LnTsG/zbMyZNBRZmdtYD2Xuvv2YPGMmcg4cROE5FwrOKV7Jp+MSBQWlhgiyKUim9zO/nl+qoLDEY/RQJoIRyqKT+Ga9A9aFQ1H89RfwbJ8IT84YKNkjoOUMh2oSZccIeEhyh8OzYzg8OaPhzvkCp7dG4+tVYzBl0H+xdOpTOLmnP47tHoiEJQMYoUxKtyEp3Y7kdCsSE+Mxc8KnWDn5TRR8ORye3LFQWBsizEdA3TESas4oqNljoJHkGGn2aGhCckZDDRAtx3c98Jr4zO1VvFdcV7Pp2iholH8lQtd9Ovwef/3R7DrXCXad2/e3EzpP/7wq2mNl9/pU8booU+V2OO7CJ1/KceXYUFsfBS17ALSvHoee0cgglLTa+w4+/O240RgCv4ENefsIZTW+o44tDLq9KVRHR7g2vwznnpVQSvKgqnxOJSOUbGqTxqaqsSFwIoIX8BeSUPJ1SbQIh3ooVWhqKfQTSdC++yu0DVHQ1kVCW9MGWkZT6I6m0DOaQc9oAS0jAjqTFuycRtcczaA76HMEtIzW0BwkraBltILuaAktozm0jHBoxv2ko2e0gU667B7SoetCeD6+vFpC914Lh7aG2+J+UJ4kRj7smrBD+dK9wmc6Fr4IHXOZDDt+NnhePl/IVoC/Xn98efGyNjd8DZ4X2fErlwkj4TMrV5X8MZWL6fuXPTQ+Ahterir5Q376+UR17ys7P75Yfwhb4VMwfMiuuH4p9R4EnzUmn1ldcB1ffuSPSScIzrxtBNa7f14V8DHl5V/vprxMOpX7Q23NVxeky75/fvV1kf5Q2YPY8feH2oLR3oPgw/1pEWCH++xvJ3jZ/fA5rz/UTkz+CL/88Knqc4OeE6HLxev9fOXi/njtCHt+/lB9nc8O1W+gP+Rb4LMsuB2BIU9NdoL6Q/gYOn51b86L++Nf71X1x2wnFD783UL+8ueYUS7yx+tTc2iOFtD83jfCh7Zwr7sfu1a/jLlj3kR25g84UlDIeiiJUOYePISiEjcKz6leKTinwic+omkmnb5jrlt0zsPmUNKQd+b2HSgqPo4f1icjY/p/cTzxAaj2blAdHaA56L3aCmpGC6hrSNpCzegAdU0k1DXtoK5tDnVtFM7ZH8aWmEexeOjDWDj6b1g9+3E4D3+Ik3sGImHxp5gwfhTrlaReysTERCyaPhSLBvfA1jl3o9xxF9R1raCuaQY1oyHUjDCoGY2hOsI5RvR+Zu9peldH8Pc1+eVoA5Ukw0jZOeN97mjN9pRWM8jfdlAz2rOUlcf7zo+AyspGNkivLVQHiZEPq0PSac3zoHyY0GeqX5/47JxPx2xLcIqLsSPyoTSUP5eel7eMDHfCxbC5pj20NR2hOai3kVZz0045RCgppeDmNXivpO1WwF6dC5231QBs9ZiubqsPzRYG1dEOzs0vwLkvDkrpQWhqOeupZEPfNPyt0IKdCw9VWSmhZHHVaZIwI5Xl0E+uhL4pCjrrQq0L3VYPuu12PvlTTAI1PvNJobcGXKOJoqRvFjF5lMb6aRKpuHYH16PP7DzpkT3DptBl+sGuGbbM97P5BMKnIHbIpiiH0BV5MzvCF/JV2BH+m/JjNui6OQ9T+bw26R6Rp1mX8jHyumh/Am2Y/TH8Z36Y9IRfoXBmvprtGP5XsBOAD8NS4GMus7hfYCN0jLL/Iv6Y/TeV3Ysz+VCZP4FlM/lcab0LPUoNqaB/sf6INiRsG3Yq2Dd8r1BfVfXHwE74H9SOgZ3I26tr1Ck7L74zF+BPYF7CPrVVbx5UDhOG7Lzwx1zvJr0q+2P4Svre/Ex5hfRH5GW6z6zrtWeus6rgY/In0Ab5582D8jV0g/ntp0sYCX/N9RWIXYAOsxvMH6FHqfCJjn9Ff8x5MUwEtsInKtst0OyNsC/uaSwY/RpysrbgSGERI5RTZs7CroOHUVRCQ9YqikpUlprJZeE5BVx8hNP/Oj9fbBDKlXEJyMregeJjx7FlfSLWTXsCJ2ObQEurAz39duiW6tAtt0G3/Am69QbotrrQrQ2hW+tAt94OzXYLnJY7kTWnC1YOi8A3q3piQ8JbSJr7OFyHPsGp3YMQv+hjTPhiBFJTLUhanYiYaUMwf+BD2Do9AmUpjY3vyY3QbTdCtxr5WG+BbjXq2noHdGst6NbaJqH8g0mgjvlzVY7JZjA9kRddu1SdymyY8zbnaT4v7hd+iDSUzvnsCHuB94f6TGGASIh31YbOSGRtY6ccSmsD9iBC59k1CjMkbNSGZqvLSLxr00tw7lkCpeQAdE85dI8Knc2ppMU6Fz7sXSmhVAC24owmj9JSc/1kLPAlTQalYJq1jALcziZ++iaBmsbu7cSUxefzpbcCjhD6jtsAEmaPdAw973nzNUNXXPOmwr64X6QmfT9fDX3yyWtD6Jptmcol9Cr4KWyJ+02pmOfgvSfwmrAvbFTRH68vZmyMMrMyBbNjyiukPwI3Sk2+ivxYavgq8AzEUJwXZf/V/Anhe5X9EeUyyi7uE2UX5fHDzrhH6Ig0qK6Bp7ArdELic6H+hPCFfBJ5+flu9icEdqI8LA30x7jHrGMuW8hy/RL+hPC/Sv4Eliug3VeGnbns4rgyfa8/oq4oDchP4MbqSmBl0qlgvzJb4n4TPiK/CnZMeQgdlgbBh+4163jLRfldiD8mOxfqj8CJ0kCshH/Um8MIZRj2xz6BBaOIUP7ECCUNeROh3H3wMIpLaMiaE0oilRcjRCjXb/4WK4hQ5uR6CeX6qY/jVGwY9LSa0NNvBSzVActtgJVW8N4AWGsZ8mfo1hvhtDbF1tn3YdFnrfHd6n/h+K6h+Cr1bYNQfsoIZdyiT9gq76TVq7F05nAsGPwAvp/eBqVpzaDZ72CEEtZq0IlE2v5kzLuj9zrhQXKH0fNFW/tJuWIwoHmTlyickBKpbAA14064Nr8C596VUM8dgqbQ8LfCo/P8MoSSrzbihHIlsLGN8eU02LDjdk4EzQ8Peez/MJV4SDxkG5BtQLaBK68NsM4R6qFs4CWU2ZnBCeXFkEjzPccqIZQ/E6FMrwkQoUyvBqTf4iOUbM9mGrm7BS5ba2TFdMGUdztg9ueROJ7bB+cODMY3KW8gad7jcBo9lEQox44ehqWzxmLhoB74YVo4zqW0hOaox1f9EmG03mzkcR3fuo9WCDMySZ1ENY0OIyIwdaVcURgIUnkx9UI/DqiHsybr6dTsTaBmdIJz88so30OkMp+TSk3h4bsu5xxK3kNJMapED+UKYGNbwEaNrT7gqMc2JGc9i/JheeU9LGWdyDqRbUC2AdkGQrcB283QbTdAs9djhDJm1CvYHjDkTT2Ux0pVFJdqFy8lKo6VeLD+q8AeylVYP/UxMEKZJghlDcByB2D5s7FfM82NqwW3vSWyFt6JBQM6IGnms4ibFomSvb1QtncIvkt+E8kmQhkb8z4G9X8R8z57Ct9PjURZSgQb5tRtNxk9kn8ErNdxsV0HMCFCSXEMqUeX5uTRe16MRAYZTg02xCrPBR96vpJwYcPgRChpWiFt01gHypoIlG3+L8r3xkIpOQJVc7EF2RS/lYKf8jiu549/fp4hbwqyKnooXdBPUA9lO8Bak3eDO+pKQikf1qEf1hIbiY1sA7INXMltwEZDvrQHch3sj3scMaODE8rjpSqOnbs0OX5OwYavvsXy2Hhkbs9BcfEx/Lg+Aeun9jCGvOsCadWB9AaApR5gpYUX5F8juO1346cFd2POgMbISn8dOzcMQNL0KJTt7Y3SfYPxdXJPJM97GM5DA/DzrmGIjX4eI18Jx/eT26M0pS00NgeR5kwK8miQSRpWZ0LD3rSNH+UppghQTyWtIJZyVWJg1LVuvwOaowY8ayJQvulFOPcuh1p2BJrqZFs0si092QYDl0QoecR+itrPdsah/R+PxwIbOgBWWjVUG3CQyCFvv7lCV/LDU/omX+6yDcg2INuArw2wl+rNBqF8jBPKTGNRzv4DmEqLcvYfwskSBcfPKiBSSHKyRL1gOVWiYONX32GFIJTHiFDGYf3UB3EqtgH0tAZAWn0gvRlgpdW7FF/wZijWSGyd9xDG9g/Hd5b/wHVoKPZvHoCU6C4o39sHpfsH4euU17F6/mP4ee/n2LmuL2I/b4dvJzSEO7UFG9qElYbQKUYhDW8bYv0DYKVeSeoJpQDZNHeS77Lit/ZBxDSU7cbXbq4WLGguMZsvWxO6oz7UjEg4v6TV3ytZ8HNNpY0AaEcm2pmJeir5bk2hIglV0kMZhFCeiAU2SkIpCaRpovzV8sWS5bj6HpayTmWdnq8NmAll7GNgQ94GoaRFOaPGT8Cy+ASk2NYgxbrWK6m2daiqpNjWIcW2Fmm2tZg5Zz5mz5uPbdRD6SWUD+FUbD3oaXWN3snGvGfSfiPc9mbIjOmIif1aYuzAO3F81ztQjwzAgU2fIGVaZ5Tv6YPSfYPwTfIbiJv5FLY53sXqMe2xZVodONMpvAz1Mt4OTij/YCKURCapl5IW/pBQD+VNRg+leaGWqcfyfFjK67+/7xtb6MYXYLEV5I5GUDM6wvXlK3DtWQW15BgPfk47NLE94ytnlJUQSgpDxPfrZj2Uuhv6ybjghDLYCjrmqNEwzQ2N6VKXuiAl5hV/dGysAjTfH/RYdMsLO+I+0/nA+4Qfgecv9bOwa07N5axgX/hoTsWX+EJTsw06NvCoUp7i3iB5shWSZMtcPwF6orzevAx74vxlSY38vXiKPMx+mY7NvnjLYGojl8UnaU/+qJJt4KpoA6xXjnooa2N/7GOYT3MoTYRyzMRJiE1cDfva9bCv3WCkdHxxMi9mEebGLGSEssg75P0ITq2sD50Nd9eEbq0GzXoryi0tkBXTDgsGN4Nj5cuYN/EhnNr5BtQjH2L/po+QbBDKkv2DsTGxFyZ8fBdWfB6J7yeHoTy1MXTHTYCDtuWjleJ/DpgvSXMoqceSxCCarKeSeinFc9541nqHwGWbvyravPkdSO9L1kNZg++6Y68F3d4AmqMt3BtegHt3ItSztFDHzVZ+Q9MATWeia7Rdo3+P5XkIJSeV5yWU1E1O8yyYY9Wg22pAt1K8pAZsaTqtoNPs9aHZaxvxG2mvSbqHGi5Fd+dd+97FPUQeyKaVVqJVCxA6J341UUo2qOEb52geiJV+aVHXfQ3oNvKHYo/VgM7AqgmdBQClLYsIRBJhk2yJeSPCP7JrHDOb1fkcUuaXkXcw4sLKcGtAGQgjskflp3KTkK80d4XKTPrmLzTZDyJkgzBgYtzD4of9ma3gownmVF6NNoZnKeFAGND166Hb/2RsLG9M+rYS1iQG1mTfSyRvge64AbqDHro0kZe2caIVh7VYF7lup3rm57wTus0N9pKPbwHowUhY0bCMwI12BTCL/WZTO6D6EiRTPgSvuofgJbcp2SZkmzDaAFvlTXMoAwhlAY9DGT17Dg4cOQqPqkHRLk3Ixg9bfkL8KtopJwdFxcX4cX081k59DCfj6kO33MREs9aEM70Dts6OxNKhzZDjeBH5WYOweNLDOLXjTShHP8Kerz5GYnRXlO55D2f2DIZ90csY9Uo9fD2hCcppmNtRC3DQ3s7G8LZ37iSRx+v5gh9GMum5Su9feifQ8/U87x/53fv99UJWVmeMNxFXEvyNAqITV6oB1d4Uzo0vwLUnHmpJPnTFBZpPyUild5tGPgwOYzX4ZSCUFImdVoOJ5egUDDUMHkskSpK7ozj+XhxZ0R1HV96NovhInEtuCsVCgVprMWLCyeT1vsZMRIY1aiI3FH+rtknoc01O0hjJIyAM8sAC594OnQKyWupAszSCbm3K9rBUrQ1QmhKBs6ubw2NpwgKy88jx9QErCeVB5TDKYqyCEgSZlY9Fm6fFSDRZOgyw0j6aAcSF/GYEUJSBSB8RUFEG8p98pvIaG7qzvTdv5ESSzXMRscCMsjESaxBnRp4pT0EAKaU8iFTeBtVWDadT2qAwriuOxUWhOL4jCkmSInF8dQTOJtWHx3IrNCKW9MtUzKGhuGdmrCnKvndu7M3QHX+Cx14bp5Ja40xSSyiWRlCs7XE2uQvOro6AYqGAqdQgjXIzHAQWQQgxa+CBPY9Cz7Dh1SFCSfN8zMM11wEOk7CHJg3ZEHZGPZIPXlIsCYQkELINyDYQ0AbYy5R+zP+RvUD3xz6KmFGvgsIGHS0owq69+zFtxiwcOZrHOmXE/DG/1NhMhG9V7Fu0UOEz69TR8ePWnxCXuAqZ2dtRVFzICOWaaY/hRAI9Q/8MzVYd5elR2DK7B8b3DceG2GdQdrA/juUMwuLxj+HUjnfgyfsYO7/6BPHR9+J0zofYveYtrBoWiR/H1YEzpQF0O3UA0PuF9nYmokjPRhIRFojiXNIq8pt46CDzc9t7HIBVZaREXvt9k0zRacU6u/h7WLffAhLaOclFpHJfHNTSQ9C1Mui0nkZVodGW3NRLyb4QfFZl1QklGakw5E3xkES0duoVqwPN1gglaR2Ru/AeJAzqisnv3IURr3XG8FfbYvwbzRH/cTh2zmqO8pT60Bj5q8YbNwtXcDPgoJ4m+pIToSQiZgRVZcfUm0iEQfT0mQklRfivDs3eEKdXd8H+uc3x88pG0G2tcHZ1B3w7vi2sA6rhxMqGrOcUtvqArYFBKOmY8iGySmIQQPKB9bzSIiTDD1beusam7AYJEj2U7MtI58yE0nQvI6rkP33JiVQa8b+o542RQuqtJCGCaJTN3BMpKtybkg6RTSJS1eG0d4Rj4r0Y9XJnTHq5M6b07IgJb7bHxHdaYVrv5lj2vxb4blJDnF3dmK/6s9wCpNODhcpGZaItnOjHQQ0TobwJuuN6nEhqgeSh7WAd2hwn4iJxLuUJrBkaCduA2/BzHGFPvYjkhxCDUJJ/RICFz6LxMowoRAXpC7yMXlr67CWD1B7oF7Qg4MYvbjOh9P76pvup55lINxFRErIlH44SA9kGZBsIaAPsGUTP24qEMo8I5Z59jFAePpoHVQzvGUN8glSGWpwQeJ4IJi1q+PGnLYhblYDMnGwUCkIZ/ShOJNSFaq2DkrSu+HrO0xj/4WMY2j8KuV9GHoolAAAgAElEQVT2hPswEcqBWDz+SZzM7Q0l72Ps2/QpVnzxMDKTXkf6qDbInNYY7nR63/GdblhwdLZ4ljpBSOg9ZIzK0buM3nMWes/Q89d4RrPntPkHfQBe8jl69b5LxHuZ6tg45mGF6kC1t4X7yxfh2rcUaskhtg23prmh0ZbcmsYJpdHgL4xQ0qIc8ypvCvbJGif12vGtiMotUfhu1iOY0Ls9Rr3aFIveb4/VAyMRPyQScz7ujGEvtcWkno2RNb0BXCl1+UTktPpsSyn2y4p+XZHQsGoAoeRbQVHPpjGUzYZ5b2LD6DR0TKRGcTTAV9MeQPTrtbBrFn3BWuLs6kh8NyES1gF1cHJFOHRrY2MrqwbQrZQ3HyLmeYqeUcqHhnIpL74FFVvZzrY8onkG1YztqwSBFFt60RA7DQkbMZ5EiCXWo0nbKtH1P5nCN/yR+U1baulWskGkiI4NG+y8cU2QS6Zj9FpS5TOyVhPl9m5Y8vljeO2xDpj4+l1Y9lEkFn7YGvM+aIvp70Zh2POdMOTZJsgYE44zSc2gWWgSOPW21ufbaLLtr4z4VOwXCieFNNxdkNABM3p3wPx3GiJvaRuUJD+BtZ9HwfFZNZyOI18pnhs9zAyCyEgikWfCkQt7qDHceDnZtl8sLhrfjo33TFOYDPp1JLZoo2NqD3+AbvcJ//XNySU/T8P5vK6YHRruoR8nklBevQ9B+YKTdXtJbYCeb0Qo6blSA+YeSh+hnIn9hw7D7VGguFUoHhUehYuiqFDVqomiqlBUBd//+CMjlFmMUBbgx41xWDPjMRxLaIWS1G74Ye7TGPvpfzBhTH98MeQJ7NncC8rh/+HYjoFYNP4JTiiPfoK9GwYg+oPOSBzcBllTmsCZ3g56Bj27iSw2NJ7rtH+zCIJNcSSNmJJslK0OYKF3nXiPGCNf7Lktf4Rf8z++GK8grkJtqh40R3s4Nz0P5/54KOcOQ1HLoOiKN1alMeKNKhBK2tJRhxosbBARSgpvQPMlrdWg2Jpi34pHMf7trhj5Yhi+ntgap1dFwZXaEeW2KBSl3QfrpHvx+cthWNT3FhQuvgN6anXoaY2gWJqhLK0RziaH4UxSGEpSGsFDq9SI7DH79eFOawh3emO4LS1QmtoSZ5Oa4lxyPbjT6xrkrjpKbB2w/PMn8f4/m+DHae2gpLWEx9oap5PuYcPAntQIaJYmcKe1gCs9HC5LuNdWSVJDuNMaQKMhXGsN1ovnSmvKz7Gha+ohJYDrwmVpCnc6EVEinUR+akCxNUZZegucXR3OpDSlGTwWIq9UhtrQLA1YmdzpNaFZqVeShiFuZPMcXemN4EqrD81CRLQGVFsDuNIboyS5Kc4mNUFpchjcqWSDyCWFgBA9e8YDgebd2O7B4qFPodczbbBx4j04ndoJZ5I74ExyJI4n3Ifvox/DF291xeAXG+LryYQbTQAPA20Yr1gaozwlHOdWN8PZpDCUpdaBYiHiXB264w4cXRWFKX0iMad3feQtbQS39U4UrboXx+LbwJNOddUArrS60KzVodNDmhFSmjNLOJFQzzBhdytUSx2Up4bhbBL1loahLKWBMWzOsdRs1eC21IczvR7K0+rjXHJ9lCbXQHlaLbjSa0CluUbGEDj9iFDtNeCyNIHHQlMcyGfqASaySX7Ih+M1/3C8JNIhe2mu3vZjEEr7H6DZa2Bf3KOYR3EoM38CEcrde/dj8rTp+HLz19ize28F2b17Ny5Edu3ejTRLOpavXImsnBwUHSvEjxtjYZ/xDPbFPoRv5zyN6QP/g1nR47F82WxMGP4P7Nn8LjxHPkbRjkFYOOExnNjRB+UHBuD7hHcw/a362DKxMZzJ7aA7ItgaATaFizoKLEaPJE1fYmKMtlHAcuqpZOsGxHvE1yvlHS2S35lr+8cavTdZxxXFLqVOnVpQMyJQ9tVzKN+3FO6SffBoZVBZSCFfOKEqEUrqqqcuTj0wbBAjlAZhslXHufRuSB/3FD76Z3OkDmiAksQW0Fnjph4q6jptgqKE9rB+3gwJ71fDkdk3Qku6Ec6UcBxaeR++mtYd6SOjkDS8A9ZNjMS+pW1QntYIuqUeVGsE9izoguz5d2HX4oewaWJXpA/vBPuIDsid3QElqfWgOJpg3/IHMbbfM+j5TCQSP+uIIzGtUJrcEYeWPojdMZEoT2kDV1o7HFjSDVnz70bu4m7YNKULLCM6IWNUW+TMboEziQ2hWeuiLLkdds67G3sWRMCZzskO9cS60jtgx4K7sWdeUzjTGoMWprjsbXB41b3YPLU7LEM6Im1IJDZOiML+xZFwpjaBbqmO8tQ2OLikK3bOb4vylDDoRB6ttVGa2h47F3bBrnnhKF99O1RbPRxPikTWvK5YM64rLCPuxIYx7ZE7sznOJtSBln4DdEZGaTjYIJbWmnDbumHx0CfQ66+N8UM0PWDIPiegRMpL0zpjQ/Q/8b//dsL8D8Lw82oi4g3gsrZA3soofD+lMyzDOyJtRFtsntwKB5e0Rnl6U2iO6jicGIVxfTtixrt1cXRZI5TZuyJ7yb3YEdMa51La4/CSKGyf2RZnEpvwBTy0kMdeD2XWB5A77y4cjGkBxdIA7vRayFveBd9N7g7riC5I+zwKmydE4fCSDihPbc6mTJRbmmPPks7YMrczvpt1N2yj2mP92Ob4YVp7ZM9siVOx9aGl3wRY/sB+bJxLi8KOmPY4vKgR3Kn0q0oMj0tCefWSAUn0ZN1eahugH5v0jPgjNEdt7I17nBHK7KwtyC8swr6DhzB/wSJMnzkbs+fMw6zZ81g6ezYdz8WsWbMxc2ZomTVzNtMhPXY8ezamTJuG2Ph45O7ezedQbkxAwtTnkDj5L4ge/H+YM2UEkpJSsSphGSYO/yd2f/UuXHmfoCB3EGLGP46Cbf/D3nW9kfh5R/wwoTGcqa14pwCb109EkoQWmZo6HMRwJhviN4gC23aRFuQYC0KFjuihpM+SVF7DGNB0NGOqmeOPbB2DnnEbC35euvk5lO1fAnfZAaiqk82jZHMpNVSth7ICoWTzMagLnYa6aQi5LjRbTRQmPowZ/R7AwH83xq6ZTaDTcCrN07PQ4hEaNq4HNb0Jzq5qixOx7eBaXQuu5DrIjemIuR93xKg3W2HCO60xvndbjOjZBjP7NkP23GYoT62Pclt7zP7fnRj6WjtE922F6b2bYMo7rTHm1Q4Y/XwjfDO5Gsps4fhqSkf0e/4evPBke0x5tQG+GV4LhSs6I3XIfYjpXRuFK1rj56S7kDDsHgx7tT2i322Jab2bYvJbrTHq5RaY1LMOvp1IPWPNURx7H+b3i8LiD2rheMKNbIU09caeXn0/ZvWPxIJed+BEQkso9vbYu/I+zPi4A0a+Go7oN1thxjvtMO7NCET3aYztsxrBlV4Lxas6IGFwe8zpUwPHaH6nhYbbw1EYew8Wf9weS/pXw7Fl1fBzcltYxnTE5N7NMblPBKa91wYT32yHKa+H4fsvaqF0NQ0x0wo+g1BSb6CNCGVXLGKEsgG2RDeBbufbirGhZeuNjNDtW/EvDH/zMYx4tRkOLWkAl60Ndq+4F0s+bY8JrzfBlLdbYnLvFhjXqxnmvd8cWbMiUJ5aF4cS78SYfp0w/b16OLq8FU6mPoH5n3TB3HdrIm9FJ6yf0AVjXmqILdOawuOozeZdavam2L3sb5jwejgcg6qjNC0S+1Z0x6IPOmPiqxGY9nZbTHunHaa83QYx/Ztj24yWcFnb4lhSJywadBc+eSkCn78egWEvNMC0N+pgTp+WmPJ6PXzzRX2UJ9eAbrkBqrUlshfej5m962Lj8JtQuuom6LTYiM2rlIRSvhTki1G2gVBtQBDK66E56voRyrz8QuQXFWPHrt3Ysi0LW7Zm4setmSyl45+2ZmHr+eSnTGw1y9ZMZGZmYfeePTiaX4CioiJ8uzEVEz5/DcM+fhazpozCqvg4pKVnIDFhBSeUX78DV96nKNjxOeaM+gu+TXgVqaOisHVSI7jTW7L1AHp6bSMgej3AQvP/iTTSim3j/eCdS07lpV5ZIptEJo0oH4GjOIJcSkJ5bRNKx5/8Fr/qjj9Cz7gDSkYblG1+DuUHlsBTegAU/JzmGNNIdhV6KLkiG/IWPZReQknD3TQsfRtU6x04EtsDE966CyNfaoqC5RF8+yjLbcYvJlrhXNcgURRwtS40e3UUJERi2eAuGN6zOVaN6oAdS7phz/IHYZ30JIa/3gEL3g9D3rL6OGOPwuj3H0LPf7RDzEctkTknEnuW3oXNM/+GAf+NwrRet+FUSlMUrO6KqQOfxpv/iIB9ZBucWNkcRXF3Y+XAxzH59UY4sqQ9TiTejwWfPop3/9ke899viZ9m3Yldix6AffyjGPlqayzpVwvHVjZH/srHMbnXfZjRuzaK4/4E3X4ddGtNnErsgfG97sakl2ugOLY9Tqc+guVDuuN/z4YhfWR77F18Hw6seBgbo3tgVK/2mNXnDhxdHoYjq7og5mOa33gzCpdRmAjCrjXyVzyE2f3uxJxeNVG0uCH2Lr4XE9+JwvR+7fHj/HuwN+4hfDPrKcx+ryPSB9bBqbg6bI4hX/zD53ASofTY7sKioU+i118b4KfpjfkcQray70bo1huhWmsjf9VfManvkxj8QnPsmNMEx5LuR/zoR/D5ay2RNKQ99iy8F7uX9YB96hMY/97dWPJRM+QtrYNDq7pgTL8oTihXtMGJ1L9jWv8HMPmN2shbEYHMBT3w6XNtsfzjxjib2hS6/c/wWDshbezj+PT/6uCnqWE4mfYglg3/C4Y+3waW4VHYv+QB7F/+CDbNeAoTe3dGTP8mKFzZFgVJ92DqRz3wxt9bYWa/llg/vg22z26Hr6Y8hPFvdMDyDxvjOPVS2mqjLL0rkkc/gNEv18LWKTXgTqGJ5mJFuCSUkkyEIhPyvGwbZkJZLyihpKFvElr1TSI+5+cXo6CgGIWFxyoRum6WIhQUFCKfpLCIhQ3atNGOoUP6Y8qk0UiMj0dKchrS0tdgFRHKEf/E7q9pVfdAFGwbgfEfPIilA9ohc2o4XGktoGfwtQBIbQSk0rxJIpQ0LYtC51HvEgmFV7uBC/tM54hIioDmRqggSR6vYfIY7FlIC1oNQplxHUBCC2Gpk8oRBiWjE8q+ehGlhxLgcp6ER1OrTii9Wy8GEkqa8GurzRaZUCDWvNhHMP7NOzH29YYojqXto2jiL+1NWpuvJLbSJGHq1aRGfxM81kb4Ye79GPFWezYEe2RFBBR7M2j2lihKfRzzBz+Ewc83wveTm+Kk5UGM/eAJ/O+5ttgyMwrOdCItdfGz9WlM7v8Ihr7QAEXx4Sh3tMOSL57Bu/9ugp+iW7Ah1KKEzlg86EmM69kMhxdH4kT8g1jwyaP47IUIfDOlOVyWttAcHXAo/lFM798V09+ph0NLWuJQ7JMY8879mNq7LorjaC7Bn6FbauJk4kMY+84DmPByXRTFdsGOJf/CZ8/ficlvN8LPq2nYNgKavQ1OpXVG/NjH8Nl/G2DT+KbYF38/Zn0ShQmv3YSCZbWhpzeAbmnNcJvR/y7M7FULhYsbIXdRD4x5uztm9I3C9nl3o2hVVxxLfBA75nfH3pjmKEtpyOKM0cIVb5giWw1/QhlNhJJ+qfJV42zuorUOilY/hWn9H8Gg58KxdXoEdi59HCN734uxvdoga04X/JzQGSdX3YedK/6BuUOexsieTfHD1FrYF9+NE8q+dXF0ZSscS3sak/rfj/E9ayNvWQ0cS74HU/rfj1GvNcShJY2gWavh+OonMeHtrpjwRnUUr26JXXEP4uPXH8C4t9ti58J7cDrhLvyccA/2r3gGMQOfwLBXmmNLdFPkrb4XUz9+EJ++2Ao/RLeBK705FFtDFK++D4sGPIgJb4Rj19wm8FjbIC/hEUzp2x3R79RB/rJ60NJpbqqxX62cQykfkvJFKdtAyDZAhJIIFQ15+3oot2dtwdH8IuQXFoeWgmIUFHLxJ41mAlnxuKCQyCT1fhah6NgxbNy0DhOnfoFlK5YhLTUNKWnpSE3P4IRy+D+w++veKD8wBFnWvpjUqwW+HR8OZ2pb6Bl1WBxgWBry3sm02vw9y6KgGNspesnk9YCDoopQGKGAvbzZSBcNb/IFmGKFb4U0JIbByIg89/v/sUZtwr+HkkemIc5BHVrN4MnoihM/fY4zZw7Aoyps6LtKPZT+gc0jfXt5U6gZClZuuxma7RYUxN+Hib06YtQr9VHIQvbQKrIbAVr8QeSJejNtzaBYWsCd1gRlqR3hmNADA19qDduI+myhhm4Lg25tBqftPlgnP4lP/9sKlsHhKF79KMa/9zSGvdwSB5e0h2K5DbrlTyix9cC8QU9gyPM0dBwBt60Flo3+G/r+qym2TSNiUxOFCR2wYPCjGPNGQxxe3B4n4rojZsD9GNEzHLnzGkOz064CzZC3+kHM+qQ7pr4bhn1LmmJ//CMY3uceTH63Popja/DhhLSGOJHYA2N69cAXr9RHfnwXOGb+C73+3h5pw1pCZZNZaR5fdbjsYfhu4T8x8Lk2SPi0MXaveACzP+mK8a/fioJldQ1C2QpHYx/B9P53I/rt6ihYfAcKV3XGksH3YdirkRjXqz0WfNQOa0Z0QPbMO3EyvgMUg0zzbbV4DyWtoPbQkPeQJ/H2XxtiS3Q44KCJ2UQqKdA8LWZpgvzEv2By34cw7Lmm2BbdBt/OegIfvNgNn73YFks+bodVA1ohfkBHLPrsPozocw8GvNAYa8bUxc7YezCm352Y3q8+jq5sg+NpT2Ni//sx7o06yFt6B5zWSKyd8gQ+fa4xvhxVA66USHw7+1l8+PdWsA9tgjJbFL6Z9zB6/r/OGPhSOyz7tAOSP41AyidtseKTuzH67W749NkmcIypg/2rumHqp/di5BsR2LOwHQ+K77gZZdZ2WDPlcYx4OQJrRobhVNKd+Hr24xj2WgekDG2MkqQ6bBjcuwOEJJSSTMgXoWwDIduAIJR/gOaog73xNIfyVWzP+glH8wuRV1CMvMIgQucLKiGbIYkokVRBKIsZofxy05eYNmMalseuREqahQkRSj7k/f+QvaEfcu1vInFkJ/wwtQWc6W2h26lDgUKx0fvViCdJMSXZqm0KqWcMZ9PQNiOKNPRNQr2TtBCUds35I3TrdTziCJsadRubb8/D1Zk6Ktj9xlB5SBwlgfz9E0hzHYppEdRe6IcILXKlKXb044sWIN8BzdEMzi+fwc+7ZqO09CjUiyeU5r28iVBSQNba0Gy34djqKMx6vxMGPtsQexY0hkbxIqnrPb029DRa6NIELmsUjiy7DzkzOiF/aTdYxj6MgS+0wroxdeFOr8YW4OjpzeGxdsO66Kfw6bOtkTYwDMWJ92Fcn6cx/KVwHFkSATX9ZiD9zyizPowFg5/G0OciUBjbEm5rcywb/U+8969wZEY3hGapjaL4Dlg4qAfGvtEAR4hQxndHzGf3Y9Sb4dgT0wSavRH7kuYl3ovZn9yDqe82wr4lzbA//kFOKPs0QnEsn5+ipzfCsVWPYMTbj2D0a/VwdNWdSJ7+L7z+t3ZwjG4JjearsJA/1eC218eWpf/GwJc6YsVH4TiwvAdiPumG8a9VRwEb8qYpAC1xZOVjiO7XHdFv10LBopvgsjXF3mV3I2nkXRjXpxMj3EP/0wqTXmmNtUOb4cTKJlDZrkMGmWRf+urw2Lpg4VAilE3wY3QE4KAYoTczMknzXD2WNtgb+y+MeOtBjHqpCXbPbYevop/C+892w0f/aY0pvdsi+r1WmNa3Fab0bY3J/dpi3v+aYsv0MOyKMwhl3wY4uqI9TqT9DRP7P8gIZf7SO6Bam2B/7CP4vGckYt6pg8IVT2LhZ3/DR880wP7ZLeC2RuHLWY/ipX9G4qNn2yG6dwRm92mAOb2bYWbvSET3jkJMvwj8OLUJ9sffjymfPIRRb7bEvsVtoTsaszBMVE97lj2CKb2jMK9fQ2Qt7oxFwx/AiJ7NsXVGODyp9HClX+e0nZhc5X11PeTMDzx5LOv2crQBIkr00uSEcl/8E5g35jVkZ23F0bwCPrwdjFBe1Lki5BVyoeFump9ZeOw4NmzahCnTp2NpbBxWp1uQlGZBarodq+NXYPzQ52Fb9AoSh7fF95MaoDyddsChEG/03Dde9Gzomqb4EFE0FtywOZI0T5L07jB2fzM24WDz7WkO/m3QbLdCsVWDx0oRPepBY3P66Z1hxPFlP8hp2pAMv3Ztfd+IUFJbojZEi7YokgzfSYeTybpwb3gUZblT4T6dDVUtgabxEEJV76EMGdichr15+Jxz6e2R8sU9+PD/msIyvBFKkqm3sQZ0ijNpaQjF1hx58fchbtD9mPFGOLZMjoJ9/BMY8lI7WIbWQ0kyrUquBd3SAuXpDyB13BMY+FxzbBheAyeTuuGLPk9h2EvNcGRJK77KN/0GlFsfwsLBz3BCubIZI3FLxv4Nff7dBFujG0FLD0NRXBQWDeqBL94Iw9ElHXyE8o1w7JnfFJqNeikbIC+xu0Eom2DfkgjsT3gII/vci8m9mqFoOc1XoVBCjXA4/gkMevNRjHqtPo7Gd8XaOf+H3v/uiMRBtBOPMU/UEoZya0tsmPt3fPxCCyQNC8eh2Eex8JP7Me7lMOQtpQU5NPe0MQ6seBST3+uOaW/XQf7imjibGo4jcZHIi7+brX7PnNUN9hEP4ovXumPss3WxfVo9uCh8kPj1yCq/Oty2znxRzjNh+DG6GXQHxcqk+Iw3sTBEZ5M7YcP0v+Oj5ztjXr/GKI5tiy1zemDQq50xo29z5C7siIKEtshPaIkj8W2RvehObJ8bgeOx9XAwoRvG9u2C6X3DcGRFB5xI/Qcm9nsQ49+oA04ob8M5Wyes+Pw+DH++GdZP/AeGv9wFc95qgLLV4VBsbbBl3mPo85+OmPdBG+xbGonC+PoojGuCoyvvwo6Y+5E1ux2Ox4Yhb1UnTP34Hox+szH2L2kO3UELv8Kg28NwOu0+xA1/CMN6RmDl6C74vE9HzPuQ5uw2hpZGC8B4oGIZNuhyvHCljWvrRXKt1Te9OClerSCUT2LemNeRvX0rWzTD5kteFHkM0qtpkEnq8aSh9IKiYygsPo71mzZj0vSZWBKXgESLFUnpVqSkWbFqxVKM6P8PzPuwLX6cGoYy6pBx0KYTtBaBXvY8Bi9/ztExDU+aNnJgQcopZBDFniSh4OYU//cmtgWyy9oKxxMisXthZ+TEdGHRSE6totEv2kmOr3znm0nQMDntCU7k+1prH9dweWk6Hdulj3rCiUxSjGda99IcyobH4cqZCM+ZXKhqKTTdA41iUkKp2qIc3xzKOGAj9VBSxH3aK5RWelND5UHA3bZw5C59EKPf6IRxr9McvdY4vbo5CwdTltYGhau6wjbhIYx4tTNmv9MM++Z3wrY5j2DiW50w990w7FnYAGWWxnBaonAw7inM/ugBjH25CXZMr40z6d0xts8TGPZiUxxZ0hoa66G8HuXW+7Fw8F8w9LmWKFgZBrejFpaOewa9/t0SX01qBVcyLcrpwgjluJ4GoUzojgWsh7I59sQ0hWZtyPYcz1vdjRPKPkRkmuFI4v0Y2/dBjH4lAvvmdIAruTXKUjrjm9lPof9L92Hka3WQH9cFuSv/hRFvdMOknk1xdGlruFIj4E5vi8KEe7B4yEMY9EJtfBfdAnkJj2HxgIcx7LnmyJ7TEOXpdXA2rT1+mPsXDH29O6a+FYa8ReHYs7gL4oe0xZcT2uF0Yne40+7F8cR/YPmgZzDi/xri+/F1UJ5GsRiNkA/slwQNeXfBkiFP4O2/NMWGca1wOqk5fk5qgpMpDZGf2A4/zLoXU97rhsEvNMPmCeEoT43A/uXdMPX9rpjQqxEy57ZAWXozuKzhbCjfNvZOpAysi6MxNXAo/l6Mfe8uTO/7/9l7DzA5imttWATlnNMqZ0AggcE2zjbX+H6+X7B9bf822NdkSZgsMgKEtEqrCEJZoLirndmoDZIIIjnboEgUSChunJ2Z3dkw8f2ft6prpqZ3ZjWKCFPa56h6uk6fOufU6e63Kw7G4c1Xoqrw/2EBAeWtvXBsQ2eEOIt82zD8c80NeOLmazBnyg148hdp+PPcEQixBXtbHxzO/D7S77wOC+9Iw4drR6OxqA/8JWk44bwexbOuR9Zj/XB4XUccc47BkqnXYvZtA/DZumHAthGA2EazD/zbxuGvK2/A47deg2l3TMDjvx+KV+YMRl1uX0S2dgSK2d2jHrZmUo55CXyFXwoGAJwEBGmAckdvHMi+Eatn3YJ9u/+Fw0ePy0k4Zw1QxkCmAJScrCMA5TuYv3QZ1hFQFpUgb2sJ8nLy8fKiWVjyx6/jrdnDUZc/VE7CZDc3d2oTSwJZzzixmgXHRSpAqbqrCQSsLZG5LbLY4Y2AsgMaS0bg003fQ2nGT/Hys7/B2uduwqbnfozXFlyLE1tGIljC5yblsxWUZJ6jX7nnqGikUjvcsde1K8Icrrjzpwjsm4+gazcCIZ9Y3FyuRRlCBKFUAKW2sHkVASXHUModUCA2oOc4DQYqC+wOrgn4asaPkP77a7Do1jEomDYab8y7Eq/O/QY2PfFNPPuHKzH79pH468IhqM8bjmrnNSh67nqk/88orJ06BDsXjcbbS67Bxieuw8zfj0LBEyNQ7RiCuu3fRMaU72DmTQNwZB1bKNnlfREaSr6ODdO+j+m/GYDjm/sisL07ti65EVN+PgarpwzFnoWDcHTzRGx86ptYwPF+68eg2nEN1j9+HebdPgifrGFXPGcM98ax3Guw6tGr8cKU/ji4Lg2uwq9h/dPfx1O/HAXH/SPxl9nj8Obsq7By6nWY/OurMOeWbji+ZRzcpT/C1jk34Mn/HomX7xuGdzLG4a+LJ8A57Wt49neDsWFqN5Q7hsCVdy0KZ92AB349HqseHIad80fg1blXYu0j38HUX12LF8QuWZYAACAASURBVG4fjGMvj8FH636IJfd8HfNvuxw7nrsG/1x0NV7P+BYWTroGS2/th4+XD0CgyNpiS3RrsGm6KwKlV2PTtBtwy4/HYMntI5D3xEg4nxyHzKdGY/VjVyD9tvF4+rfDkf/0MFRnj0G4dDg8hVfh1UXfx4zbLscL947GK/MuxzuLJyJr2jeRfssV2PzAIBxfPwSHnd/G/HsnYOm9g3B40wRUF/5v0U2/8LbuOL6hI8LFHcTY1xP5P0bGvT/AHf91Bebd1BmVWaMQ2c5ljdrAVzAROzK+j+m/H44V9w7Hmxnj8OfFE5E9/dt49rbxWPVAXxzP7IoTOWOw/KFrkHFbfxx8metpjgNKhssW4tLuOJ7zbSx68Ee462fjMfe2PvhodRoChRyUrrq8zaScr9wD0ICnk4AnA6yb3xMJAGX6Ldi363wBygq89tY7yFi6DC9vcUpAmSfB5EuP/RT/WDwBtbkcQ95HLMMmx7BxFQvO0CbgY1c3iUN8OMZNvovFhBrRutRdAkmCSbZSlnZGuLQvjmZfi5zZ/wcr0h/AyyuXYcOGtXhpZTqWz/glXp0/Bp48bk7BmeBspbK6PgkwTCvlV+ceE4CSDVZsoOH7Ow2B138M//7nEXLtQzDgQ1MkCH84iBD39I6EEUE4NUAZW4cyEaCUA37FbjElHRAqTUNl7nfwxvwfYsUfr8KC24Zj/u1jMO+2CZh763gsv3803lw8Eu5crsPYB8HiYTiS+XXkPncNFt89DEsmpeH5SYPxwp0DkfdYGg6vG4pAaW807rgCudMmwvHQEFRljkWY4KHoYvhLLsPOhROxaWpvVDn7I/RKD7zPyS/3j8eS/xmIkkf64Pimy/D6/AnIfbI3qrKGwpt7GV6fcyVyHu8vZltzZxZ+ubnyR2DbnHEofLo/yjb3RdO2Edj90vXYNHUClt02CMvu6I1Vk3th85NjsfLhCch/tCdqnEMR3HE5Tji+h9ynrhYzkBfdPhgv3DUCi+8aho1Tu+LAmk4IlnQBd8P5cP23sOrx72D2nWMw/84BWD5lADZNvQIbH/oGip8YjerNY+Ap+DbeXvwDrL73Grx4xxVYMWk0Xpw8DCv+mIY/Z/SHN4fLDbFlmC3FHCMjHyTBbWPx+qJvY9atV2HJbcOx4s40LJ00FC9MShN+XXHvUGxPH4ayrCEIcQef0v4Ilo5AWc63UTT7eiy5e7xYj3PxnaOx6M7RWP/gKOxfNka0MFcVfA25M65EwYzhKHdMQG3xD1D83AQUPtYbrqyOiJS0QaR4EOpLvo1XF/wQ828bjdJpXRAo5qSt1oiUXIJQ0UBUOCegaOaVeH7SMCy5cySev2scFt41Fi89PALvrUhDY1EX0aq6LZ31k4bjmaMR2TZGAEqx/yyBaenVcKT/BPf991hkTu2MqqzuCG/tCWzlDhB8EBJQcnFz82Xd/CVqgIXxiYkBGQMESVaXt2qhPI+A8nh5JV558x3MeWEFXtqSC2duHta9OA8vPXIj/pYxEb6C8Qhv40YRBIacGEHi+9aaWCOWhOOYcb705WoeEgRau6fx/cAeREWl3eEvHoN/rfgBVj57K9avWYHcrUVwlhQjtzgf61ZnYO3jV+PIRvbYWY1GYh9wa/ylAZRfIUBJTMHxxdzaOg3Bnf+JwN4MBF17EQrUIRgOIhAJyeWCwmGEImGETg9QsstbtVD2kg4Wg4DZYsaWyh4IbR+JuuJrcGDz1fjL0nF4JWMUXs+4HH9bchkObhqF2qL+CPMLqoTItzOCpf1QkTcGe1aPxtsZo/BWxijsXTYa1VtGI8gxlTtaI7R9II5tugbH10+Ev3AsIsXcs7QDwiX9UZkzGoc3DERT8QBEtndDfekVOLjpWuxeeiUOrOI2jUNQ7hyLo5mD0LS1LwJFg1Gx5TIc28jtBjm77VKxGLa/uDfKtozFsU1D0FDQDeHtndBQMgzHMyfi3aXj8fbCkfjX0jQczR6Ow5uvRvmGIQhs5cx1tnCORHXOeLy7agJen3sVds67Cv9YNhYnsrojWMT9ui9CuKQdGovZ2ncN/rr8CuxcMFSsF3lkw2iUbZyAsvWj0JTfT4Dy2oKx+PTlq/C3hVfhnXmX4e+LhuPAS4NRVyDXXxT7nEdvdlZ8a4S3d0dF7ji8/9I1+HjNlfhkzVh8uHYcPl4zFAdeGojjmwfAx+uLu4qtMglIOS4iWDICrryr8P7aiXh73pV4Y/YV+Nfz43Bsw2g0FQwVvmY3+NEtV+Bo5hg0bB2GQMkIlG0eibINbB1kvV8KFPdHuGQ8apzX4pM1V6Ayi9sgXiJ8S0AZKWkv1iv15A7HB6sux9vzJ+DNuVfgn0u4FudQNBZx8fs28Bd1R0XWSBzbyEXtuR87J0TxA6S/2FqxvvRaFM7+Hmb+zwD8dX4HNOS3FTsRRYo461FNyGFXDR++ZuyPAVAGQJkYSBQDWgvl9l6yy5uA8pxMyonv8hbd3uWV2PEWAeVKrN2wCS8vm4XVT/8X/r7gMtQ6xonxapHt7K5mDxTBJFsmY61Gcmkf2qCI3d0EfwpQsrGBYNQClaV90LB1It5a8hMsn/UANmzaiOzCImRvLYJjaxE2blqPFx7+Fj5eMwhB7rgjlvlTk3SsMkxPwFcDVG7rKOZecLc7jpkM7F+EYPUehPx1CIUCCIVDolVSbMvNrblJON2FzfUxlGJcB4ON+z0SWHRGZHsPsU5icHs3NJV2R2NxVzSV9ESAO+oQIJZyN5NWcr1ALl1QcjHCxdzJpZPYX9pfPACh0mFiiSHukc2m/si23giXXolwyWWIlHBmuWyKF/tDb0sT601ytrnYanDbMIRLL0eoZAxCYqmingiL9S3ZstdZAKRwyQiECVLYdVx8MSJiG78uCJcOlnt5F7dBpPQSMfGF3eGB0oFoKk1DsLQ3wtu7ILxtNMIlap9u6tMDkW09ENg2BE3FYwUFKIt7YYuvR455bIdwaXuEtnVGoKQX/MW9EOREn+IuCBd1Q7iI4JaTaGgvW3u7IVjUX4DWYFFf6TvulS38zweHWgqCX6nUt71YTy20bTjCxRwbSn9zBn43sS5kbBvG9ogUc/Fbzvajfr1Ft0qotDf8W/vAX5iGYNFQhLn/NvfzJgAt7S6GBYQ5yYoTgorbiW5usXd3KT8m2gPF3GJyNCLFwxAWYx754aHqmUtVcIF1XtceoaLuYv9v/1a5ZzhXBCDg5O43XIRdfpxQP359X4pIMZciGo3yLVdj19of4MX7LsOa+7riCMdvFl2KCH0XByjV17wBlAZMJAIT5pyJC7631CzvHhCzvNPlLO9zPYby2IkKiBbKt9/BnIUL8fzsR/DyM/+BPy8Zjdo8LnfHhorBVpc1n9VsgeQauxzPxm5vTpRgD5UFIAWQ5HECQCkm87BHqy8aCr+GnYv+ExnTJmPBkiV4fuUavLByNV5YtRoLFy/C3Hu+hveX90egiICyn1xLWsg0gPKrdL9wSUIOtQi+cQMC+xcgxJZJASa53iSJgJKd3BAUAodGprT1YgRxk3J2XiEH+5aydZLEALbGV4gvJbkyf2TbpYiUSrAolnIRAIY3AtfLai0nT4jjdgD3Zd5KaivzxM3DWUUEahz7wZYn7lE6FCjuJ3lEtybL4FqL/YDSQRBdotwloHQgUDocEPubchF18vCcNaCZi61zQdiiNES29rBADFvQeINSPpcvYqslb2J+3bGljYidQIc3NbtS+wvbIwSMJZzlzhuOAJTjT0hdxZINErCxfAJO2kQfXCqXU+IanYI6AkWdgeL2sowdbGZuJx8eYqchXkNedh0TjNPnbJImaOIDkV+kXGtS7s2NbYOBokFi/U+xsLzwUQ85maqYE1faSBKzBQnYaQvH2VgzpMVOC+qBovYD5wOM3ckXy50YitkiSbDIOpBgVgJKuRWnbMVuE/1oEDYXE7x3Q0Rsx0k5ii4BhF4six8ltI2zC62lMba1EktQlWddgeIZV2Ph3Vcg/dZ+eG1ud9Tmd0WkqD0iW7sCBlB+Nb6eTSuJqeezEgN8b1mAclt3HBDrUN6CvbvfO+eTcjjbmzO9X3vrTcx4+j68+PAP8fclY+DOYQMAGx96iCFJ4t0XXbqF7wG+C9m7x1QNeVItkycDlP1QX3gtdi7+KZbOfhgvb96MzPxCbMkrhCOvABs2bsTiqd/F+ysGaoCS74XO1vhJ83H+bwsqxSYp1kcDweT2fgjs/AH8+xciWLULoSYvQsEAwqGQAJORcBgRC1AqMBk+OaCMQEwGZ/84lw3ipJydl8cWNleAUoytoDIWyBFb9FgTIwgaCCa56KrY05sgg4CGa1QS2HHBcO6mYwECAigCHYJTsY4lx8WRuFwCAaEaJ0fAwdYrNutzrAh34SHo4fgSpn0s4MtWMhJvPgIvNTOaQJM7+fDLjUBKgUcCKZbFbgbeoH2A7X2B7SzHGqtCcCdANHcgIB9BL0EmdeKaXZxxRzDEgdK0heCSwI0p+QnMqKcaC0MwaenCihW7NxBA0hdWd8f2i8TyFnLLLNrAhwhbKOlzSz5t5kSpbQTFaUAx7aB9JIJa+sEC9QIsW7pt53XUz9JN2El/URbLoN2sDwtQClAtF8eNLiLO9dCE3zgUgbPDqKNlpwDQBNH8umadUwfyK0BJcEpbWW8sh/XEVleWTboY4W2dUeEYi+3pY7F+6iC8OicNJ7LYXd9FtF6K/WxFTFk6CqBN35iH4L/tQ/CsgArTUvnVjQ8+/zRA6eDC5rdgjwYoj3CW97FyiPRMZ3wfL8cRa7F0yuNalG+8UYol0/4bby+eAG9ef4S5zBv3TFbvPz4H1dhJ8Y7is5MtlnxOWrNwBRhQs7utVDxD1buR70cOc+qLusLr8MaLP0NB1jK8/+lnOFLlxtFKN45VuvDRgU+RmfErfLR6iAUo+S7ku8VqMDJjKP8NPuQsbMWPBIGdrI8FEW9szOkmxu0G3rwRftHNvR+hpto4MClaJ8VEnIhopVSAMhJusYWSfeJcWSiMYBygVAubq2WD9K8XroPFfUMvliQAFkETgYoKfgVQCDh4XhFBBHkUnwUGVBO+SAnwFJAigFOAgQHPwGeeNREjuqCrfqPRmUouz/OGo/48x99KBnUhL182XYHt3WRLrACP1NcCOgR+4lrqZdnFdAfPE3QqHS0deEOK8snLtb0sYjkC7Fnlb7fks5LJL8pRMilX2cB8BZhoRxcpk3axNVbYp2xUvrOuicqgjbxO1SPLU/7gOQJk6sNzlt4iZf0RhFMfRSyDpOyk/SR1nQKLTK1reb16UAqQzGvpL8qXuka2yRZQf1FfVDsGoSxzAGrz+ovhAmKIBUGzaIWmH1VZTC1bDfD4N3gQGuD31QV+56ru+Xzg84nrULKF8gasmnUr9uzehcNHT4hlg45w/UgCSgsItrgdY9IdcuTak2yVpLzDZWU4TLllJ/CnnTnIW/i/cTxrHEIc9iOedXzeqeeierbyeajemerZaL1XxPNSP7aee+LdxncK36mcONkbtYXX4bVlP0dR3ks4VFGFmqYIahrDqGkM4Uh5JRyLb8bHq4dZgNJqbBHPb/WeOVd1YeSen/vbio1oI5uFC8TE5B4Ilw5D8I3/hcD7LyBYvQ/hRh/CgSAiwRAioTDYMhmOkgSUots7AkRabqG0WicFoIxoLZTjrRa53lY3qQIi6iumA7CjnSQFmOJSAiPOrGMrniK25CkAwBtD3RAqiJVsBp06tqf2PO23kpcUWFCW5dgoEFTyOwE7rGBXcpgm1aMjsOMk+eraOD6rDJVnT+N4k8gnzw5+0RL8EQiTL5Fc+znaaOmdSjlKN+UP9TuuPNajAqdMLZ3VNcnSBHzsAucYTZFSpvjoYIsqH8Bc4N0CzbpMJSdqv7LZpLGYML4wvvgqx4AClNzLuzs+EYDyNuzZtRtHjpbFAUqx1WJZheimZlf1qdKxsgqxjSOB5OGyEzhcdhxHyo7hrzsz8eoLN6LawfHnHRARvTfsnWKPDntb1Ee5PeUzNVndqfcn3802QLn1Oryy/OcozFuLg+VVcDWG4WoghXC4vArZi36Hj1cPR1CMoWQvFd/NLFt/lyQr15xPXicXim8UoGSjEz802LAjPzY4sTi4838jKJYG+hDhpnpEAmFEghFEOEAyFEEkbFEkIrq82e0dgQSTKQBKgkr7GEodULJLlIGmtbY1OyaAZNew1WopUv4mqLRIdDswaAkqFSkQoiqCjmBrWQtlRVvDlIwW0mZyLN5oa6BqPdT1UsfMO4kuzeS3oPdZ5eUXLfWk/85DmaKsJOUwT7W2JtIlWtct1FMcD21TXeEEkVZMiJZM1YJqtaiqllWTxlqZjS+ML0wMxMeA6vJmC6XjP7Ay/Vb8469/wyeffo4DByV9evAwPj34+VmhTw4dwiefHxR04PPP8Na2l7Bj8Q9RnT1Iji0XY+U5m1tbY1L09HE4lSIOp+J7tYVnnXhuWoBSDNfiBMc+8FqAsiD/JXxWYQFKgsrGMA6XV8Ox+Hf4eE0CQGlvLEgKZtX72qQXJrhUHxtWL2wp54Vw96TBCOz8XwgQTFbvQcTvQyQQssCkNeOGgFKBSg1QQvvXwtaLcho4p4MHwxGEQmoMJSflcCkBdqmylYigUAeLiY5bARxXGUcan7hReJPoxK5z3jAERiSCDk5C0a6zl5tQji5THbcggzLVjasfJzpnL/+C+m0H8Sex+XR1V35hmlBGC3qIa1WdaKnYn5YPVda3NR5VfZSIRXyZZ43PZL4Yb8kvaZalk2oB18+Z43gfGX8Yf3yFY4DPoNJWCG/rjs8cP8aCR3+J1StWYv3GTKzflIkNmzKxfmOWSHl8JkR56zZvFvTy5kysz9yEpRkPwTnja6hycHk0dnNfJCcyioXL1Y5fiVKOqbfqLfre5PNSPUd5TPAgx09yvByXX/Nu/Tp2LP85CvLX4tPySlQ3EUyy2zuEIxVVNkDJcff8iOf7l+DUItGFroan2VMOZ1JDm9TQMQvEiHGdete81hsp8iiL19h5vuK/ow0mll/FEAcNGKohD6mCfBEX9LO1p/u23gjs/BGa9s4XSwOFm7yIBAOA6OZmi6Q1ldtKRSulBSg1LCkOWwCUcqFKjp+MAcosYCd3LeEkFI6vYLMpX+7WBByVim2bbDeByks5VTsAWMBCgAae08piOfrvRMep8CS6Tj+n7NHPJTpOlS/Rtefq3NmwP5luuuxUbdevSSY3ep51T+Ii5dYHScLr+VKwYkPpIVKCTLZoanETl2+LUZXH8tWxnkb1SpJPXp1HHesy1LHKU6k6r6cqT6V6Ho/VeZXa8xPxkDcVvtPhUXro6enISaT3yeScLF/plApfSzzMO5kPE12vzik9VKrO66nKU6mep45VnkrVeZWq83qq8vRUz+exnqeOzwaPXca5LIt66+UpOxKlXImEgLK0Jw45bkTGQz/D/DlzsXDJUiyyaMHipVi45AUsOkOijAVLlmLB80sxf8mLQubsp+5E1jMTxKYcYncaXXcexzXCJPktruEzkmDSqkOxGgdXCrEmdorVQbjV7zexY/kvUJC/Bp+VV6KqKYxqtlA2hXC0ogrORTfh49VDEdxqTRIVK4pw+FSPGIntlvn+V0Tgye5xTvokUOGwJKbWJEsxTIlgSAFG9iZpJAAoedUEWkuGzpP0WO/d0mTG8Z8qD/kTydLlpMKTSAbPtSTHlid8yTGz1tAD4UP6kl3VSgcLXKYEKBW4l0sGhrcNQmDnf8C/fzGCrj0I+2sRZuNhKAiEQwCnbrNPWweVoo/bDiXl7+SAkgtVhgkmQ4LC4UZEqrMREVsvcrY1ZxBz+QI1W5djPqxZu6IViS95i0oukkvMcJkZQfytSJ1TqTpvTzlbnOcUH5esUTzaubh8tQZiknzyFjFPybHJV7LUmpnqd7I0qk8SOcmua3Ze6ZNMb5XfUjk6T0t8ycrQzytZ+jntWPmHqd0W+iTOLyeRFXc9ebmkkLXMkmiVVPHGWKNsxhjz1XntZcLVBFQXUrLYVDF6tlNVntBPuxdUOXr+mfBQnpKlZCdKFc+ZlKXLSCZH1+dMeM5nWanqHPWr+shl6ziPE9RvS+d02xLx6fln4kPK1mUlKisVHl3GhaBPKjonszV63npOcB3kYi5v1wufZ9+IFx7/FdatWYVMRw62OHOQ5chBpiMXWc4cbOG5MyLKyUOmMw9ZjjxkO3KwatFjcKZfh8qcNETEhFYLEKYCJHUeASStD2+xJSPjUj3/5PJ0XFbOXXQ9tq/4BQoJKCsqUdkUQlVjCK7GEI6VV8K56Lf4WMzy5iosHDplfZSriZdijoE1QTQ6PEwNsyI/x/Dr1/CYraVMrSFL4rc6x/Mqj9crGXo+jxMRW2htPWMCVOu8dh6Cbj2fxzaeaM+ZzncaPGxBTqRPXG+ezmMrg7ZFfclj8tK/2jNH2EJgmeoYVwkouc5zeFt/BHb+WLZM1uxBKOBBmKv5hAOIhC1AyYGRCkASVKrjxHiyha0XFaAULZRBhEI+hKtzEHn7e4hs41qDXCScazC2RaSIO5W0R6SEgzuZcgFrjbhYdZTaiYHHHHwsrinmtXo+F7fmwtkkxaPnq2PKkYOYE8vhAtnUpRMixSRr0ey4siirHSJFuhwlX6XKthTk0H6hM+Wp6/WUOmhy6LeiNpKi/CnYRZ1FOco/dh/yt7JJ8eh6qGObPs3qgny6rGQ+tPwsfM1yNX3ElozUl3ZziR/qY+OJ2s7ryMtUyVDnGFtc+F2RijWuy0lS8cZ652+dX8+Xi6tzPVC5XSjlcR9yG49YC07t/sTlFHjM9eHkWqQy5e8EPFFdrLKoi9hFSpNDHmUny24mx34fkYeTkyhDyUnA06wsTmZSvrHZHpWVQE6zsmz+UT6OyqCNlhzdLrEblk1npQ/5hO0p2NVMnwQ6t1SWqBMrLqI6Uy+7f1i/CfSJ1jvrgdfQXtllJI8tOXF8SeRE65766DyWPnHxk0SfOB67HOpGuXqd2XlYFnn02OBxCvrE8bRU78xjORaP0kfEh9JH8STRR/iaeYp4r9p1pu9VPuVZtkfrQr9n1bGcSc13RLi4G/xbR+CjzT/F80/+CutfXg1Hbj6ceflifUZHXiGceQXIOWMqhDN/Kxz5W+HM24rcvHysfWEasmZ/F4ezx8Jf2gNhsakFN7ewaDuXEWqDiEh5rNGO1mIXudi5NnKWOGeKW2smM1bDpd0RKumHxqLhOFHwPRQt+yVynCvwwdHDOFZbj+OeBpR56nHoyBFsWfh77FlxGXx5/REo5N7f3GSD8qhPEj2ok+BR5bdFZHs7RLYzVecsnaJ8lNs+xifs5jlVnnadsF/9Vr6xfqs8lUbla3wqj2k0n8c2vRVflEeTwXMqX6WCz8Zj50uZR9MnTn5bhLdxjGMbkQr99R438UF7aoCSG9CEuQPOa9+Hfy9bJvciHKwVYDIcCUBSEJFISEy8iYLIk4BJYswWWyi5oLmkEEKhJoS9f0f4w3SEdk9FcNeDCO76I0LvTUbo3UkIvct0CkLvTUKwJdo1GcH3pljE40lCRlCc57WTEXrvbkGSbzKCuyY1J3GdJmfXJAR0PqED8/+I4Ht3C7mJ9WJ51Ju8Up/mfMynHBL5NH2ittrsUro0y6fPNDkqP45fydJsF3x3IfjenVb5mu0JZaj8lu2SNiXQR8kUqZJFvagDSa9n5ifwT0IeXZby410I7rIo7hqrDMZGlKYguOtuiyz/7FZyVMoyyKP8KOMqWr/09W5d5mQEdsXIr+qCPM34GGcx3pheSp7UIcbD39RZ5Uud4/PJo+fHjiWfsit2Psav62MvS5Vr52kuJzV9YnJi5dtlxXjk/dg8n/ezKk/e23Ye+fvUbed1ymaVxspKrM+pleW36l7ar8pQMiZB5ScuS9ajsj0xj5LFGDuVej9T21V5svz4+o35MP68zhvjidkV7x+93mM8uozYMX2UPDZSK0vqqnzYPPXvnozA7rvR+PdJeO/lG7Humf/AA3f8Hzz+xON46pnnMO2Z6Xjq2efw1LMz8PSzM/DM9DOjp6fPxDRFz6bj6ekz8MiDd+KZu7+Hzc9OwL5NP4LvL3+IPQv5TNxN4vNKHVvpnrsQtBP59likXRN4bwqOlfwabyz5OrLTv43Zj/wXnnnuESzbsA4vO3Ox3pGP9Y48rF6/EU/f/2usnHotiqZfhr8uvho1r/9/Ig4DuychsGcy/HsmI7BnEvx7+Fsj5kfJem6q56dIp8hnafQcf9+N4O4pCIh6YF2QeN5O8fJ0fvF8FvzkiZUheaiTfm0sn9dJfVW56vp4Hil/MoJ79HzJo8qI8rAsPn+sMmN6Wu+bqC7kkRTjkXqoa2OptEGVFX73vxF5Y4yccCuGdXAuAbvR9RZKHiuyJkepcZbczXBbL/hf+y6ads1GsIp7c9ciHPELCkX8CEUCgjjoUc7hTtIcmeB0ckCJ2DqUAbZSRsIIB70I1x9EhNTwOcINhy3iMekQQoI+R7DhcwQbDwsKWCl/hxo/FzyCl8ci7wiCjaTD4rqQkCX5eMzzgcYjgqRMTUbDIQRJjZ+D5SgSZTWQT+om9YnpJOUctvIPWbozPyZH8GgyKEvqE+ORtkl9qAftt+sTX5bUxy4nnkf5MWaXzKd+sTx7WUoGbZD1IO1Stuv1QF5lj0r1OlPlqfpS8iibeTE/x3wsbIqrC/pJ+lRer2LE7mfLrqhtB6UftbqI6S6vlXrE/KP0UXzCpsaDtrpgDFF3yjio0SFxzt/4OfyNhwXF5Cu+WFmKR8rh+YMICYrxMF7J15yH8mT8+JPy6HKkr3V99LJUXSQqS9qYqCxpky6HekoZvGdlfdjtUnrHfNjcdqnP2bA9do8l10f6JpHttE1eR56T6ROr9+b1JetC2W4vS/o4Vl+yThlndh8yRnjuZPrIWKSPE5UVamxZH1mntJ18JyuL+pzM9phtP3IwtgAAIABJREFU9nqX8WHXR95jsnx1XzBNps8h696ROtNvp2477YjFdMx2GR9Sb3lMnyjiedrvOv5PrFzwAB679ybcf+/duP+hR3H/gw/jgQcfwv0PPoT7HnxY/n7oYTxwmnT/Qw+DdN9Dj1j0KO576FHc98CDmHr/nXhw0s+wafnTqDz8LwQb+B48jABJ+IM+sVHT5wjYiTzqnKh7vosOIlD3Cf62cxNmPvZ7PHH/TXhk6mQ88OjDePDJJzH1qacw9clpeOiJZ/Dg48/gwQcfwFMP3I6n7/kNZk39Az55dwf8dYcQaDgKf+NRBJqOIdh0VFCgib+PIsDzUbLe41E/8/dRBBuPaXQUoUbSEUEy385zzOKRvM1lUF5MhpRll8HfJFlOSzzN9dH1pc1Kn5isRHrrclhec72lTsp28sfk2I81Xzbwff0pwp5SRHbfDLzGidEc8qXW+VYToZhyzCWHDhBocjyqHM8qFi0vHYjAq99Bw+45CFbvFbO5wyF2cZP8YnlIbmJDUHlWASVbN8PWX8iamMMV0lloJKKaQ9kkGk/hCPd4tEgsjc7l0TXS+AWfnsdj61olV/2Ok2Hxkael/Gie4judsk5Bn7jyEpSlbIrqnYCHMhRfVF4Svmg+dTwZz8nyT+Kjk5UVtSmRHHXOsk3IsuvD31G+YOw4Ed/JzsXJ4dL8Cfwjl+y3lu5PlK/OiaX9k8ggj8pPVo6dJ1U+Vb49VeXZz+u/FU+ysvT8ZDyUp/Pp8vVjxaOfsx8rni9jWanobLdX/322bU9FH8OT+J7X6yV2XFlVhoXzZ+PJxx7GczNmYEb6HKSnz8KsWbOQnp6OmemzMEPQbMxIl/Rc+izoZM9XfMnTOaKcGelzMSM9HQ8+eB+Wr1iK4yeOR+ctiPkLkRACkRCCJKRIil+kQTQFmvDmWzvx5FOP45lnpmHmrFl4btZsPDdrDmbMnoMZTGfNxYzZc8XxrPR0PPPUU3j8kUewf99e+AMBqZOQx8alEEJ6GZxnQYwgnhgyj/mSwiB+aEbWMzkE/rVcW8QhgkfJ0X9rVyeXI3NaLis1Hl3bqE1KH5HqcjTuON11Ht02y2fWvBVR5/RzOIRAKIhgqAHhxt2I7J8MvMY5LJyzwHGyBJE6oFQbjvAcJ0JxshO3jx6C4Ks/QtN7sxCs2oNIU52YzR0JBhEhqAwFEA5bFJHPELZQEgum+i9pC6UUZEFKtk5aq6NHItzDMSyLic4nl53r8hrzf0se4KhW82c8YDxgPGA8cGF4oLKyEgsyMjDtyScxa9ZszJk7F3PnzcO8efMwVxzPxZx58zBn3nxBs+dmYPbceZg9T6O58zBnbkaUR/Gmks6el4GHHn4Ey1auFNsxcpiZWK4vOuTMWgta9Bpay/m1dGxdzw5LymkKBvHGW+/gqaefwfQZ6WB5ioR+GQswhzSPNB9z583Hs+yOf+wJ7Nv/PpoCBDVSltIrxN86calCpRP3eBb7PEdApKBPEOakYT1PXRPHY00qFlv62SYY2/l4vSxDpfETkvW85GWpa2O+tZfD37HrY/w6n54fO05NH/o1EYkhh+EIAqEIgiE/wk37ENk/RQOU1hbN0aWWCCI5y56pBSRLe0PM5n79h2jaNQvBincFmEQwKJYG4vJACBFUBhEOW8RGQ6vL+6wAyjjgIwIkjLAAk3KFdDndR7nzVIpMFesaPuMB4wHjAeMB44Fz4wHZDAJUVVZh/vz5eOrJJzF7djygFKByXjygFCBsboYAnXPnyXSOAJQScKYCIufOWwBJ8pqHHn4Uy1auArd2lOBNbEyCYBgIkQjETgKuEuUTlDUFQxagfBbPEVAKQJwRBcAxXZROC/DsczOjgNIfZMuZ1CFZqspOBQQqXpPG6lT3q/KLfo4xEWTrYdN+C1Byu2G2UCpAae30J7q4CSa5DFMvREr7i+0U/a9/F4172M29Sy4NRDAZUMHFlFsrspeQvc9WDzRYm6eG7ZK2UMbfwvySVFhfFaBuR5XGX2F+GQ8YDxgPGA8YD1yoHlBvLrZQzp+/AE899ZQAlGyVJJCcl5GBjIwMzMuYhzkZGZibMV8SW/EsQDnPApRz57I1k+dPlSSwm/rwo1i+YhWOHy9DOMwWPrkEoACTZwAoKccfCOHNt97BtKcloGRLKkEl04T6soXyuVgLpT/IIUhEADEAJI5PE+Q2k2OXa37H+5pgXmC/ACIKUL6aCFBaoJLLOZZ2FwvZc2/uwKvfRf2umQi6diEU8EKMmVStkwK1KkBpgcloW+w5BJQSqapb8EJ9RBi9jAeMB4wHjAeMB1L3gASU8wWgnDNnjgST8+YJMKkA5dw4QJkBAslmNDcD8+bOT5Fkl7rsVp+HqVMfxooVK1F2oszaI1nuj6yAJVP19j2lNAIEAkG89ebbmDbtaTz33AzMmTPXonmYO0eSOjfbynt2+nQ8+tjj2Ld/PwIcY6f2bNaWIjxVPcJha8/n05XxVb2OwD1MYpc3WygnAwJQcp1mLlzfTa4JzvGS4pjrhPdDpHQY/K9+Hw175iHo5tJAdWLHwxC7tlmnovlboVUuYh4CIhaJ1slzBihTvzkNp/GA8YDxgPGA8cCXxQMKUD7xxBOYOXOmGEfJru9zSRyrSRJd7HPmYOrUqVi5ciXKymQLpVhPmiBSo9PxJ4FgIBDAW2+9hWnTpmH69OlxdnHikSLd3qeffhqPPvoo9u/fj6AFKE+nfHUN7VCAUp0zaWoeiMWAH2E/AeUk4NXu1oYhXa1NZtjFTUDZAygegEjJCARevQENe2Yj6NknwCQBaSgcgASU7OIOR0lWDhG/RdE2UvXZkJquKXZ5pybMcBkPGA8YDxgPGA98mTxQXV2N559/Hn/84x9x9913i5TH54vuuece3HXXXVi7di3Ky8vFBFgCwbPxTwHKv/zlL6IFlmXde++9SYn5pClTpgj+Dz744KwAyrNhy1ddRgQ6oOS2l2yhtAClGDNJQNkT4eKhCOz4ERr3zEfQ+z5CnB0eDordbyJipZ4wImFJarJ17MvlzLxsAOWZ+c9cbTxgPGA8YDzwJfUAAVdTUxM++ugj/OlPf8Lbb7+Nd955J0o8dz6IgO/QoUNobGxEiBMkzhBQ8npFBA1VVVV49913m9lHW3X7dNv37NkDr9cLsVygkPclreR/E7VjgPJu4FUuG8RtidlS2VNOwinpLLYQDWz/Dhrem42g90MEQ/UIcQkgNWtbm1itwKSKk7PhJgMoz4YXjQzjAeMB4wHjgS+lB9SLNVGqXrbnOmXZBJJMVVln4kzK0GWp3yzDTonsVjx2GWeik7n2zDwQQQBh//uI7LsPeKUfUNIaKO4FFPcWYye5H31w+9fQ8G46gu4PRctkMMzVS+W6l3JKVXzL99mINd0qAyh1b5hj4wHjAeMB44GvlAfUS1WlX4Txqmw9PRM9dDnqmPLU8ammZ6KLufbseEACyg8R2fsQsGMIUNxOgMlIcR+ESwYi+Mq30bB7LoIe2TIZjAStxeUJKDm3Ph5Mnh2t4qUYQBnvD/PLeMB4wHjAeMB4wHjAeOCC8kCEexH5P0JkzyPA9jFi/GSkuC/CpWkIvnI9GvfMQ8jzAUKheggwKdom1f5ABJTn/p8BlOfex6YE4wHjAeMB4wHjAeMB44HT9kAUUO5+FNg2DpHiHgiXcDvF76JJgMkPEQk3RlslJZQ0gPK0HW4uNB4wHjAeMB4wHjAeMB74d/OABJQfI7LncUR2jEe4ZAACO36AxvfmIOTaizBnc6s9w7mXuvYnu7zPvUdMC+W597EpwXjAeMB4wHjAeMB4wHjgFDyg1oCUqWqhDO19EqFXv4XAqzei6d25CLo+QNhfh1A4JPZXF5OsIoSQ8X/c7/Bc/zOA8lx72Mg3HjAeMB4wHjAeMB4wHjglDxAAqsXGuQwUZ3l/gMD+Z9H41s1o3DUfwao9CPrrxWLloXBYbpGpVgoAIWT83ykVfxrMBlCehtPMJcYDxgPGA8YDxgPGA8YD584DMUApZ+UTUH6Ihk+Wo37/agSr30fY75M73xBMWkBSpedOr+SSDaBM7huTYzxgPGA8YDxgPGA8YDzwBXhAdnVzO8QIu7AjAYQCh9FY8WcEaj5GyN+AcCCMcEiCSQUkVfoFKAwDKL8Ir5syjQeMB4wHjAeMB4wHjAda9IDczJ0tlNw+MRyqRdhfg2CgEcFgGCENUKq1RQ2gbNGhJtN4wHjAeMB4wHjAeMB44CvoAYEp5c5HcuJNCMEQyWqdtFooDaD8CsaGMdl4wHjAeMB4wHjAeMB4IFUPiKk1kYiYxS22xRQzutnVbW3XGY7fu53g8ov4Z7q8vwivmzKNB4wHjAeMB4wHjAeMB1L0ADFiKGyBSq43KSbiGECZovsMm/GA8YDxgPGA8YDxgPGA8UCYgFJQBCExpjKMCGd2a62Tqtv7C2uh1BUwx7FmY+ML4wsTAyYGTAyYGDAxYGLgQoiBcCSCYCSEQCgglwoKRRAhJQGUX4TOrb6IQk2Z5gY1MWBiwMSAiQETAyYGTAykFgPhSAjBoBcNdUfh91UjFAgiJCbmcMJOajLOta9bcYq5IeMDEwMmBkwMmBgwMWBiwMTAhRkDoXAAQf8ReI+Wou7oWwjUVSEYCMZme18AWM4AygugEswNfGHewKZeTL2YGDAxYGLAxMCFEAOhcBMCTR/D98F81P7jKTQdKkWgrhzBgB+hIFsruZd3/FJC51vvVkIJKmLI+MDEgIkBEwMmBkwMmBgwMXDBxUAw1IRg44fw730Cja/fiMa//BGNh4oQ8BFUNiIYYmtlCKGgRV9AHRpA+QU43YB38wFjYsDEgIkBEwMmBkwMpBoDBJSBhg8Q3PMAgjtGwb/tMjS8fRsaPytEoPYo/IEm+NkF7g9JCoQQCHISj6RUyzkTvlbBYBCGjA9MDJgYMDFgYsDEgIkBEwMXZgwEgo0SUO6+D8Ht/REs7oKmkglofGsSmg4UwF93An5/E/z+AAIEloEgAsEYnY96NYDSAGrzQWFiwMSAiQETAyYGTAxcwDEQCDbA3/A+ArvvQWB7bwSL2iFQNAj+ooloeuNONH1aiID3GJr8jWjyB+D3B0WLpWi1JMA8D7YZQHkenHw+KtKUcX5uGONn42cTAyYGTAyYGDjfMSAB5T74d9+NwLaeCBa1R6BoIAJbB8NffC0a356Chk8K0FRXhiZ/E5oCftFaeV4Bpd/PQg0ZH5gYMDFgYsDEgIkBEwMmBi7MGKhHU/1++HdNgX9bD/i3toW/qD/8WwfAXzgMTcXXof6tu+A7WIxGXzka/Q1o9PvRdB7xXasL03EmoE29mBgwMWBiwMSAiQETAyYGZAzUo8n3PvzvTYG/lICyNfxb+8C/tT/8hYPg3zoYTcXj4X3rTng/K0S97wR8/nrUn0dQ2aqpqQmGjA9MDJgYMDFgYsDEgIkBEwMXYgywpdGHRt9+NL03GU2lPdC0tTWatvZGU+FASVv7o6loABpKrob37SmoPVQKn+8E6psa0HiecJ4BlOfJ0eYmvRBvUqOTiUsTAyYGTAyYGPgyxIAPjXV2QNkHTYUDJG3thyZS0QA0lkxA7TtT4D1YiPra42hotEBlYxOaSOcI97RqbGyEIeMDEwMmBkwMmBgwMWBiwMTAhRgDTWhs9KGxdj8a352MxpIeaCxsjcatvdBY2AeNBf3QWNBHHm/tg8at/dFQOhHet+9A7WeFaPAeQ0OjDw3Eew0WnQPsZwDlOXCquSEvxBvS6GTi0sSAiQETAyYGvqwx4EOjdz8a/zUFjcU90Jh/CRoLu6KxoBsaC7rH0q190SioD+q3jkbdGzej9iMHGjyfo6GhFvUNDWhoaJR0lvGPAZRn2aHmZv2y3qxGbxO7JgZMDJgYMDFwocZAnQSU/1SAshUaC9qjsaCjTAut40K2XpK6oKGgOxoIKl+/Gb6PctDgPoT6Bm8MVJ5l/HNKgLJBIFui24b4bnLVhJogJW99Q724Rr/eHEs/fvn9YH3pqC+euNTU+5e/fv9d4tTYYWLRxICJgS9vDNQ31KLBvReN/5hstVASUHZAYz6BZDs0FrS1AGYnK+2AhoJuaMjvjvr8Uah//RY0fOhAfc1B1Nd7UV/fcNa7v1ulEmD19fVQ1FDvSwgOqRybUptTvQCUBJX1Db4kdKo8iWTpMhLlq7J1PnVOT/X8ZHLsPIn47Dx6Ger4dHhSKSsVHqWDnp6CPr561AtqQL0vCTFuUqp3XQf7sZKhUns+f6s8pony7TyJ+HQZifITyUiVz67T+Swrkd5fpD522xP5MBWeVOxKhSeVslLhSaWsVHjOZ1kXmj6JbOc56qmTnU/PU8dng8cuQ/1WZahUnVepOq+nKk+lep46Vnl6qvJUquepY5WnUnVepeq8nqo8lep56ljl6anKU6mex2N1Xk9PhyeRLLucVHh0PdSxXY46r6d2nlTKSoVHL0MdJyqL71dfjOp9qK/3oL5mFxr+cTcaivqiIf9iNBR0QEN+Z0kFnWRa2B4Nha1lXgHz2qM+rzPqC0bB99rv4PsgE/U1h1GfBMulggmT8bQMKAkS6xvg89VLqquBr/Y46nxl8NRXwlPvgqehBt56F7z11fDWV0lqqIK3oQqeBvIoqoCnvgLe+nJ468sEeerLxTl3vcxjvs7jqWc5ZXDXlyOeJyaDsqQcKUvJ4LlYOVIOz8XLideHusWuj+mkdJb6xHTWZamykusTX9bJbJfyzkSfmP0xnWI2STtjPKnoo3jEtb5KeARVwOuT5PFVQFIl3L5Ky9e0IVaO8pOUVQ5Pg7KRqYwLqa+sV93HLFfVRcwmdb2yLVaWih+W5W6osNV9jE/Wu10O5cV4pL6yDF2nk+tj1zlmly5H2qbsT6SLXU6MR5ej6xPzkfKNSnW7zqY+UqdT14e2qWfCmegjfRRX7/Ut1bssS94LyjcytetDHt0uPTaSxY9Xi1f17KCMeDkx25PXV4xHybHro5eVXM6p1nsq/mGdJ6p3WRcxP8biVfe3ildl1+n7R9qm5Nj9w9+qrOT+ifHEybE9O5RNMTnNbUtUVvN61+ujuQypc/x9oezSZTUvq7ms5jz2OKQup6OPfKcm04cyqbOdEpXVXIauT3MZ+j2o15deVvx9QXmJ5CSud10Oj5vr3Ny2eJ5kz7KYXQn901ABT4N6r5bD6ytDbX0Z6uqOor7qHTT8/V40FF2OhrzeaMhnCySBZCc0FLRHQ35HNAhA2dYClGylbGeByh6oL7gMta/fBO+H2airOYpanw+1DQ3wWY2ByYBiqudbqZbHllKfrw4+gsmKf8Dz0Rq4318C9/7F8OxfCM/+efDunyNp3xx4982Fd/9ceATNhmf/LHj2zYRn3wx49s6Ed+8sePfxXLo45973HEgeRXtnwrN3Fjx7Z8Ozj5QO976ZcPP6OJ50wUN5UtZz8Oy1SPCxPJYh86UMvSypD3mETuQVxPNKDsuk7ulRnSlH2BKnt8Wzd7aQRTulvUoO7dNtlz6hTTH7tbLoI+ED+qIlfWYJ39AvMTlaWUnlkEf6R9aF8lGq+vBa6itlsL68++bAs28O3Htnw71P6uXeNx2e/bIsL+23SPqH56fH6lTUr/Iz650yWPdavSueqF0yhmL1FbNL1nu8f6LxY+kt652xxrpP5GfqTN9IXZrXO3VT8WPJEbL1eqdcGfMq7uPrnTrHYkzWe+r62Os9Fs+MIXv8xPyj7IrdX9O1+1DGoteyrbl/LDnR+yJWV8o26WuWH/OPt5mf7XL0+90eG9b9I+4Lm394v2p1qupL6RJ7vmjxKmKIcqjjdHnPq+eGiNPYs0PWj/bsEM8H6iNtk88rm06aPqreKSe+vmT8UF+veHZY+vC+EDYp/zAOqU/MP+qel35OEIfN6p62M870528ifWRZ1EfWO6+xxXPUPzF9lK+j+jSrd3ssarZbdiX2Twv6qHpXcRr3rJfPspg+eiyqem9ul3zWS7v0eo/FkK4P73n7s17GmHi2RN9z8v0VkyHvr1i9Kzkt6yPfPVocinilPup9oeyiDkqWVe+sj6g+8rka04e8mt7iHuNzz5IjymEsqucU/SOfrc3qnbFhPZ/lsyxRvSs58tnavN6pT+z+ks8N+/3F54PkoS5SH0vnqL7PiWeguk8TP1vjbZeyeK9Z9RqVZekcffdY+VE/S//E6p26xPwc87Vdjt0uyrGTFS9701H37sPw7fgR6vOGoj6nD+rzuqK+oAPq89uiPr816gvaob6wg0UdZSry26E+v4PgryscBPfrv0TN+1vgcR2D21cHT3096rSe6JbwYEt5yQGlapUUYNIDn/cEfJ9nwvvG/4Wn+BrUbb0cdYUjUFfYH3WF/VBXOBB1hYMtGmKlA1BX2At1hV0s6oG6wj4W8Xw31BV2Rl1BJ4t43B11BX2l3IL+8rigJ+oKmNfR4iMPr1eymN/F4mHaDXUFPVBXwPx+loxelmzmk7rGeArsPMxTcijbklPYV5Yr5NvkCF0SyMm3lSX0IV9vmz6azlF9FI/SR9NZ+FyXo3iUHPqQ+Yl46Evy9bbqTtlFnyk5WllRfTQ/53dFXT7rgTqyngZZNNAqk7I6o66Qdct6Zn2xPNYD5VC+Xu+aPqI86k1e8ql65zGvZZl9NDm0R/nZ0inOP3a7lN66f+w8/K38o3zYAk/UzxZPtN7t+lBvuxy7Pi3wCLtYX/TBKchJpg/rJE4O/Xiq+tA/qj5Yj7a6iNan4mE92nhUffE+isYHeUiUyVhQ9WXnoTzqbPGIuE/Ek0yO0pllWXKUPlG7lM6W3oV8lqk4VGV1QR39LHyt9FH3oeJRZVGepY94rigf0gbFo9kep4/Oo8nhc1P4iCnvk26aPpTJc5Y+UT/rZVHnnqiL00fdq9RF10fZpZ4dvNbGE6ePpXPUP5btUX2UHF0fS+c4fXTblT6aXaLMFnii/iGPXWdNTsJnvV0fpXN31InnYUv6JCqLMcF61+REfch6ZYyp+iIP480uh88A5tnkRP1syWn2DqMc5ml1Jp7N1EmRnq/0sb8LdTlaWUIf6mTpHNWHPqTOupxEdjEOE/hH3FuWnwstHnFv6D5UeltlxcnpKd9b9voiT1SOXZ9kdtmfv7pdyvZEPJTPfDsP35d26oq6wu6oE7YSY42CL6cf6rO7od7ZE/V5XVDPLm0FKPMJKAkkNSroiHqez2+D+rx28OV3Qu3W4ah5/WZUf5gHd/UReHx1qItivnr46iW1BB4T5bXy+XxISHU++Op8qKurQ11dLeq8lfAdXgffjq+hLr8v6vJ7wlfQC778zvDld4Evvwd8+d3hy+8KXwGpC3wFneEr6AhfQTuL2sJXcCl8BRdr1Bq+/DbxlNcGvry2kvLbWnnk0+kS+PIvgi//Yuu8uqYDfHkd4ROOs2QoWXnM62xRJ/jy2sfKETzt5LX5zCOfjYe6CD7KT8AjdCWPJcdelsqPymlBH8FDOeRJUlacXYqHereHr1lZHeHLJzGgLH8rP8fpo+QwZdl6PbAueD39pviUP7vAl6fIOpffwdJDL89W11E9WX+qDllOKvV+qVb31In1YtVp1Cbqb/ezZpeyjzxx9a7xRGXxnLJb80/UBlWW4qEfLDnNeJTfNDnUJVqW7mONJ5pvL4s8mu2qPFG+rg99pNWpOLaXlYgnke2MBUtWMzkt2X6a+kRtYpl2nTU/K/vieKiPZpfOw3rnc0zUrcYTtU0vi887xgpt5/OIzx8+ixjXvF+VbZRj+Seqt02OXR9Rns5DWZY+UV2S2Z5KWdRPr3v1nFI6M7V4ouUl0sde70qOiulUbU9Rn6j/qDuv0fXVylK2JXz+amUJPtrF56EuS+OJ2k/5LdnFa3QeyrM/f+08ls5KX1GW4kmgT1QX8uj5mu1RHyk5Np2blaXdz3wvCJ/x+ctYVu9UPo+YxzItuygnqg/rg/mqLItH6SL47PpocqKyyKPpo8qKylHvBaWLKs/ys7JNpC3po+S0VJZ1fyTSR+mr9IrjoU72eqcslqX0TWS74qHevK/4HLF8HPUff7eW8nMHwJczFD5nGnw5feHLI+bi84hlW88ggbmIuzQij3ge0tf86O0Lb8FlcL32O1Tvd8BbfUTiPJ8PdRolxIbJMKPPh+SAstYHX60Ek7XeWtR6a1B3eD18266AL68XfHkElH3gK+hpAUoFIAkiFfFcN/gKOsFX0MEi6yYW4EY/Vvmppu01oGpdQ6cJJyaToTnYzicqRV2v86UiKwGPss9eTtQP6pokZZ0zfRh8FjXTxW6/0lGl1JUfC6zT7tZHg66/7TivG3wk8cLmSzsBRT88VBknS/V657HOz/L13+rYptdp81CeLkvJt6dng0eXwWN7Geq3zqfO2VOdJ5ksncd+PX/r+clk2PkSybHzJJOll5eKnFR4zrAsAToZz3yIM+WHNGXqcaj0TqaP3X47n7pepfZ89VvlM1Xn7KnOkyrfuZChZJ4NfShLl6Nk21OdJ5ntqfDo5dnLUL91OepcovRkfHo+j09HBq9JRQ7fAXwed7XiuXvsWS3iOdWY1stKpO8p6BOndyqyEvHo+qTiw2Q8dr0TlXW2eCydm72XCTK7WvXCZw2pN3wElbl94Mvlb+rAjyMFrtl4p/lA4RDykSe3HXy5lNsDdXkD4C0Yh+pXf4ua93NQW30YtXVe1IpGRA5zJMmGxVSBZSvZAkngmIhqUVdLMFknAGXtkXWo2zYOdXndJbGLKa9n7Lc6H5ey26UT6vI7xCivM+ryeN6Sk9cVdXnk6XiaRNmne625LjXfqfqjv/T6bI+6/CTEes3vodUzu4bYRaJIdcmxS7uD1bXNY61ORHe3da7ZeV5ju64Zj3Zti7Ja4LNfp/9Wcaefsx/befjbzsPfdj47z8nyU5FxKjJPVt7J8nV9UuHV+U9FT8WbahktlaNkqTQqU481NVRD1aOep84lqM+oLI1HL0cd29NFnPkvAAAgAElEQVSWrlO8qfAoXpW2dA3zFJ89bek6xat4VKrOt5Qm4+X507ku0TXJykiVN5Xr7Tz233pZLeWR70zz9bLUsZKpUnHeium4cwn8znwlJ1GqrldpIh77uVPhTXSt/dyZ/k6mT7Lzqjx7vv234mNqz7P/juPh+9bCRxxGJoYPMKUc9V5Wz6BkWEjjy+sg8VZed9Tm9YY3fzjcr/wa7v3ZElTWulFb6xXYr46NiqJhMRE+bH7uJICyDrUElLVeeGtdqD38EupKh6Muj4YwAAkMaZhlMEFhQtIcGHWAcpJKlcE6rzmOBp4KuAsiJYC8FHX5F6Mu/6IkxLx2sdhgjKjYiI6dZAzxAaWBwgvCPhN3F2bcmXox9WJiwMTAVzkGFE5S6Wn4QgBKgsouokGwNrcXvHnD4d7x33Dvz4S34hPUel3wer3wit5pNiw2B4+JGiFbScBI0JicpGACyjWoLR2E2rx2qM1vj9qCjqjN64Ta/A6S8jqgNrcDapkqUr/zO8b4FH9cyvwzJUuPOLktnTvT8i7E63V7z5V+7VGbfwlq81s1p7xWqFWU3ya+zlVMxNXPudLxXMvV/awfn+tyjfwzf04YHxofmhgwMfBVjQGFz7qgNq8nCChrc3rDmzsSnh03wbtnM7zln8HjroHH64UY8tgCPtSxYysJFolEk5PH44HHUw3P52vgLR0Mb147ePPbw5vfAd68jjLN7yiPczvAqyivPby5FpEvymtdy2vOKnWw9KJ8O1Fnpfe5Kv9s23MK8qL+1e2mzztppNcBfZWMTlZue3jzLoE37yKLWsGb1wrefCvNbQUvKb91fD0wHvJY5snkX8D5ys+0g/bExdmX3LYvc70Y3b/c95WpP1N/JgbOUwzw3UXqDG9eD3hze8Kb0wteZ194c0bDs/3XcO/LhLv8ANwegkqPAJYEly3hROadAqCsglcAymESUOa2s5Tiy58vUirXRZ5jnsgn6CC1jYEavoDFb6YWwDlrqfWSJ+CNltEG3ryLJeARAIjHPEfes13+Fygvl/4ntbZAHn3ewwqYXvDm8guEv8mj/MQ6sEBe9BzzTuYbi0d8OPCDgWVZPiaQzLlEAkrhb+qjiH4/F/V+nv2e29GKb9pNUnadzG/nWc9/p/g2tvx7Pa9MfZr6NDHwBcYAG/74PuoCb25XeHO6w+uUoNKdOwrVr9yEqv1bUFNxCC5PDVxeb0qgspVsfWQLZHJyu91wuytFC6WndBg8ue3gyW0LT14HePI7SsrrBk9eD3hyu8CT2xmenK7w5HaEJ7e9lXaEJ4/XtIYnrw08uR0sIs9ZopwO8OS0hyeatoMn51J4clrZ6NKzX/bZsuGU5Vh+zOkCT05HeHIuhie3leVnqz5yesCT0w+enP7w5HSHJ4d+YR0qot+suhJ5KdRNTjd4cnrCk0uiTF5zkfSz4xJ4nDy+SJ6jPoJax8fDKdt6luLkTMsV8WX5UPirrYw7EdMXiI5naqO5/uw9l4wvjS9NDJgYuKBiwHrHE8OJ9xYxW3d4nL3gyekLd+5oVOy4GRX7c1BZ/hkq3S643B643R54SEnwYsqAssZdAc/nq+EpHW6BAoKRDhJU5hEsdpfggiDD0Qee7DR4HIPgcfSDx9EV7pw2EuzkXAJPTlvLCBpzFl/ABJNOvug7w+PsCI+zLTzO1vA4LoKHICcKdM4RoD2btqQsywKDtNfRDh4nAbWqm/bw5BFQ0w894HEOsFIFKAn2LV4BRq1r6ceTgSMBTBl8pJ7wOOnz1vA4L4bHYVEOAaQFcAk2c+l37QMjZRvPYoycjTIJKJ2W36MfLyn47GyUbWSc3WeG8afxp4kBEwNf6Rjgu6yTbAQkThDv9H5w5Y1D+Wu3oWx/LirKD6HKXRMDlApY2sBlK9n6yBbI5FRTU4Oamgq4D62Gu2Qo3DltLeoAd24HuHM6wp3TDe6cnnA7uqFmS2+4skagfPM4HNkwDAfX98LBDT1xZEMPlGd2RbWzE2qcvKYj3E51fQd5zN/inPpNHsVHXouanSNPe7idbVDjbIcaZ2vUOFrD7WwLl6M1KrLaoyyzNVzOSwWPlNM+Ji8ql+UmKk/po8pXfEo//RrapumqHyv7RBnWNeqc4LP8oq5RvlC/hc/0MjvBndNF+j27P8qzRuDzTaPw+aZhOLypP45sSsPRjWk4tmkwyrKGoTq7L2qcXeCOEq+nH9pZ9cjfmq3NyqddLL873M5eFnWVPnVehBpnW5Rt7onyjW1Rk3MJ3M5WcOdcBHdOK7idF8PtbKfVs81WEUe6bdqxyNN9avex4tV5tGPhY8XDVMvT/a7Xi/CDukbVt0o7oiaHccxYa2vZ1AluZ2e4nUx1/ZSdJpXPCuMH4wcTAyYGTAxcGDGg3oV8b3WD29kDbmdPuJ194cq7TIDK8g+3orriENxuF9xu4kE3ahJgxhQBpQuumnK4D62Cu3ioAGkSVFKRTnA7OsPNVkhnF9Q4O6N8y1DsX/UNlEyfiI1TR2H1A0Ow+r7h2HDfCJRMG4K9ywajcksf+fJ1WC9sghrxYiYIbC1aNCVAZL56QRPIWsBHnGP5bSxQ2xVuB3XpiuObh+Hj1T1xfANldsLxzN748/wBeOXZ9ji6noCA8tvCndsmBo5zKZv8qjxLHwWeCYQcBEMsn2lHqzyCOQI06kjZzCcooxzKbA03Zefy5lE2Mo/XEHzwGgIS6kJbeG1nSy/6wiqPeUKmAoO8lkQg3wtux0BUOybi7UXfxKoHJ+Kl+6/E+vvGYv39o7HhwdHY+Mho5Ewfg3+8OBInMvtbQJBBowCSsot2sAzqyDxSe7hz28X8JWzvDrdDfkBIcEmd2+FE5mCUPjMSr0/rgMosymot/UZQ6STApB/bWr6krSQboBV2WX51MMBpY1fpG/UBQx3EdbyWxyyLRDvaWABX+ZR+pB0qVimbdWHFmQCU1IN2M44Yy4wt6srY5nUd4GasirQzXM6+OLp5KA6s6YmyTe3hziYPfcKbkWCb/lA3qnlwXhgPTlMPph5MDJgYMDHQPAbUu4rvQb7/1Hu3D6rzLkfZq7eiYr8DNWWfosZVBVccoGTLJcmNkwJK2TopAWXNQQ1QCrBE0MGXaC/UOAgmO6DcORh/Wf4NPH/PtXj8F4Mw66Y+WHh7Pyy8bTDSbx6BJ38+DMvuGIFdS4ejaksf1GSrFzjBAIEVQcfFcIvWLb7Eewj5bPmUoIs8fPHzxc3AuAjuXIKKAahx9EC1YzDeWfg9rJg0AO8u6o0aZz8c2jASOU+Owuq7OuPAqu6ocVxqAT0COAU6CP6oA8EGdSLouUSmAhRdCjdbPHmt0JMAogfc2X0tHQk8CFIIaBSooK60heVJwCXsE/L7w+3obYEUAiDyUJdecOf0tgAly6RM2slyqRvLI4CkX+iTLlYA9EOV4zq89Mh38PsfDceTvxiM2TcNwPTfDsTTvxmCR381Bnf/fASe+p8heH3BOJzIHIkaJ0E9bSYwJbhiGdRdnacPaIMC8qwb6tQV7uzecGdTD/qeOlKPXjjw8tfx7E3jsPCmNjiR2VuCUfHR0ApuRxsLnFmgUgFH+kyQZYsAZr3gzu4Ddzb9NBBuMa6jmwTm0esUmKQfCOKYUhe2hBLAkuhXtpLSDtZRT0sm64/5VqupuInY4jpA+ph+4TX0cXYXuLM7WqCxA2qye+BE9lV4JeNqbHyoD/Yt6wHXFupLf9BmAmBer25S8wBr/gAzPjE+MTFgYsDEwIUTA+p9RUxAYt10FTihOmcsKnfchOp9TriOH0C1qwrVLrZUkmSrJUFlK3lCZSROXa5quFzlqPlsFWqKh4ouPnbzyS6/3qhxkDqhyjkAe16+HrOnXIcHfjESGx8dhV3LxuHT9ZfhwMYJ+NfKb2HtQ9/BYz8bi7V/7IsDK/vDldUbNdl94HIMRKVjIE5k9cWJzD6o3NITLnbPZg9BTfZQ1DgGoTq7D6qye6HKMRAVW4bgROYAlGV1RrWT3Y8DUePsjxPZV2Ld4z/BPT8dgtfmjEGlYwzKtozB/jXX4r0XxqFscxpcjq6i67cqmzLTULGlP05sGYCyLUNR5egnWllrstuiZksXVG/pj+rsnqhxtEGNg126rVDjbCP1yBqAGuroaIcax8Woye6Cyi1DcSJrlABsFVmD4com2O6GGmdX1Dg6oDq7owWkh0nbHD3hcnRHVXZvVAlZg1HjHAxXzgBQv/LMoSjLHIyKrB6ozqaf+0nw7ugoZYrhA+x67YPK7Oux8uEb8IcbByH/mcvw/tqJ2Lv6Gry3fLxouVz32Lfw4K/G4pmb++FPCwaiaktX1ORcipqcdnA5OwgdyjNHiPIqszvDJezi0IH2oo6rt3RH9ZauqMoagvLM0TixeRjKs7qjmt2+uR1Qk9MfH7/0Azx809cx66YOomVY+qstXM7OqMhKw4nNI3AiczgqsvugWnyEdBL+cWUPEL528Rxty+4h4yK7P6qyh6LakQaXsx+qHT1R5eiGakd/VGwZiPLMAajcMkD8rnEORFV2f5Rl9cKJrO6opH2OPnL4Q04r1OS0h8sxBJWZY1G+OQ3lm3ugMqsbXA7q3g41Od1FHFZn90c16z67Kyqz+qJscz+Ub+6F6ix+jHSEK7s/PtnwXSx/8JuY+fvB+Nvi4ajKGiRjgfUt6qS9+MCqyWFsGjI+MDFgYsDEgImBCz0G+C60yNlBDE2scXQWmMPlHIaqbb9B9a7NqD72EVzVlXC5XAJQElQSS6YMKKtdZXARUBYR3LWVoFKMIesFV3ZvuBydcdwxFvlzvoNJ/280XrhnKD5eN0q86AmYXM5uqMgZjHdXfhMr7rkKK+7sgb2LuqM6sxcqtwzBgZevwl8WX4Udcy7Hjtnj8OcFQ/HJ6qGozBoJF4GCcwT2LhuLd5dejl0rr8FbCy9HafoYvDJrCHYt7YcTWcNQlTMKu1d/DemTf4JbfnIF1j86DntWjsLxrFH46KWrsG/5aJRnDUPFlmH4cNUVePeFq7B7+ZV4e/5YbJs1Bq/MHYtdy4bj2OYBIMAp3zgae5eOx/4XR6A8k6DwEtTktEJFdnfsXjYUu5emoSyrH1zOtqh2dMBnLw/Dnxdeg1dmXYkd6ePx9rwr8MHKcajIJIjtifLMQfhw5RDsXToAFZsGwOXoJ4gga+/ysdj74lCUbR6ISucwHNp4Fd59YSLemHUFXps5Fu/MHoa9S9NwfBOBGAHaJRK4OAjISH1Rmf1trHj4P3Drf/bCm/MHwZUzGC5Hb1Rv6YSqrDQcePl6bHriR7jn/w7H6nt74MiGjnDltEW5ox8+WT8Sf188DjtnjcNrs0fgzwsG4sNVA1BO+xx9BIDc9+JovLd0FP659CrsnDde+OyNuQPxwaq+KHf0hSs3DR++/H1MvfkbSL+ZgLIXXDmXoMKRhk9eHo8/zb8aO2ZeiR2zx+OthSPx4dpBouyq7CH4dPWV2LN4DA6/zPI6oyab4C4NxzLHYO+Ky/DhiqE4tnE0PlgxBHtXDsOe5RPwp4yr8PrMcXhn7kh8sPoyHNzwNfzrhfHYMXcsSuaMwV+XDMXRjWMEqHflXIoKZz98uu4a/G3+BLyRPgZvpo/G3zKG45M1vVHhaCd8cWJLGj5YNQZ7lo7E/uVX4M8Zl+G19HF4Y84o7HlxGE5sTkNF1lj86fkf4rk7voupvxyL/MdH4NNlaagScdNNjN3l+F222JsH6IX+ADX6mRg1MWBiwMRAsxiIAsqOAmMQx1U7xqC65Ga4dm2C67gElTXV1aghsHS50IoI8+RUjepqAsqVcBUNhUsAGoKajnA5CSh7otrREQc2X4nF90/ElJ8NwOsZ/VDJVqVsAie2QHZBtbMLTmwZgr0rxuC9JWk4uq43KrKHYO/qK7Hx0SuRcdtoLLxjNBbeORoZt/THuvv6Y/fSESjf0g3HckZi5f2XIf0Pl2PJ5Csx/85hmH3bMDz726GY+7veeDtjIMqyCUgn4u5ffwu/uuFKzPzDQBRP74WP1o1F3jNsFe2Kj18agUObrsKWp67BrFtG44UpQ7Dg9r6YfetgPHPzYCy6YyDemjsCZZuvwidrr8fqe8Zjw339cHBtJ7icFwuAdGjTCKy4bxiWT+6CAy8NQlXOIHz00uXY8NAIzPpdGhbeOgxL7hiBebcMwfIpafjnksGoyB6ET9dNgPOxsVhzV1scXNUGLgepNz5eOxHrHxyL9fd2wYE1XXEocwwKZ07E83eOwuLbhuL5O4Zi0R8GY+ntPfHWnB44vrGTaD0k8HKxxUy0mvVBRfb1WDH1Rtz6kwF4c+5wuHL6w+W4GK7sVnBlt0bFlpH4x4qf4vGbrsX03/bG+yt6oNyZht1rrsOGx67EvFsHY+Edg7DkrqGYf9sQrL0vDf96fgTKs0bjk3Vfx5qHxiP91hGYd/twLLxjCObfPgzpNw/Ayrv74J8vDkOFczg+WPd9PPS7b2DGzR1wLLMvKvP6YtdL12Ptg1dj3u+HYPHtQ7DgjqGYddswrHxgOP6xdDSOZY7HG7MmYtltg/H6zD4o56Su7B6o3DIW/1z6day5ZyiKnuiD/cuvxpapI7F00ggsnXwFFt0xFnNvGYFnfjMES++5HJsfvw4vThqJeXcMw9O/H45pN/3/7H33fxRH0j4OZKEsAQIFcs7R2BinS76793U8J2wTjDnbGIPBmGiyMRgwOSihsEEC52wO57uzDSYJaXPQRsX7G57vp3qmVr2jXWnx+Xz4/c4P9emZ7uqqp6prZh717K764rPtg9BsHo6WU/1xqXQmSlZOxetPFGD/UwNw8Kl87F+Qj7JlmfjxUAqaTqXCVjEKxrUT8PqCoTj+7DgcXDgMe+YPx9bHhmD/onz8c+9Q1JdNwdsbb8bSv0zHoruH4uDcDHy/MQXhsn74l9jZvQ7/OnmD2PVVrhG6TnTRc6DXgF4Deg3oNfBrqYFe+Ncp4hqp4nksNg6raLONSOXDaLlQgdZgHVpbmtDaSm+xEyWUra1obWlAq6sQ/3p/EP5V3UMhQ6foVWk6/lXdG62neqK2bCq2PDUGqx7JQk0xvcolspkrXjPSa0IiCa3VSWitSkVrdRpaTmXDXjEZxnWTsemxXBQvH4IvX5+Kr/fdjLI1U7H+0UE4sTwX9uIM1J8ch01PzcJTvxuN3U8OxQebRuPM7vEwrp+NJX8ahH2L+qC+YjRqiqdg69I/YO4fRqHi5cG4fLQ/LKXjULhiGrY9loma46PgLJ+BQy/cjMV/KMDeBWl4f9MAnH59PE6sno6XHxyKomcL4CyZiJriO7F5wXTsXpgNRyF9W/x6QRIcFdOwacFkbH00HZbjg+GtmgHjuulY+adUFD+fhq92jcHf947DyfUjsf6RPBx5ll4Fj4GldDaOLJ2KbQ/3gu1oN7SevB6tp7JRUzwLrz89Ebvn9YHlWCouHJ+I154ah50LR+PjHTPw7f6ZeG/zdOx8vD/ML/SGuzBF7DoqZJJIaXexC9dUNRPHVvweC36bjy93jMS/ThKhJHJzHVpPdkPLyYGoK/sdti6ajZcfGICze3PhNk5D9eY7sP7RYTi0ZAhO7xmHr/dPg2ndLGydNxhlKzJhK85Hbdls7HjmJiz6YwH2LMjD6W1j8PWeKah8eSrWPDAQRS/kwGsYibry2/Hi4zdhy9wkBE2DUF89DSfWzcaL9+ShckU+vn1jAr7cOwXl62Zg1SPDcHhJLiwlE/H1/jnYMm8kjr6QAUd5P7SeykHANAlvbZyJbY/m4OONuagpvAP7F0/DC3/Mx77Fg/He9jF4f+c0bH16Ohb9aTheeWgQzCuH44vXJ+Hk5lvw3J9HYu+TWQiUj0egahbK183Bsj/nofT5Ifhy91h8tWcKqtfPxKa5BShamgJHWQEulc3A7mWzsPjP+XhjUT4+2TwGn++cjMIXJ+OlB6gec8Tu9rcH7sTGRbfgxQeG4t2Xc+A6nIZmQxr+VUVrQQT+BvEqXb95/lpunjpOvVb1GtBrQK+BthpQCWV1Cv5FbwyrM/Ev2uypou+qDEPTx3MRvmxCQ4MLzS3NaG1pRRdilp1KSwtam8OCULa+Pxit1T0EQWmlV72niBx2R8upXqgpvQmvPDkaGx7Pgq2cPltHnxnsi9aqfLRW5aG1KlOZW309Wk/eiKbqAfh63xxsfmI89izKwPnD2eJ1dOPJ0bhUfjt2vTATax7uj2929oXHNB0bnroDz9w9Ap9tGotgxWA0m7NgNdyOTQtmYvUD6bAWFSBUPQRH1/8Zi/40CF/szEFzdRpsJRNwfNmt2PLIAFw5OgHOsptwcOktWP6/BfhoYxYClX3RWDUIPxbegu2LpmPXvEG4fGQULhTfifXzZ2HHgmzYirqjtepG0OcI7eWzsW7+Ldj0UBYshYPwfcmdeOmxsdj6cBpshSloMvdHkzkNrrJBOL5qJpbfl4PTr47EleI7sX/pLLzySCbqjqag9WQPtJwagAvFt2Lb4unYMS8ddYcz8d3+6djw2CRBMr87NBOuyslwlE/F6e3D8PW2LPhK6LOMSSLvrUQWq29Aa1UGGqum49iK32H+bwfhCyKU9PlPc1e0VnVDa3UvNFf3h6X8N9i6eDZevC8X3+wYhHNHbxOvbjc8PgKf7x4Hr2EEfIYxOH/sTuxfNgObH0/H1zszUFM6A6/9dQZefmAwzmwbjBDl31QAa8ks7FmskMpLR4fjStltWD53FrY+loyAaSx+LPk9Vjw8Hlsez4etaBiaqwehsXo4LpdNw46lU/HCA/3w2c7huFA6B3tWzMD6Bf3wj/3ZaD41DLUnZmDfkgl47fFsnHtjEOpK7sLrT8/CqvsG4szOPPircuE9NR6V2+7CU/8zHPsX58N6bBiazPlwGW7D+rmzsfHeTLiLpqLuxD1Y/ch4rHsoB+cPjYWvcjzq6WMFxXOw54WbsO6RvvhyzzCcL7sVO5fPwbIH8/Hx1oEIGwaLz7H+88AUbFkwBrsXZuLS4VzUVdyGfctmY+Ojefh+T180m3qitYrWoQtaq0luEB+DoJ17XfQc6DWg14BeA3oN/LpqoJfyDKMNQ5aqXmit6o3Wqr5ofHMKXF+tRb33HJqaG9GcCKFsaWkR7LO5KYQW53G0vleA1qoeKpkhh6loqe6N5pPJ4gs5r8wfj7WPDIClpK/4skZrNX2xJVsAoLalKhXNVb3QXNUTQfNgvLv5Tqy6bywMK1NRX9EbLWbSyYWv+iaUb7wDz9+bhzdXZ8BeOQPrn7ody+4ZhnP7xqLJmIpWU3d4qm7GrhfuwLJ7clBbmIvwyRwcW/9HLPpjPr7cmYmW6iTYSyfg+AtzsOXhgag5MgGOEzNwkMjqQ4Px990D0UxfiKnqiytlM/H60luwY/4gnD80DOeL78S6+Tfj1QV9YSsiwtBdfDHDXnYr1s67BVv+kglLUQHe23snFvxpKCqW56LJnCF2YFvM3RAy9sdHe/+IpQ8MRvmLA3Dp+Bzsf34m1j9MhJK+iEN5GygI5dbFM7B9XgZqD2eipnAG9jwzCy89OB67Fo9F2csj8fGrw/D9/hFwFw9Co6EfWuhLOmIdiFBerxBK83QcWfk7zPvtYHyxY5TyhSJzN7RW9URLVW9BKK+U3YVNT9+EF+/vj69fHYIzu+7AkgdmYflD43Fi1US8uWEUTm4Yj7J1t2L9olux5L48vL22Hy4WTsfrz0zBroWDcfHwEDSb+6PVlIEG40QY1t2GJf+Thy9fzcGlkluxbO4MbJ7bC37TeHy2/27Mv3s4SpcPR4OBaoe+VEU7zoNwYvtsPHVfAUpXD4S1YiKqXp2DlXOHompNX9RXTMRXb9yMLU8OR+nSLHiK82Apno09T0/Fq08OwIXDWaAvDoXfHIa3d9+B5x7Ih2l9AeoraC17w2uejq2Lb8Xae9JhL5yGfxy+Bwv+OAYrHh2LyvWTcGr9VJxaPwmV66di49Mz8Py9uTi5YQjOldyO3ctvxbrHCvDd3gK0mnPQbMzGxcKp2PXsFLw2PxPnD/aHpWI29i+fjU2PDsT3e9LRbKI/NphMdlHIZTVdH/pNVM+BXgN6Deg1oNfAr7UGmFgS/+mBFnMWmqtGIPzO7+H+x+vw119GsyCULZ3vUEYTymNofT8PrdU9VekjvglLpI0e7rUVs/Dq4ulYeW8uzh/MRsupnuILJILdim8HZ6PJlANHYQ7O70tHbeFwmF65Ay/eOwZvrUlD2JCEVnMmWqoGIlw9Dae2/wbP3zsExhXpsFVMw4aFc7Di/kG4cHAomkwUXHe4zbOwc9kdWHrPAFwpykG4ui+OrWsjlM1VScoOZYRQjofjxBQcWDYFax8ZiO/e6I/mk/3QUp2NK+VTxevOV+fn48eDQ2MSypaqdNjKiVDejK0PpsNamIfqHXfhid8NwVtrBolvaivfhKbfZByIMwfvxQt/GYbCJem4ePRm7F8yE+sfykDdkVS0VPVEc/UAnC++FVsWz8DWeVm4cjgDPsNEnNl9Kw4unY61T0zC8kfGYvVjQ7H7r7n4aGM23EUKyWk1E8nlHcp0NJqn4/DK32Ie7VC+OhqtVf2UHUpzT7SYe6OxKgcXiu/C2ienYM2DWfh+z1B8vP12PPM/M/DsvRPx6lOTsevpidj+9BRsfnom1i+cge0LhuL0ljxcLLwJu56djL3P0JdiBqOFPjdb1RtNphE4teU2PPs/ufh4fV9cLLwNyx4jQtkTPtMovL/793jid8NgenkYmoyD0GrOQsvJNASqc3Fq151Y/OAIHF3RD17DYPz98BxsfGoq9jyVi3P7Z+LU+puxbW4ePt3UF2FDAeoEoZyE1xdk4fLhXiJ/DSeH4L3dt+KFB3Pw5qZ8+Cspr/SHxhRsfYZ+USATdcVTcfrA3Xjo92Ox6MFp2LxoGnYsnImdC6Zi58Lx2DJvLF6bPxgfbxmC80W34Y1lN2PT3P44ty8HrfQtcmM/XCyahp1LpocyPgYAACAASURBVOHV+Vk4d0AllMtuwaZHc6MJJZFKITeIXWH9JvprvYnquPXa1WtArwG9BugLx/SGU4g5Fc3mwWh463cIfb0ZYfsXaAr70dzUjObmFnQhwtiRNDeTYhOam4JodhxFy/u5aKnuqcjJZLED2EyEsqo33MYpKFt9O164exA+WJ+KBnMSWqpvQEtVV7RUkc4AuE6MwZtrh+PAgkycfnU0KjfeiWX3j0L1yn4IltPPAqWguaof/FWzULHpN1hy3yCcWpsldig3PDUHLz2Qi0sH89Fk7IkWU094TDOxa9kdWHZvX1w5nq0Syj9g0d25+GJnOpqq+sBaMgHHls3G5ocH4PLhcbCXTca+5ROx9tFsfL+Xfm6HdrvSUVs+BXuW3QSFUA7Dj0V3YO28m7B9fj9Yi5LRUtVHfLmmpuwurH5yJrY+mArr8QK8t/O3WPj7YahcSd8g7y/0ms09EDQV4P299+L5+4egfHk2Lh6/GfuWTMe6h1Jx5TAtTBKaqgfjXNEd2LhoJrY+2RdXDvdHyDAe9uJpuHhkBr54YyZObZuJwy/NxIpHx2H9g1n4Zns+wuU5aDH3UXJbTflNR4OWUFb3Q0tVN2V3sioTAeNQfLbnNrxw/3DsmpcGy7FBOLPzVrx4/2TsWDgSZ/ZMwvcHRuO7/WPwj32T8eWuqfj2tVGwHy1ATclM7HhuMnYuzsOFo7loqiJC1wMh0zgYNszBkj8NwOebB+By0e1Y8ehMbH2sN/zGYfj0jd9g/u+HofzFEWgwDEeLmb6Nng2feSyqt/0eS+4fivJVfRE05cFWNgtHVt2BNY+MguHlmTjw12nYN38ALu6nnwgqwJXS2/D64kl4fWEaao50FflrrBqOD16/Bcsf7Id3Ng6Gv7IfqB7dVVPx6uI5ePnebNSWTMUXh36PeX8qwPZnx+DrNybjuzfG47v9o/Hdvon4ctc0fLVzPCzHx+Jy8W048MLN2DI3C+f2pSl/jRmzcalwKl5fMhU75mXjx/39YK2YhQPLZmEj7VDuzURTVQ+0VF2HFvP1aDFfh5aqG9BS3QstJ3vroudArwG9BvQa0Gvg11MD9POGEaFnPUk6msxD0fDmbxH6ajMaHWfQ3OBWyGRTi0IoFcJIpDG+NDU1oakxiGb7UTS/R//lpgeaq3ug+SS9sqXP5hFZTELYNAjfvHEH1tw/Xnzz+tz+/ggYstFg7IuQKQ/Oign4+LVZ2Dh3JLY+moOvd03EB7vuwqrHxuLQ0/1x5UgewlWZCFfn40rZndi77Gas+MsA/G3HQLiMM7HhqVuw6oH+uHQgD02GZLQYUwSh3P3CrVhxTxpqjyYjXJ2FonW/xdN/HIDPXuuHcFVfWEom4ejym7Hp4QG4dHgcbCcm443l9Go+A9/voW+a028W9kEd9S+dhVfnDcG5AyNxoeg2bJh/E155vADn6SdjzIPhr56G0wf/gCUPTcLWB5NhOT4S/zh0N1Y+MB6vPpkLewl9K135prKtbAKOrP4dlt6bjw83D8HlkjnYt2w6XnowHd/v6Y8GUz6C5qn44uDdWPn4dGx5IgeXDw3B5cPT8f7a0fj7ayPgLR+NetN4nC+9C7uX/Q7P/Wko3l8/Av6yfDSb6ZvQvZX1qEpBuGoaDq78DZ747TB8sn0KAuZR8Jly4DPmw105Ht8dmIo3npuM5+/ph1Nr0uEvz8EPB27G5nkz8Or8Ifju0HiEqkai0TwaztLpOL1tAj5YOxB1h/qhpnQqtjw3DS89Nhh/25WPgDETjdV5sJTNwf4lN2H1vf3x4xuDUFN8G1Y+MhPbH0mCv3IEvi/8DZbePwa75g+Do2gMGuk3P81DcbnsNux/8XasuDcHn24dgAbzYPjoSzg77sKLj83AmsemYuNjE2BaUQDvib5oqs7ClRM3Yedfx2EXEcrDPdBsSkFD1Sh8sGs2XnygH94WhDJP/IHgMc/Ea4vnYNV96agtmoQLxb/FyoeGYOv8PNQWjkWDsQANVblwVkzDh9tn4s3Vg1F7ZITAf2DpHGx9rC/O7af/9tMLzcZU1BROxJ7npuC1J7Pw475M2Mqn4eALN2HDo0Pw7Z7BaDBloamqO5rN3dFsorYbmulzq+IaoetEFz0Heg3oNaDXgF4Dv4IaoI/jVdHvatPGVzKazSliUyf01h8Q+nwbGix/Q2PYgSbaaFS5Y0tzM7oIskiEsQNpbGxEU0MATfajaHo3Xzw46eFJu1RN9NpTbRvNKXCXT0LZqllYed9g7F04GG+/Mhqnd0zEJ9tuQsWa2/DKE9Ox6oHhOLVmGNwlo3CpcBqOvjgFGx+mbwEPxjf7RuDbg5NgWD8L6x4egcPP5KHmWC685snYtHAa1t6fiUsHBqLR0BPNZuWzcvuW3oSX7+mDK0d6I1yVAeOmW7H47nwce74A3+3Ox5XjU3B82UxseTgHlw+Pha1kKg4tnYBND6fh7J40NNGuaHV3WE6MwYElM/Dak8Nxdv9IWE7MxBtLbsILD4zGiZcn4PPdU/DJ6zdj3/Jb8dSfx2PbAymwHhsFd+WdKF1xC5b+KQ+lKwbju/1D8d3BUah6ZQpeemgMdiwYiAv0W4oVs1G8djae+d8hKFo6El/smoTPds3C4VW34+n7J2HbkwNw6dAIfHdgDnYtmIDd8wfhky1D8MOBsfhsz2xsWTwLqx4ehL/tHI2AoUB8XrPJnIwmM61DEkJVE3Bk5W149I5R2PfMFJzaOB4nN45A1YbRqFg9HTufmoDl9+bjwLMDcOkY/Wh6fzhKp6By7e14+eHR2L90NE7vnYBvD03DyVemY8eT+Tj+TG9cOkSfj52CV56djbl/HIU9zw7B3/aOwd8PzYD5ldlY+9AwHH82F66SEagpnYMVc6di+yO94asYCpfhVhxcPgvL7h0K40uj8N2BQfj2wGSUvXIrXnp0DPYtyoXl6HDlL5+qUfj+2B3Y9sxvMO8PE7D+keH4YicRv1Q0nuyN2rKJ2P3XEdg7PwM1B9PQZEwThPKjnbdgpSCUQ+GrLBA/eO4xzsFrf52NVfenoLaQ/rf5JBS/NA3L/ncISpaOxLevj8L3+0fh1Mbp2Dh3OA4uTEHNoVzUFM/Gwedvx7bHsnFu/41oNt+AJkMKao5PwN7nJuK1eRn4cX8anOWTULTsZrx07zhULh+BS/v6ImRMQhPtOhv6oMlEa8LXB10juug50GtArwG9BvQa+LXUQDKaqrLRZB6AJvMQhN+6E4FviEx+hcaAG41NATQ1haK4Y8KEspEIpe2IQijNRCZJKDH0rWb6LyhJgtSEzXm4eGwCyleNxtbHR2LNI2Ox5pGpWP3wzVj1l5uw5cmJMK8ZhdrCwWLnMmDIxT8PTMaxpROx9ckx2LpwPLY9NQFbHh+Bw0/n4x+7hiBQMRB+83gcXDoJbyzIQu3hAWg0dkOTuTf8VdNhWn0T9s7LhOVolvgh7q/2z8KWx8dgw335KH+mLy4dGo/qNVNwZPFA1B0bA1fpRJhfHo+jizJx+UAGmqrT0VTdDY7yAlS8NBrHn8vHxcN5qDcOw4c76fOEU/DSYxPwyryx2LZgGPYtmYRt88bj+MIUOIqGoKFqDC4cnol9z43By3Pzse2pIdi2aCjWPTkY2xfk4PRrufCZBsNnHo/P998iPi+56qHJ2Pj4BLy6YDx2Pjcdm56egiNLBqLu6EDYy6bBtOEWbHxiAjY8Ph7bn5qKjQsnYe2C4Shbk4fa4uFoMOehiXbFzKkQpLIqGUHzCBg3zMAL/zsa6x8agy2Pj8TmJ4Zh0xPDseWJkXht3lCULMvDDweGIGig+ZkIGQpw7sgsHF4xEy/Pm4B1T03A5qfHY9MTw7B3QV/8bVsqvBVJuHxiIjY9cwsW3jMZ658cjy3PTMa2xZPET/0cfjYP/9xTgJBxCKzlM/Hac+NwdHEa/JUjEa4eh38cuhkHlkzGxrmj8erTI7F98QRsnjcKB5/NwzevD0KocjiaTEPEN/ztldNRuu73WPTHkXh9QV/UHKUd5B5oqu4Fe9kYlL04BOXPZcF6qB+aDFloqBqOL/dOFT/tdPrVAvgrc9BkzkG9YTaKXpyGNxakwV5E/9GnL348OgXHls7AhscmYMv8CXh10ThsemIE9i7Mx+kt/VFfPhCW0skwvDwdxxan4/JhtcaNfWEpmoTSVRNwfGkOLh3Jgt84Ap9svQnbHpmMbQ8MxIcrU+EpzlTWpDIZTYYeOqHUSbT+h4ReA3oN6DXwK6wBZZOqydwPjeZRCL/5O4S+3ICQ7Qwagk40NARjE0rafexMGhoa0NjgR6PtCBrfyUOjqTsazSS90Ehf9jAnSW2a+HazrXgwPt81Fua1E1H84lSUrpgK85oJ+HrPcNhP0GvPZMWGqQf8hv44f2QU3t9KO2kjUbFqGN7bOAjn9uXDX07++iNcNRjf7huLb3cPQH1ZKhpNN6LR1Adh83BcPDwRf981CD7SNfeHu3I0vnp9JN5dm4/Pt2TDVVqAC4fG4J+7B8FXVoBAxRBcPDAe378+CN7SbDSaM8Qun9/QF+cO0Ld7c+E5Qf/Cj75dno/PD45D+SvjULxmBKpfGYC/7xuEv+8Zih92Z4rP7NEPcYcMOfjx2FC8uW0QSlfnomT1AJzaPAB/358Db0WG2GVrqMqEpzIf3x4Yj+r1E1G+chTeXD8CX+wZh2/2T8R3b+Sivow+OtAXdUXj8OmOaTCsno4Tq6agct04fLhzOK4U5yNoykejOQeNJvrvO5QL+sJNkni9/+PRsfhwywR8uGkcPtw8Dh9sGYsPto7Dp9tHiR/lthblI2SknNJ8+g84WQiY8vFj4Vi8vWMsitdRnKNxcuMg/GNPf3hKM9FgSsfl0inY9swMrH18FIwbJsGwcRIq1o7Ae5tycf5ANvxlaeLfE/oMg/H13pH4bm8OQubBaKweiIBxBC4cnYp3N09E+erJqFg9Ae+9MkR8W5o+89hoykOj+DeOA+A2jcXJbbdh9V/yYF6ZjvrydDRWdUOjmeokF2cPFODc3gHwldK/Q6Q/IApgLR2Lb/bkw1JI/9oxDY3mLIQqx+HsPvpPN7kIVFC83RAy9EXN8Ul4d/sklKwZhxMvU/4H4/s38uA9kY0GUyp8lXk4f3Akvt8zEF6KqSpZ5KmeXt8fGofv9g+Dp5yIbAYcxcPw+Y7xeH9dAX54LQ3+E5SDFLF73mjsKl0fdI3ooudArwG9BvQa0GvgWq0B4nMshJG4xWCE3vwNAl+8glDdxwgHHQgTF2wMqRKO4o9dOiOTNE6EskEQysNofIf+f/INaDTTQ76n1KpATEloJDGnIGTMga+iAJ4Tg+A5kQ9fRQ7CRIDE3OvRaL5esWXqigZTHwQMGagvz4K3PBuByiw0mNLQSEKBmVMFUQ0RYRBk8kY0GnsLQtVg6oewqT8a6beRzPRt5zSEjakIVKYhWJmMBlMywqRj6ItGmm/MED9hEzbkoNGYjEZjH9VWMsKGTIQrs9BooN2mVDRWpSFY3Q9u4wC4DNnwGfsgbOqJsKk3woSLCIe5DxpNvRCuSoHfmA5PZQY8FRnwG9MUHRPlqYdCxE09BDZ/RQ68ZTnwV/RHyNgXYWN/hI0ZaDTeiCZTV4ExVJkHX/kQeMvo53DyEDT2Q4OIj4gkxUl+Kd891LXohbB5gNh9DFbmIFg5AEEjSS5CxgFoMNH2dbqSUyKj5iyFkJp7ocGcDL8xE65K+lxhPuoN9D/VyXYvQZIulUzF9r9Ow9b5OfjngRx4KnPhLc9EoDwJDYZuaDRcj0YDrQl9USddmWtOEWvRaMpEgzEXgcp8eMsGw1tOpJ4+W5uk5N8wAGHDMNRXjsa54zNQuGIqds/Lxj920c8SUYw9BWkW/6Ob/rigPNBnOCkHJiKCeQiZBir1YqQ803pmI2zMUdeczrug0XgDGo2p4g8Yd8VAeMoHwl+RjbCJdtnJR3eRT/pf8qKeRK6plpPRQCTVTH6U/x8vatjUR5DUQGU2QpWUJ1q3bmqrE0r9wXGtPjh0XHpt6jWg1wDXQC/lOU88gp6f9Fw2pSFsykPgzbsQ+GIjgpbTCAXsCDcE0dAQRqPYZKSNRpJGRRob0UUhi0QY40s4HEY47EOD9RAa3u6PBuONaDB1R4OpFxpMPdWWjrWSJMhcgzEFDcZkQSAUfZpL0kMjNL+3JGyP+uiY7FFLc2W/NJ6s7AKa+qg6NC7r0FwS0qU2VZDYBmN3NBh7qtiIfBJWknQ0EBEyk9AOI30BpCcazF3RYL4RDVXU9kaDuY8kSeKb7Q1VREBICEsSGoyMXT0W/mgsRRGhS75pvJsiIk7SUQgxEe623HAcnBcpTrJF/kRcRBRJV8URlVvqZzs0n9aCcJK/NHXODWgwXifwXC6ZgB1/nSR+K/PsgSSEjb3RIITyR3IjGoxdFDFdjwYTHfdQc0n5TFWP2SeNdUWDoTcaDDmwFk/Ah1unYP8z47DpkcEwvJgNe0mGkmux3pTnNDSY6dcD1LxFckN9FGNXFe8NyjHXl/F6FRu1XLdS/GZa1x7qevJakQ8pb2KNyD/1Ub1QzBQDx0++ae3oXF1DIupROaf10kXPgV4Deg3oNaDXwH+zBujZJIngJPTsoud6OsK0AXRqNnxfrEeg7hME/XaEwgE0hMNoCDe0F5U//gRCOVB9KBMJYXLAwChBfKy2gtww+UgkgfJ8jT16gAv7ar/YWWN9IhxEpkj6JCCsx9iIKKiEUpDNDPHNXdrVo90pQWIixKOHSi6JQBJxJLKZouowmVSJIGNh8sPnomV/6hxBKImkqHFGxcdxxmvVnIh8d0ODiQgetbK+Jp+RMernMcoH5YbWlghlFzSYroO9fChObhiD6pfTUHeUiRMRYNInAkt9KqGMtESyOL/UEhEjTNRPZJKkJ0KGfrh0bDLKVkzCtsfzUfhcLs7uz0VQkHoih9cp8Zh4LsVGf9SQ0Di1TBoJryxEiPmciK5Evjl+QfyIVHIOubaZdFJL9UHCcVAsPZUYKBZBJKmP1k4ll5Fa5fzqrf4Q0WtArwG9BvQa+G/XAPECelbRM4uf4bS5k4WwcQgCJ2+H78xa+Os+Q8BvQTDsRTgUQEOICSW1LG0Es4uy+0g7kPElFAohFK5Hg+UQwm/lIWykH+3uLV5fh8306pdetVKrEaFDer3FjhbtarXT0c6Jd06vlIVf8pWk+uyBsLk7wuZuCNM49RtTEpBkhI0spE+vxOmzi71Uodfa9Lo6A2FzliLiZ3m6I1zVVZVuCIvPLSaLV930ujtKzCnic6Jh8bo9RbxWpVerccWsxRAnp/HyQ/2MX+TpRoRNlJeeV5Fzip/WinJD+bgBYWMXIX5TNmzFI2E73h/+8u4IG7sjbOijSi+EK7sibOiikesRNpAeSzeEDSSk2xXhym4IV/ZGqDITnrLhOHdwIr7dMwKXDxcoH4+gjx8YaE2p3uhjBoSvp2KP/FO/ELJPNgnv9QgbqSW5UWmpX8TSNTofoj4pz5IYeyJMIvJJOaBaoFbZlY3kmGvb2A1hkgi+7gibuqp9P2ENO1pffewqavnfuNfoedbzrNeAXgP/V2uAn3vi43f0vKNnPj3faGdyCALVd8F3Zj0CVz5B0GdDMORVCaUf4VBI4oohhEPhKIlLKEPhMBQJQRDKUD3ClsMIv1mgkAj6fKApQwGSMKH8Nx6wRCYEsSAbRCjpgUFk8gZFiDyZVaIryJBKApgMyK1IoEpQxGciSZcImURczPSFHyKFRCzTERbn5K+rKuSPMCR3LDKhFPbIpipijIgk2SB/HNdPfBhGSA7FRiTnpxBKynMfpchMRMiIUF6vEuE8hA30kQcqviSEDSmKVPZBuLIHwobrogll5Q0IV3ZXiSORRyaUUltJZFSxFTQqv1saquytEtUMhCuzETaQ0F9O9LnILIQN1E9kk4T6qS8N4Ur6DCxhSo2WSv4jg8ghk0f1Dx0m4XyRCUJJf6jwOK0LzaOLjv/gUIk31wzXpbDFhJLaf6Pe/6/ezPS49Ae1XgN6Deg18N+rAfEso2csPXfV55wxHSHjYPhO3gXvmQ3w132KgM+KYLBekMlguB7hcADhsEQoNWSSyGWHhDIYDiMYDiEQIvEjXHcU4VPDxJdWwgb6kgs94ImMyQ9YfhBzqz6E6WEsHsjcf7UtzeddKn6wEwGkBzcJHauEUPgi5k07WDxH9kfz1TEilxFSQbpafSampMc+uO0obtkf29C2so6MQ9t/teeEi2OhNtH56hoJwk02aBeQduCoJRtMzHjHmYklFWcvaeeQdySJZNKOoiRM2MTa0DjN47VVdwFpR1Po0Q4o+UxVd53V1qASx6jdaOojIsyi7kALXe7jWo23biqOSM1o9GIRSoGT9FjUvEdsJJp7XS/xOtVzpedKrwG9BvQauPoaUJ/xRCRpI4g2X4wZCNHPGp66C54zm+C78hn8Phv8IS9CIZ94Ox0KUxtQdihjEEneqYxPKEMhBENB+IWEEAj6EKo9hvCp0QhX9EW4UvnWtHiIJ0wo/40CYEIa1aqvJ8VDXT5mYqAmT4svQjhpjqoTr42QMSYMUhtvTqz+iB1NDmLpdtQXzw71dzRPOxbPDhFHmeQxGdTOjzrX+KZ8R41rz4lgEpkkUi+vkVbvas+1u4jS/E4xSbqESdQMtfJ6qf2MOdE2yoZqL9G5rBfLBvexTqItz5PbROeynjxXe8w6ibTauXyeyFxZh+fFamW9zo5jzee+zubK4zwnVivrdXYcaz73dTZXO87ztK1Wr6Nz7Vz5vKN5scbkufJxLN14ffI87XG8OfH6tfPl83hztP3yHO2xVrezc+18Pu9snnac52lbrV5n59r5fN7ZPO04z9O2Wr3OzrXz+byzedpxnher1erGO481l/vizYn0a7mL5lkU0eN+mbfIz6dEjsmG+vwVHzfLQtBYAN+p2+A5sxb1Vz6F32uDP1iPQKgeRCTpC9mCUNKmYjCIcLD9q+4IoVReZ/Nr7eiWCWUgGEQwUI9Q7RGETo1BqKIvQpV9xU+mhAx9EDL2UqU3Qkat8FgnrfhyRg+EDB1Jd4QM9HuCnUlHNmgsUTukR18aiWGPfh6nUxyMk3Tj2BG2fwY8EYzsM15LvjrDQ+OJYOosP4naIH+dSWe2uiMk1qQzO/HyIveTr87sdIaH7JGNjtadxmW/sY4TxZIons7iioVB7ksUjzwn3nFnWBKJKRE85CcRW53hofF4scj9iWD6ufAkYicRPDL+eMeJ2Pk/iCfhe/3PlZ9O6lDg+bny/DPY+W/g+Vnu9T/XenVL4NnTWZ67qvcW0utMSJd0kjrhXlouRue9EDKQ9ECoMhlB4yDUn7od7i/Wo772E/jqrQgEvQiyhPwIhQIIURskCSAUDCIUDMWULh0RSnrV7afX3YEAgn4PQjVHEHpzHEIV2QhV0I9HZ0MQSgGQHpwkDFhtK3siVEng40l3hCpJuiFU2TWO3IhQJQmPk24s4fHOWrYXywb3dWZDHqc5dM5zuZV1EjnmedzyHDqPdcx92pb12Y7csi7r8LmmreiKUEU3RdrFJc+VjzU2YuYkFhZ5bWPZ4D7Zl2xH7mfdeC35ijf3auyQfa0d+Tyef+7nGuzIjqzLx9pWzp3sX3ss+9PaoHN5XDtXPmddtkFjfBxrTJ4rH7OujF9rh8fkedpjtsNzaZyPtWN0rp3P56zLPmUb2jGeE6tlXe18Ptfaj2eD7Wj1ZTs8FssG95EO6/FcudWO8zxtGwsP6bAt2Y52rnweyw7b0I7J87THWl06Jx3Zlnysnc/nsezI8zguziHP07ZsR57b0bF2Pp+zHfantcF4qJ/nxGrZjna+fM4+Ys2X+2Sf7JftyGPyHO2xrM/H2pbxUL92vnwu+2Rd2VYidkhfa0e2IY+zPRmDfJyIHbYtz+NjGqM/4mIRSf7jQh0jPmW4UdGtpN9BjrVRF4tISn2G3ghWpiNgGIT6k3fAfWY1vFc+gK++Fn6/FwF/PYIBIpU+BIlACkJJRJKlA0IZpN3HOEI7k36SgB+BgBPBK8cRfOcWBCsLEKwYgGBlXwTpx8MrUlShHxLPQLBCK+kIVJBQfyaClSQZSlAVKQhUJCMopA+CFSxsk8aSEKzojWBFKoIV6ZL9VAQqSDJU+zSH9MkGHTM2tkkt26KWdQg32Waf3Eq2KlPEj6S34esjcBN2BT+Np4qYyI7Sn4RABev1QbCyDwKVyREhrG3jip0AYRBYCLsWE51TP48xPjk+xq5tSVfuY1vUyna0+aHxdDUu1iUdiouEYlVtiR+SZ3xkk+OncVp7WjteM9kWrS3FwBhlPOxHk59KsqXYE3GV90GwPAnBcpqrYhC1KeORfVAuVNzt8iz7T0aQ1j4qR2SH5sq1KNc8jVGOlDwpc6nGlB/aV2KlmEkYB+VYvTY4V+WpCJb3RrC8pxKbwMCYGWMvBMtJKH4JE9ni61C2IzBRjRF2yo1qR9ggP1JscfGQP4qN7GjyK+zEwcP3hlh4RC7JVooaC9nguClHhDdefhLBQ7XBdujeo96DKEcCD8XTU10zriHKJ+PhdeAxtsF5Tm+zI3KgzQ/5pjUiO2p+xNpTzFpbaWot94iRZ9UO1Q7nRxtXZN3ZDuWRao2xq3mO4NHkOWrdqa6pDgm7ZCey7nJcqh2BR45LvTY4z7IdvlZFLjg/kp92607rRXFp8fB1cTV4JDviWqT8xLJD6yDnT1uHbIfWVdWLyk+ytO7yPSrWupOuHD8/UwgXXZtqnYo6olilPEfWnWqR89NLXXc5LvJBONTrhtaF72VRa09xMR6yQ/7pHsb3XRUP4xXrTrY4Ll53xkP+2A7joZbxqHFH7uE0X5trDR7xrJTxSHHLdqKud8JDdggLrRff8yiXsfDweDw8UlxRz27yQXjUuhB4YuRHvvcJ/6RDQnFli38CEuB1MWYiaOiKoOF6BCu7IljZS/CKoKEXgsZuCBq68tlHRgAAIABJREFUI1hJhLE3gkZVBIHsg6CRJAlBA/1b5CHwVt0F9+lXUF/zMfz1FpVM+hDw+xAM+FUJCFJJxLJN4nPGLp2RSV8wAJ/fD7/fjYDtXQS/XAn/Jwvh/3geAh8/Dv/Hc+H/+DH4PyKhY/Wc+kT/XKWfxj56XBz7PpoLIR9T+xh8Hz0K/4ckj6kiHQu72nFVj+axX2Gf+lXdSD9jI10ae0QRMZfnsw617EtqhS1VJ4JR1WU7HC+3jFuMy/bbH1P8Efn4UfhE3iT7HJPwTXmUbIg+wirnLk5ckdhIV2OHbAo/Un54TWR/Ip5H4P+IJJYfwja3zZbQ4RpQcCtrzvGp/shXJGdsX25pnHU4fvKjHvO6Csza2FS9SK5kW3wsrTfHzTllXKKf9dQctsujFLvAJK0N51HYleLm2OnaEXVMNhhzDD3GJfDQ+MNqXcv5kXIQpafiISxRdsiG1g7jkXU1eCI25PohO2qeImsm4yFdxq3Jj7BHfeyHWo5LwhPBz3YkvYgNtiPHJdvi2tHiUTFFfLAdxkTzGEu8uEhXts851OKV8ai2BH72Rb7j4ZHjUn3xfTCCXeuPcXCrHSc8HJuMnzBI/qJi4/zI43Jcsh3Zn4ohgpXO5XGyEQ8P6bHI+aHjn4pHtsP5YVvkKw4egZ/05PjlmMmWdlzOT6x1V/1F5TmGnVjXl8BD8zV4RF1xXPI41w610toLfU38neEROWI7cg608TMObmU8nGe2I+cnhp1I/uX8SLHTeLvrIoadqPxo4o7Ks4on4pd8kdAcOWYZD8VHIq+7rMv+qFXtiGfAk/B/SPKEGsP/IHBqqEIcK65HsIIIJJHEGISSiaUglEkq+aT/IJgHT9VtcHz6MuovfQy/2wq/zwe/34+An95Gq0JvpoXQRx7jk0iZQ8YllLQz6SMJBFTxw++tRcD2JQLWLxGwfY2A42sEnCTfqC0df9VO/M6v4Bd6PP4l/E4S6teOKfN5TNgnP46vhHC/30HzvkRACONQ7CmY2uaIuQKXgtXv/AaKsM6Xqn3lnHxEbBBu1beIV8SsiTEyTv2qLTGP8yLpR+ly/Nx+LfIk/DsoNupX+qLySmNCCFsHYv8aARbH1/ALUfKoxMR2ouPl3Cg41JgoJwI72VHzx+vC68C4uAYc3yDg+FatEyk3tHaERcRGOpQnzpESd9s5++VWXg+lry1Hci5ojONT607OfeRYXa9IHhkH+5Nb2b6Mg+uQbdEcde05RxEsbI/mU+xsh7FyS3pKvUaur3aYCSv56cgO2ZPstPPHflQ8kXVmHHJL/tiWFrcaV0J4tHZkH2SXfDAe9TySP0lX1EwCeCJ51mJmWx3hUfMj1pPXlPp4rtQKPB2th+onUhtqzqJscR45LlpbyUekBni8g/xErTvZ0eLW5lk7zn7l/GjtcAwynp9ih3zJeMgGxcYY5DYBPFynkbWPhSkBOwIDr3tH9aOuu7gWtb5kPxQjjWt1KD5ZT5tndVzoyHjkvPAx2ZbxaPMo++kID9+LVVsCM+PmGMhWIni4PliXsVIrrzvnmP3IeongUf1czbqL9WA/5JcwkHDcfM46Ust1Fm/dOTYad3FsXyDgIGE7vB7sh/W+QsDO8iUC9tPw15YicOZBBKsGKGSyohuClT0RNPRE0Ki2YtdS3aUUx7QTq7x9CVTkwWuaDeenL8FT8wF8Hgv8vnqVTNKbaCaUKokkIskS5012FKEkVhpLaFdSlno693nh9zrhr/fCT8ckfk+C4ha7nLTTKXY7acdTFb+vMxvkJ4YvmheZezWYJHtsQ9sKf5Ro1W/ET2dY5XHJT5w8BfweaCU6pxKGiA23EjcVwlWLnEdeExkzH8eIW+RIWnfOWQQXz+WWbMTA7/MgEMlnrBxxH7fqOrO/qJbxkB9VRG0SBk18UfO0NskO5ZN8asf4XNLR2mJfkX4Nds6RPM44I33sR215jqhBFRf3Reao8UfONTa4v0MbNIftUBvPBuVUiouxUBuZw3bkvhjHsexEbJA+2+kAD+nHsiPjofHO8hxlp4M8s68onJrYWCdmblS8PxeeSI40GGR8neGJ2Eg0z/HyI6/ZL4CHcHcUm8h/AmsfsREvLrbRSX6iaojWWRVeiwieDnITZePfxMP+RHwx8Mj5Y4yx2k7zk+i6q7XfEZ5ILXaUo07WnXMobHVgJ15+qF/k4Wda9yg8HdSQwCOtkzin55cLfr9Tba3wuz+B//Mn4Ddnw19+vSIV3eCv7Al/ZW/4K3spUtEL/gr1nI7L+8Bfnof6yjlwf7AC3kvvweetgc/nUp97Eg/0+eHXShyeqOWOXbQdfO7z+1AviZeOffWCVBKxFOL3wkcP8QCLD/4AiV8SHwKiTxnzBXxgoX56Xx9gsFHzom34/T5lW1YEStuzPvh8RHIpeB7jVk0I2Y1pU8XEfrmNJJHsEDlRY1HJNZHq+oAfvpg2tb44F9H5oLkslOuATxXxOVXFRmRc+FFyxFvSSjxK/AJfJC+aPupnUfMTENvaCh5eg2hf5F/BLdaM89Ku9UHY4nxRfuS4VNxsi9dA6Ki5pDUPROlp86eet/MtFb4YozhVIsl1pvqgGqY4IzWZiC2RK9UHxRc1h+tL9SnFL/TIF68H516eT/HSubArrY+s0+6Yfca5yLn2eZ4WU+Sc7VDLGCQ8XBtsR9tG5sSwExkju+o4z5fHuE+0MezwuJjD+ZExSusRsct2EswP+9C2tHaMPWJb9sdxES6pn48jc9iOBk9ErxM7rMd1xHbllnQYq6gzyRfPZ31Zl/uojeh1gofnRPCQvuSPbXWGh/3Fs8PjWjsCv4xX9R3PTjw8bL9dy+uliSuip8kPx87jkfNO7MSKi21EtTHs0DjHxXFTy/2RMWldxBjb0vTLY8KebL+jXEt67FMbVyQfkh3yJyRBPKyvtRU519gR8ag+tHjYVsxWY4djYt2ILbYtxc8+SYfXhPHJdkSf5l7G9rWteB5qn4P0/GJ+5YLf/Rn8n8+F35wKf3kXRSpuUElkCvwVfeBnMlmRBD9JeTJ85X1Rb5gJ9/vL4f3xbfg8V+DzOeHzueHz1aOeuVQkLqlm5Hi0mDXnXXw+ImaxhW8cTNxYL3IzUxPO/Ym0PDcR3WgdP3z1vjahJNSTqH1Edv0kPkXixKTYJCIaO+a2+bF1CH/cue3GfrqNaD+x7SSOI3ZO4q9FJ/5EjmkHOzoX0Zh5rM1WbH9t41cVT7tcs7+2Nra/tvH2/hLAIscsH8fEE8eemBdjjPpZIvbUPGv7+ZxacTOQ4pLHxDiPxbDFulob5J/HuI2FiftYh1qtLXlMjKt4BPHX1Cbram38nHi0tkQMMXLTTk9aM8Ypt8KOGj/3R/qkfHYW20/Bo8VK/iO+O4lNi4excxvLDvexjvAn5edaxKPFxDFQ/FFxcH3ymlFcUmyyroibcy3ZidhmG2pdyP0/FY+MRWsjHh65n/HLdrhP20bwamKT9WQ7Pxce9iv7oWPuJ588pvWpxdNunO1INmTbbFf0SeuutROZQ3ZUWxF8P2XdGVeslnB4UO/+HL4zT8JnSoevvAt8FTfAV9EDvooU+MqpLw2+imT4KtLgK88WUl+eB69hJlwfrIT3xw/gc9ng89LmYD189SQ++JlHaVs5ngSO4+5QRv6C1TDQ/1p/vR9+IZRsSoINXncdvB4v6r0+QSzr+a+FawWzjqNtJ0TPhZ4LvQb0GtBrQK8BvQZ+Ug34/G7Uu7+A78w8+E2Z6u5kV+XVdkUa/BUZ8JdnwF+ZAX9FP/jKB6K+fBDchptgf38pPBfeRr3zCurdXvg9RCJpFzLGLq2803oVu5PEDbsou3y823fttN76ekSJtx5erxfeeg+83lp4Hadhv/A+PA6L0u/1or6e5dqJ41rNr45LrxG9BvQa0GtArwG9Bn4tNeCC1/U5vH+bh3pjJurLuqC+vCvqy3ujviwN9WXpipRnwFueA2/5CLiMt8L+4Uq4LrwHr+sKvG6X2ITzetr4VdT6i9ff9Ar8p+XkmiaUnvp6KOKFp94Lr9cDj9cCj+MjuP6+DTV/2wuPrQZetxceDxFNnVBGFYf4SMBPKwzdjp43vQb0GtBrQK8BvQaulRpQCGV9LEJZnoZ6EkEsM+Ety4XLcAts7y+D6/y78Dot8Ljd8HjcKo9SORXxKiEKwfx317qL2PWjnb9rTDxeD1yquL1qIjxX4LF9BPc3L8Nx6o+wfLgBHutleN0eQSiJVHqusTiutbzqeK69WtfXRF8TvQb0GtBrQK+BjmvACY/zc3hPz4fXmAVv2XXwlneDt7w3vOU94S3vDm9Zb3jKBsBpmAHr+8vgFGSSdiY98NDGm9cDd73Crdxig444k1v0E3fSSsd42q/XNUsoiUw6BaF0w+11wuOug6fuQ7i/XA139S3wVEyA9b3VcFtq4HF74CbRCeU194fB1Rakrt/+ItVzoudErwG9BvQa+P+9BpzwOD6H97P58Bqy4C3vAm95V5VMXgdvWRd4yrvBaZiIuveegePc2/A46uB1ucVrbiKLCq9yw+V1wS2E+BWdk3jh1sjV1lwXsatHROwaE5fHDafHA5fHpZBJyxl4vlgDT/Vt8FQMhqdsJCzvvgyXpQZutzsi11ocOp5rr7b0NdHXRK8BvQb0GtBr4NdVA0647Z/D8+l8eAyZ8BCBLLsBnrLrxbG7rCvcFQNheW8e7D8a4XZegsdN/MkNt4fEIziVU3Arl+BWxK/ahPiWsjFHLcnV5ueaJZRKApxwu2vgrvsAni9Ww2OeBk95DjwnMuApLUDdO8vhsF6Cy+WKyNUmQNe/+qLRc6bnTK8BvQb0GtBrQK+BX7IGmFAugKcyC56y69rkxI1wlQ+H/Z0FsJ+vgtN5ES63Q/ncpNsFtyCOtEnHohBJpZ9JpUIimUz+egklv7JWX1srO45OuF1XBJl0f74KbvNt8JTlwFNKZDILntJc1L7zPOyWi3CqhJJa8dr7JzBr/cL4JS8M3Zdeb3oN6DWg14BeA3oNJFoDbo8DLvsXcH+6EJ7KvvCc6Ar3iV5wn0iGs7wA9ncWwnXWCKfjPJwuB1wu3plUWuWtLxNKN1weJ9wep7RDSX0KqVTeDqsfI7wKPtVFfl38Xz12uZUEuN1wuZ1wOS/AdeUtuM8sg9s0De7SXLhL0uEuTYG7NAvuktiE0iW9/v6vxqPjiHwMQV+Hto9k6LnQc6HXgF4Deg3oNXD1NUCE8nO4P10Ed0UB3CVZcJUOha3sZljf/Suc507BbbsEl5PIJL21VXJMnIh5ER8rrQtutwsutwvOiLjhdLfJ1WL87xNKlUi2vba2w+W8COeVU3B9/iJcpplwlwyAu7g/3CUZcJf2gftEJtwleah9Z2nbDqXTGUnE1SZB19cvbr0G9BrQa0CvAb0G9Bq4VmvA5bLDaTsD18eL4KLfmCwZCmv5bbjyzjI4zprhtl+C2+6A2+mCm97WdrqppSWUbUTSoZJKJqKd21LqpksbkWv7HOIv3ud0wUmE0GmF0/EDnDVVcJ55Bi7zVLhKBsJV1B+u4hy4SjLgKu0DV2kmXDKhFHOdcLhckdffv3gM0uc4dd//xVrS1yHyeWK9DvU61GtArwG9Bv6P1IDTBqf1NFwfLYKzbBJs5Xeg9t0VsJ59G07bObicNrjstCHHO5SJx00fFyT+pJWrrZ1fnFAScKfLGS2CENrgcPwIx2UznGeWwmmaDFdpNlzFJH3hKklRRSWUxXm48vbzsNVdgMPphMPhiCTjapOg6ydeeHqu9FzpNaDXgF4Deg3oNfDL1ECEM9GGm+VT2D96DlbD3bC8+yJs352Cw3oZTocVLodNFSKVzoQ3FhT70WTSrpJLGruadf6vEEqHywm7ECKBTjicNjjsRCZPwXFmCZzm6XCV0q5kmrormQpXSTe4SpLgKklWdiiL81Dz9vOw1l2A3emE3eGA3akk5WoSoOteXcHo+dLzpdeAXgN6Deg1oNfAL1MDMqF01P0Nls82o/b9tbB9Z4bDcg4OG70Kp91JG1zUOhwaQknkMr7QBp/gYaJVONRPJpTKq2Z63fzLCO0mEgG0OR1C7E4b7PYLcFw8CcfpZXAap8FZMhDO4gw4S3rCWdIVztLuSlvcB84Skkw4i9oIpc3hgCKK7V8qFt3PL1Mzep71POs1oNeAXgN6Dfz/WAPiDazTAYfDCoflO9T+801Yzn4Iu+U87HYLHHYilFZVbHDSucOh4XR0Hl8cZF+Mt9UY+b3afHcRr4rpdfEvKLSbqBBAK+y287BfegeO0y/CYZwNR/EQOIry4CjKhKOkKxzFN8BR3B2Ooh5wFCXDUdwHjuIMOIpycfmtJbDUnldtKTbJ9i8Zi+5Lz7deA3oN6DWg14BeA3oN/GdqwA6Hww67wwa79QpstT/CbqmB1WGD1WGHjfptVjhI7DaxY9mGQ5lL8x0O+lihfM7HSr8goUREVWmzkfi6/uKEUryaFskhMvkj7BdPwX56BeyG6XAUFcBRSGSyPxzFqXAU94SjKAmOonQ4ilIV0RLKK+dhtdvVxDrEq++fkgh9TuJFo+dKz5VeA3oN6DWg14BeA79EDdhht9tgE2KPtIL32JVzGqedSkEoRUtkkbAxkSTSaFVJJR3Lwv0856fH1MVuJ7D/ObGJgO2w2eywC7HBZrPAZiUy+bZCJo2zYS/Ogb2wL+yF/WEv7gN7cU/Yi5NgL0qDvSgL9qIM9TgZ9qJ02GmH8s3nYKk5C4vdKsQaSTonn1urugh8/nO0tJAs8ezx4scbv1b7rzXcOh7lZvKfrpf/n/N8rcWeyFr/nJh/TluJYO9M51rCQ1iuNTyd5e/XOn4t5TnRHHZWH7HGiZMkyktIzwKr3QriOEwk2/iOFTYb8SrCG8su93XWRser+COfic/7jxLKCOGyqYTSaoPNWgeb9SxsF6pgO70cNsMM2IoGwCZIIpHHZNiLu8Fe3AP2YjpOh704Q21pPFUllANR8+bTsF78ElbrBVhsJBdhtV2ShM5lkccuS3pyv3zMOhdhs5FcEmK1UT9LjXosz6NjGm8/xjaoVbCyHT6P1bIOtcp4mx2Oub0O60b7abNB/W122G9ndkivvU6bnavFo+SobX4bpo5wdxabbC8W3uj58WLXrjvH3n5do+11lB+tLz6P1XZkJ9E8M2a2pfiJzk9sneiYYuu02fl38MTLczTmq8OjxJnY2pMfeU07w0P6bF9uGe9l2GwkbbVMx8qcNp3YNkivvU6bLcozCenImNm+3La3Qz7bbLFubL02fO3H22zIeFiP7WpbHqeWxzrLNevJbXs7bXhYr71Om0/WoVarFwsP5ZlEnicfa20oY9GYYuu0t9ler72dX3Ld2VeseuY6ZMxyTuRjHqeW+2PlOZYe63MbrROdG60On3ONUst90XaYJ5A9RUcep2Olv82fbItzFK3Dc9quVbmGLsBqI9HmUPbLWKjlGLivDRONKfyEWu24dh6Py23b/DbMlwSfUngVY41ubdbzsFrJTi2stjrY7HXoEmG2zHD/A61dEEkrbJZa2OrOwXrxTdj+tgw20yzYigfAVpgJW2EqbEW9YCvuDltxT9iK+8BWnAZbcbpGqI+kH+qqH4T12yJYfzDB+oMZlrNVsJytjhLr2Wq0yUlYz56ERRU6bhuT9fhY0Y+t02aH7FnPVqnCc0/BevaU6ov7tK2MRzvG5+RHsRMfL9thPZ4rt6RDmKiV++VjRactP/IYH7fhUeLmfrlV8Ci++Fgep2PFVxsmOq+GTRUFo6LTGR621TGeztaC6obzp2Bpn6doPFRrsXXa9LTjFB/nRYkrlg2lLxpPfEysFx+PUouK33j+OD+J+CGdRPQ68tVZLbbhSWRdtXlWzhkn2/r38PC6xY6dfMl5Phmp5baaTgwPr2ebv1i4FX8dXxsynlg2qK9zO4ynY1+ynXi+aB2UtYi9XonhSQRztE48PG33MkU/lp4cFx13phNrnPpkO/F12vKTiK+OdeLH1IZH0SE7sWxx/fC12lbTbXmgeZ1dX3Ke48feZicWFsbc5q8Ng9Ym+VMkng6PU9teh/rabCi6Wh/KucI3KP62ceUeL42fOwnLuVOqsD/mCxyPOi7wKH1ta9Nmu62P7chjdEz9smjHFR2Ov33ssg06JpzmiFjOEs8iMYm+K+c+QN2VH2Cx1sBmvfILEMooMnkW1gtvwXrmJVhNM2ArzoPteH/YjmfDVpgEW1F3hVQW0XGK2LW0FWWobbrSFqfCVkxjfWAtnwjrWw/D+jbJg7C8fZ9G7of17QckoXPW4bEHYX37L7C+owodC1v3w/I26dB4e6ExxZ+sQzYehPUdxaeicy8sb9+rYpDtMC7CwzqSLWFHsdVm574Ydsgm2WI7Gp2YeEhH8hWJr82OVYv5qvGQfRayq42dxyg3JPHwUJ47zg/NVXQ6iot1NL44rrcfEOsd01cEu6yj8cV2xNprfcWKn9crDp53ZF+sE8sO+9LgIcxRa6/46zzP90SvhRRXWx0yHnlNuQ4ZD+tImH8SHo0dCY+y7nJcki+xZnR+NXg0sUvrruSNazZ+rSq1TJhpPTrDo9FRY7OIWqS4GE88O1xDhEfSiZlnja+o/LAvSUfKs4yHaiDKVzs7dK1Kdmj8qvBQ3TMeyZeER173dr4kPHxPbLcW7fBQnjWYI3ba8ETFHoWHdWLEHrFDsSjr1c6XZItjjx9XB76i4uK6jxUXXauERxauH+X5p6wx9ZEO1TMJ6/B1r4wrmPkeLenExMPXM9vg+wbHdU+c+uHnKtd8fDxKfilujo9iekgV9kfjLKRH/aRDujIHUNaUrgF5jPSV+yHh5djJDum1iZIbwkzrwcI5olbBqOgp4215bsMi22zDzXYUvEoMZI9j53E51+yPfHH8Wj3GReP3wPoWixInx1T39qM4/8F61PzwHix1P8JqrUEXq9WK/5RYrFZYrBZYrXWwksPz78D66UpYjbNgLeoP6/FsWI/1hfV4H1iLusFa1B3Wwt6wFibBWpgCa2GaJKmwFiXDWpwCa3EarEW9YC1Mh7VksNjltBb1g7UoHdaiFFiLaDwd1mIio5mwFWWpbYaqo44XZSk4CEsxST9Yi/vCKvpJh3xmwFacBVtxtip0THYYTxqsxVnKPJpbnK2eZ6pYkoSuYkNjp4jsEF7WyVTnkw0W6ovWacOSrcQm8JBOb1gF4SY8PJ/xsC/KNZHyzOi4RI7a60TbIVvRcdF5ezyUc9pxVv8ooHUQ+esLWxHlkcZpbZQ/DGxFyeq5lJ8oPJSfFDFPybUcG+GhtUgSscfEI2pA1Ylph/JFeaY1p/wkq/nhNVfzLNaL7JAO1aF2vVQ7jEfViaoftRZpnZR1J18Zas1o4orCE6MOi6TYhS+tHcbDcSmYo/DQupAdgact9ph5lvCIa0t7XQg87IuuVQVzWw3JeaY1pbcQ2rgYD9lp07lqPFRnYt07wqPWczHdNyj2+HjoIzlKvaapf9hyrfZVriPVF/2hq9Qz6UnXBt+DIjnsA6t4+0I5kdedzmU89IaGfVE9Kvcy5R6nYBb64h4Uy06yct8k/FF21JqO+KLrR7teZC8aD2OOvuapDgkz+SJMiq/ouKjG2utE26E4OfYk9c1UvPyovtQcRuyIdacctfcVjYfjIjtUZ/TWS86zWj/i3qrqELaYeab7JseusRMTj6LTHg/bobXQ2FGvU+XZw3j42aNdd/k+HsuOkh/lHk33adLhWqV65muHa55qmu7VrKPeF+k5GXn2UA5T1fzIaybrUG3wsyfWvTX6ORc7P+pzTuChemU7tHYUl2YDSlyX9Nyhj9WR9FOeQVF69DwinRzYivorOoIH8HooNU14bMVqfkQd0P2W7ql0r6P7OMVGmChPVO/q/ZnGxTOBapJs0hjp0T1Cyb+4nonPiLqlGLS1yNcr2ea3tuxLfa6qz0yxnuIa1KyXqG/CRBiodmi9yBbFT/bl53M6bIX0XKbNPRb1fkPXeHEf1JXk4EfDvbj8TRnqan9AneUKulgsFvwnxGqxoE5IHSx152G58C4sf1sDi+EmWIpyYDmeCcuxLFiOpcBy/EZYCq+HpZDarrAUdoelqDcsRX1gKUpWpLAPLIW9YClMgqUwDZbCFFUyYTmeAsuxVMXWsSRYjicrfcdTYYkS8kVC4yQ0ng7L8QxV6DhN1ekNy3ES1qN+0qf5fdSxXspxIfXTOOuwHs0nzGyD+mUhW4RXtRM1pupRnAKH7Eu2Qces01PCE0unE1/CTqI6nfgS60C2CBsJ4ZFzRH00TjlivU4wizz/VB1aM8JMvrQ2UpVaEutKeY6jE5UfqkOOS2uP5ne2XleJp9PYO8JDvjqLi3VoPbTxUH6oj3US9BUzP3Tdcuy94+SQ8sq+4unIeBLR6aDGBB7KD0m8NaVrmGxQyzraeibMXM/xrnnqJz+kx3akfIs8sw7dO2LoiPVhnY5il3Ri+YqyEyf2dnjIpoQ3ckz9FBPhiaMj+jn2WDoUK/WTjhp7zLqXdWLZIXzUr+KJ3MM1uAUe0iF/8ewQJsYTT4d9dXSvZx3yF8eOFk+s2EU9dIaHMPM9KI4vwiDu0VSzco1pa5rsEGbS0+RPnNNcNYdx113GE88O54dii6fDvtRnTxRuxqbygqgxikn7jCd9skdCx6TDXEDLAxgT6ZKe5EuspZwjtsf2eYxaHqOWYqQ+EjqmPha2L7fyurBtylmsXGntyJh5Ls1jv+xH9kH1QXF3iyHdYTlGXC0Z5yv+gMvfnkBd7TnUWur+M4Syrq4OJLWWWtTW/Yg6IpOnV8FiJDKpFs6xdJUAdoOlsItGroOlqCssRT1hKeqlSg9YCkmXWnqgJSsPOb7hHUuDRdgkskmJUQuoMAMWWUTRUMGoUpgOiyyinxPLLRca2eRiUx+ygtzK46qO6CcspCfhYVxkR/hV8QqdWHZIT7JDcyI22JdWR409osdHD1ovAAAgAElEQVTjkh0Rh6wn42HMWl/sT7LTDg/lm+apuaPcR3DwseyL49f6knVUPO180RyOLZ6OikfO4U+NnfzLdtrhuYr8yHYSwdPOVyL5iYVHW4sx7LTDEyOH7fAkqNPpesXA087X1a471xjFHqvOuJ7pxqod19RzrHFR31wb7CuGnUjsrBMDD8Uq10as2DvVkde9A18RPHTtxLnm2/nS1o+87uwrXuwcm6rXLpc8znjonO8ZakxRmNmOrBMLT4w8R+yQjTixCx3CwHhixB5lh2z9u7FLeLS2xFpcLZ44sRNuvkeLY00OqaYja6/mOSYeHuMcau0QXhLWi4MnosN2tHmkc7aj6kTVhupXftZHjhmDtqUYWaQxkQ/VH+WI1l/kivvkGKmPYmKhcxpnXbVfxK/6iOhKc0T8KpZ2z0vVnsi/bJ/nU8v9Hdlg3KTLcxknY2PstEFHhJPIe09YCll6Kf3HeqHueBrOlf8Bl74tR23tedRaLP8ZQllbR0SyBlfqfkDthXdQRzuTxltgKeqnAiT2S4SSGDDtTGoJJZ0TAybyyIF0l3YxqY9JJRFUYuScUC4MLpSOWtaVW9KXz/mY7fC5tuXxzuZfrZ7WD53/HDa0dhLF3RkerR0Zq3x8tXZYvzMbv1RcsfBoY/9P6rBtbSvn55fEk6ivWHpXi1kbM58nYod0O9O72nHSZwxyq7WTqJ5sQ4tXO8bnWl/cr20T0ZN1tPPpXB6n40R0EtXT2pJ9acf4XNaJ54d0E9GTddi+3Mrj8XxpdRLVk/3wsWyL++RWHo/nh/Q709OOx7Ml68k4+Fge52Mek1se41Ye42Meo5b75FYe7+hYnsPHWn3u5zZRn6zPrWyX+xJp5XmxjmUbPC730TH3d9Zq58lz1THahY0ilLT7TuSSdqPpjXAS6o6n42z53bjwbRlqas/jys9NKOsstCtZhyt1Nait/QG150+i7tOVqKuknUl+NU07iRlXQSjVQOg1eOF1CvmkbVh6/S1eidOrcPqLhZKYqRae9NeQ/JeRfhz9l6KeDz0feg3oNaDXgF4Deg3oNSDXgNjBlHcoNYTyeBJqVUJ5ngllXR268Ovpn9rWitfbtCNJopDJK0QmL7yD2s9Woq5iNuqO90edYLQpqDuWhrpj1Caj7lhP1B2/DnWFXVShY5YbUVfYA3WFvVBX2BN1hd1RV3i9Mn6cxqgvCXWFfVBXmIy6wlTUFaarLR3roudArwG9BvQa0GtArwG9Bq6lGkj5lfAT4lbEs0iYh1FL/b1RW5iGs2V34/z/a++8/6Oqs/8fIKS3Se8JoXeCIAri6rpSVUCDiogFAgrSIkRKkF5DJtNnEpDiflzXAshSBKRmZu70O1X+ntf3ce7cd7gZJ5kJYNnvvn84j/e97/e555z3ua9kn76HyVrPIxTxIfLrEwJlFCB/ReRhRDqVDP8aQiTiRsT3PX69uR2//vM5POwqxUNLPh5aCvDQosJDSx4eWrJlmExTACVBYprCCCCVGyG4lNe76TkGm7TBbG68B1wDXANcA1wDXANcAzL0EPjI1p2Hh2TS4RMbaY0dRhHksfnHGen5fDzsli1uLPKhQzAy2Z+N0nODzTvYmqk26gPtO1e+VuZU1kTzVKcSKIm1mGXi124VPOcWwf/gPCJhHyLhX5/shPIRUIZBMBkOexDxXcKvP2/Dr1+/iIfd1TJMEkgWRqGyi04nc2SgTMdD6bSRTh4JFlnxgx3ZJvn46IXzXvBecA1wDXANcA38D2qAoEkCJ/mwqZv+zR87eKJ+MMYguKLTSxppnSBKCVlJXEugKsNYL7hSvNhnWY5sPOwukL7U0gug0j35x3suNo4Mhb254qz3yU0xySgn9YW+UEOHejJUSmssL4NKipkMUC5E4ME5RMJe/EpAGYlE8CQWikQQjgQRibgQ8V5A5MZORL6eg0hXHSLmckTMJYhYihDpUiFiKZAtH5GuHES6MhHpSkekKw2Rrgz5PguRLma0rjQ2z0a2xu75+Kh3vBe8F1wDXANcA1wD/4saIL7IQaQ7O2q9TEG9IG6QeaM7F5HuPESkkfzZPc0lYafyEOkiI6Yho2uKkYsIrZGx+F3ZMttQbcRCqr5cRM8PlF+KJcemHJIpc7BcylH2l+IWINJNe0xHpJv2L9dB9UnXFFO5D8Zo1K9YDdGcCp6zC+G/fxbhkAeRUORpACWdTNLH3BcQuf45IufnIGKpQMRchIilEhELASU1Lg8RS+4j620ug0I2xhbO73/7MnlPeE+4BrgGuAa4BrgG+mqAOIJgiSwX4W4Vwt3FCHcXyUbXUYt00UEXQVyWDFoM1hhgMShVQhm7ZtBGEBYPKNk6rTHLQdiSj7B0wEYsRExULJucUwI/ysFgmEaqg+WR/XoBUJGHgWsfEGbgSTqJAm24Ox/hrkKEJajNR8RCEEl+8n57cyULlGckoAyHwkgJh8MYlIXCoAfpmVA4iFDYhZDvIsI3WhE+NwthSwXC5kKEzSUIW8oRthQibMlFuCsL4a502TIRtjDLQtjCjfeAa4BrgGuAa4BrgGvgSTQQ5YpQVyFcxlG4cngcvt09Ht/uGodvdo/DN21R+9fusfhhZx1uHyqC30h8Qs+lIWwZrhhTZU7JRdhCMJgh3+dFuUaCsmyELXSvinIOu+4qkqGNRrIShEyVsLY34OqeWtiOqxAw1cB6cjRuHqiBo6MEITPlyUPYXBBloq7hCHdnRNlJAlFiKRXC5kyEzVQn1Uy5CyQ4DHflIUwQLeeTRkspwpZihC3pCFtSETLnQ+isw7X9Zeg5qUKoi56lZygP7Zf2SHsio/fQH6fRvAruswsh3juDcNCDcDA0SKCUYDKEUCiEIFnYg5DvAkLXWhA++5xE3mEzNaREBkraPBWWFi22ayjCktGLYy/nScTDn+W/fLgGuAa4BrgGuAa4Bhj85CBoqcPNk7Ox54Op+PDVeqxdWIHmReVYI9vaRaXYvDAP3euy4OzIRticirA5BWGLwujenC4zDMUeJkFZFC4J5AgAMxAmEDQXIWwmDQ6X7+kwrUw2grpyiIYx+OaLadj9ZjW+bVHBrZuMb1obcXRFBS7tLEDQmI2wKQdhUz7CZmKkYVHQpcM4Ce5yETaRDUPYRLUNkUGR6qBTRwJDqoVyV8jwWYywqVTe31CIhkJc+HIcvnxHhfPbsuGnuF2Uh2JRTOoD7Yn2TRBK+2b5lWNfoAwGPQgFw0ghOByMBUNBBEN+BEMuBMUrCN1oRejc8wiZaxAyFyNkLoqaJRchSxpCliEIWVL6WtcwhLoyEOrK4sZ7wDXANcA1wDXANcA18IQayESoiywXAcsIXD3+N7S83Yh1i0dAu3E0Tm0fg1PbR+NU6xicbh2Lr7ePwo39VRD1eQiZhyFkSkHINAQhMzHLUIQswxAyZ8o2PLomracjZE5HyDI8OproPg8hGqX1DITMKtnypVPBUFcRPMbROL19Fj57rQHnNhXCqWvE6ZbnsXNZHf69XQW/MRshMzPKTfEVHGVKQ8hEdVCdKQiZmaUiZMmW9k17D5nLELKQUawchEwFCBlTETIOhddQiv9rm45Nb1TA8lk+RMrXJfMZ1S7Fz0LITJaJkIX6GY/TaE0F19kF8N37CoGAG6FAaHBAGQiFEAgFEQg5EfBdQPB6C4JnpiNkKUbIVIaQsTo6sibQi6FNM6BkDZBeVgZCliyFMTHEK57PxX+pvC+8L1wDXANcA1wDXANRmIwCpd8yAj8d+xu2vjMZO5dX4e6JKvhMxRBNhRBNRRBNpfAbqxAwVCBoIggbjoC5AB5DHQRNLazqKghqgs18BI0ZMmgNRciUgaCpHD79KAjqBtjU1RA6KZ4KIQv5EYjRx9cZCFpU8OjLYFNXoaezHve0k2HaPhufLh6NsxtLIGgno2vr89j25mh8vX0kBF0DrJo62LU18BoKEKBYVBuBpDkHQUMtvNoq2DuLYDtZCFuHCi5dPgImAlgCwxyELHnwW+rgMY+HXTMG1o6xsHeOgk9fgpAxEx59Jb5uex6fvdEAy/oS+I05CJlTETAUQNSVwq8vQ9BIPFeEkCk/ymcSpMfqSwbKM/Phu3sGwYAbQQLKYDCIwZkXAfE/CNzcjsCZZxC05CFoSkXQWIigsRJBUzGC1EzzUARNKX3NnIKgZEMRNGchaM5F0Jwnj3SfKc/TNTfeA64BrgGuAa4BrgGugcFoIBuipQoXT8zB1ncmYvfyIlhPpCNoHIKgSWHGoQgaUxE0pUE0q3C7cwJMn0/F3lW1aF1ehLYVxTi7OQs9J7LhN6QhaEyDaKrB7fZZ6P6sEfveGY9dTfU4sKIAp7fk4YEmX2aYcvjNlbh1choMn41D2/Ia7GmqwMk1I3FwzfNYu2gUznxWAkEzEZatz+GzZeNwaPVYnGweid3Lq7D33TKc2lyIuyfK4TeUSoDn04/Dz3unwtDcgC/frsbupdXYsawaxz4sx82D2fAbKTd91F+FX7TPwtTaiC/fq8cXTTXY8145zn5eBGdnOTyGBpxvex7rl9TDtEEFnykPPkMZbuwbiXPrK3BxezFc6iIEDSoEjbkImojJ4nEZzang/GoBvHe/QtDvQtAfSACUgSCCzPwBBP1OBDyXEbixA4HzzyFgidItvZCgSYWgqSQ6mrMRNKVLL0qCTXqJBJIW2Qg2JegkkWTL8Nhf4YMREvflv3i4BrgGuAa4BrgG/jc1EOUI0VyCi8dmY9PyaWh9sxx3j+XDpy+QTQWfLh9+fSaCxuEImIpxs2MaDjWPxycLq7DjrVoc+KABre+NwNoFRWhfk4e7J1Twm6txR/sCdn0wFR+/WoYdy2uxf2U92t6tRvO8fBxbrYKgLYffUo1ftNPxxYfjsGZeIfY0leLIikq0vtmA5a9MxPJ/1OP0piIInRNg2PoCVsyfgpV/r8L2JYU48F4FWt9uwJpFtTi+pgH3T4yC3zgRP+17Dq1LR2LjgiLsf7ccx96vw87lo7HqpWrsalKhp70EQWMFrNoX0NY8HSvnV2JnUzkOrqrD1qZarFlQDPOnFbCqp+N821ysW1IH/cYyOPTjcenADOxdXo+21zNwcUcuvLo8BA3Z0r/pjMJkAqC8w4AyiJRAIIABLcjW/Qi4riNwbTf8Z2fBbylGwJyFgDETAWMaAsZcBIyFCBhVCBjzEDBmI2Ck9XQEjMMQMKUobKh0TEtHutx4D7gGuAa4BrgGuAa4Bp5cA5kImNKlk7eLx2bhk6ZZePvlMdi5vA573huDtvfGo+29Cdi/cgTObymEq7McTsNU6FtmYO2iCmjX1OP+8RnwmJ7DfePLOLx+LtYuLMXZrYUQdJNhbnkW7/+9HO2fVOGBthEe80TYTDOh3vQcPnqlEOdbqyEYJ8OwYxben18M7foqODonwK2fistHX8aGFbPQNK8Kp7bkwaYdC23LHKyYNwXb327A5f2j4DBMxrWOF7H74+fQvKgS37RWSs9bNoxE6zIVzm+vh0M3FV7TDNzTvoL9a57DilfKcHkvfVt9DM7tmIu3XynGoTX16OmcAbexEdfaX8DuD6di25JcXPxyNM62vYB1SxqgXj8W3+6dgy/eHY8dTRX4YXc5vEb6qD0XAUMhAob8KMOZqKex2qQ5FRyn58Nz+zT8ohMB0Z/ghDIYhF+2QEBEQPgB/u/WwG+uh5+Oio05CJrypH9jEDQQ1ZYgaCiOfvxtko9LpZNK+ePvPh9508fi/L8ieQ+4BrgGuAa4BrgGuAaehgYIdNLgM2Xi0rFnsLbpWbzxwjisXVCDdYtq0Ly4Hs2LRmDj4nLoV+fAdqICv3TMwK6Pp2Ht6/U4v30K7rfPlE7y7nbOxam2ZVi7uBHtq4px/Ugjdq6chI8W1eLc7im4296I++3j0dPRiH/tW4A1C0fgyEdluNXxPFpXzcZni4pxfV85AroiBLRVEDpnoGPTXHy4uAanNufBqhsH/efP4JMlI2DeVAmXpgQBQy68xlqc2f0s1r1Rg5PNKtw/UY1bR+tx7UAlHJo6eA1j4NBMwi8dc3Fg7Wy8+fd6/NBWBLduigSYK1/JxKX9tfCbKiU49Bpq8PPRafhuZyVunmjAmT2z8fFrE7Dx7WnYsHwKNiypxbe7RsBrrEHATH/OiL5xnvgjbyVQBkQngmIAKX6/HwOa6EdAFOH3++B334T/9jGI5/8O0VQA0TAUfkMG/MYs+I30LaUS6TN/v6EEflO+PJ8Ov3Eo/MYUhdE9PZcpGz3PjfeAa4BrgGuAa4BrgGvgcTTAeCIdXlM2Lh6bic/efhYbl03ChX2NuN0+Dbfbp0h2t308BHU1vPpKXG9vRMv7jWh6uR6fLqxCyxtVaFlShS1LRmDt4mloenEs2poK8N2+57G+6Rm88fIYNL9ejy2vV6HltRpsfb0G6xePwcqXStG2PB2Xj8zE6iWzsH1JJR4cK4PfQB+vV0t/Juj0jhfw6ZIROL2RTijHw9wyCa3Ly/HtzjJ4DWUSB4nGdPxwYCI2Lm3A4fdLcfdYJVz6CbhyaDq6tkzB0TWT0LayAS1vVWLFq6Ox5G91+H53GQTtTLS8+yyaF+bgXnsV/OZi+M1Z8JuoL+Xwm4rhMtbiqz0v4K1/TMX8OePw2osjsGlpNS7vrYZorITfWAq/oQB+fT78hrwBGI1iqiCcng/37VPw+xzw+/zJAaWfAaXPCdF9FeKt/fCdfwkiQaCBQDEVflMB/MYiSDBJQGmkYtLhN6TCbxwShUlTCvySDYXflBHdKG1WMto4N94DrgGuAa4BrgGuAa6BwWpAZgljFryGYlw4Ohsb327EtqZq3DtOX3AhsMuCX58Nvz5HMtFQgp+PT0PrimlYPX8k9q0cjePN43Fs7WQcbZ6Ko83P4tCaKTjdUo0fDs/FuqXPYMX8ydj90VQcXT0RR1ZPxsHmSTjUPBEnm0fg7NYiXG2fiY+WzsS2JZVyXvrSTDlcxgk4vet5rF9aj1Mbc2DrHIuuzY3Y0VSPf++sgpdgzpQF0ZyLHw5Nx4Yl47D/3Ur8fGQs/rlzBjYtGYv3X67F2kX1aFlejSObGtHywRy8+bdK/LBLBbu2EZvebkTzglzcP1kLv5m+HFQE0ZwPr7EOHkMFHIY6fLVnNpa/OhGrFozBthWTsHZhNdo/Ksb9E5Xw61XR3uhoJKaj2qmvse+C5lSwn14A1+CB0g/RL8LnI3PD570O3+0jEM/PjhIwAaOJTiIL4DcUw28gsMyRvhnlNwyToZPBJI0ElOmyKcEytmh+/9sXyXvCe8I1wDXANcA1wDUQTwOiMRteQxV+PPKi9JHu5035uHd8OPy6IfDrhsKvo+sMaRT1Obh9Yjz2rhyP1iUluLynVPpTP15DBTyGMbivnonLByfj9vHxuNn+IlrfGY8NSyrx06ERcOuq4TaUwm6qxm3tJFw6MBI3j1fiVuc0tKycgY0LqnD1y5Hw6cshGkfArpsF3dY5aF5cg+6N2ejpHAv9ltnYuHQ8zmyrhltfCJ85Cy5zLb5qexGrF43F4Q+q8OOBRmx7txGr5zege8to9JwcCaexFnfNs3B4w1y8ObcC3+/KgUM/Gjs/moH3X87DlQN18BFMGrPgNJbi0tHJ6N6kwuW95TizewbWLq5Be3M9Lh9+DgdXN+KTReWwbCqFQ10MUZcpfWFJAm+DfOobByhFowq20/Ph+uUURK8Av1dEiiiKSNa8PhEenw9enxNez3WItw9APD8ToikHonEIRGMGREMxRIMKoiEHoj4boj4dooHWUhQ2FKIxFaKRxuHR54yZECXLkppAjeDGe8A1wDXANcA1wDXANZC8BrLhMdTg+8MvYX3TVLS8lY87x4dD1KVA1A2DqEuDqM2CqCU+yYFVWw/1+knYML8MhrXF+OVoGQRNOR50TIZh00y0vFGO7k9r8eDEbGg/nY4Vr5bi5IY83D1ZAodOhTuGOmhan8XaBeUwbSzEfe0E6D9/HmterYNu3Wjcb58Eu2Y6rh59Bbvfn4VV/6hE98Y83NdMRMfWuVi5eBwOrq7CjWPVsGnrcb19JvY3z8XaebU4vakWF/fPwMalk7DljQpc3FMPp7oONs0ofH/0WWx+pxHL5lTju1YVfPoqmLbNxsqXKqHfMBI9mlo4tGX4uX0yjnw2E9uW5eP7nSNxbsccbFhcA/0nlbBpJuLfX07H5mUj8PnSQlxqK4ZXRxw3DKIhYwAmI15TwXaKgLJbAkpxMEDpE0V4RREeMq8PXq8Louc6fLcOwHf2BfhMuRANqRD1Koj6QulFRWGS/u9+UqLWC5UMKAk0yWKhksEljfwHifeAa4BrgGuAa4BrgGsggQYMWfAZcuDR1+LSwTnY3jQGu5qycO94OkTdUIi6VIg6us6GqMuFqM+Ax1CMy4emYv/KCfhsYSUOftgA45ZGnFg3C82vjcHnb5bhws4GuNUTceXwLGx8dwo+WFSPA2vGw7htIo5uacRHr4/G5iWluHKAThobcO3os2h5ZyJWL6rHoTXjYNg8GYdWT8CHC0di1bwynN5EJ5SjoPv8WaxaPAZrXq/CgdUN6NwyHW1rZmLd62Nx6L1K3DpUgzsnn8GXq+iEshpHPqrBuZbR6No8Bbven4SPF03Euy9U4NuWPPg06bh5YqL0xaF1CyrR8ckIWDZPwpHmRnz6RgNOri7EnePj8M9dM7D59XKY1ufBpSuCTd0A89ZJ2PJaEXQfZaLnaDp8+iEQDcRl/TFYJnwGFWzd8+C81Q2fxw7R40v+hJKAUoJJOqWUgNIHn9cBn+sqfLf2wvf18/CZ6O885UPUl8pgmQZRL8Mkg0ppJMhMjZ5c9t5T8ekKG4iOE4iKQygHca4BrgGuAa4BroH/LQ0YMuHTZ8OjK8ftY9Ng3jAG3RtUsJ3MhKgfBlFPJ5Vp0se69NGuT5cGnyELTv0IXD00Ax1rJ6K1qRZbllWjZWkVDn1Ygh/ayiCoi6S/XenW1+Dy4Wk4smYCNi6rxafLyrHprQoc/qACF/eWw23Ig09XCGfnaFzYP036g+Wb3qzC1qVF2LeiEOpP63GiuRIXd+dD0NThh7YJ0HwyBupPx2L/qnpseasGW5pqoV5Xi58P1sKjK4NbX4fL+8fjyMcNaHmzEtuWlePLd0phWF+P8ztm4OCqevy4Iw9ezVB49Pm4enwWjjaPl0D48zfKsXNpJQzrqnDnWDmc+mJcPjgSmrWl+G5HvvQxO30Z6M6JUTi1qQZdzbn4ZV8WfATeEqMRh8XwliELIvU5HlD6fD4kY17po246maSPvGn0yuaE13UF3pv74T3/CrzGevh0JfDpyuDT5Uqk69OnwGcgGyrf05gqXw+BTzcMPv1Q+AxDZKPr4fBJRdN/cXDjPeAa4BrgGuAa4BrgGhhIAwSUGfDqsuHW1cCqHg9bRx28BI/6NPj0NNIJHJnsq8+U/q8OPfo6WDvH4sbRUfjPgXpcP1QHawd9O5s+Ts6AV58Grz4LXj39gfAxuHZoFC4dqMPVQ7WwqenP+RTBaxgOL0GqrhhufTUeqEfh6uERuHKgBneO18CuaYBVXQ+nphhefTGcmhoI6hEQtGNw9+Q4XDk0EtePjIC1owoeHR3QZcOnz4NHV4n7Jxtw5RD9vcp66c8IOTT1cOkb8KCjAY7OEnj1qVJ+j7EWPZpxuHa4Af/ZX4sbh+shdNbAZyyA15gJp74MPWr6E0RF8Bny4aM/VaQvgqOzBvaOWrg6y6T+ST3qj8GoZ3oVrN3z4JBPKH1uH1IegSEDxIFHn9cLsj7PeRzwOi/Dc2s/PF+/CvoHrV4dFVUIr344vPohslGzU+HVDYuONK8bKs/RmKKwVHill0gvkBvvAdcA1wDXANcA1wDXQH8aIMghS4dXR9xBMEYniwXyffqjdfIxEEiyZ2jMigKcIRu+XqM5ytfXj+6jQBqFUp+OfLKjfro06d8hPvIhkM2Q4kT/Y4C+NESAqpiTaqUDOBl4dbSHTHiluNHYj2qi+qJ1UW3sPzCkGvsA4KN9eA30zffofqVnpLi0p2gd1DOfjiCbepYj56a1aF9+ozmpNhWsXfPguNkFr9sGr9s7eKDsC5IeeL0eeDwueD098Dh/hOfmHnjOvQivoQFebQm8upwoOUtQSUBJjaKGM9AcGoVOCSw5UP7mxXGY5v9BwTXANcA1wDXANZBAAwrok4BHBiYdnViSEVDKoNYLiP3BaYJ5Fl+KSzyTJbOOMhfFoBooJ+UmQJNrkEYGa/JIMaV58suOxtPRSPNKS1BbQp0QqMpGcWkPUo3EZ8RltB8yBuAx+aS9ZsKjV6Gnax4EBpQuL1I8HgLCxze31w23BJROeNw98DguwnN9HzznF8FjGAGPVgWPLh0efQo8uuHw6OjfN2TCo0uDRzcEHj197j9cHlOifpJvKjy6DHh0Wdx4D7gGuAa4BrgGuAa4BhJogNiCjLiB+IHYgviD5ug+XbHO/B6XMVhMykExcuTYBFsZ8OjTFLnJN57Rc4p5iqOnLxVlR2NKddP649Y40HPKvFQzu6dnqE/KXsXEIV8CSss8CDe64HFZ4XF5ngwo3R6CyShQetwueNwOuF0P4Lb9AM+1fXCf/Qfc+nq5GQwoc+DRkmXDoyXAHCbbEHh05MNMBkqpwdRkbrwHXANcA1wDXANcA1wD/WlABiMJyAjqCPZojgCNRppjPv3FSHaexaGY9AzLwfKkPgLKpPiFxVOOydbyNPxYXhYr9l6el+A2E25dIR5Y5sF+wwK30wqP04MUt9uNJzFP7PMuB9yO+3Bbf4T76pdwnVkAl6EKbt0wuHWpcOuy4NYWwK0phFubDbc2DW7tMLi1KTFGvhlw67O48R5wDXANcA1wDXANcA0k0EAm3HqlEUPQ/R/FEbG5/+j8T7pPVv8AcSSGy4JbV4wHlvmw/2yBy9kDt9P95ED5Gxh1OeF22uB23oHb+h1c1/bBde4fcBtK4Namwq0dDrcmH8bpHKEAAAp6SURBVO7OouioIahMl6FyKNxaZsOjQKkjEubGe8A1wDXANcA1wDXANZCsBjL+JHaIzRt7n2z9f1E/bSbc2ky4dMW4b5kPGwGlowcuhxspLpcLT9cccDltcDmtcDnuwmX7Ea5re+E6+wpc+jK4tKlwabLg6lTB1VkIV2ceXJ1ZcGky4NKk9zVtBlzceA+4BrgGuAa4BrgGuAa4Bv4aGiBe0xJQzoPtOgNK1+8BlEIUKB12uBwCnI4eOO0X4ZROKgkqi2R4JJAsksEyFy5NtsIIMDOjfn0ElAkXkbE2HS5tmjxmKRrM5mizzDcWStk8PceuaWR+dE1rzJQ+7JqtxcZg62xM5Kdc7y/W0/KhmpSxWI3KUbmeTD3KZ2Ovn0aswcbor2aqTRkrtlZ2n8hHuf5XyBVbT381Kf3YXmPHRD7K9f7yUEylX2wOdv80fJQx2DWLrxzZGo3KeeX1YH36i6WMk4yPsgbltTKOcl55rfRJJlcyPsr4ymtlLuW88lrp81fL9XvXQ31Q7l/ZF3atXH9a9fQX53HqiRdLWTPbR7wxkZ9yPV6e2HqfxCc2VqJ6k8kVLwabU+6NzcWOiXyU68rrgeKQX+w63TN2UsZ5mtfEZVE2c2qKcM/yKqzXzXAKD+B0OJHidDrxdM0Bp1OQzQGHk6wHDutFOK7uhePMS3DqyuDUZMOpUcHZWQSnmsY8ODVKo/UMhWXCqcmRLQ1OzVA4OzPg1NIfB82FU0v+6dG5ziw4O7MVlglnJzOaz43mo5yS5cDZ+wzN5cvG1uONf1UfqitevX/Wvgbq00BrbA+D8Ulm78n4sNzxxmTqSabXycQZjM9A+/oj6xlMroFq/jP2nkw9A/kks/dkfP7IvfdTD/0u7v09kkw9/cTpjcHiJRMrkQ9bp5HFjTcyv3hrbC6RD1v/I3JRTSwfqy92ZOtPs56BYrF8sXUo7/8Mn79azU+rnkS9zIdTw0zBS8qfA3U+nOoCODVxrLMAzrhGeftbY/PKPRKLleKeeR56rhkhCPcl1nvKQEkw6YDTETWHwwEygUwgqLwAx5Uv4TzzMpy64ugPj7oIzo5iONX0f1ekLJwKJmCUTcOAksBxOJzqIXBqSuA0PwOnaQqcxglwGkfDaRgNp34MnPqxcBrGyUbXZDRPNg5O/YSoGSbAKdl4OA3j4dSTyWtslNYnwmkgi1nrzyeeX28cljNOrF6fQeRiNSjH3jiDyDVgzYOoJ5k4T8tHuWd2Le2d9i3X/Li5KJ4U4wnj/F71sP0qx98r1+P28C9dz0CaprVE7z2BPpLee0wc5ftk14l0SH6JfPrUk2DvxgH2Hi9XrD765KLa+vtdF1M3269yTLSvQdcz0N4fo55+96boYaxPn/78CfUo+yv1T35HUl2KuuP60XoyPoqYieLErvfWpMgV10exznoa6xe7J7rv10feV+w63ffGecp7V9Yj5ZBz0c+gZCw3myfWYRbj08svrC+T4DRMhtNAIxmbV45sjY1sjd3T8ywGrU2S6nIYp+Pe6Xfx4HoX7Pa7EBwCUhj0/W6j4IBDECAINgjCXTge/BvCf3ZCOD0HDm0FHOoCONSFstG1KjrXmQOHJgMOrWydmXB0ZkXnaL4zBzbzbNi/2wrhxx0QLnwB4eIX0ZGuL9BcrMVfd1zYAbLf+j+aS7ROzyYbJ1GsROuDyTXQnv64ONG+P83+JOoRz/VIu/E08N/YH6bXePthc8ns68njsN8jyf3eSKTVZOr5I33+mB4+0ud/W38G8y4S7S3ROsuVyC/ReuI4j35Hk+9ARrkS5UvWZ6A8iWuO1pmolj8jTqKaBuzPxR0QHtfisI/jws4k2GQnhAtk8d49W6M4StuNnp/a0XP3ImxCDwSH/Y8CSrsMlFY47Hcg3P8WwqVWOE6/CIemFA51DhzqPBkkCSrzo3MEjpIRTBJEkqVFwbKzBPe/ehfWW/+C/f5V2Ht+hs16CzbbLdgluwm7NbEJ1ptwyEbX8Z5hPjQm8qFY8WLQHItDPoni9Lf+Z8bpr6bB7CuZvXOf/jVEvflf7I9S90+iw//GOMnU/DR9EmksmVzJ/E5IJo7d9uj3Zn/vPak4it+/f2ScZH5Wk6nnrxiH+h7Pknn3zOe/de/91c32lcz7iudjo57a4puN5hk79OPD3gfVwYzyMGNzvSP9fMk/Y9Icu483KuI4rDcgWIm5bsJqfwCrQ4D9dz+hFITo6aTdBsFug8NuhUN4AMF+G8K9f0H4aQeEU3RSWQ6HOhsOdZZ08hgFTLpWAKU6Aw7J0uBQp8PRkY+7X61Ez91rsFt7YLfbYLPZYRPssNuFPibYBAg0Z4sxe3TeIY/kI/kq/KQ52oc9avF8KB/NSz5yrtg4Sh8pRoJc/fmwOFK+ZHLF+FBdrA+CvK/+cknzsXuX62YxkqpHrkHqM6snNg7NJ6iH5erzLmLj0L1sDpaLRtlY3b25YnzYupRrMHtX5FX2mNUc730p/XrrYXFi6u0Th/nQqHifcX362zt9ahCzd2Wsp15PMrlifPq8C/bzNZi9y/3psy+aU+qsv/6wZ9mo7DNd07zyd4LsF1tzPJ+49cTsvddHzhMvjjJXf/X0xmHxE+2d9kQ+zD9Of/rLpayH6o1X8+PU0xsnpiYpn/y7vteH9Uuum9Uk1aPcu/y+BltPn70r6mF5aL2Pz5PWw3SvyKWsOZlckk+ivcvxpd/R/dSszBWrD+X+n9q7GMzeY/qj7FGfn/cE7713/xRP+TPPekI1xeSKu/f+fGg+zrugGDZFPkmvipzUe5sQ9aG6YtfpvrcOmx0CmSCb3Q5Bskc/k+x/Q6WfdYf8M6/Ix+L3+inWHIIdDoonEG/ZYBXsElDaCChpc7+rSRuJAqVgtyJqPRBst2G/93+wX/ocwum5EDTFENRpENTDIajTIagzIKgzIXRmQeika2a0lgahIx13T69Az72fYbNZZbNJYEnN7zVqPnsB7DreyBoWuxY7T/exPnQf6xfrw9b7e575Mz92H29M5JNoncVM5Be7TvfsWeUY66dcY9fKZ5XXbJ3GZOP09zyL9XvE6S/nYHM9rThsr7HjYOuJfZ7d8zjxtc76Q6PyXSqvmc9gexgvBsvT39rj5mLPxY6DrTn2eXbP4wysn2T6Q71U+tE16y8bletsLt6YjJ8yvvJaGS9RnETrLFYyfol8Eq0nm+svEocBYe87ZnXJo8Q0bE80xqyz5+w2OlSTIZKg0h69p+d/84yS/5TcFM+XzdEzdE2AK0ElgWUUeH9XoLRLp4UM8hRQabNCsPXAbv0FNoLKn76AvXsOBE2ZDJOp8pgJoSMbgjoret/JQJOAMu0RUNploLRHc/2maawRfPytoHhPeE+4BrgGuAa4BrgG/ns1wE4le+FRAZTEYYLQawMdIPYexMn+A/nSWq+/DKO/O1DSkWgfk+HPbrNGP6qmf/d49xvYL2yDveslCJ3lEixGTyozIHTkyFA5HMJAQGm3yqeTBK5xSJzP8b5wDXANcA1wDXANcA38/6YBqy36MTf7RFj6EjR9Edoa/f6KDHw2+aNzAkwlLDLgpHUGiewUUun3m2t2Yir38/8BQNxyDO6jjQ4AAAAASUVORK5CYII=;" vertex="1" parent="1">
          <mxGeometry x="60" y="20" width="660" height="354" as="geometry" />
        </mxCell>
      </root>
    </mxGraphModel>
  </diagram>
</mxfile>
